<svg xmlns="http://www.w3.org/2000/svg" width="16.814" height="11.932" viewBox="0 0 16.814 11.932">
  <path id="Path_1476" fill="#000000" data-name="Path 1476" d="M7.752,8.364a4.051,4.051,0,0,0-.549-1C6.293,6.506,5.348,5.677,4.4,4.857S2.444,3.262,1.509,2.425A3.468,3.468,0,0,1,.756,1.356,1.032,1.032,0,0,1,1.918.02,3.225,3.225,0,0,1,3.154.528C5.458,2.255,7.838,3.9,9.49,6.289c.551.794,1.352,1.427,1.977,2.18a1.548,1.548,0,0,1-.38,2.486c-2.67,1.855-5.373,3.669-8.077,5.481A1.984,1.984,0,0,1,2,16.813a2.222,2.222,0,0,1-1.283-.3,1.966,1.966,0,0,1,.348-3.26c1.85-1.126,3.677-2.291,5.463-3.506A7.336,7.336,0,0,0,7.752,8.364Z" transform="translate(16.814) rotate(90)" />
</svg>
