<svg xmlns="http://www.w3.org/2000/svg" width="182.109" height="84.466" viewBox="0 0 182.109 84.466">
  <path id="Контур_2821" data-name="Контур 2821" d="M431.956,398.157c-1.795,21-3.139,38.882-28.158,41.915-10.163,1.009-20.429-.452-30.623.2-24.669.825-49.257,4.276-73.959,2.047-11.163-.47-22.341-3.464-32.967-6.66-3.83-.375-10.95,1.758-14.548.731-2.973-.638-1.6-2.441-.623-4.093.813-1.987,2.6-3.109,2.833-5.335.631-1.122.353-2.7.337-3.865-.035-2.6.048-5.543-.113-7.924-.264-3.879.728-6.655.739-10.56.009-3.068-.475-6.96-.469-10.295.578-7.664,3.257-15.472,9.229-20.652,14.732-17.278,34.352-12.953,54.545-15.076,12.358.146,24.7-.092,37.08.334,10.366.141,20.76-.34,31.1.88,14.47,1.549,34.968-.591,41.19,15.9A50.244,50.244,0,0,1,431.956,398.157Z" transform="translate(-249.894 -358.592)" fill="#fff"/>
</svg>
