<svg xmlns="http://www.w3.org/2000/svg" width="17.433" height="17.433" viewBox="0 0 17.433 17.433">
  <g id="Сгруппировать_1298" data-name="Сгруппировать 1298" transform="translate(148.739 173.519) rotate(45)">
    <path id="Path_1476" data-name="Path 1476" d="M-222.948-19.59c1.2-.006,2.461.408,4.314.435,1.657.091,3.322.117,4.988.129s3.337-.063,5-.021a4.6,4.6,0,0,1,1.676.433,1.367,1.367,0,0,1,.449,1.88,1.367,1.367,0,0,1-.476.465,4.273,4.273,0,0,1-1.683.547c-3.8.229-7.623.609-11.335-.382-1.243-.334-2.592-.284-3.871-.511-1.13-.079-1.991-.646-1.894-1.774C-225.706-19.263-224.143-19.583-222.948-19.59Z" fill="#fff"/>
    <path id="Контур_2594" data-name="Контур 2594" d="M-214.042-17.421c-.054-3.327.284-4.718.331-8.116a4.378,4.378,0,0,0-.08-1.164,1.5,1.5,0,0,0-2.1-1.2c-.627.221-.925,1.778-1.128,2.509-.54,2.928-.367,8.64-.251,13.63-.015.27.181,2.7.216,2.937a1.81,1.81,0,0,0,1.844,1.783c.984,0,1.515-2.246,1.5-3.885S-213.954-16.523-214.042-17.421Z" fill="#fff"/>
  </g>
</svg>
