<svg id="Сгруппировать_1031" data-name="Сгруппировать 1031" xmlns="http://www.w3.org/2000/svg" width="129.069" height="70.151" viewBox="0 0 129.069 70.151">
  <path id="Контур_2509" data-name="Контур 2509" d="M471.625,77.914c.979,0,1.351-.007,1.724,0a12.055,12.055,0,0,0,3.321-.372,14.609,14.609,0,0,1,2.463-.5,2,2,0,0,0,1.2-.651.867.867,0,0,1,1.033-.071,2.4,2.4,0,0,1,.473.3,6.971,6.971,0,0,0,3.894,1.376,15.681,15.681,0,0,0,3.9-.133c.184-.031.372-.047.551-.093a6.87,6.87,0,0,1,3.32-.034,11.22,11.22,0,0,0,3.338.163c.372-.026.743-.071,1.111-.121a14.833,14.833,0,0,1,4.455.007,1.689,1.689,0,0,0,1.474-.637,1.535,1.535,0,0,0,.327-.45,1.548,1.548,0,0,1,1.877-.82c1.106.156,2.219.28,3.314.5s2.2.387,3.29.627a18.929,18.929,0,0,0,3.609.331,6.362,6.362,0,0,0,2.187-.383,4.518,4.518,0,0,0,2.276-1.537,2.435,2.435,0,0,1,.37-.417.855.855,0,0,1,.77-.2,3,3,0,0,1,.524.189,16.552,16.552,0,0,0,6.211,1.478c.836.045,1.673.142,2.508.125,1.49-.03,2.977-.127,4.465-.2.465-.023.928-.083,1.394-.092a8.882,8.882,0,0,0,2.479-.375,1.969,1.969,0,0,1,2.044.551,7.085,7.085,0,0,0,.648.532,1.621,1.621,0,0,0,1.324.284,34.3,34.3,0,0,1,3.575-.63,3.82,3.82,0,0,0,1.053-.348c.513-.219,1-.5,1.519-.7a3.335,3.335,0,0,1,1.924-.169c.819.178,1.629.4,2.441.61a4.654,4.654,0,0,0,1.942.084,24.142,24.142,0,0,0,2.457-.531c1.256-.351,2.506-.728,3.736-1.156a6.408,6.408,0,0,0,3.346-1.934,2.679,2.679,0,0,0,.377-.409,2.039,2.039,0,0,0,.283-.48,8.7,8.7,0,0,0,.615-2.713,12.756,12.756,0,0,0-.118-2.788c-.259-1.468-.5-2.939-.769-4.4a9.877,9.877,0,0,0-1.846-4.324,1.018,1.018,0,0,1-.141-1.048,2.8,2.8,0,0,0,.129-1.377,42.74,42.74,0,0,0-.881-6.638,2.624,2.624,0,0,1-.093-.551A34.126,34.126,0,0,0,562.028,42c-.142-.635-.2-1.288-.33-1.928-.485-2.467-1.125-4.9-1.687-7.351a7.746,7.746,0,0,1-.446-1.9c-.245-1.375-.394-2.766-.741-4.123-.321-1.263-.577-2.541-.9-3.8a9.689,9.689,0,0,0-1.249-3.094,3.864,3.864,0,0,0-.552-.62.37.37,0,0,0-.493-.016.407.407,0,0,0-.164.22,1.166,1.166,0,0,0-.036.544c.465,1.419.68,2.9,1.089,4.33.436,1.525.656,3.1,1,4.641s.542,3.119.824,4.675c.149.825.337,1.643.514,2.463a8.4,8.4,0,0,1,.249,1.087c.13,1.679.634,3.293.827,4.961.064.552.233,1.092.35,1.638a28.915,28.915,0,0,1,.671,3.852,9.9,9.9,0,0,0,.207,1.38,27.762,27.762,0,0,1,.464,3.6c.054.649.142,1.294.22,1.941a1.756,1.756,0,0,1-.1.821A1.905,1.905,0,0,1,560.6,56.49a6.7,6.7,0,0,1-1.907.405,3.635,3.635,0,0,0-1.788.736c-.454.324-.87.7-1.314,1.04a5.324,5.324,0,0,1-1.984,1c-.361.089-.717.2-1.075.3a2.4,2.4,0,0,1-1.884-.262c-.244-.135-.487-.276-.721-.428a9.282,9.282,0,0,1-2.408-2.309,2.643,2.643,0,0,1-.261-.492,1.721,1.721,0,0,1-.093-1.355,9.571,9.571,0,0,1,.453-1.016c.465-.913.926-1.828,1.42-2.725a10.943,10.943,0,0,0,.8-2.084,5.172,5.172,0,0,0,.214-1.373c.036-1.208-.079-2.415-.023-3.623a2.981,2.981,0,0,0-.089-.829c-.246-.994-.463-2-.783-2.971a35.679,35.679,0,0,1-1-4.355,19.238,19.238,0,0,1-.2-1.943c-.128-1.391-.217-2.782-.455-4.165a20.962,20.962,0,0,1-.228-4.458c.04-.931.077-1.862.122-2.792a10.952,10.952,0,0,0-.237-2.778,3.089,3.089,0,0,0-.563-1.265.964.964,0,0,0-1.7.751c.153.633.312,1.262.46,1.9a5.5,5.5,0,0,1,.085,2.762,22.9,22.9,0,0,0,.063,5.568,30.66,30.66,0,0,1,.354,4.174,43.76,43.76,0,0,0,.679,4.977,3.041,3.041,0,0,0,.24.8,23.724,23.724,0,0,1,1.008,3.484,9.983,9.983,0,0,1,.328,3.321c-.031.465-.052.93-.086,1.394a6.624,6.624,0,0,1-.8,2.658c-.439.821-.871,1.646-1.34,2.451-.332.568-.52,1.194-.794,1.782a2.12,2.12,0,0,0,.24,2.117,13.548,13.548,0,0,0,3.677,4.153,5.4,5.4,0,0,0,2.77,1.21,1.078,1.078,0,0,1,.524.164.7.7,0,0,1,.29.435,4.815,4.815,0,0,1-.217,1.654,3.9,3.9,0,0,1-3.219,2.736,2.95,2.95,0,0,1-.835-.016,24.93,24.93,0,0,1-5.091-1.469,1.805,1.805,0,0,1-.242-.139,1.242,1.242,0,0,1-.587-.9,10.41,10.41,0,0,1-.07-1.114q-.049-.977-.1-1.954a4.361,4.361,0,0,0-.547-1.863c-.4-.737-.82-1.461-1.249-2.181a2.032,2.032,0,0,0-.839-.716,3.789,3.789,0,0,0-2.439-.4,27.569,27.569,0,0,0-2.736.557,7.96,7.96,0,0,1-1.915.349,8.438,8.438,0,0,0-2.19.41,5.238,5.238,0,0,0-2.388,1.382c-.388.4-.807.775-1.184,1.186a3.226,3.226,0,0,1-1.13.8c-.171.073-.346.137-.517.212a3.535,3.535,0,0,0-1.321,1.005c-.178.216-.341.444-.528.652A.889.889,0,0,1,521.828,63c-.246-.395-.468-.8-.72-1.2a3.866,3.866,0,0,0-1.7-1.406,9.264,9.264,0,0,0-2.111-.723c-.55-.1-1.1-.22-1.643-.339a11.418,11.418,0,0,0-3.617-.049,3.559,3.559,0,0,0-.543.127,18.331,18.331,0,0,0-2.4.762,2.516,2.516,0,0,0-1.281,1.023c-.047.08-.086.165-.136.243a1.854,1.854,0,0,1-.832.719,4.09,4.09,0,0,1-.517.206,4.084,4.084,0,0,0-2.394,1.815c-.255.388-.515.774-.775,1.159a.712.712,0,0,1-.767.144c-.248-.129-.5-.26-.733-.407a2.224,2.224,0,0,0-1.044-.366,43.942,43.942,0,0,0-6.143-.029,13.442,13.442,0,0,0-2.736.534,7.481,7.481,0,0,0-.8.259,10.729,10.729,0,0,1-4.072.873,1.426,1.426,0,0,0-.989.457,8.424,8.424,0,0,1-1.027.94c-.905.656-1.838,1.272-2.757,1.908a2.735,2.735,0,0,1-2.893.366,4.453,4.453,0,0,0-1.359-.305,11.857,11.857,0,0,0-4.171.146,26.141,26.141,0,0,1-3.865.579,5.908,5.908,0,0,0-3.328,1.312,3.86,3.86,0,0,1-1.732.846,6.823,6.823,0,0,0-1.318.451,2.551,2.551,0,0,0-.706.44,10.267,10.267,0,0,0-1.533,1.622,1.018,1.018,0,0,0,.295,1.447,2.611,2.611,0,0,0,.246.129,12.924,12.924,0,0,0,3.813.794c1.116.042,2.226.156,3.337.3A26.134,26.134,0,0,0,471.625,77.914Zm69.114-9.506a4.147,4.147,0,0,1,0,.589c-.047.926-.079,1.855-.172,2.776a2.107,2.107,0,0,1-1.248,1.728,5.583,5.583,0,0,1-2.116.643,13.916,13.916,0,0,0-1.938.19,12.878,12.878,0,0,1-3.6.112c-1.111-.07-2.22-.167-3.335-.193a6.612,6.612,0,0,1-1.916-.313c-.706-.231-1.414-.453-2.114-.7a4.007,4.007,0,0,1-.751-.359,2.493,2.493,0,0,1-1.3-2.028,18.783,18.783,0,0,1,.27-4.159,3.627,3.627,0,0,1,.6-1.547c.432-.6.847-1.223,1.327-1.787a4.323,4.323,0,0,1,3.1-1.668c.185-.01.367-.057.551-.076a.891.891,0,0,0,.666-.44,4.221,4.221,0,0,0,.244-.5,1.764,1.764,0,0,1,1.031-.877,3.727,3.727,0,0,1,.8-.219,12.522,12.522,0,0,0,2.733-.492c1.194-.162,2.387-.342,3.585-.478a3.4,3.4,0,0,1,1.637.252,2.284,2.284,0,0,1,1.212,1.1c.17.326.267.69.413,1.031a4.1,4.1,0,0,1,.27,1.91,2.877,2.877,0,0,1-.056.553,6.355,6.355,0,0,0-.036,2.486C540.668,66.583,540.671,67.235,540.738,68.409Zm1.687,2.932h.021c.025-.65.045-1.3.079-1.95.009-.184.064-.366.086-.549a.915.915,0,0,1,.824-.623,11.494,11.494,0,0,1,1.632.342,11.474,11.474,0,0,0,3.847.555,4.194,4.194,0,0,0,3.913-1.723,4.915,4.915,0,0,0,.621-.917,9.521,9.521,0,0,0,.652-1.535,10.237,10.237,0,0,1,2.211-3.829c.259-.263.446-.594.681-.882a2.462,2.462,0,0,1,1.138-.771,6.768,6.768,0,0,1,3.847-.1,1.323,1.323,0,0,1,.868.654,10.266,10.266,0,0,1,1.062,2.86,30.841,30.841,0,0,1,.479,3.311c.058.648.084,1.3.165,1.944a6.428,6.428,0,0,1-.149,1.935,2.505,2.505,0,0,1-1.478,1.9,5.534,5.534,0,0,1-.5.238c-1.655.613-3.3,1.242-5.009,1.711a7.874,7.874,0,0,1-.814.192,5.343,5.343,0,0,1-2.75-.148c-.611-.221-1.247-.375-1.871-.558a3.292,3.292,0,0,0-1.654-.056A12.08,12.08,0,0,0,547.9,74a12.627,12.627,0,0,1-4.343.9.972.972,0,0,1-.891-.563,2.477,2.477,0,0,1-.337-1.335C542.341,72.453,542.392,71.9,542.425,71.341ZM512.831,61.157a12.138,12.138,0,0,1,2.464.161c.726.161,1.462.285,2.178.48a6.25,6.25,0,0,1,2.46,1.267,2.026,2.026,0,0,1,.485.669,2.592,2.592,0,0,1,.068,2.164c-.178.43-.386.847-.572,1.273a3.441,3.441,0,0,0-.219,1.916c.1.644.245,1.279.344,1.922a3.069,3.069,0,0,1-.106,1.382c-.111.354-.249.7-.389,1.045a2.287,2.287,0,0,1-1.118,1.2,4.436,4.436,0,0,1-1.3.471,12,12,0,0,1-4.166-.045c-1.821-.376-3.626-.827-5.46-1.146a6.382,6.382,0,0,1-.8-.239,1.739,1.739,0,0,1-1.02-.9,5.717,5.717,0,0,1-.751-2.657c0-.838,0-1.675-.013-2.513a6.17,6.17,0,0,1,.516-2.442,2.292,2.292,0,0,1,1.823-1.544,2.085,2.085,0,0,0,.544-.118,2.741,2.741,0,0,0,.7-.435,3.8,3.8,0,0,0,.5-.666,2.74,2.74,0,0,1,2.127-1.167C511.674,61.184,512.234,61.182,512.831,61.157ZM496.97,66.67V66.7c.651.022,1.3.043,1.954.066.372.014.746.012,1.115.05a2.216,2.216,0,0,1,1.774,1.2,4.989,4.989,0,0,1,.25.5,11.09,11.09,0,0,1,.62,6.3,1.017,1.017,0,0,1-.79.692,12.216,12.216,0,0,1-1.669.106,16.5,16.5,0,0,0-2.5.079,10.606,10.606,0,0,1-3.059-.071,14.01,14.01,0,0,0-5.544.029,11.113,11.113,0,0,1-4.706-.147,2.724,2.724,0,0,1-1.015-.443,18.044,18.044,0,0,1-1.921-1.61,1.286,1.286,0,0,1,.083-1.97c.363-.289.769-.523,1.14-.8a10.025,10.025,0,0,1,1.849-1.245c.676-.3,1.372-.57,2.074-.812a14.214,14.214,0,0,1,1.613-.437,22.054,22.054,0,0,0,3.225-.891,10.676,10.676,0,0,1,3.558-.612C495.667,66.656,496.319,66.67,496.97,66.67ZM471.6,75.843c-1.545,0-2.477-.006-3.408,0a11.751,11.751,0,0,1-4.087-.775.335.335,0,0,1-.238-.446c.062-.157.177-.365.313-.409a14.346,14.346,0,0,1,1.885-.5,4.381,4.381,0,0,0,1.794-.725,3.74,3.74,0,0,1,2.11-.631,22.209,22.209,0,0,0,3.607-.381,11.085,11.085,0,0,1,2.782-.2,7.265,7.265,0,0,1,1.372.22,1.644,1.644,0,0,1,.17,3.131c-.814.191-1.632.375-2.452.545a4.841,4.841,0,0,1-.832.087C473.412,75.8,472.2,75.829,471.6,75.843Z" transform="translate(-446.267 -15.08)" fill="#fff"/>
  <path id="Контур_2510" data-name="Контур 2510" d="M517.892,80.737c-2.359.118-4.5.214-6.644.182a10.413,10.413,0,0,0-2.223.207,10.291,10.291,0,0,1-3.887,0c-.641-.117-1.288-.206-1.936-.273-1.111-.115-2.225-.2-3.324-.43a12.1,12.1,0,0,0-2.5-.195c-1.3.006-2.609.017-3.913.006a20.81,20.81,0,0,1-3.891-.335,19.941,19.941,0,0,0-5.013-.223,6,6,0,0,0-1.37.255c-.8.24-1.59.525-2.38.807q-1.052.374-2.092.782a8.918,8.918,0,0,1-3.009.551,13.738,13.738,0,0,1-3.341-.212,40.692,40.692,0,0,1-4.648-.955,16.523,16.523,0,0,1-2.662-.836,7.08,7.08,0,0,0-2.746-.383,19.757,19.757,0,0,0-2.492.31c-1.094.221-2.205.358-3.31.523a2.175,2.175,0,0,1-.557.012c-.925-.107-1.851-.212-2.773-.345a2.719,2.719,0,0,1-1.263-.565,4.944,4.944,0,0,1-1.3-1.448,1.853,1.853,0,0,1-.09-1.865,5.28,5.28,0,0,1,1.368-1.744,14.249,14.249,0,0,1,2.558-1.691,11.774,11.774,0,0,1,4.341-1.843,16.375,16.375,0,0,1,4.424-.541,6.083,6.083,0,0,0,2.456-.449c1.38-.564,2.833-.916,4.228-1.441a10.774,10.774,0,0,1,1.349-.355,28.157,28.157,0,0,1,3.3-.557,32.39,32.39,0,0,1,3.326-.381,11.5,11.5,0,0,0,2.756-.407c.99-.255,2.008-.4,3.011-.609.638-.13,1.266-.3,1.893-.483a10.1,10.1,0,0,0,3.939-2.03,8.486,8.486,0,0,1,2.409-1.39q2.326-.959,4.646-1.929c.43-.179.853-.374,1.276-.568.254-.118.492-.274.754-.368a76.152,76.152,0,0,1,8.687-3.052c.723-.165,1.426-.433,2.131-.671a22.614,22.614,0,0,1,3.233-.878,12.985,12.985,0,0,0,1.349-.355c.983-.289,1.961-.6,2.945-.88a7.6,7.6,0,0,1,1.358-.316c1.674-.156,3.3-.609,4.958-.838.921-.127,1.835-.317,2.769-.355a4.335,4.335,0,0,0,.833-.1,24.781,24.781,0,0,1,4.718-.48c.465-.021.931-.037,1.394-.08a3.494,3.494,0,0,0,.821-.156,26.971,26.971,0,0,0,3.642-1.421,7.836,7.836,0,0,0,2.029-1.463,5.719,5.719,0,0,0,1.025-1.319c.26-.494.543-.977.782-1.482a2.264,2.264,0,0,0,.222-.8c.048-.742.066-1.489.069-2.233,0-1.118.054-2.243-.045-3.352-.125-1.39-.348-2.774-.594-4.148a23.749,23.749,0,0,1-.389-2.763,9.543,9.543,0,0,0-.383-1.914c-.735-2.7-1.143-5.469-1.71-8.2-.169-.817-.163-1.668-.276-2.5a4.037,4.037,0,0,0-.7-1.8.706.706,0,0,0-.969-.137.683.683,0,0,0-.23.493,3.789,3.789,0,0,0,.032.831,30.279,30.279,0,0,1,.516,3.027c.1.831.339,1.641.466,2.469.2,1.29.559,2.548.7,3.848a4.2,4.2,0,0,0,.183.818,31.155,31.155,0,0,1,1.069,5.19c.076.555.136,1.107.19,1.664.1,1.019.193,2.042.364,3.051a29.456,29.456,0,0,1,.221,4.739,2.034,2.034,0,0,1-.3,1.065c-.289.478-.587.951-.9,1.412a4.16,4.16,0,0,1-1.682,1.432c-.085.04-.168.082-.254.119-3.235,1.415-2.569,1.559-6.407,1.562a18.588,18.588,0,0,0-3.334.322c-1.556.288-3.123.524-4.693.729-1.2.158-2.389.39-3.57.664-1.813.421-3.639.785-5.422,1.333a9.229,9.229,0,0,1-1.358.318,15.078,15.078,0,0,0-2.695.727c-1.675.577-3.378,1.05-5.069,1.572a28.391,28.391,0,0,0-2.9,1.022,8.113,8.113,0,0,1-1.58.55,13.773,13.773,0,0,0-3.138,1.158c-.841.4-1.694.767-2.553,1.125a38.859,38.859,0,0,0-6.217,3.165,13.225,13.225,0,0,1-4.918,1.9c-.641.115-1.271.284-1.907.428a31.791,31.791,0,0,1-4.133.655,46.4,46.4,0,0,0-6.882,1.152,28.84,28.84,0,0,0-5.528,1.937,5.076,5.076,0,0,1-1.869.531,33.542,33.542,0,0,0-3.866.584,9.613,9.613,0,0,0-4.664,1.717q-1.693.98-3.388,1.957a2.142,2.142,0,0,0-.794.769c-.472.8-.962,1.6-1.361,2.438a2.59,2.59,0,0,0,.017,2.175,6.323,6.323,0,0,0,.722,1.189,9.764,9.764,0,0,0,2.029,1.907,2.589,2.589,0,0,0,.755.352,9.789,9.789,0,0,0,3.578.516,25.723,25.723,0,0,0,5.272-.518,5.288,5.288,0,0,1,2.762.123,12.778,12.778,0,0,1,2.628.931,3.719,3.719,0,0,0,1.319.443c1.942.236,3.84.742,5.783.975.555.066,1.109.137,1.666.176a10.871,10.871,0,0,0,4.625-.9c.958-.363,1.913-.734,2.88-1.073a8.963,8.963,0,0,1,1.349-.349,7.575,7.575,0,0,1,2.494-.115c1.38.2,2.783.248,4.157.523a11.587,11.587,0,0,0,2.226.171c1.49.008,2.981.009,4.472.031a25.234,25.234,0,0,1,4.441.425c1.549.3,3.137.416,4.712.58a7.861,7.861,0,0,0,1.394-.023c.835-.065,1.668-.169,2.5-.235.557-.043,1.116-.059,1.674-.073,1.77-.044,3.539-.076,5.309-.127a9.948,9.948,0,0,0,1.669-.129,18.491,18.491,0,0,1,3.621-.221c1.49-.008,2.978,0,4.468-.109a18.607,18.607,0,0,1,2.791.027q3.621.288,7.234.663c1.667.171,3.326.405,5,.5a19.929,19.929,0,0,1,4.131.673,12.93,12.93,0,0,0,2.189.425,7.472,7.472,0,0,1,1.1.162,14.275,14.275,0,0,0,5.28.144c1.571-.2,3.142-.38,4.723-.489a6.266,6.266,0,0,0,1.107-.137,18.885,18.885,0,0,1,3.045-.389,15.827,15.827,0,0,0,5.9-1.577c.332-.169.662-.346,1.008-.481a10.5,10.5,0,0,0,3.206-2.2,8.294,8.294,0,0,0,2.325-3.759,38.812,38.812,0,0,0,1.213-5.736,5,5,0,0,0,.05-.836c-.035-1.771-.048-3.541-.135-5.309-.041-.832-.241-1.655-.349-2.486a9.948,9.948,0,0,0-.558-2.443,9,9,0,0,1-.421-1.62,24.018,24.018,0,0,0-1.109-3.745,31.717,31.717,0,0,1-1.007-3.2,7.251,7.251,0,0,1-.236-1.09,27.462,27.462,0,0,0-1.32-5.7c-.559-1.778-1.082-3.565-1.516-5.376a15.89,15.89,0,0,1-.627-3.569,3.752,3.752,0,0,0-.163-1.1,13.22,13.22,0,0,1-.466-3.311,10.225,10.225,0,0,0-.1-1.393,53.713,53.713,0,0,1-.541-6.68,14.987,14.987,0,0,1,.035-1.952,14.256,14.256,0,0,0-.478-4.428,1.49,1.49,0,0,0-.651-.873.557.557,0,0,0-.851.323,7,7,0,0,0-.1,1.109,16.011,16.011,0,0,0,.168,1.666,10.067,10.067,0,0,1,.051,2.506,21.371,21.371,0,0,0,.138,4.74c.1.832.217,1.665.259,2.5a41.847,41.847,0,0,0,.8,5.807,11.855,11.855,0,0,1,.288,1.648,38.552,38.552,0,0,0,.684,4.415,13.354,13.354,0,0,0,.7,2.409,30.929,30.929,0,0,1,1.144,4.028c.12.545.232,1.094.305,1.646a26.863,26.863,0,0,0,1.526,6.227c.74,1.913,1.181,3.921,1.82,5.868.144.443.282.888.395,1.339a11.628,11.628,0,0,1,.281,1.363c.168,1.292.192,2.6.327,3.894a9.263,9.263,0,0,1-.027,1.951c-.109,1.019-.225,2.035-.313,3.057a12.435,12.435,0,0,1-1.638,5.009,3.57,3.57,0,0,1-.672.884,10.6,10.6,0,0,1-2.713,1.945c-.676.313-1.347.642-2,1a7.333,7.333,0,0,1-2.382.764c-.551.087-1.111.12-1.667.177-1.019.106-2.031.231-3.039.436-1.367.28-2.753.476-4.14.629a48.039,48.039,0,0,1-5.586.139,12.715,12.715,0,0,1-3.588-.5c-.445-.133-.917-.181-1.36-.32a10.575,10.575,0,0,0-2.192-.417,9.244,9.244,0,0,1-1.11-.121,25.64,25.64,0,0,0-4.166-.4,8.458,8.458,0,0,1-1.664-.155,17.116,17.116,0,0,0-3.325-.367c-1.673-.1-3.352-.1-5.016-.36a10.089,10.089,0,0,0-3.065.024,21.594,21.594,0,0,1-3.067.17C521.213,80.687,519.443,80.717,517.892,80.737Z" transform="translate(-448.354 -15.549)" fill="#fff"/>
</svg>
