<svg xmlns="http://www.w3.org/2000/svg" width="119.388" height="119.388" viewBox="0 0 119.388 119.388">
  <g id="Сгруппировать_1034" data-name="Сгруппировать 1034" transform="translate(53.427 119.388) rotate(-135)">
    <path id="Контур_2518" data-name="Контур 2518" d="M118.564,207.185a8.013,8.013,0,0,0,2.432-.421,25.058,25.058,0,0,0,5.352-2.722,9.267,9.267,0,0,0,1.357-1.131c1.256-1.246,2.523-2.486,3.722-3.785,1.519-1.648,2.978-3.35,4.459-5.031a6.339,6.339,0,0,0,.663-.828c1.312-2.1,2.938-3.989,4.228-6.111a23.535,23.535,0,0,1,2.533-3.4A16.322,16.322,0,0,0,145,181.488c1.553-2.514,3.412-4.805,5.161-7.176a11,11,0,0,0,1.044-1.422c1.079-2.111,2.622-3.921,3.8-5.964,1.146-1.354,2.049-2.882,3.1-4.3a10.489,10.489,0,0,0,.824-1.15c1.143-2.07,2.6-3.942,3.806-5.967.3-.5.626-1,.968-1.478a35.729,35.729,0,0,0,3.452-5.762c.3-.641.636-1.265.973-1.888a61.821,61.821,0,0,0,4.805-12.53c.388-1.361.49-2.784.906-4.144a8.5,8.5,0,0,0,.2-1.755,6.968,6.968,0,0,0-.607-3.8c-.261-.527-.469-1.081-.709-1.62a8.081,8.081,0,0,0-1.141-1.785,10.031,10.031,0,0,0-.7-.8,19.563,19.563,0,0,0-2.687-2.805,33.137,33.137,0,0,0-4.073-2.129,2.811,2.811,0,0,0-.661-.251c-1.506-.286-3.009-.6-4.525-.811a7.645,7.645,0,0,0-2.114.072c-1.05.152-2.089.387-3.125.616a4.994,4.994,0,0,0-.992.369,12.683,12.683,0,0,0-2.985,1.882c-.536.464-1.076.921-1.615,1.379a4.724,4.724,0,0,1-1.51.908,7.03,7.03,0,0,0-3.438,2.939c-1.069,1.559-2.126,3.118-3.322,4.583a19.323,19.323,0,0,0-1.2,1.751,16.537,16.537,0,0,1-1.679,2.274,19.907,19.907,0,0,0-1.262,1.707c-1.546,2.083-3.016,4.224-4.628,6.258a4.389,4.389,0,0,0-.788,1.571,4.758,4.758,0,0,1-1.3,2.073c-.664.67-1.29,1.379-1.962,2.04A9.142,9.142,0,0,0,125,146.821a2.277,2.277,0,0,1-.416.571c-1.559,1.622-2.808,3.493-4.2,5.245-1.47,1.845-2.838,3.768-4.351,5.583-1.056,1.264-1.934,2.675-2.9,4.016a41.6,41.6,0,0,1-3.208,4.227,2.861,2.861,0,0,0-.437.555c-.79,1.456-1.859,2.728-2.712,4.141-1.466,2.423-2.936,4.844-4.382,7.28a33.733,33.733,0,0,0-3.022,7.154c-.248.787-.41,1.6-.6,2.4a10.215,10.215,0,0,0-.173,3.518c.052.468.168.927.254,1.392.52,2.836.521,2.933,2.248,5.067a30.58,30.58,0,0,0,8.2,7.2,8.1,8.1,0,0,0,1.952.819,28.731,28.731,0,0,0,6.6,1.185C118.091,207.193,118.327,207.185,118.564,207.185Zm38.59-90.107a16.215,16.215,0,0,1,7.067,1.465,11.575,11.575,0,0,1,4.693,3.661c.341.48.759.9,1.125,1.367a6.548,6.548,0,0,1,1.333,3.236,10.641,10.641,0,0,1-.187,4.219,27.621,27.621,0,0,1-1.724,5.75,1.959,1.959,0,0,0-.106.338,47.249,47.249,0,0,1-3.762,8.772,64.962,64.962,0,0,1-4.168,6.992c-.34.483-.625,1-.945,1.5-.7,1.092-1.391,2.192-2.119,3.267-1.456,2.151-2.861,4.336-4.47,6.379-.437.555-.813,1.157-1.2,1.748-1.237,1.872-2.463,3.75-3.7,5.617a13.815,13.815,0,0,1-1.245,1.715,29.5,29.5,0,0,0-2.138,2.821c-.96,1.343-1.866,2.731-2.892,4.025-1.544,1.946-2.92,4.008-4.268,6.087a15.075,15.075,0,0,1-2.079,2.839,13.65,13.65,0,0,0-1.261,1.7c-.71.942-1.377,1.925-2.166,2.8-1.581,1.751-3.195,3.477-4.862,5.148-3.329,3.339-2.6,2.61-6.248,4.54a7.779,7.779,0,0,1-4.1.864,15.15,15.15,0,0,1-3.152-.437c-.8-.211-1.608-.382-2.409-.585a7.623,7.623,0,0,1-1.931-.856c-2.173-1.256-3.776-3.2-5.736-4.714a4.157,4.157,0,0,1-.7-.793c-.431-.562-.846-1.137-1.258-1.713a5.028,5.028,0,0,1-.881-2.287,15.033,15.033,0,0,1-.165-3.872,14.076,14.076,0,0,1,1.333-4.74c.472-.948.822-1.958,1.256-2.926a19.592,19.592,0,0,1,.951-1.9c1.19-2.037,2.465-4.026,3.5-6.153a7.308,7.308,0,0,1,.777-1.181c2.706-3.577,5.359-7.194,7.854-10.926a15.072,15.072,0,0,1,1.042-1.431c1.766-2.068,3.316-4.3,4.924-6.486,1.326-1.807,2.719-3.565,4.05-5.368a28.425,28.425,0,0,1,3.629-4.339,6.151,6.151,0,0,0,1.271-1.692c.332-.624.633-1.265.957-1.894a11.124,11.124,0,0,1,.676-1.237,84.627,84.627,0,0,1,5.105-7.224,18.137,18.137,0,0,0,1.221-1.736,11.624,11.624,0,0,1,1.8-2.178,7.683,7.683,0,0,0,.954-1.042,4.128,4.128,0,0,1,1.964-1.447,2.9,2.9,0,0,0,1.1-.877,68.571,68.571,0,0,1,6.1-5.383,2.783,2.783,0,0,1,.926-.509A12.353,12.353,0,0,1,157.154,117.079Z" transform="translate(-98.521 -113.906)" fill="#fff"/>
    <path id="Контур_2519" data-name="Контур 2519" d="M149.015,143.355a5.484,5.484,0,0,0,0-.561,2.507,2.507,0,0,0-.52-1.293,8.877,8.877,0,0,0-1.744-1.745,16.774,16.774,0,0,0-2.969-1.907,21.077,21.077,0,0,1-3.89-2.409,38.365,38.365,0,0,0-3.849-2.495,2.455,2.455,0,0,0-2.681.061,6.879,6.879,0,0,0-.585.4,3.392,3.392,0,0,0-.527.468,6.651,6.651,0,0,1-2.2,1.729,7.931,7.931,0,0,0-2.869,2.57c-1.642,2.3-3.514,4.425-4.98,6.849-.242.4-.585.738-.858,1.121a20.7,20.7,0,0,0-1.4,2.031,23.565,23.565,0,0,1-3.115,4.273,20.553,20.553,0,0,0-2.855,4.022,6.622,6.622,0,0,1-.573.89,5.464,5.464,0,0,0-.911,1.9c-.214.794-.443,1.587-.624,2.39a3,3,0,0,0,.174,1.733,1.739,1.739,0,0,0,.579.871,17.217,17.217,0,0,1,2.835,2.623,48.555,48.555,0,0,0,3.607,3.381c1.677,1.481,3.388,2.923,5.092,4.374a5.641,5.641,0,0,0,.858.614,2.086,2.086,0,0,0,2.033.1,11.422,11.422,0,0,0,3.459-2.408,6.071,6.071,0,0,1,.763-.734,21.276,21.276,0,0,0,4.63-5.3c1.106-1.67,2.188-3.354,3.275-5.036a9.941,9.941,0,0,0,1.2-2.931,5.02,5.02,0,0,1,.974-1.859c.875-1.106,1.556-2.359,2.539-3.388a2.724,2.724,0,0,0,.413-.571c1.187-2.172,2.66-4.165,3.917-6.294.239-.4.425-.84.647-1.255a2.22,2.22,0,0,0,.258-1.361C149.082,143.969,149.058,143.735,149.015,143.355ZM126.383,171.9a5.016,5.016,0,0,1-.769-.205,2.149,2.149,0,0,1-.582-.39q-3.227-3.018-6.651-5.808a27.14,27.14,0,0,1-3.283-3.2.873.873,0,0,1-.18-.3,2.039,2.039,0,0,1-.158-.675,3.186,3.186,0,0,1,.183-1.03,15.29,15.29,0,0,1,1.857-3.4c.834-1.14,1.673-2.278,2.544-3.39a13.185,13.185,0,0,0,1.431-2.011c.76-1.469,1.707-2.821,2.588-4.213a73.8,73.8,0,0,1,5.043-6.809,1.136,1.136,0,0,1,.247-.251,6.787,6.787,0,0,1,.9-.539,2.369,2.369,0,0,1,.691-.131,2.634,2.634,0,0,0,1.8-1.007c.515-.642,1.007-1.3,1.534-1.935a1.76,1.76,0,0,1,.577-.391,1.377,1.377,0,0,1,1.352.063c1.1.675,2.2,1.366,3.254,2.117a25.832,25.832,0,0,0,3.3,2.049c.421.214.828.45,1.246.667a7.757,7.757,0,0,1,2.823,2.612,1.142,1.142,0,0,1,.185,1.005,6,6,0,0,1-.558,1.29c-.935,1.5-1.879,2.988-2.867,4.45-2.048,3.027-3.88,6.183-5.713,9.339-.769,1.323-1.58,2.622-2.411,3.906-.446.691-1.041,1.287-1.457,1.993a20.705,20.705,0,0,1-3.453,4,14.305,14.305,0,0,1-2.243,1.707A5.866,5.866,0,0,1,126.383,171.9Z" transform="translate(-92.196 -105.013)" fill="#fff"/>
    <path id="Контур_2520" data-name="Контур 2520" d="M127.557,140.3a1.408,1.408,0,0,0-1.187-1.5,1.446,1.446,0,0,0-1.631,1.032,1.581,1.581,0,0,0,.937,2.015,1.056,1.056,0,0,0,.684.034A1.67,1.67,0,0,0,127.557,140.3Z" transform="translate(-86.077 -102.062)" fill="#fff"/>
    <path id="Контур_2521" data-name="Контур 2521" d="M124.607,155.067a1.476,1.476,0,0,0-.754-1.6,1.112,1.112,0,0,0-.669-.106,1.847,1.847,0,0,0-1.333,1.054.837.837,0,0,0-.044.685,1.759,1.759,0,0,0,1.171,1.216,1.066,1.066,0,0,0,1.236-.427A5.748,5.748,0,0,0,124.607,155.067Z" transform="translate(-87.455 -95.121)" fill="#fff"/>
    <path id="Контур_2522" data-name="Контур 2522" d="M132.287,142.4a1.333,1.333,0,0,0-.354-.926,1.165,1.165,0,0,0-1.25-.21,1.271,1.271,0,0,0-.889.94,1.173,1.173,0,0,0,.455,1.2,1.456,1.456,0,0,0,.921.366.966.966,0,0,0,1.019-.709A4.729,4.729,0,0,0,132.287,142.4Z" transform="translate(-83.639 -100.915)" fill="#fff"/>
    <path id="Контур_2523" data-name="Контур 2523" d="M124.053,146.171a1.428,1.428,0,0,0-.431-.951,1.251,1.251,0,0,0-1.944.642,1.1,1.1,0,0,0,.1.986,1.132,1.132,0,0,0,1.429.63A1.23,1.23,0,0,0,124.053,146.171Z" transform="translate(-87.524 -99.113)" fill="#fff"/>
    <path id="Контур_2524" data-name="Контур 2524" d="M128.692,149.523a4.143,4.143,0,0,0-.217-.632,1.21,1.21,0,0,0-1.144-.585,1.257,1.257,0,0,0-1.057,1.147,1.388,1.388,0,0,0,.573,1.174,1.041,1.041,0,0,0,1.506-.17A1.256,1.256,0,0,0,128.692,149.523Z" transform="translate(-85.301 -97.524)" fill="#fff"/>
    <path id="Контур_2525" data-name="Контур 2525" d="M119.23,152.921a1.307,1.307,0,0,0,1.342-.911,1.187,1.187,0,0,0-.717-1.429.916.916,0,0,0-.991.066,1.38,1.38,0,0,0-.661.782A1.1,1.1,0,0,0,119.23,152.921Z" transform="translate(-89.168 -96.491)" fill="#fff"/>
    <path id="Контур_2526" data-name="Контур 2526" d="M127.907,144.963a1.183,1.183,0,0,0-1.29-1.277.784.784,0,0,0-.335.081,1.317,1.317,0,0,0-.08,2.1,1.024,1.024,0,0,0,1.643-.567C127.873,145.19,127.886,145.076,127.907,144.963Z" transform="translate(-85.566 -99.722)" fill="#fff"/>
    <path id="Контур_2527" data-name="Контур 2527" d="M124.834,150.809a1.18,1.18,0,0,0-1.8-.895.856.856,0,0,0-.326.9,1.311,1.311,0,0,0,.939.915A.99.99,0,0,0,124.834,150.809Z" transform="translate(-87.012 -96.839)" fill="#fff"/>
  </g>
</svg>
