<svg xmlns="http://www.w3.org/2000/svg" width="57.407" height="76.618" viewBox="0 0 57.407 76.618">
  <g id="Сгруппировать_1029" data-name="Сгруппировать 1029" transform="translate(-627.3 -125.543)">
    <path id="Контур_2528" data-name="Контур 2528" d="M638.138,201.661a.814.814,0,0,1-.455-.1,4.838,4.838,0,0,1-1.433-1.208,2.079,2.079,0,0,1-.374-.781,3.323,3.323,0,0,1-.072-.46c-.012-.109-.023-.212-.041-.3l-.022-.126a1.139,1.139,0,0,0-.094-.322.931.931,0,0,0-.526-.535c-.218-.076-.46-.154-.7-.231-.273-.087-.545-.173-.774-.257a1.05,1.05,0,0,1-.656-.674,7.6,7.6,0,0,1-.247-.776c-.031-.114-.062-.219-.089-.309a2.111,2.111,0,0,1-.071-.315,1.9,1.9,0,0,0-.06-.278,1.1,1.1,0,0,0-.4-.588,2.9,2.9,0,0,0-.276-.194c-.069-.045-.137-.089-.205-.141a1.99,1.99,0,0,1-.686-.98,9.681,9.681,0,0,1-.3-1.2l-.054-.26a1.557,1.557,0,0,0-.752-1.054,2.625,2.625,0,0,0-.243-.14l-.111-.06a1.842,1.842,0,0,1-.776-1.223,3.322,3.322,0,0,1-.054-.66,4,4,0,0,0-.026-.5,1.7,1.7,0,0,0-.4-1.019,2.2,2.2,0,0,1-.424-1.27c0-.183,0-.367-.006-.55a6.606,6.606,0,0,1,.023-.995,5.756,5.756,0,0,1,1.156-2.568.565.565,0,0,1,.1-.1,9.63,9.63,0,0,1,1.76-1.207c.626-.314,1.016-.516,1.647-.863A9.455,9.455,0,0,0,634.472,178c.369-.37.665-.643,1.007-.957l.472-.435a13.614,13.614,0,0,0,1.736-1.965,9.535,9.535,0,0,0,1.644-3.474c.285-1.284.532-2.6.751-3.761a3.992,3.992,0,0,0,.026-1.4,13.151,13.151,0,0,1-.131-3.066c.071-.914.09-1.711.111-2.555,0,0,.008-.5.008-.629a7.249,7.249,0,0,1,.026-.755,27.953,27.953,0,0,0,.04-4.1,51.2,51.2,0,0,1-.029-6.108c.011-.137.012-.276.012-.417l.007-.982c0-.78.007-1.548.04-2.354a8.451,8.451,0,0,0-.187-2.321,22.373,22.373,0,0,1-.36-2.658c-.156-1.716-.323-3.393-.636-5.053a2.848,2.848,0,0,1-.018-.72l.006-.118c.007-.134.023-.276.038-.422a5.88,5.88,0,0,0,.049-.667c-.005-1.3-.023-2.628-.052-3.936a5.4,5.4,0,0,0-.1-.906,1.581,1.581,0,0,1,.358-1.087c.089-.1.161-.135.2-.135s.074.05.113.126l.062.351c.055.273.109.548.185.862a5.5,5.5,0,0,1,.1,1.57l-.024.234c-.038.386-.071.719-.073,1.1a51.884,51.884,0,0,0,.192,5.667,11.111,11.111,0,0,0,.291,1.679,7.533,7.533,0,0,1,.229,1.424l.2,2.451c.1,1.251.2,2.5.3,3.779a14.833,14.833,0,0,1,.021,2.716,21.136,21.136,0,0,0-.045,3.244c.068,1.182.151,2.635.2,3.872a15.227,15.227,0,0,1-.014,1.894c-.06.686-.074,1.456-.081,2.119l-.005.82a30.136,30.136,0,0,1-.128,3.262,2.8,2.8,0,0,0,.031.736c.017.13.041.261.066.4a6.546,6.546,0,0,1,.1.692,8.25,8.25,0,0,1-.041,1.681c-.181,1.208-.464,2.441-.739,3.633l-.243,1.071a.736.736,0,0,1-.036.136c-.119.235-.231.47-.342.706a12.116,12.116,0,0,1-.843,1.574,14.14,14.14,0,0,1-2.286,2.693c-.349.317-.691.638-1.025.977a6.982,6.982,0,0,1-2.036,1.466,1.787,1.787,0,0,0-.395.249,7.7,7.7,0,0,1-1.25.79l-.222.122c-.161.089-.3.163-.433.232-.227.118-.428.223-.653.368a3.827,3.827,0,0,0-1.728,2.291,3.246,3.246,0,0,0-.1.55.516.516,0,0,0,.022.326.53.53,0,0,0,.477.389h.042l.1-.026a2.071,2.071,0,0,0,.6-.382,1.953,1.953,0,0,1,.4-.278.488.488,0,0,1,.185-.049.485.485,0,0,1,.358.819,2.314,2.314,0,0,1-.319.409,3.593,3.593,0,0,0-.287.347,3.048,3.048,0,0,0-.649,2.154.421.421,0,0,0,.2.337.458.458,0,0,0,.257.076.484.484,0,0,0,.379-.174c.113-.136.236-.29.361-.448.215-.271.438-.551.622-.757a1.77,1.77,0,0,1,.744-.541.516.516,0,0,1,.213-.046.44.44,0,0,1,.411.255c.107.247.094.268-.077.526a5.456,5.456,0,0,1-.458.557c-.152.17-.3.339-.4.478a1.941,1.941,0,0,0-.408,1.026,7.54,7.54,0,0,0,.174,2.586.507.507,0,0,0,.144.242.646.646,0,0,0,.472.207.514.514,0,0,0,.412-.19,4.322,4.322,0,0,0,.423-.709l.161-.319c.185-.372.377-.756.561-1.047a1.537,1.537,0,0,1,.785-.679.54.54,0,0,1,.2-.042.525.525,0,0,1,.454.317l.01.019a2.963,2.963,0,0,1-.283.636,3.952,3.952,0,0,1-.309.358,4.765,4.765,0,0,0-.322.37,2.644,2.644,0,0,0-.432.75,8.362,8.362,0,0,0-.344,3.591.594.594,0,0,0,.051.177,1.109,1.109,0,0,0,1.073.79,1.024,1.024,0,0,0,.324-.05,1.45,1.45,0,0,0,.9-.735,23.842,23.842,0,0,0,1.589-3.875,2.39,2.39,0,0,1,.271-.642.3.3,0,0,1,.216-.142.771.771,0,0,1,.276.112,2.058,2.058,0,0,0,.281.143.306.306,0,0,1,.139.31c-.036.09-.056.158-.074.216a.739.739,0,0,1-.055.146,14.959,14.959,0,0,0-1.314,3.345,1.485,1.485,0,0,1-.107.26,4.923,4.923,0,0,0-.444,2.057l0,.382a6.664,6.664,0,0,0,.054,1.044,1.44,1.44,0,0,0,.721,1.137,1.392,1.392,0,0,0,.8.241,1.486,1.486,0,0,0,.929-.324,2.125,2.125,0,0,0,.559-.694,4.843,4.843,0,0,0,.307-.777c.422-1.388.895-2.787,1.352-4.137l.429-1.275a16.665,16.665,0,0,1,1.546-3.518,30.344,30.344,0,0,0,1.862-3.633,11.776,11.776,0,0,1,1.676-2.817A9.044,9.044,0,0,0,648.2,181.7a9.457,9.457,0,0,1,1.433-1.988,17.471,17.471,0,0,1,1.669-1.619l.27-.229c.161-.138.32-.276.473-.393a1.933,1.933,0,0,0,.887-2.1,3.03,3.03,0,0,1-.046-.342c-.01-.1-.02-.206-.04-.325a1.7,1.7,0,0,0-.4-.845,9.333,9.333,0,0,0-1.5-1.37,2.617,2.617,0,0,1-.727-.828,1.542,1.542,0,0,1-.242-.7l-.027-.327c-.084-1-.157-1.857-.161-2.918-.007-3.462.175-6.994.355-9.99.059-.987.316-5.489.316-5.489.046-.833.092-1.693.192-2.567.123-1.07.231-2.327.3-3.539a29.059,29.059,0,0,1,.378-3.449,13.4,13.4,0,0,0,.172-1.353,26.017,26.017,0,0,1,.531-3.6c.106-.49.2-.964.3-1.431.131-.622.257-1.232.4-1.852l.066-.293c.094-.418.191-.847.25-1.212.165-1.034.422-2.543.651-3.681a14.6,14.6,0,0,0,.3-2.691c.054-.372.231-.514.379-.514a.143.143,0,0,1,.136.065c.016.049.037.1.061.166a4.418,4.418,0,0,1,.225,2.456c-.3,1.725-.636,3.565-1.036,5.27-.278,1.183-.483,2.359-.68,3.5-.093.532-.185,1.067-.286,1.609-.093.5-.151,1.019-.205,1.523l-.07.611c-.031.257-.065.522-.114.779a28.052,28.052,0,0,0-.378,3.539c-.029.48-.053.934-.078,1.384-.034.63-.067,1.253-.114,1.93a9.19,9.19,0,0,1-.166,1.359,13.257,13.257,0,0,0-.24,2.187c-.022.856-.082,2.033-.147,2.927-.339,4.629-.441,9.311-.509,13.336a10.96,10.96,0,0,0,.035,1.189,2.52,2.52,0,0,0,.459,1.273,2.836,2.836,0,0,0,.252.31,14.362,14.362,0,0,0,1.683,1.535,1.691,1.691,0,0,1,.54.733,4.8,4.8,0,0,1,.32,1.27,7.315,7.315,0,0,1-.017,2.13.608.608,0,0,1-.2.4,6.217,6.217,0,0,1-.694.61c-.569.407-1.123.865-1.659,1.307l-.347.286a7.285,7.285,0,0,0-1.7,1.985,30.747,30.747,0,0,1-2.038,3.067,4.321,4.321,0,0,0-.432.7c-.2.411-.423.812-.643,1.212-.306.556-.622,1.131-.885,1.731a5.17,5.17,0,0,1-.346.656,23.2,23.2,0,0,0-1.776,3.7c-.358.905-.627,1.673-.844,2.418-.108.367-.234.723-.379,1.088a8.044,8.044,0,0,0-.577,2.144,1.774,1.774,0,0,1-.168.516c-.106.247-.339.778-.471,1.046l-.06.122a4.876,4.876,0,0,1-.308.566,1.833,1.833,0,0,1-1.424.93c-.313.033-.7.063-.956.065Z" transform="translate(0 0)" fill="#fff" stroke="#fff" stroke-width="1"/>
    <path id="Контур_2529" data-name="Контур 2529" d="M680.7,201.97a.892.892,0,0,1-.5-.148,2.5,2.5,0,0,1-.425-.366,4.94,4.94,0,0,1-.755-1.1,24.483,24.483,0,0,1-1.863-5.034,27.707,27.707,0,0,0-1.915-5.31c-.122-.252-.246-.511-.375-.769a31.5,31.5,0,0,0-1.962-3.38,9.915,9.915,0,0,0-.959-1.222c-1.142-1.248-2.272-2.483-3.275-3.789a7.368,7.368,0,0,0-.55-.616l-.2-.214a11.277,11.277,0,0,1-1.87-2.747c-.286-.574-.512-1.145-.752-1.749l-.069-.175a2.6,2.6,0,0,1-.146-.738,4.861,4.861,0,0,1,.007-.64l.008-.137a6.123,6.123,0,0,1,.588-2.4,6.285,6.285,0,0,1,.3-.557c.115-.2.232-.395.346-.639a3.48,3.48,0,0,0,.4-1.553c.008-.268.012-.572.016-.89,0-.43.01-.885.027-1.313a34.06,34.06,0,0,0-.06-3.689c-.185-2.8-.3-5.3-.366-7.654-.041-1.56-.021-3.223,0-4.658.007-.415.011-.8-.021-1.252s-.058-.968-.065-1.445c-.035-2.119-.021-4.286,0-6.312l0-.31c.011-.958.02-1.863-.031-2.792-.035-.6-.025-1.211-.017-1.8.012-.809.029-1.576.046-2.341.021-.958.043-1.912.051-2.859-.244-2.341.353-2.53.422-2.544h0c.1,0,.352.287.4.739l.012.685c.013.808.027,1.722.116,2.562a15.327,15.327,0,0,1,.023,2.184c-.063,1.5-.048,3.063-.03,4.407.005.331.013.664.022,1,.02.757.04,1.54.012,2.308-.022.6-.013,1.212,0,1.824l.017,1.53c.017,1.529.036,3.109-.035,4.656-.023.49-.019,1.041.012,1.733.083,1.813.134,3.629.185,5.439l.018.612c.008.327.019.652.046.964.164,1.849.225,3.689.259,5.086,0,.17.012.338.02.5a7.964,7.964,0,0,1,.008,1.03c-.1,1.208-.1,2.377-.084,3.36a1.882,1.882,0,0,1-.2.751c-.145.34-.291.651-.435.964-.124.265-.247.53-.372.812a6.485,6.485,0,0,0-.5,2.831,1.918,1.918,0,0,0,.151.7c.1.266.274.653.426.978a12.138,12.138,0,0,0,1.845,2.773l.116.132c.2.225.4.457.589.7.644.83,1.367,1.626,2.067,2.394l.584.645a25.413,25.413,0,0,1,3.051,4.235,26.5,26.5,0,0,1,1.491,3.155l.137.329a33.035,33.035,0,0,1,1.541,4.7,21.539,21.539,0,0,0,1.222,3.3l.136.312a5.186,5.186,0,0,0,.457.8l.172.266a1.125,1.125,0,0,0,.173.2c.035.035.075.074.124.13a.817.817,0,0,0,.6.219.716.716,0,0,0,.426-.118l.089-.067a.888.888,0,0,0,.271-.263,3.711,3.711,0,0,0,.6-2.389,15.857,15.857,0,0,0-1.642-5.956c-.147-.293-.3-.677-.4-.932-.056-.144-.025-.2.063-.266.016-.011.061-.045.079-.054-.007,0,.022.013.089.04a1.052,1.052,0,0,1,.486.442c.209.423.389.852.569,1.282.194.468.391.936.627,1.4a3.617,3.617,0,0,1,.367,1.119,9.007,9.007,0,0,0,.476,1.811.971.971,0,0,0,.857.567.788.788,0,0,0,.266-.046,1.314,1.314,0,0,0,.948-.943,4.4,4.4,0,0,0,.057-1.655c-.043-.281-.09-.51-.14-.752-.043-.208-.088-.425-.133-.694a9.161,9.161,0,0,0-.662-2.059c-.137-.294-.323-.716-.4-.941a.355.355,0,0,1-.029-.2,1.231,1.231,0,0,0,.01-.168.171.171,0,0,1,.139-.16,1.237,1.237,0,0,1,.128-.017.4.4,0,0,1,.115.059,1.178,1.178,0,0,1,.429.52c.15.384.295.794.439,1.2.1.281.2.559.3.824a4.353,4.353,0,0,0,.414.805.529.529,0,0,0,.442.274.7.7,0,0,0,.171-.024.5.5,0,0,0,.471-.386,2.071,2.071,0,0,0,.049-1.177c-.043-.159-.1-.338-.157-.524-.076-.241-.156-.493-.214-.728a10.892,10.892,0,0,0-1.083-2.706,2.541,2.541,0,0,1-.227-.527.6.6,0,0,1-.01-.271.183.183,0,0,1,.118-.154,2.153,2.153,0,0,1,1.157,1.168c.137.307.249.593.362.878.1.259.2.517.321.788a1.37,1.37,0,0,0,.257.366.555.555,0,0,0,.425.214.487.487,0,0,0,.23-.056.421.421,0,0,0,.22-.361,6.1,6.1,0,0,0-.435-2.48,6.627,6.627,0,0,0-.566-1.092c-.111-.184-.214-.355-.292-.516a1.276,1.276,0,0,1-.179-.66l-.007-.145a.248.248,0,0,1,.06-.19.213.213,0,0,1,.156-.066.236.236,0,0,1,.082.015,1.411,1.411,0,0,1,.588.447,3.93,3.93,0,0,1,.314.454c.065.1.124.2.176.27.105.144.16.208.229.289l.067.079a.522.522,0,0,0,.395.209.43.43,0,0,0,.286-.112.711.711,0,0,0,.253-.5,3.617,3.617,0,0,0-.207-1.448,12.153,12.153,0,0,0-.511-1.165l-.062-.127a10.2,10.2,0,0,0-2.176-3.029c-.3-.29-.62-.574-.938-.859l-.47-.423a3.572,3.572,0,0,0-.606-.463,14.814,14.814,0,0,1-1.5-1.058c-.311-.238-.622-.477-.944-.7a7.745,7.745,0,0,1-1.129-.969c-.754-.779-1.619-1.616-2.374-2.3a12.509,12.509,0,0,1-1.472-1.649l-.32-.4a2.018,2.018,0,0,1-.2-.34c-.215-.429-.458-.918-.627-1.293a1.941,1.941,0,0,1-.16-.935c0-.284.029-.541.054-.807l.019-.21c.176-2.019.356-4.017.546-6.038a10.962,10.962,0,0,0,.065-2.156,3.761,3.761,0,0,1,.029-.8l.074-.678a14.258,14.258,0,0,1,.506-2.87,2.566,2.566,0,0,0,.086-.468l.06-.524a40.333,40.333,0,0,0,.347-4.672c0-.751.022-1.364.072-1.927.075-.848.158-1.7.239-2.547l.109-1.128a8.282,8.282,0,0,1,.111-.833,41.827,41.827,0,0,0,.607-4.718,18.041,18.041,0,0,1,.356-2.433,9.77,9.77,0,0,0,.262-2.1,6.91,6.91,0,0,1,.22-1.8,10.9,10.9,0,0,0,.311-2.043,2.176,2.176,0,0,1,.53-.874.355.355,0,0,1,.116-.021c.232,0,.388.3.469.51l-.042.346a12.763,12.763,0,0,1-.212,1.375,21.413,21.413,0,0,0-.435,3.078,21.544,21.544,0,0,1-.323,2.475,24.5,24.5,0,0,0-.36,2.783,19.161,19.161,0,0,1-.5,3.55,2.626,2.626,0,0,0-.081.477c-.142,1.731-.293,3.476-.447,5.207a3.736,3.736,0,0,0,0,.693,15.834,15.834,0,0,1-.07,2.679l-.041.508a22.115,22.115,0,0,1-.367,2.493l-.05.276a30.053,30.053,0,0,0-.517,4.721c-.043,1.531-.108,2.7-.211,3.8l-.07.742c-.122,1.279-.241,2.522-.347,3.833a2.594,2.594,0,0,0,.382,1.468,10.289,10.289,0,0,0,1.488,2.04l.334.342c.239.243.484.492.71.743a26.12,26.12,0,0,0,3.773,3.39c.288.214.608.435.89.629l.511.353a5.478,5.478,0,0,1,.557.417,16.8,16.8,0,0,1,3.42,4.038c.219.367.42.745.622,1.125a7.668,7.668,0,0,1,.92,3.277,2.065,2.065,0,0,1-.3,1.13l-.1.116c-.042.05-.1.108-.165.17l-.1.1a1.6,1.6,0,0,0-.492,1.321,3.172,3.172,0,0,1-.737,2.443,2.557,2.557,0,0,0-.258.375,1.789,1.789,0,0,0-.231.685l-.028.19c-.027.189-.055.387-.108.632a1.443,1.443,0,0,1-.526.843c-.1.068-.213.136-.319.2a1.653,1.653,0,0,0-.932,1.411,6.8,6.8,0,0,1-.113.764,2.067,2.067,0,0,1-.483.879,1.955,1.955,0,0,1-.73.506c-.177.068-.412.134-.631.2-.182.052-.354.1-.481.146a.822.822,0,0,0-.525.455,1.546,1.546,0,0,0-.185.491c-.012.055-.026.113-.044.173a3.472,3.472,0,0,1-.679,1.342,2.53,2.53,0,0,1-1.676.9A.737.737,0,0,1,680.7,201.97Z" transform="translate(-6.424 -0.48)" fill="#fff" stroke="#fff" stroke-width="1"/>
    <path id="Контур_2530" data-name="Контур 2530" d="M671.879,182.508a.95.95,0,0,1-.206-.029,1.433,1.433,0,0,1-.562-.376,1.283,1.283,0,0,1-.373-1.537c.074-.181.154-.358.233-.536a.764.764,0,0,1,.316-.317.511.511,0,0,1,.258-.065.368.368,0,0,1,.217.057.436.436,0,0,1,.151.345,1.147,1.147,0,0,1-.016.325,1.454,1.454,0,0,0,.349,1.5.612.612,0,0,1,.076.19l.019.1a.631.631,0,0,1-.39.353Z" transform="translate(-7.381 -9.239)" fill="#fff" stroke="#fff" stroke-width="1"/>
    <path id="Контур_2531" data-name="Контур 2531" d="M649.721,185.123a.482.482,0,0,1-.314-.361.324.324,0,0,1,.057-.277,1.825,1.825,0,0,1,.368-.348,1.658,1.658,0,0,0,.856-1.251.336.336,0,0,1,.031-.106.266.266,0,0,1,.157-.13l.059,0a.231.231,0,0,1,.2.083.589.589,0,0,1,.158.378,1.624,1.624,0,0,1-.586,1.362c-.246.2-.494.4-.754.582a.616.616,0,0,1-.167.054l-.065.017Z" transform="translate(-3.723 -9.756)" fill="#fff" stroke="#fff" stroke-width="1"/>
  </g>
</svg>
