<svg id="Сгруппировать_1030" data-name="Сгруппировать 1030" xmlns="http://www.w3.org/2000/svg" width="75.457" height="69.626" viewBox="0 0 75.457 69.626">
  <path id="Контур_2506" data-name="Контур 2506" d="M354.773,153.74c.481,0,.964-.026,1.442,0a20.708,20.708,0,0,0,5.734-.427,11.462,11.462,0,0,0,3.086-.68c1.1-.342,2.215-.648,3.332-.938a14.19,14.19,0,0,0,3.208-1.275,23.55,23.55,0,0,0,5.172-3.642,12.105,12.105,0,0,1,1.476-1.374,21.026,21.026,0,0,0,5.15-6.508c.487-.939.977-1.876,1.462-2.816a17.858,17.858,0,0,0,1.171-2.63,19.187,19.187,0,0,1,.881-2.132,31.461,31.461,0,0,0,1.9-5.74,20,20,0,0,0,.764-4.541,6.442,6.442,0,0,1,.114-1.147,19.615,19.615,0,0,0,.229-4.026,9.9,9.9,0,0,0-.16-1.429c-.11-.663-.243-1.323-.379-1.982a9.023,9.023,0,0,0-.28-1.117,47.327,47.327,0,0,0-3.183-7.412,19.269,19.269,0,0,0-2.469-3.539,28.947,28.947,0,0,0-3.288-3.23c-.744-.608-1.434-1.282-2.14-1.934a29.218,29.218,0,0,0-4.98-3.907,9.777,9.777,0,0,1-.928-.682,14.792,14.792,0,0,0-5.673-2.733c-1.407-.323-2.775-.784-4.162-1.176-1.294-.366-2.617-.625-3.928-.927a26.6,26.6,0,0,1-2.806-.652,12.559,12.559,0,0,0-4.253-.635,12.576,12.576,0,0,1-2.3-.132,31.591,31.591,0,0,0-5.181-.215,4.308,4.308,0,0,0-1.14.155,11.14,11.14,0,0,1-3.144.35,5.933,5.933,0,0,0-2.513.569,30.3,30.3,0,0,0-4.346,2.259c-1.544.977-3.05,2.012-4.577,3.015-.481.317-.976.615-1.47.914a13.949,13.949,0,0,0-4.316,3.758c-.279.39-.632.726-.924,1.106a13.255,13.255,0,0,0-2.233,4.014c-.147.455-.349.894-.538,1.335a38.875,38.875,0,0,0-1.4,3.785c-.369,1.194-.741,2.388-1.157,3.565a33.937,33.937,0,0,0-.915,3.634,8.938,8.938,0,0,0-.177,2.006c0,1.058-.049,2.115-.087,3.171a6.061,6.061,0,0,1-.09,1.148,22.891,22.891,0,0,0-.3,4.31,10.448,10.448,0,0,0,.324,3.144c.221.833.268,1.713.492,2.544.3,1.113.685,2.2,1.05,3.3a18.038,18.038,0,0,0,1.473,3.44c.29.5.53,1.025.787,1.542a19.012,19.012,0,0,0,3.67,5.14c.753.743,1.5,1.494,2.206,2.282a24.947,24.947,0,0,0,4.915,3.985,22.307,22.307,0,0,0,7.108,3.078,35.506,35.506,0,0,0,5.086,1c.573.054,1.14.175,1.71.253s1.142.161,1.716.207c1.628.132,3.258.244,4.88.462A30.39,30.39,0,0,0,354.773,153.74Zm.122-1.7a32.15,32.15,0,0,1-6.111-.3c-1.232-.191-2.487-.244-3.7-.545a42.672,42.672,0,0,1-5.132-.786,30.366,30.366,0,0,1-7.962-2.484,7.654,7.654,0,0,1-1.943-1.223,18.989,18.989,0,0,0-1.784-1.46,16.358,16.358,0,0,1-2.169-1.9c-.945-.96-1.867-1.945-2.846-2.868a8.365,8.365,0,0,1-1.849-2.555,12.474,12.474,0,0,0-.93-1.79,17.548,17.548,0,0,1-2.329-5.251c-.236-.832-.515-1.651-.765-2.481a18.016,18.016,0,0,1-.806-4.533c-.026-.674-.053-1.348-.129-2.017a9.077,9.077,0,0,1,.031-2.014c.149-1.34.176-2.686.237-4.032a41.153,41.153,0,0,1,.7-5.137,6.332,6.332,0,0,1,.384-1.084c.7-1.892,1.438-3.774,2.107-5.678.608-1.73,1.494-3.336,2.142-5.045a5.179,5.179,0,0,1,.41-.762,18.016,18.016,0,0,1,5.051-5.473c1.872-1.35,3.824-2.574,5.8-3.771a26.846,26.846,0,0,1,3.09-1.551,2.737,2.737,0,0,1,1.69-.2A6.458,6.458,0,0,0,341.222,87a11.568,11.568,0,0,1,2.571-.339,27.1,27.1,0,0,0,2.878-.179,2.657,2.657,0,0,1,.862.016,31.538,31.538,0,0,0,4.03.236,12.673,12.673,0,0,1,2.564.359,26.033,26.033,0,0,0,5.09.98c.935.223,1.9.368,2.8.681,2.093.725,4.217,1.338,6.342,1.957a7.939,7.939,0,0,1,2.582,1.248q2.656,1.99,5.3,3.99a9.437,9.437,0,0,1,.877.749c1.73,1.672,3.488,3.315,5.151,5.053a9.05,9.05,0,0,1,1.362,1.856c.516.923.969,1.891,1.567,2.757a13.713,13.713,0,0,1,1.8,3.913c.39,1.289.79,2.573,1.077,3.892a10.314,10.314,0,0,1,.259,2.287c-.016,2.218-.333,4.411-.556,6.611a4.865,4.865,0,0,1-.179.845,38.183,38.183,0,0,1-1.863,6.059,4.653,4.653,0,0,0-.16.554,9.021,9.021,0,0,1-.368,1.087c-.691,1.482-1.4,2.955-2.111,4.427a31.57,31.57,0,0,1-3.423,5.332,13.285,13.285,0,0,1-1.152,1.29c-.745.751-1.51,1.483-2.272,2.217a10.84,10.84,0,0,1-.853.776,22.763,22.763,0,0,1-7.042,3.87c-1.74.558-3.477,1.131-5.25,1.579a16.55,16.55,0,0,1-1.961.477,29.484,29.484,0,0,1-5.166.472C355.5,152.023,355.02,152.043,354.895,152.043Z" transform="translate(-314.445 -84.164)" fill="#fff"/>
  <path id="Контур_2507" data-name="Контур 2507" d="M350.866,146.385c.521-.016,1.483-.031,2.443-.078.479-.024.957-.1,1.431-.169.285-.042.564-.123.846-.183a26.133,26.133,0,0,0,3.407-.557c.991-.349,2.056-.483,3.08-.743a9.542,9.542,0,0,0,1.358-.472,51.647,51.647,0,0,0,5.192-2.509c.336-.189.66-.4,1.006-.566a30.442,30.442,0,0,0,5.443-3.771,7.35,7.35,0,0,0,1.048-.989,23.84,23.84,0,0,0,3.855-5.719,24.338,24.338,0,0,0,1.987-5.7,38.147,38.147,0,0,0,.952-4.515,31.087,31.087,0,0,0-.057-8.343,7.878,7.878,0,0,0-.343-1.4,18.449,18.449,0,0,0-3.44-5.966c-.673-.815-1.426-1.562-2.147-2.336-.13-.141-.283-.26-.422-.394-1.186-1.127-2.312-2.324-3.571-3.362s-2.658-1.9-3.978-2.866a14.775,14.775,0,0,0-3.535-1.931,26.7,26.7,0,0,1-3.189-1.337,6.841,6.841,0,0,0-1.075-.42q-1.917-.632-3.843-1.241a5.027,5.027,0,0,0-1.118-.268c-1.726-.125-3.424-.479-5.162-.521a33.6,33.6,0,0,1-4.019-.382,25.9,25.9,0,0,0-3.449-.258,10.261,10.261,0,0,0-2.571.288c-1.213.294-2.443.534-3.677.725a9.465,9.465,0,0,0-2.732.881c-.691.337-1.4.644-2.093.972a6.613,6.613,0,0,0-1.683,1.1q-2.12,1.962-4.065,4.1a5.612,5.612,0,0,0-1.094,1.687,24.152,24.152,0,0,1-1.336,2.553c-.465.843-.9,1.7-1.323,2.565a8.885,8.885,0,0,0-.515,1.343c-.248.829-.492,1.662-.674,2.506a17.648,17.648,0,0,0-.545,3.7,15.216,15.216,0,0,1-.234,2.294,34.887,34.887,0,0,0-.279,8.326,34.13,34.13,0,0,0,.705,3.382.955.955,0,0,0,.094.273c.811,1.536,1.213,3.235,1.937,4.812a15.287,15.287,0,0,0,3.275,4.7,54.121,54.121,0,0,0,5.571,4.571c.54.4,1.074.811,1.584,1.249a18.6,18.6,0,0,0,8.531,3.955,2.622,2.622,0,0,1,.284.055c1.315.282,2.621.654,3.951.822C347.914,146.4,349.175,146.339,350.866,146.385Zm30.552-30.107a16.143,16.143,0,0,1-.3,3.98c-.106.663-.176,1.334-.23,2a13.263,13.263,0,0,1-.436,2.259c-.294,1.124-.829,2.154-1.192,3.245a15.717,15.717,0,0,1-3.134,5.464c-.126.144-.23.309-.355.455A20.492,20.492,0,0,1,370.783,138c-2.475,1.5-5.1,2.689-7.692,3.943a7.168,7.168,0,0,1-1.368.436c-1.118.284-2.251.51-3.36.823a21.937,21.937,0,0,1-7.678.98c-.861-.065-1.73,0-2.595-.022a6.927,6.927,0,0,1-1.431-.14c-1.963-.471-3.931-.927-5.87-1.483a13.123,13.123,0,0,1-5.067-2.664,35.066,35.066,0,0,0-2.974-2.278,19.292,19.292,0,0,1-3.347-2.724,8.643,8.643,0,0,0-.889-.732,4.586,4.586,0,0,1-.642-.576,16.275,16.275,0,0,1-2.048-2.777c-.392-.769-.852-1.5-1.29-2.248a3.634,3.634,0,0,1-.508-1.338,7.978,7.978,0,0,0-.454-1.666,13.105,13.105,0,0,1-.82-3.644,3.751,3.751,0,0,0-.118-.856,7.051,7.051,0,0,1-.065-3.143,11,11,0,0,0,.184-1.139,36.5,36.5,0,0,1,.635-6.011,14.133,14.133,0,0,1,1.22-5.01,11.526,11.526,0,0,1,1.29-2.57,25.344,25.344,0,0,0,1.323-2.231,17.429,17.429,0,0,1,3.73-4.725,14.2,14.2,0,0,1,3.056-2.144c.77-.392,1.572-.723,2.346-1.107a5.349,5.349,0,0,1,3.3-.8c.857-.119,1.714-.231,2.568-.36a12.487,12.487,0,0,1,4.02-.069,37.173,37.173,0,0,0,5.455.439,15.164,15.164,0,0,1,2.572.3,34.585,34.585,0,0,1,7.927,2.586c.784.366,1.579.706,2.366,1.064.349.16.7.318,1.037.5,1.768.972,3.508,1.994,5.193,3.109a15.632,15.632,0,0,1,2.254,1.79,49.31,49.31,0,0,1,4.08,4.069,10.787,10.787,0,0,1,2.653,3.733c.195.438.454.847.654,1.284a4.817,4.817,0,0,1,.395,1.077A16.526,16.526,0,0,1,381.418,116.277Z" transform="translate(-313.189 -83.101)" fill="#fff"/>
  <path id="Контур_2508" data-name="Контур 2508" d="M342.684,109.7q0,3.748,0,7.5c0,1.346-.026,2.692.012,4.036a1.72,1.72,0,0,0,.877,1.413,3.15,3.15,0,0,0,.5.274,23.3,23.3,0,0,1,4.067,2.162,64.2,64.2,0,0,0,10.3,5.153,4.04,4.04,0,0,0,1.125.207.9.9,0,0,0,.926-.531q.181-.545.327-1.1a.389.389,0,0,0-.242-.468,4.425,4.425,0,0,0-.8-.33,32.516,32.516,0,0,1-4.582-1.725A20.274,20.274,0,0,1,350.882,124c-1.873-1-3.539-2.308-5.309-3.46a1.3,1.3,0,0,1-.558-.971c-.114-1.051-.225-2.1-.382-3.147a15.034,15.034,0,0,1,.035-4.026,23.856,23.856,0,0,0,.163-2.586c.024-2.4.035-4.806.078-7.208.025-1.441.106-2.881.148-4.323a7.06,7.06,0,0,0-.063-.856.772.772,0,0,0-1.081-.58,1.7,1.7,0,0,0-.976,1.337,18.123,18.123,0,0,0-.138,2.589C342.931,103.752,342.754,106.727,342.684,109.7Z" transform="translate(-308.698 -81.598)" fill="#fff"/>
</svg>
