<svg id="Сгруппировать_1032" data-name="Сгруппировать 1032" xmlns="http://www.w3.org/2000/svg" width="105.415" height="69.588" viewBox="0 0 105.415 69.588">
  <path id="Контур_2511" data-name="Контур 2511" d="M153.806,309.054c4.163.311,7.666.384,11.172.373,1.637-.006,3.272-.02,4.907-.025.351,0,.7.026,1.049.042a1.866,1.866,0,0,1,1.648,1.549,6.617,6.617,0,0,1,.076.7,29.683,29.683,0,0,1-.386,5.935,11.094,11.094,0,0,0-.171,1.391,14.19,14.19,0,0,1-.68,3.423,21.818,21.818,0,0,0-.929,6.917,3.07,3.07,0,0,0,1.168,2.442,4.868,4.868,0,0,0,2.828,1.267,12.63,12.63,0,0,1,2.759.465,14.24,14.24,0,0,0,4.162.492,5.941,5.941,0,0,0,1.374-.229,1.708,1.708,0,0,0,1.061-.848,3.726,3.726,0,0,0,.525-1.654,18.007,18.007,0,0,1,.247-2.437c.145-.68.174-1.385.311-2.068.039-.2.266-.364.433-.517a.59.59,0,0,1,.329-.108c.463-.045.928-.107,1.393-.108,2.714,0,2.6.042,5.327-1.368.31-.161.626-.319.921-.5a3.476,3.476,0,0,0,1.59-2.221c.235-1.023.4-2.062.6-3.092.045-.229.092-.459.143-.687a1.508,1.508,0,0,1,1.29-1.011,11.438,11.438,0,0,1,1.738.172,15.392,15.392,0,0,0,3.477.373,8.663,8.663,0,0,0,1.046-.083,2.313,2.313,0,0,0,1.273-.538c.431-.389.821-.824,1.223-1.247a1.743,1.743,0,0,0,.4-.953,5.449,5.449,0,0,0,.064-1.046,47.886,47.886,0,0,1,.032-5.954c.054-.579-.013-1.168.009-1.752a10.454,10.454,0,0,1,.142-1.74,28.084,28.084,0,0,0,.528-5.569,24.682,24.682,0,0,1,.323-3.135,6.727,6.727,0,0,0-.019-2.09,4.344,4.344,0,0,1-.1-1.388,15.333,15.333,0,0,0-.037-3.493c-.094-1.282-.12-2.568-.208-3.849a3.311,3.311,0,0,0-.834-1.891,1.9,1.9,0,0,0-1.146-.751c-1.613-.25-3.2-.69-4.834-.792a5.02,5.02,0,0,1-1.708-.351,1.59,1.59,0,0,1-.941-.97,13.715,13.715,0,0,1-.548-3.449,7.441,7.441,0,0,0-.583-2.372,2.87,2.87,0,0,0-.342-.609,2.7,2.7,0,0,0-2.024-1.239,35.5,35.5,0,0,1-4.837-.791,4.429,4.429,0,0,1-.675-.183,1.724,1.724,0,0,1-1.19-1.181,15.31,15.31,0,0,0-.649-2.357,3.324,3.324,0,0,0-3.409-1.932,1.905,1.905,0,0,0-.346.045,15.291,15.291,0,0,1-4.833.678,12.864,12.864,0,0,0-1.388.175,2.374,2.374,0,0,0-1.714,1.589,20.889,20.889,0,0,0-.538,7.982,10.479,10.479,0,0,1-.044,3.83,2.8,2.8,0,0,0-.028,1.046,13.74,13.74,0,0,1,.063,2.794c-.036.814.251,1.61.181,2.439a1.549,1.549,0,0,1-1.052,1.266,4.3,4.3,0,0,1-.687.108,7.031,7.031,0,0,0-1.74.142,13.749,13.749,0,0,1-3.469.421,13.833,13.833,0,0,0-2.787.273,21.224,21.224,0,0,1-3.833.365c-1.168.032-2.337.045-3.5.057a23.69,23.69,0,0,0-3.493.24,15.962,15.962,0,0,1-4.539-.02,56.579,56.579,0,0,0-9.436-.462,5.094,5.094,0,0,1-.691-.082,1.419,1.419,0,0,1-.976-.9,4.706,4.706,0,0,1-.051-2.085c.583-2.635.485-5.35,1.011-7.992a12.511,12.511,0,0,0,.129-2.446c0-1.4-.025-2.8-.091-4.2a17.257,17.257,0,0,0-.608-3.8,1.789,1.789,0,0,0-.83-1.089,18.377,18.377,0,0,0-3.171-1.475,4.689,4.689,0,0,0-1.024-.221,43.76,43.76,0,0,0-7.348-.172,1.955,1.955,0,0,0-1.659,1.124,3.455,3.455,0,0,0-.419,1.678,10.5,10.5,0,0,0,.076,1.048c.1.929.218,1.856.307,2.787a3.98,3.98,0,0,1-.061.69,1.159,1.159,0,0,1-1,.83,21.524,21.524,0,0,1-3.422-.72,5.1,5.1,0,0,0-3.728.513,1.846,1.846,0,0,0-.528.453,3.8,3.8,0,0,0-.956,1.846c-.234,1.263-.425,2.533-.634,3.8a1.508,1.508,0,0,1-1.254,1.057c-.814-.047-1.629-.1-2.442-.177a13.714,13.714,0,0,0-2.449-.048,2.6,2.6,0,0,0-1.831.916,14.5,14.5,0,0,0-1.207,1.713,2.429,2.429,0,0,0-.358.976c-.164,1.514-.5,2.994-.807,4.479a27.4,27.4,0,0,0-.681,5.553,10.348,10.348,0,0,1-.435,3.114,11.3,11.3,0,0,0-.364,2.772,38.316,38.316,0,0,1-.44,4.532,13.5,13.5,0,0,0-.121,2.094c-.02.934-.015,1.869-.006,2.8a2.324,2.324,0,0,0,.095.691c.294.886.567,1.78.931,2.636a2.087,2.087,0,0,0,1.973,1.222,11.466,11.466,0,0,0,2.417-.386,5.183,5.183,0,0,1,2.432-.028c.915.243,1.859.146,2.78.3a1.333,1.333,0,0,1,.851,1.011,6.514,6.514,0,0,1-.02,1.042,34.747,34.747,0,0,0-.251,5.594,2.112,2.112,0,0,0,.453,1.3,2.171,2.171,0,0,0,.761.7c.969.406,1.979.71,2.953,1.1a4.47,4.47,0,0,0,3.408.045.8.8,0,0,1,.845.447,6.625,6.625,0,0,1,.367.981,10.522,10.522,0,0,1,.282,1.726,26.977,26.977,0,0,0,.69,4.141,1.907,1.907,0,0,0,1.492,1.32c.462.063.932.07,1.393.148a9.375,9.375,0,0,1,1.7.373,16.935,16.935,0,0,0,2.7.72,3.135,3.135,0,0,0,1.388-.019c.678-.174,1.366-.317,2.033-.53a3.715,3.715,0,0,0,1.925-1.454,2.9,2.9,0,0,0,.4-.957,4.685,4.685,0,0,0,.1-1.043c.037-2.454.063-4.907.092-7.359.007-.585,0-1.169.026-1.752a45.934,45.934,0,0,0,0-5.6,11.717,11.717,0,0,1,.76-4.809.986.986,0,0,1,.827-.561,7.343,7.343,0,0,1,1.042-.072c1.869.035,3.738.143,5.6.111,2.92-.05,5.838-.19,8.756-.3C153.545,309.075,154.008,309.044,153.806,309.054ZM133.5,321.59h-.029c-.089,2.568-.165,5.135-.27,7.7a2.018,2.018,0,0,1-2.515,1.77c-.113-.031-.232-.035-.34-.076-.656-.246-1.328-.459-1.958-.758-.756-.359-1.618-.269-2.363-.617a1.507,1.507,0,0,1-.872-1.036,34.561,34.561,0,0,1-.823-5.885,10.7,10.7,0,0,1,.083-2.445,10.572,10.572,0,0,0,.123-2.094c-.018-1.4-.053-2.8.009-4.2.083-1.866.323-3.726.364-5.591s.4-3.715.275-5.585a9.18,9.18,0,0,0,.2-2.783c-.01-.585.026-1.168.035-1.752a13.367,13.367,0,0,1,.5-3.808,5.9,5.9,0,0,0,.247-2.077c-.012-.232-.015-.466-.02-.7a21.567,21.567,0,0,1,.468-5.569,12.953,12.953,0,0,0,.225-3.487,7.1,7.1,0,0,1-.028-1.4,20.305,20.305,0,0,0,.133-4.191,8.136,8.136,0,0,1,.209-2.084,14.517,14.517,0,0,0,.237-4.182c-.041-.7-.142-1.394-.17-2.093a4.986,4.986,0,0,1,.121-1.035,1.235,1.235,0,0,1,.944-.913c.465-.035.929-.067,1.4-.094a12.863,12.863,0,0,1,4.795.864,5.375,5.375,0,0,1,.929.487,2.082,2.082,0,0,1,.884,1.051,5.6,5.6,0,0,1,.456,2.04q.031,1.576.031,3.154a45.642,45.642,0,0,1-.818,10.808,38,38,0,0,0-.506,6.626,15.173,15.173,0,0,1-.368,3.824,14.434,14.434,0,0,0-.314,4.18c.044.815.058,1.635.149,2.446a5.446,5.446,0,0,1-.079,1.736c-.1.457-.133.929-.263,1.375a20.43,20.43,0,0,0-.649,5.55,11.208,11.208,0,0,1-.1,1.746,31.35,31.35,0,0,0-.326,5.587C133.5,319.255,133.5,320.422,133.5,321.59Zm21.022-14.4c-2.161-.016-4.612-.077-7.061.1-3.146.234-6.3.085-9.446.028a.912.912,0,0,1-.342-.07,1.627,1.627,0,0,1-.8-.637,2.041,2.041,0,0,1-.278-1.672,14.845,14.845,0,0,0,.663-5.175,26.1,26.1,0,0,1,.333-5.235,8.659,8.659,0,0,1,.472-1.678,2.066,2.066,0,0,1,.906-1.032,3.93,3.93,0,0,1,1.634-.582,12.152,12.152,0,0,1,3.838.058,24.034,24.034,0,0,0,4.175.365,76.193,76.193,0,0,0,8.048-.035c1.4-.082,2.8-.1,4.2-.094a13.466,13.466,0,0,0,2.785-.216,14.636,14.636,0,0,1,3.132-.292,10.751,10.751,0,0,0,2.771-.339,11.566,11.566,0,0,1,1.727-.264,6.237,6.237,0,0,1,1.043.029A1.8,1.8,0,0,1,173.964,292a10.918,10.918,0,0,1,.073,1.4c-.076,1.4-.111,2.8-.313,4.185s-.386,2.774-.459,4.172a28.034,28.034,0,0,1-.725,4.486,1.679,1.679,0,0,1-1.287,1.043c-.232.02-.465.048-.7.057-.583.02-1.168.056-1.749.044-3.617-.075-7.235.079-10.851-.115C156.909,307.214,155.857,307.22,154.518,307.191Zm29.617-21.708a6.251,6.251,0,0,1-.053,1.73c-.2,2.682-.361,5.362-.292,8.055a40.313,40.313,0,0,1-.137,4.2c-.11,1.4-.37,2.78-.5,4.175-.137,1.512-.2,3.031-.292,4.548-.007.115-.038.231-.057.346a53.3,53.3,0,0,0-.536,5.581,16.355,16.355,0,0,1-.235,2.085,14.644,14.644,0,0,0-.259,3.488c.114,2.452-.056,4.906.064,7.359a28.792,28.792,0,0,1-.142,3.149,4.523,4.523,0,0,1-.158.68,1.292,1.292,0,0,1-1.07.761c-1.266-.213-2.54-.393-3.8-.649a15.667,15.667,0,0,1-2.354-.672,1.681,1.681,0,0,1-1.092-1.28,10.349,10.349,0,0,1-.126-1.743,12.992,12.992,0,0,1,.558-4.149,22,22,0,0,0,.725-3.067c.27-1.612.371-3.25.735-4.85a4.723,4.723,0,0,0,.085-1.046c0-2.335.1-4.67.047-7.006a24.282,24.282,0,0,1,.3-5.239,9.9,9.9,0,0,0,.167-1.391,52.145,52.145,0,0,1,.712-6.62,7.6,7.6,0,0,0,.085-1.048,40.258,40.258,0,0,1,.528-5.23,7.588,7.588,0,0,0-.015-2.79,22.332,22.332,0,0,1-.288-5.59c.063-1.171.051-2.334.007-3.5-.022-.583-.022-1.169-.031-1.752a6.242,6.242,0,0,1,.285-2.075,9.048,9.048,0,0,0,.415-2.053,1.1,1.1,0,0,1,.894-.959c1.135-.27,2.28-.511,3.424-.744a2.118,2.118,0,0,1,2.4,1.565,8.662,8.662,0,0,1,.364,2.766c-.032,1.754-.083,3.506-.1,5.259a36,36,0,0,1-.225,4.2A14.9,14.9,0,0,0,184.135,285.483Zm10.811,3.211h-.025c.013,1.748-.029,3.5.055,5.243a13.5,13.5,0,0,1-.27,3.821,13.908,13.908,0,0,0-.4,3.114c-.029,2.679-.11,5.356-.406,8.023a3.837,3.837,0,0,0-.032.7,16.658,16.658,0,0,1-.378,4.166,42.706,42.706,0,0,0-.663,5.549,5.946,5.946,0,0,1-.53,2.018,3.575,3.575,0,0,1-2.895,2.249,10.5,10.5,0,0,1-3.136,0,1.832,1.832,0,0,1-1.637-1.581,6.958,6.958,0,0,1-.178-1.735c.117-2.671-.134-5.362.5-8.01a19.435,19.435,0,0,0,.269-2.781,10.429,10.429,0,0,1,.124-1.391,23,23,0,0,0,.381-5.22c0-.466.013-.932.05-1.4a41.48,41.48,0,0,0,.177-5.236,3.043,3.043,0,0,1,.1-1.038,14.664,14.664,0,0,0,.424-4.159c.067-4.079.066-8.16.482-12.226a12.44,12.44,0,0,0-.012-1.746,6.359,6.359,0,0,1,.329-2.059,1,1,0,0,1,.7-.71,11.858,11.858,0,0,1,3.823-.112,2.393,2.393,0,0,1,1.251.58,2.938,2.938,0,0,1,1.045,1.768c.2,1.029.333,2.071.5,3.105a30.088,30.088,0,0,1,.422,5.223C195,286.13,194.97,287.412,194.946,288.693Zm-70.537-8.056a44.856,44.856,0,0,1-.681,7.66,10.167,10.167,0,0,0-.143,1.742c-.029.815-.039,1.632-.035,2.449a19.362,19.362,0,0,1-.3,3.83,15.422,15.422,0,0,0-.282,2.429c-.1,3.148-.178,6.3-.243,9.446a12.386,12.386,0,0,1-.3,2.774,19.827,19.827,0,0,0-.492,5.211c.018.817.035,1.634.031,2.449a7.154,7.154,0,0,1-.092,1.045,1.788,1.788,0,0,1-1.292,1.5,3.953,3.953,0,0,1-3.68-.393,2.221,2.221,0,0,1-1.089-1.7,11.283,11.283,0,0,1-.01-2.1,16.528,16.528,0,0,0,.227-4.866,1.164,1.164,0,0,1,.016-.348,58.757,58.757,0,0,0,.243-6.99,35.407,35.407,0,0,0-.329-5.935,11.818,11.818,0,0,1,.048-3.836,28.25,28.25,0,0,0,.3-4.184c.064-2.332.1-4.666.17-7a18.369,18.369,0,0,1,.151-2.442c.206-1.268.33-2.543.449-3.82a22.3,22.3,0,0,1,.431-2.408,3.48,3.48,0,0,1,.266-.639,1.164,1.164,0,0,1,.859-.517,15.306,15.306,0,0,1,5.067,1.233c.186.075.324.333.424.538a1.68,1.68,0,0,1,.175.671C124.348,277.84,124.375,279.238,124.41,280.637ZM113.648,304.42c0,1.1.028,1.689-.007,2.271a11.477,11.477,0,0,1-.229,2.436,1.445,1.445,0,0,1-.953.925c-.231.025-.46.08-.691.086-1.751.044-3.5.1-5.254.107a1.532,1.532,0,0,1-1.4-.886,5.216,5.216,0,0,1-.533-1.657,17.4,17.4,0,0,1,.051-5.24c.289-1.85.526-3.7.63-5.565a8.556,8.556,0,0,1,.218-1.382,24.5,24.5,0,0,0,.494-4.523,12.852,12.852,0,0,1,.107-1.746c.374-2.188.805-4.364,1.339-6.519a1.644,1.644,0,0,1,1.3-1.029c1.163.088,2.326.175,3.485.3a1.642,1.642,0,0,1,1.533,1.616c.019.817.039,1.635.018,2.451q-.134,4.906-.3,9.809c-.025.7-.164,1.391-.215,2.088a5.349,5.349,0,0,0,.009,1.393A29.452,29.452,0,0,1,113.648,304.42ZM197.7,289.2c-.044-1.041-.108-1.973-.113-2.905a8.192,8.192,0,0,1,.174-1.38,1.336,1.336,0,0,1,.976-.886,18.643,18.643,0,0,1,3.83.1,1.614,1.614,0,0,1,1.135.737,2.122,2.122,0,0,1,.319.618,4.516,4.516,0,0,1,.206,1.026,59.826,59.826,0,0,1,.226,6.979c-.023.349-.029.7-.044,1.049a6.487,6.487,0,0,0,.162,1.736,10.061,10.061,0,0,1,0,4.172c-.263,1.375-.424,2.768-.685,4.14a28.8,28.8,0,0,0-.443,6.617c.029.7.034,1.4.029,2.1a5.564,5.564,0,0,1-.1.688,1.564,1.564,0,0,1-1.217,1.1,18.07,18.07,0,0,1-4.169-.37,2.87,2.87,0,0,1-.652-.248,1.553,1.553,0,0,1-.982-1.339,21.531,21.531,0,0,1,.329-4.875,13.052,13.052,0,0,0,.2-3.478c-.038-.58-.086-1.163-.069-1.743q.1-3.323.247-6.642a11.005,11.005,0,0,1,.215-2.084A30.966,30.966,0,0,0,197.7,289.2Z" transform="translate(-101.87 -264.432)" fill="#fff"/>
</svg>
