<svg xmlns="http://www.w3.org/2000/svg" width="69.395" height="74.979" viewBox="0 0 69.395 74.979">
  <g id="Сгруппировать_1033" data-name="Сгруппировать 1033" transform="translate(0.895 0.528)">
    <path id="Контур_2512" data-name="Контур 2512" d="M725.262,254.854c-2.24,8.972-5.1,18.222-7.584,27.287-2.124,8.954-4.761,18.146-8.857,26.273-.87-.161-.208-1.343-.083-1.877,1.41-4.577,4.251-8.606,5.179-13.3,2.949-11.693,6.438-23.15,9.11-34.907,4.315-6.755-3.546-10.558-9.038-12.027-8.009-3.9-16.788-5.491-25.125-8.573-3.521-1.576-8.3-.931-11.292-3.208,5.98.111,13.107,2.975,19.222,4.926,6.156,1.069,11.871,3.48,17.627,5.78,2.8,1.042,6.009,1.372,7.89,3.979A6.11,6.11,0,0,1,725.262,254.854Z" transform="translate(-670.525 -234.523)" fill="#fff" stroke="#fff" stroke-width="1"/>
    <path id="Контур_2513" data-name="Контур 2513" d="M665.961,283.378c1.393-1.743,7.573.8,9.915.983,5.893,1.458,12.03,1.514,18.05,1.71,1.919-.1,3.818-2.006,5.659-.73.94,2.921-4.247,5.275-4.86,8.27-1.882,6.125-4.6,13.2-2.176,19.508.493,1.333,1.466,2.635,1.3,4.107-.488,1.5.214,6.543-1.582,6.5,1.977-9.877-2.035-8.91-1.557-17.431.991-5.184,1.469-10.693,4.178-15.343.558-1.117,5.6-5.75,1.747-4.245-2.149,1.023-3.813.572-6,.385C682.235,287.464,674.086,285.125,665.961,283.378Z" transform="translate(-665.961 -253.487)" fill="#fff" stroke="#fff" stroke-width="1"/>
    <path id="Контур_2514" data-name="Контур 2514" d="M695.434,273.635c2.391.037,4.839.762,7.214.139.646-.248,3.9-1.431,2.715.073-4.772,1.885-10.328.94-15.33.7C688.606,272.316,694.367,274.069,695.434,273.635Z" transform="translate(-675.334 -249.685)" fill="#fff" stroke="#fff" stroke-width="1"/>
    <path id="Контур_2515" data-name="Контур 2515" d="M740.642,267.9c1.572.1,4.469,3.68,2.679,4.916-1.162,1.748-.8,4.766-2.7,5.912-.906-.368,1.5-6.258,2-7.132-.076-1.1-1.334-3.077-2.683-2.5C739.043,268.848,740.167,267.7,740.642,267.9Z" transform="translate(-694.907 -247.632)" fill="#fff" stroke="#fff" stroke-width="1"/>
    <path id="Контур_2516" data-name="Контур 2516" d="M731.308,308.5a22.1,22.1,0,0,1-.979,5.683c-.468,1.061-3.63,9.369-4.753,6.753,1.831-2.916,3.941-6.081,4.519-9.6C730.077,310.737,730.651,306.768,731.308,308.5Z" transform="translate(-689.393 -263.429)" fill="#fff" stroke="#fff" stroke-width="1"/>
    <path id="Контур_2517" data-name="Контур 2517" d="M756.249,241.1c.013.466.025.982.041,1.5.006.2.012.4.035.595a.6.6,0,0,0,.328.469.85.85,0,0,0,.333.121,19.5,19.5,0,0,0,2.144.1,4.054,4.054,0,0,1,.833.035.485.485,0,0,1,.383.4,14.344,14.344,0,0,0,.14,2.379c.057.432.042.874.074,1.31a.618.618,0,0,0,.417.532,1.183,1.183,0,0,0,.463.1q.954.013,1.909.012a2.254,2.254,0,0,0,.474-.042,9.083,9.083,0,0,1,1.415-.189.441.441,0,0,0,.357-.28,1.93,1.93,0,0,0,.2-.923,9.78,9.78,0,0,0-.126-1.664,11.518,11.518,0,0,1-.143-1.3,2.006,2.006,0,0,1,.014-.237.44.44,0,0,1,.293-.338c.118-.018.235-.045.353-.052a5.747,5.747,0,0,0,1.063-.138,3.209,3.209,0,0,1,1.067-.067,5.531,5.531,0,0,0,.6,0,.535.535,0,0,0,.429-.357,2.44,2.44,0,0,0,.075-.709q-.048-1.312-.113-2.623a2.045,2.045,0,0,0-.073-.469,6.761,6.761,0,0,1-.149-.821.617.617,0,0,0-.582-.506c-.357-.026-.715-.04-1.072-.063a5.48,5.48,0,0,1-1.628-.338.41.41,0,0,1-.287-.35c-.037-.876-.253-1.73-.295-2.606a.624.624,0,0,0-.428-.53,1.522,1.522,0,0,0-.341-.1c-.274-.045-.55-.083-.827-.111-.4-.039-.792-.068-1.189-.1l-.238-.02c-.318-.028-.628.083-.951.035a6.712,6.712,0,0,0-.833-.043.755.755,0,0,0-.232.045.439.439,0,0,0-.308.331,1.067,1.067,0,0,0-.019.354,1.293,1.293,0,0,0,.086.346,2.523,2.523,0,0,1,.156.936.993.993,0,0,1,0,.12,4.826,4.826,0,0,0,.182,1.887,1.456,1.456,0,0,1,.012.353.454.454,0,0,1-.188.287,3.249,3.249,0,0,1-1.274.27c-.238-.009-.477.01-.716.019a2.162,2.162,0,0,1-.59-.07,7,7,0,0,0-.7-.134,2.078,2.078,0,0,0-.355.012.369.369,0,0,0-.3.327,10.463,10.463,0,0,1,.043,1.667A4.75,4.75,0,0,0,756.249,241.1Zm4.956,4.058c0-.152-.006-.312,0-.471.018-.358.045-.716.063-1.074a.982.982,0,0,0-.029-.354c-.021-.067-.164-.243-.233-.253a3.383,3.383,0,0,0-.472-.055c-.6,0-1.2.022-1.793.034a3.643,3.643,0,0,1-.95-.087c-.116-.028-.231-.062-.343-.1a.622.622,0,0,1-.393-.418,1.329,1.329,0,0,1-.077-.348q-.041-1.015-.064-2.031a1.373,1.373,0,0,1,.068-.35.489.489,0,0,1,.328-.316,4.781,4.781,0,0,1,1.542.007c.636.035,1.271.073,1.908.1a.318.318,0,0,0,.2-.108.615.615,0,0,0,.191-.545,13.33,13.33,0,0,1-.159-1.663,9.263,9.263,0,0,1,.033-1.79,1,1,0,0,1,.055-.231.445.445,0,0,1,.23-.257.718.718,0,0,1,.226-.071,14.8,14.8,0,0,1,1.91-.022,1.9,1.9,0,0,1,.354.055.791.791,0,0,1,.614.51,3.279,3.279,0,0,1,.165,1.762c-.045.235-.106.467-.14.7a3.083,3.083,0,0,0-.012.476.524.524,0,0,0,.48.453,1.312,1.312,0,0,0,.351-.044,2.1,2.1,0,0,1,1.179.03,3.569,3.569,0,0,0,.942.14,4.072,4.072,0,0,1,.593.065.627.627,0,0,1,.452.357,1.922,1.922,0,0,1,.193.808c.006.438.009.877,0,1.315,0,.2-.021.4-.04.6a.582.582,0,0,1-.478.47c-.553.071-1.105.146-1.66.2a3.046,3.046,0,0,1-.595-.022c-.237-.023-.472-.066-.709-.1a.489.489,0,0,0-.459.316,1.557,1.557,0,0,0-.071.347,2.5,2.5,0,0,0,.079.83,6.575,6.575,0,0,1,.211,1.535c.015.318.067.633.1.951.015.158.019.317.023.476a.622.622,0,0,1-.308.48,3.33,3.33,0,0,1-.92.242,10.687,10.687,0,0,1-2.028-.038.531.531,0,0,1-.113-.036.467.467,0,0,1-.316-.329,2.2,2.2,0,0,1-.076-.469C761.239,246.283,761.225,245.725,761.206,245.16Z" transform="translate(-701.418 -230.945)" fill="#fff" stroke="#fff" stroke-width="1"/>
  </g>
</svg>
