<svg xmlns="http://www.w3.org/2000/svg" width="36.606" height="44.749"><g data-name="Сгруппировать 1557" fill="#fff" stroke="#fff"><path data-name="Контур 2911" d="M6.76 16.628v.63a8.137 8.137 0 00.092 1.632 15.2 15.2 0 00.523 1.814c.159.434.327.863.48 1.3a7.509 7.509 0 00.536 1.137c.245.441.486.883.7 1.341a6.041 6.041 0 001.3 1.839 14.2 14.2 0 001.32 1.167c.134.1.274.2.4.308a.637.637 0 01.213.442c.018.293.023.587.037.881a3.659 3.659 0 00.221 1.108.666.666 0 00.224.295.414.414 0 00.468-.014 1.712 1.712 0 00.415-.623.632.632 0 00.016-.371.577.577 0 00-.093-.231 1.746 1.746 0 01-.258-1.442 4.029 4.029 0 00.114-.617.581.581 0 00-.322-.5 4.59 4.59 0 01-1.842-1.046 4.347 4.347 0 01-.852-.918c-.047-.07-.1-.138-.139-.21a4.788 4.788 0 01-.321-.542c-.308-.692-.736-1.32-1.068-2a4.916 4.916 0 01-.195-.464c-.219-.591-.433-1.183-.649-1.774a6.165 6.165 0 01-.393-1.839c-.012-.252-.044-.5-.074-.752a4.494 4.494 0 010-1.005c.048-.459.081-.92.123-1.38a11.08 11.08 0 01.773-3.17 2.724 2.724 0 01.162-.34c.169-.291.334-.584.521-.863a3.155 3.155 0 01.474-.585 10.838 10.838 0 011.881-1.471 2.818 2.818 0 01.322-.2c.547-.22 1.043-.541 1.578-.787a6.651 6.651 0 011.423-.494c.41-.086.812-.214 1.214-.334a3.012 3.012 0 011.5-.075c.617.133 1.241.209 1.859.325a8.519 8.519 0 01.86.2 6.7 6.7 0 00.982.216 4.933 4.933 0 011.553.5c.3.152.609.283.912.428.227.109.449.229.676.338a4.006 4.006 0 011.523 1.288 1.593 1.593 0 00.152.2 10.09 10.09 0 011.7 2.633 11.079 11.079 0 01.669 1.765 10.639 10.639 0 01.522 3.723c-.011.252-.034.5-.064.753a4.123 4.123 0 01-.778 1.97c-.222.305-.443.612-.659.923-.168.241-.332.484-.487.733a9 9 0 01-1.4 1.775 3.35 3.35 0 01-.276.257 15.026 15.026 0 01-2.849 1.842 3.712 3.712 0 01-.96.3 2.685 2.685 0 00-.728.193.642.642 0 00-.434.564 10.142 10.142 0 01-.106 1.127 2.072 2.072 0 00.2 1.225.919.919 0 00.153.2.316.316 0 00.348.033.722.722 0 00.375-.616c.008-.21-.009-.419-.008-.629a5.708 5.708 0 01.019-.629.575.575 0 01.356-.48 1.581 1.581 0 01.355-.128 4.53 4.53 0 001.378-.6c.627-.345 1.217-.745 1.811-1.142a4.7 4.7 0 00.77-.648 12.05 12.05 0 001.714-2.169c.346-.579.771-1.1 1.151-1.655a7.516 7.516 0 00.641-1.082 2.5 2.5 0 00.2-.595 10.425 10.425 0 00.048-4.129 14.958 14.958 0 00-.343-1.6 8.926 8.926 0 00-.346-.945c-.265-.572-.526-1.146-.831-1.7A9.07 9.07 0 0026.85 9.3c-.2-.211-.4-.432-.6-.649a4.5 4.5 0 00-1.182-.932c-.666-.357-1.334-.711-2.007-1.054a4.015 4.015 0 00-1.311-.429 7.308 7.308 0 01-.74-.155c-.449-.106-.892-.245-1.346-.322s-.915-.116-1.37-.2a6.266 6.266 0 00-1.254-.1 3.851 3.851 0 00-.628.04c-.537.095-1.071.208-1.606.314a.769.769 0 00-.12.037 14.9 14.9 0 00-3.716 1.83 9.071 9.071 0 01-.947.619 4.609 4.609 0 00-1.232 1.067.632.632 0 00-.139.208 6.706 6.706 0 01-.66 1.213c-.12.221-.224.451-.322.682a3.1 3.1 0 00-.209.593c-.1.5-.338.948-.41 1.451-.054.373-.177.738-.214 1.112-.05.5-.049 1.006-.066 1.509-.006.168 0 .336 0 .5z"/><path data-name="Контур 2912" d="M17.663 27.212c-.015-.228-.028-.522-.054-.814a15.136 15.136 0 01-.082-1.633 3.53 3.53 0 00-.127-1c-.066-.242-.086-.495-.13-.742-.051-.289-.106-.578-.16-.866a1.34 1.34 0 00-.5-.849 4.419 4.419 0 01-.738-.681 2.544 2.544 0 00-.38-.328l-.782-.634a2.734 2.734 0 01-.711-.872 2.115 2.115 0 01-.311-.68.208.208 0 01.091-.221.49.49 0 01.1-.068 3.166 3.166 0 001.177-.707.958.958 0 01.2-.144.372.372 0 01.359-.022c.254.143.5.309.749.455a.441.441 0 00.366.011 1.33 1.33 0 00.227-.106c.11-.062.211-.14.324-.193a.445.445 0 01.476.029c.2.15.384.321.58.475a.243.243 0 00.24.031 1.559 1.559 0 00.339-.158.732.732 0 01.823-.091 1.677 1.677 0 00.732.155 1.17 1.17 0 01.674.306.35.35 0 01.034.453c-.133.162-.265.325-.411.475-.379.393-.769.773-1.146 1.168a5 5 0 00-.39.492.664.664 0 00.082.809.437.437 0 00.66.01 2.151 2.151 0 00.16-.194 5.882 5.882 0 011-1.128c.308-.284.608-.579.9-.881.2-.211.392-.437.573-.668a2.1 2.1 0 00.418-1.039 1 1 0 00.006-.126.658.658 0 00-.724-.686c-.165.016-.323.088-.487.119a.543.543 0 01-.245-.011c-.12-.035-.233-.094-.35-.14a.942.942 0 00-.352-.123 2.15 2.15 0 01-1.175-.386.43.43 0 00-.364-.025c-.078.03-.154.066-.229.1s-.146.084-.222.118a.426.426 0 01-.47-.04c-.2-.155-.392-.313-.593-.463a.5.5 0 00-.479.018c-.068.049-.134.1-.2.154s-.122.116-.187.168a.484.484 0 01-.679-.043c-.184-.171-.364-.346-.548-.516a.407.407 0 00-.468.014 2.546 2.546 0 00-.279.251c-.169.186-.321.388-.492.572a.954.954 0 01-.8.3 1.721 1.721 0 01-.72-.2 3.157 3.157 0 00-.661-.358.507.507 0 00-.469.11.563.563 0 00-.16.573c.015.038.022.081.04.119a30.915 30.915 0 001.543 2.739 4.791 4.791 0 00.991 1.132 20.93 20.93 0 011.589 1.432 1.262 1.262 0 01.322.533 10.5 10.5 0 01.474 2.336c.029.544.113 1.084.153 1.628a5.167 5.167 0 01.021.878 16.757 16.757 0 01-.19 2 2.235 2.235 0 00-.019.751.468.468 0 00.305.362.51.51 0 00.523-.254 1.223 1.223 0 00.071-.239 3.23 3.23 0 00.022-.377c.012-.671.028-1.343.092-2.012.031-.157.035-.325.048-.558z"/><path data-name="Контур 2913" d="M18.186 40.732a8.081 8.081 0 00.813-.095q.554-.11 1.114-.175a2.463 2.463 0 00.827-.279.824.824 0 00.378-.857.362.362 0 00-.378-.259 1.841 1.841 0 00-.368.068 7.684 7.684 0 01-3.955.331c-.619-.095-1.237-.194-1.86-.268a9.74 9.74 0 01-2.548-.633 3.31 3.31 0 00-.475-.156.473.473 0 00-.357.079.482.482 0 00-.052.833 1.531 1.531 0 00.312.206 6.2 6.2 0 002.142.673c.828.112 1.649.284 2.485.333a1.674 1.674 0 01.371.059 5.42 5.42 0 001.551.14z"/><path data-name="Контур 2914" d="M21.05 32.165a.4.4 0 00-.484-.42 1.111 1.111 0 00-.245.048 5.427 5.427 0 01-1.087.292 5.715 5.715 0 01-.987.178 2.562 2.562 0 00-.372.052 4.627 4.627 0 01-1.871 0 5.4 5.4 0 00-1-.111 10.548 10.548 0 01-1.735-.265 6.422 6.422 0 01-.716-.23.6.6 0 00-.247-.022.419.419 0 00-.307.191.346.346 0 000 .355.742.742 0 00.143.2 2.205 2.205 0 001.084.6c.247.047.494.093.742.133s.5.064.745.11a8.177 8.177 0 001.873.163c.292-.013.585.026.879.031a5.431 5.431 0 001.854-.266c.477-.163.941-.348 1.4-.556.038-.017.07-.046.106-.067a.536.536 0 00.225-.416z"/><path data-name="Контур 2915" d="M17.608 38.426c.168 0 .336.005.5 0a1.7 1.7 0 00.375-.042q.91-.247 1.816-.512a.4.4 0 00.192-.155 3.569 3.569 0 00.246-.437.368.368 0 00-.269-.48.916.916 0 00-.5-.025 10.7 10.7 0 00-.958.311 4 4 0 01-1.482.226c-.842-.006-1.675-.11-2.511-.18a5.813 5.813 0 01-1.11-.217c-.484-.137-.977-.243-1.467-.356a.537.537 0 00-.519.279.357.357 0 00.008.357.628.628 0 00.262.261 7.589 7.589 0 001.554.5 8.417 8.417 0 01.995.134 4 4 0 00.862.172c.332.046.66.128.993.161s.669.027 1 .037z"/><path data-name="Контур 2916" d="M17.027 35.993c.419-.019.839-.026 1.256-.06a6.11 6.11 0 001.7-.411.589.589 0 00.395-.45c.016-.083.035-.164.05-.246.008-.041.012-.083.017-.125.023-.17-.151-.356-.3-.315-.242.068-.484.134-.725.208-.281.086-.558.181-.838.269a2.86 2.86 0 01-.993.132 11.909 11.909 0 01-2.253-.172 3.048 3.048 0 00-.5-.048 2.707 2.707 0 01-.733-.162 17.093 17.093 0 01-1.287-.507 1.575 1.575 0 00-.241-.063c-.172-.046-.451.2-.411.368a2.68 2.68 0 00.113.359.7.7 0 00.328.365 5.862 5.862 0 001.543.523 15.368 15.368 0 002.879.335z"/><path data-name="Контур 2917" d="M15.077 42.879c.026.3.042.506.063.714a.793.793 0 00.566.609 2.63 2.63 0 00.5.047 2.015 2.015 0 001.061-.346 1.119 1.119 0 00.4-.47.37.37 0 00.042-.118 1.9 1.9 0 00-.005-.624.468.468 0 00-.054-.109.276.276 0 00-.426-.073c-.141.153-.275.313-.417.465a.609.609 0 01-.33.167.321.321 0 01-.386-.229 3.829 3.829 0 01-.021-.625 1.728 1.728 0 00-.059-.368.444.444 0 00-.366-.3.464.464 0 00-.406.241.752.752 0 00-.048.115q-.057.244-.108.489a.666.666 0 00-.006.126v.289z"/><path data-name="Контур 2918" d="M6.067 4.753a.358.358 0 00-.3.2.626.626 0 00.031.6.774.774 0 00.147.2 6.205 6.205 0 011.032 1.264 3.082 3.082 0 00.537.7c.221.2.432.188.626-.1a.357.357 0 00.051-.115.746.746 0 00-.043-.49.7.7 0 00-.06-.11A15.137 15.137 0 006.51 4.946a.646.646 0 00-.443-.193z"/><path data-name="Контур 2919" d="M33.531 13.279a4.8 4.8 0 001.307-.2 4.335 4.335 0 001.048-.385.434.434 0 00.2-.3.379.379 0 00-.006-.238.4.4 0 00-.314-.172 1.157 1.157 0 00-.249.009c-.164.024-.329.046-.491.086a9.43 9.43 0 01-1.845.272.748.748 0 00-.445.2.294.294 0 00-.042.437.54.54 0 00.3.208c.209.044.415.069.537.083z"/><path data-name="Контур 2920" d="M14.533 3.329c-.026-.176-.048-.426-.1-.667q-.193-.85-.413-1.693a.479.479 0 00-.8-.174.378.378 0 00-.107.339c.08.449.23.881.3 1.334.061.41.161.814.252 1.218a.579.579 0 00.213.3.337.337 0 00.447-.014.683.683 0 00.178-.322 2.841 2.841 0 00.03-.321z"/><path data-name="Контур 2921" d="M31.433 24.133l-.122.025a.4.4 0 00-.281.221.492.492 0 00.084.465.924.924 0 00.2.148c.151.07.307.131.464.187a84.84 84.84 0 001.539.535 2.482 2.482 0 00.367.066.2.2 0 00.214-.1.6.6 0 00-.2-.863 1.6 1.6 0 00-.22-.117c-.473-.166-.947-.333-1.424-.486a1.683 1.683 0 00-.621-.081z"/><path data-name="Контур 2922" d="M3.363 16.045a9.482 9.482 0 00-1.983.315 2.217 2.217 0 00-.79.35.328.328 0 00-.009.44 1.83 1.83 0 00.327.168.293.293 0 00.123.008 9.652 9.652 0 002.079-.374 2.661 2.661 0 00.561-.264.587.587 0 00.162-.181.281.281 0 00-.127-.409.843.843 0 00-.118-.035 3.695 3.695 0 00-.225-.018z"/><path data-name="Контур 2923" d="M28.715 31.299a.9.9 0 00-.221-.691c-.32-.324-.65-.64-.984-.95a.915.915 0 00-.318-.188.961.961 0 00-.365-.044.383.383 0 00-.3.555 1.087 1.087 0 00.128.212c.447.49.923.951 1.371 1.44a1.043 1.043 0 00.32.182.25.25 0 00.294-.15c.011-.04.026-.079.034-.119.018-.082.029-.165.041-.247z"/><path data-name="Контур 2924" d="M25.691 4.641a.465.465 0 00.333-.146 2.153 2.153 0 00.231-.293c.295-.5.576-1.011.873-1.512a1.019 1.019 0 000-1.058.234.234 0 00-.327-.037.7.7 0 00-.159.187 6 6 0 01-.968 1.592 2.646 2.646 0 00-.375.644.445.445 0 00.158.547.87.87 0 00.234.076z"/><path data-name="Контур 2925" d="M6.57 27.161a1.521 1.521 0 00-.33.106c-.576.329-1.146.669-1.717 1.008-.034.02-.057.06-.089.086a.412.412 0 00.086.637.609.609 0 00.594.045c.506-.285 1-.583 1.5-.89a1.748 1.748 0 00.365-.334.445.445 0 00.1-.344.409.409 0 00-.358-.3l-.151-.014z"/><path data-name="Контур 2926" d="M4.45 11.204a.618.618 0 00.324-.206.32.32 0 00-.048-.444 1.7 1.7 0 00-.325-.188c-.553-.192-1.11-.372-1.666-.556-.039-.013-.082-.017-.122-.027a.6.6 0 00-.524.271.488.488 0 00.1.57 1.032 1.032 0 00.432.245c.491.1.982.2 1.466.331a1.81 1.81 0 00.363.004z"/><path data-name="Контур 2927" d="M19.364 2.195c-.005.206-.024.5-.015.787a.867.867 0 00.107.35.339.339 0 00.531.061.855.855 0 00.223-.435 8.079 8.079 0 00.063-1.864.771.771 0 00-.2-.448.327.327 0 00-.444-.053.622.622 0 00-.291.521c-.007.332.015.665.026 1.081z"/><path data-name="Контур 2928" d="M31.903 6.583c0-.024-.007-.065-.012-.106a.349.349 0 00-.356-.264 1.913 1.913 0 00-.592.167 5.83 5.83 0 00-1.143.729.645.645 0 00-.077.095.467.467 0 00-.013.569.473.473 0 00.443.152.748.748 0 00.235-.068 72.05 72.05 0 001.3-.718.453.453 0 00.216-.416l-.001-.14z"/><path data-name="Контур 2929" d="M2.846 23.1a.733.733 0 00.233-.067 7.755 7.755 0 011.641-.861.731.731 0 00.2-.138.415.415 0 00.157-.321.457.457 0 00-.326-.335 1.205 1.205 0 00-.611.037 4.863 4.863 0 00-1.226.587 1.591 1.591 0 00-.514.529.376.376 0 00.016.349.558.558 0 00.43.22z"/><path data-name="Контур 2930" d="M33.809 18.932c-.086.025-.206.053-.322.095a.43.43 0 00-.24.4.471.471 0 00.191.307.49.49 0 00.108.061 4.667 4.667 0 001.713.313.436.436 0 00.337-.137.475.475 0 00-.064-.661 1.2 1.2 0 00-.217-.122 4.843 4.843 0 00-1.22-.259c-.082-.003-.165.003-.286.003z"/></g></svg>