<svg xmlns="http://www.w3.org/2000/svg" xmlns:xlink="http://www.w3.org/1999/xlink" width="727.546" height="191.501" viewBox="0 0 727.546 191.501">
  <defs>
    <clipPath id="clip-path">
      <rect id="Прямоугольник_1266" data-name="Прямоугольник 1266" width="719.416" height="141.662" fill="none"/>
    </clipPath>
  </defs>
  <g id="Сгруппировать_1800" data-name="Сгруппировать 1800" transform="matrix(0.998, 0.07, -0.07, 0.998, 9.882, 0)">
    <g id="Сгруппировать_1799" data-name="Сгруппировать 1799" clip-path="url(#clip-path)">
      <path id="Контур_2991" data-name="Контур 2991" d="M772.9,125.575a15.457,15.457,0,0,0,6.1-.981c5.533-1.8,11.1-3.441,16.763-4.791a9,9,0,0,0,1.626-.775c-.608-.825-1.3-.567-1.9-.493-2.884.36-5.753.781-8.633,1.144q-5.605.7-11.217,1.335c-2.933.338-3.794.973-2.745,4.56m28.226,4.976-.225-.268c-2.775,1.433-5.541,2.89-8.331,4.294-2.027,1.018-4.1,1.933-6.132,2.953-2.892,1.457-5.5,3.465-8.618,4.483a1.042,1.042,0,0,0-.55.322c-.259.44-.726,1-.614,1.372a11.991,11.991,0,0,0,1.565,4.157,6.079,6.079,0,0,0,3.605-1.6c3.014-2.279,6.018-4.569,8.966-6.929,3.2-2.568,6.338-5.224,9.5-7.849a9.384,9.384,0,0,0,.84-.933Zm-47.382,19.316a6.248,6.248,0,0,0,4.48-.73c2.567-1.39,5.108-2.821,7.682-4.2,7.043-3.779,14.028-7.667,21.168-11.256a202.664,202.664,0,0,0,17.771-10.063c1.9-1.207,3.772-2.453,5.92-3.848-.626-.129-.941-.287-1.2-.226-1.584.336-3.175.666-4.733,1.106-3.64,1.025-7.248,2.176-10.9,3.155-4.057,1.086-8.223,1.811-12.2,3.236-4.567,1.639-9.468,2.244-13.874,4.418a2.032,2.032,0,0,1-.937.229c-1.923-.092-2.856,1.16-3.785,2.579-1.6,2.434-3.382,4.751-4.982,7.186-1.422,2.16-2.731,4.4-4.017,6.647a6.026,6.026,0,0,0-.385,1.77m62.505-39.389c-.313-.382-.458-.728-.708-.842a23.314,23.314,0,0,0-6.118-2.056c-2.771-.424-5.536-.94-8.263-1.581-4.51-1.063-8.955-2.393-13.478-3.342A78.771,78.771,0,0,1,774.718,98.6c-1.407-.556-2.8-1.144-4.241-1.582a6.554,6.554,0,0,0-1.994.1c.057,1.028.055,1.876.152,2.718.135,1.179.447,2.346.5,3.524a107.884,107.884,0,0,0,1.449,12.848c.273,1.622.742,2.042,2.395,1.809,3.315-.466,6.614-.985,9.92-1.461,5.021-.724,10.059-1.357,15.066-2.172,5.44-.887,10.856-1.921,16.271-2.948a9.13,9.13,0,0,0,2.025-.956m-42.752,34.7a10.21,10.21,0,0,0-4.349,1.569q-5.008,2.673-9.967,5.438c-.757.421-1.406,1.023-2.155,1.438a9.325,9.325,0,0,1-7.775.96,1.66,1.66,0,0,1-1.314-1.939,1.7,1.7,0,0,1,.265-.63,12.2,12.2,0,0,0,1.943-4.743,2.372,2.372,0,0,1,.406-.877c2.437-3.289,4.155-7.1,7.243-9.927a19.98,19.98,0,0,0,3.176-4.064c1.347-2.077,2.942-3.994,4.495-6.069.473-.055,1.009-.094,1.531-.176,2.04-.329,2.568-1.073,2.145-3.109a3.308,3.308,0,0,0-.578-1.488c-1.98-2.193-1.927-4.973-2.206-7.622-.555-5.374-.58-10.8-1.68-16.121-.236-1.16-.574-2.3-.827-3.461a11.667,11.667,0,0,1-.33-2.225,1.567,1.567,0,0,1,.954-1.571,1.4,1.4,0,0,1,1.773.36c1.231,2.314,3.542,2.737,5.689,3.261a65.31,65.31,0,0,1,7.705,2.479,61.879,61.879,0,0,0,6.809,2.095c5.866,1.495,11.755,2.906,17.638,4.343a10.273,10.273,0,0,0,1.6.293A58.651,58.651,0,0,1,818,106.219c1.445.44,2.918.782,4.374,1.193.516.144,1,.371,1.509.544.907.31,1.811.633,2.729.9a12.1,12.1,0,0,1,1.575.31c2.075.948,2.385,2.215.847,3.713a22.27,22.27,0,0,1-1.972,1.688c-5.893,4.576-11.832,9.09-17.68,13.725-4.144,3.291-8.158,6.74-12.237,10.107-.919.753-1.847,1.5-2.8,2.214-2.67,2.016-5.353,4.02-8.022,6.042-1.2.919-2.367,1.887-3.575,2.807a20.482,20.482,0,0,0-4.305,3.9,1.755,1.755,0,0,1-3.116-.5A10.8,10.8,0,0,1,774.86,151c-.435-1.87-.875-3.744-1.358-5.816" transform="translate(-110.585 -13.368)" fill="#fff"/>
      <path id="Контур_2992" data-name="Контур 2992" d="M287.505,127.564a5.453,5.453,0,0,1-1.3.456c-1.718.177-3.449.305-5.171.416a10.245,10.245,0,0,1-7.282-2.271,1.323,1.323,0,0,1-.373-1.21,1.341,1.341,0,0,1,.666-1.079c1.578-.407,3.156-.858,4.728-1.29a15.225,15.225,0,0,1,5.812-.158,5.145,5.145,0,0,1,3.775,3.033,2.052,2.052,0,0,1-.176,1.34c-.18.221-.374.424-.682.762" transform="translate(-40.419 -18.072)" fill="#fff"/>
      <path id="Контур_2993" data-name="Контур 2993" d="M175.162,99.754c-3.321-.815-6.519-1.309-9.24-3.127a18.36,18.36,0,0,0-1.951-1.042c-.763-.4-1.547-.743-2.287-1.18a3.04,3.04,0,0,1-.77-.828,1.614,1.614,0,0,1,.122-1.684,1.326,1.326,0,0,1,1.044-.6,4.319,4.319,0,0,1,1.066.238c1.039.355,2.048.777,3.095,1.1,1.855.578,3.769.983,5.626,1.555a20.064,20.064,0,0,1,4.952,2.32,2.341,2.341,0,0,1,.533.525,1.607,1.607,0,0,1,.22,1.24,1.492,1.492,0,0,1-.763,1.057c-.62.184-1.246.327-1.646.429" transform="translate(-23.765 -13.499)" fill="#fff"/>
      <path id="Контур_2994" data-name="Контур 2994" d="M442.594,87.254q-.065.7-.13,1.384-.128.679-.253,1.348a15.817,15.817,0,0,1-.636,2.621,20.6,20.6,0,0,1-1.023,2.44,14.5,14.5,0,0,1-1.569,2.107c-.5.608-1.032,1.2-1.532,1.8l-.885,1.032a10.565,10.565,0,0,1-.989.925,3.2,3.2,0,0,1-1.073.476,1.6,1.6,0,0,1-1.549-.684,1.314,1.314,0,0,1-.224-1.153,3.816,3.816,0,0,1,.556-.873,13.034,13.034,0,0,0,.935-1.247c.3-.425.592-.854.865-1.3.464-.8.787-1.666,1.18-2.5.371-.84.594-1.737.936-2.588a50.484,50.484,0,0,1,1.929-4.9,2.526,2.526,0,0,1,.45-.608,1.826,1.826,0,0,1,1.2-.475,1.344,1.344,0,0,1,1.168.537c.267.6.49,1.234.641,1.643" transform="translate(-63.974 -12.579)" fill="#fff"/>
      <path id="Контур_2995" data-name="Контур 2995" d="M30.082,24.907a1.355,1.355,0,0,1-.4.111A4.723,4.723,0,0,1,26,23.538c-1.2-1.409-2.48-2.746-3.68-4.152a8.669,8.669,0,0,0-2.535-2.076,2.813,2.813,0,0,1-.734-.8,1.211,1.211,0,0,1,.2-1.22,1.492,1.492,0,0,1,1.807-.741,37.268,37.268,0,0,1,9.011,6.082,3.548,3.548,0,0,1,.674.878,3.016,3.016,0,0,1,.224,2.418,1.663,1.663,0,0,1-.879.979" transform="translate(-2.803 -2.136)" fill="#fff"/>
      <path id="Контур_2996" data-name="Контур 2996" d="M121.345,76.96a1.314,1.314,0,0,1-.377.17,4.609,4.609,0,0,1-3.854-.927c-1.38-1.253-2.853-2.369-4.251-3.581a9.026,9.026,0,0,0-2.814-1.68,2.831,2.831,0,0,1-.838-.694A1.239,1.239,0,0,1,109.223,69a1.459,1.459,0,0,1,1.663-.993,35.957,35.957,0,0,1,9.791,4.719,3.568,3.568,0,0,1,.8.769,3.032,3.032,0,0,1,.59,2.361,1.661,1.661,0,0,1-.719,1.1" transform="translate(-16.124 -10.048)" fill="#fff"/>
      <path id="Контур_2997" data-name="Контур 2997" d="M397.886,124.285a1.41,1.41,0,0,1-.147.4,4.861,4.861,0,0,1-3.43,2.125c-1.867.111-3.718.3-5.564.407a8.8,8.8,0,0,0-3.234.649,2.807,2.807,0,0,1-1.086.062,1.159,1.159,0,0,1-.784-.938,1.557,1.557,0,0,1,.631-1.876,46.267,46.267,0,0,1,10.22-3.345,3.4,3.4,0,0,1,1.081-.021,3.023,3.023,0,0,1,2.045,1.241,1.686,1.686,0,0,1,.268,1.3" transform="translate(-56.712 -17.997)" fill="#fff"/>
      <path id="Контур_2998" data-name="Контур 2998" d="M258.05,121.657a1.551,1.551,0,0,1-.291.321,4.94,4.94,0,0,1-3.967.906c-1.767-.482-3.576-.794-5.352-1.238a8.81,8.81,0,0,0-3.287-.251,2.757,2.757,0,0,1-1.054-.232,1.1,1.1,0,0,1-.457-1.1,1.629,1.629,0,0,1,1.2-1.625,38.812,38.812,0,0,1,11-.222,3.359,3.359,0,0,1,1.035.331,2.644,2.644,0,0,1,1.434,1.817,1.694,1.694,0,0,1-.262,1.3" transform="translate(-36.023 -17.436)" fill="#fff"/>
      <path id="Контур_2999" data-name="Контур 2999" d="M51.311,39.627a3.578,3.578,0,0,1-.676-.211,11.211,11.211,0,0,1-2.981-2.128,23.259,23.259,0,0,0-3.708-3,5.987,5.987,0,0,1-2.2-2.983,1.265,1.265,0,0,1,.118-.831,1.288,1.288,0,0,1,1.067-.641,5.207,5.207,0,0,1,1.409.41c1.567.921,3.136,1.842,4.683,2.794a22.989,22.989,0,0,1,2.068,1.488,5.984,5.984,0,0,1,1.887,2.791,2.946,2.946,0,0,1-.016,1.272,1.518,1.518,0,0,1-1.651,1.041" transform="translate(-6.169 -4.411)" fill="#fff"/>
      <path id="Контур_3000" data-name="Контур 3000" d="M145.874,88.549a3.557,3.557,0,0,1-.709-.064,11.15,11.15,0,0,1-3.363-1.444,24.17,24.17,0,0,0-4.253-2.15,5.888,5.888,0,0,1-2.767-2.433,1.238,1.238,0,0,1-.049-.832,1.315,1.315,0,0,1,.928-.845,5.334,5.334,0,0,1,1.474.1c1.733.561,3.458,1.15,5.177,1.743a23.419,23.419,0,0,1,2.337,1.012,5.868,5.868,0,0,1,2.413,2.316,2.868,2.868,0,0,1,.234,1.24,1.546,1.546,0,0,1-1.423,1.356" transform="translate(-19.914 -11.942)" fill="#fff"/>
      <path id="Контур_3001" data-name="Контур 3001" d="M411.072,116.519a3.233,3.233,0,0,1,.563-.383,12.2,12.2,0,0,1,3.382-1.1,12.4,12.4,0,0,0,2.277-.579,18.1,18.1,0,0,0,2.179-.877,6.432,6.432,0,0,1,3.694-.6,1.268,1.268,0,0,1,.724.432,1.2,1.2,0,0,1,.132,1.238,5.492,5.492,0,0,1-1.069,1.1,43.071,43.071,0,0,1-5.044,2.761,23.209,23.209,0,0,1-2.521.867,5.569,5.569,0,0,1-3.472-.152,2.93,2.93,0,0,1-1.011-.805,1.487,1.487,0,0,1,.164-1.907" transform="translate(-60.716 -16.699)" fill="#fff"/>
      <path id="Контур_3002" data-name="Контур 3002" d="M64.519,46.078a2.787,2.787,0,0,1,2.242-1.922,3.266,3.266,0,0,1,2.113.544,16.15,16.15,0,0,1,4.086,4.2,6.578,6.578,0,0,1,.457,1.081,1.4,1.4,0,0,1-.389,1.225c-1.287,1.123-2.429,1.394-3.227.547a18.56,18.56,0,0,0-4.69-3.478,2.711,2.711,0,0,1-.273-.243,2.011,2.011,0,0,1-.32-1.953" transform="translate(-9.523 -6.527)" fill="#fff"/>
      <path id="Контур_3003" data-name="Контур 3003" d="M193.045,105.67a2.957,2.957,0,0,1,1.4-2.674,3.692,3.692,0,0,1,2.214-.461,15.239,15.239,0,0,1,5.474,1.794,5.774,5.774,0,0,1,.838.749,1.306,1.306,0,0,1,.095,1.248c-.794,1.557-1.766,2.291-2.845,1.922a18.926,18.926,0,0,0-5.778-.908,2.478,2.478,0,0,1-.351-.094,1.778,1.778,0,0,1-1.046-1.576" transform="translate(-28.543 -15.157)" fill="#fff"/>
      <path id="Контур_3004" data-name="Контур 3004" d="M438.068,71.128a2.806,2.806,0,0,1-2.826-.141,2.5,2.5,0,0,1-1.044-1.6c-.1-.867-.316-1.7-.364-2.632s-.132-1.863-.134-2.863a8.387,8.387,0,0,1,.216-1.178,1.48,1.48,0,0,1,.95-.892c1.625-.327,2.75.132,2.994,1.333A26.47,26.47,0,0,0,438.5,66.2a28.553,28.553,0,0,0,.783,2.916,2.716,2.716,0,0,1,.031.372,2.145,2.145,0,0,1-1.242,1.642" transform="translate(-64.126 -9.126)" fill="#fff"/>
      <path id="Контур_3005" data-name="Контур 3005" d="M303.541,129.031a4.271,4.271,0,0,1,.179-.883,2.031,2.031,0,0,1,1.859-1.328c1.937-.049,3.876-.16,5.806-.158a23.377,23.377,0,0,1,3.226.371,1.865,1.865,0,0,1,1.017,1.7,2.019,2.019,0,0,1-.98,1.846,1.791,1.791,0,0,1-1.067.245,17.1,17.1,0,0,0-4.731-.309c-1.465-.024-2.923-.136-4.383-.227a1.526,1.526,0,0,1-.927-1.26" transform="translate(-44.881 -18.728)" fill="#fff"/>
      <path id="Контур_3006" data-name="Контур 3006" d="M333.643,132.3c-1.039-.073-1.652-.106-2.263-.167a3.88,3.88,0,0,1-.712-.21,1.544,1.544,0,0,1,.135-2.759,5.207,5.207,0,0,1,.718-.138,17.431,17.431,0,0,0,5.414-.693,7.562,7.562,0,0,1,3.962-.079,1.669,1.669,0,0,1,1.017,1.7,1.539,1.539,0,0,1-1.022,1.675,33.848,33.848,0,0,0-3.652.437,9.156,9.156,0,0,1-3.6.232" transform="translate(-48.776 -18.93)" fill="#fff"/>
      <path id="Контур_3007" data-name="Контур 3007" d="M.023,1.452l.015-.061A1.846,1.846,0,0,1,1.721,0a2.655,2.655,0,0,1,.734.15c3.054,1.634,5.1,4.359,7.03,7.245a1.6,1.6,0,0,1-.6,1.556,1.941,1.941,0,0,1-2.583.17A63.36,63.36,0,0,0,1.32,4.293,6.758,6.758,0,0,1,.092,2.462a2.479,2.479,0,0,1-.069-1.01" transform="translate(0 0)" fill="#fff"/>
      <path id="Контур_3008" data-name="Контур 3008" d="M85.706,58.1l0-.062a1.859,1.859,0,0,1,1.383-1.7,2.763,2.763,0,0,1,.754,0A14.963,14.963,0,0,1,92.359,58.6a30.078,30.078,0,0,1,3.884,3.3,1.577,1.577,0,0,1-.284,1.637,1.973,1.973,0,0,1-2.511.69,28.768,28.768,0,0,0-2.913-1.874L87.553,60.6a6.7,6.7,0,0,1-1.577-1.53,2.427,2.427,0,0,1-.269-.968" transform="translate(-12.672 -8.327)" fill="#fff"/>
      <path id="Контур_3009" data-name="Контур 3009" d="M217.613,112.678l-.015-.06a1.886,1.886,0,0,1,.867-2.024,2.887,2.887,0,0,1,.729-.234c3.5-.072,6.625,1.144,9.69,2.674a1.536,1.536,0,0,1,.183,1.634,2.053,2.053,0,0,1-2.233,1.42c-2.19-.761-4.488-1.061-6.729-1.612a6.526,6.526,0,0,1-1.958-.965,2.322,2.322,0,0,1-.533-.833" transform="translate(-32.167 -16.317)" fill="#fff"/>
      <path id="Контур_3010" data-name="Контур 3010" d="M370.009,127.6a1.541,1.541,0,0,1,.628,1.593,1.339,1.339,0,0,1-1.008,1.164c-2.067.239-4.107.7-6.166,1.031a6.916,6.916,0,0,1-3.657-.319,2.264,2.264,0,0,1-1.4-1.45,1.09,1.09,0,0,1,.276-1.208c.22-.112.441-.349.654-.331a15.654,15.654,0,0,0,4.639-.626,12.927,12.927,0,0,1,5.038-.2,6.242,6.242,0,0,1,.992.349" transform="translate(-52.983 -18.792)" fill="#fff"/>
      <path id="Контур_3011" data-name="Контур 3011" d="M537.619,158.33a5.525,5.525,0,0,1-1.237.61c-1.685.375-3.387.653-5.082.992a10.2,10.2,0,0,1-7.494-1.395,1.308,1.308,0,0,1-.516-1.151,1.352,1.352,0,0,1,.533-1.156l4.544-1.83a14.811,14.811,0,0,1,5.763-.845,5.234,5.234,0,0,1,4.1,2.585,2.047,2.047,0,0,1-.024,1.352c-.153.24-.324.465-.591.838" transform="translate(-77.372 -22.701)" fill="#fff"/>
      <path id="Контур_3012" data-name="Контур 3012" d="M423.048,142.6c-3.371-.615-6.613-.977-9.4-2.728a18.589,18.589,0,0,0-1.989-.985c-.776-.378-1.58-.684-2.322-1.131a3.072,3.072,0,0,1-.78-.825,1.619,1.619,0,0,1,.1-1.688,1.318,1.318,0,0,1,1.031-.6,4.22,4.22,0,0,1,1.057.229c1.035.338,2.053.713,3.1,1,1.856.521,3.767.861,5.632,1.348a20.449,20.449,0,0,1,5.031,2.05,2.347,2.347,0,0,1,.556.5,1.646,1.646,0,0,1,.29,1.23,1.481,1.481,0,0,1-.7,1.1c-.6.214-1.222.386-1.616.506" transform="translate(-60.38 -19.908)" fill="#fff"/>
      <path id="Контур_3013" data-name="Контур 3013" d="M717.25,141.527c-4.3,1.113-8.248,2.515-12.47,2.4-.953-.016-1.9.115-2.861.188-1.114.081-2.218.229-3.33.249a4.6,4.6,0,0,1-1.383-.3,1.413,1.413,0,0,1-.883-1.5,1.463,1.463,0,0,1,.837-1.064,7.194,7.194,0,0,1,1.367-.366c1.4-.269,2.812-.467,4.2-.772,2.471-.542,4.921-1.183,7.391-1.746a33.465,33.465,0,0,1,7.078-.761,3.548,3.548,0,0,1,.926.149,1.577,1.577,0,0,1,1,.929,1.278,1.278,0,0,1-.243,1.317c-.6.5-1.232.968-1.63,1.275" transform="translate(-102.955 -20.383)" fill="#fff"/>
      <path id="Контур_3014" data-name="Контур 3014" d="M388.672,39.875a1.272,1.272,0,0,1,.246-.332,4.448,4.448,0,0,1,3.981-.967,51,51,0,0,1,5.413,1.738,9.858,9.858,0,0,0,3.2.837,2.881,2.881,0,0,1,.981.486,1.2,1.2,0,0,1,.254,1.211c-.164.81-.777,1.408-1.374,1.351-3.474-.166-6.769-.493-10.149-.952a3.135,3.135,0,0,1-.994-.284,3.191,3.191,0,0,1-1.62-1.778,1.62,1.62,0,0,1,.059-1.309" transform="translate(-57.443 -5.683)" fill="#fff"/>
      <path id="Контур_3015" data-name="Контур 3015" d="M370.708,117.059a1.342,1.342,0,0,1-.406.087,4.791,4.791,0,0,1-2.037-.5,4.733,4.733,0,0,1-1.552-1.328l-.816-1.156-.79-1.175c-.518-.788-1.077-1.521-1.519-2.354a10.541,10.541,0,0,0-2.055-2.57,2.84,2.84,0,0,1-.508-.962,1.2,1.2,0,0,1,.5-1.127,1.5,1.5,0,0,1,1.9-.3,69.363,69.363,0,0,1,7.559,7.121,4.405,4.405,0,0,1,.579.91,3.077,3.077,0,0,1,.066,2.413,1.648,1.648,0,0,1-.925.934" transform="translate(-53.378 -15.592)" fill="#fff"/>
      <path id="Контур_3016" data-name="Контур 3016" d="M648.282,151.582a1.472,1.472,0,0,1-.2.369,4.72,4.72,0,0,1-3.644,1.636c-1.841-.132-3.679-.1-5.515-.183a8.746,8.746,0,0,0-3.253.4,2.786,2.786,0,0,1-1.081-.023,1.179,1.179,0,0,1-.723-.99,1.527,1.527,0,0,1,.753-1.824,36.81,36.81,0,0,1,10.653-2.335,3.482,3.482,0,0,1,1.094.127,2.878,2.878,0,0,1,1.854,1.507,1.684,1.684,0,0,1,.066,1.319" transform="translate(-93.713 -21.975)" fill="#fff"/>
      <path id="Контур_3017" data-name="Контур 3017" d="M507.657,155.948a1.541,1.541,0,0,1-.25.352,5.066,5.066,0,0,1-3.829,1.4c-1.812-.268-3.645-.376-5.462-.6a9.385,9.385,0,0,0-3.3.158,2.78,2.78,0,0,1-1.075-.107,1.1,1.1,0,0,1-.585-1.041,1.626,1.626,0,0,1,1-1.756,43.583,43.583,0,0,1,5.436-1.173,38.552,38.552,0,0,1,5.45-.378,3.347,3.347,0,0,1,1.068.19,2.649,2.649,0,0,1,1.644,1.637,1.694,1.694,0,0,1-.1,1.32" transform="translate(-72.916 -22.593)" fill="#fff"/>
      <path id="Контур_3018" data-name="Контур 3018" d="M364.725,48.792a3.749,3.749,0,0,1,.4-.621,7.315,7.315,0,0,1,.667-.691c.251-.2.509-.389.775-.568a11.906,11.906,0,0,1,1.669-.939l.558-.262.582-.225q.578-.23,1.135-.483c.746-.334,1.449-.738,2.205-1.043a4.982,4.982,0,0,1,3.707-.2,1.258,1.258,0,0,1,.588.6,1.325,1.325,0,0,1-.1,1.222,8.8,8.8,0,0,1-1.047.877c-.732.4-1.469.787-2.208,1.163q-1.043.684-2.1,1.33c-.339.187-.659.4-.98.62l-.994.611a7.818,7.818,0,0,1-3.069.833,3.092,3.092,0,0,1-1.217-.355,1.477,1.477,0,0,1-.572-1.868" transform="translate(-53.907 -6.43)" fill="#fff"/>
      <path id="Контур_3019" data-name="Контур 3019" d="M393.6,131.63a3.561,3.561,0,0,1-.715-.082,11.357,11.357,0,0,1-3.315-1.619,25.846,25.846,0,0,0-4.114-2.475,5.807,5.807,0,0,1-2.525-2.7,1.208,1.208,0,0,1,.043-.827,1.35,1.35,0,0,1,1.017-.743,5.211,5.211,0,0,1,1.441.24l4.931,2.131c.759.345,1.508.719,2.241,1.124a6.117,6.117,0,0,1,2.28,2.4,2.807,2.807,0,0,1,.19,1.24,1.554,1.554,0,0,1-1.473,1.312" transform="translate(-56.612 -18.214)" fill="#fff"/>
      <path id="Контур_3020" data-name="Контур 3020" d="M662.863,146.741a3.4,3.4,0,0,1,.66-.234,10.991,10.991,0,0,1,1.814-.188c.62-.015,1.16.034,2.026.081a37.007,37.007,0,0,0,6.152-.121,9.6,9.6,0,0,1,4.625.759,1.17,1.17,0,0,1,.554.7,1.223,1.223,0,0,1-.568,1.2,7.812,7.812,0,0,1-1.776.648c-2.354.366-4.719.681-7.082.965q-.828.1-1.663.132l-.4.014-.324,0-.648-.009a6.224,6.224,0,0,1-3.245-1.1,3.012,3.012,0,0,1-.777-1.031,1.478,1.478,0,0,1,.656-1.811" transform="translate(-97.896 -21.623)" fill="#fff"/>
      <path id="Контур_3021" data-name="Контур 3021" d="M357.09,60.6a2.937,2.937,0,0,1,1.956,2.2,2.989,2.989,0,0,1-.431,1.985,13.607,13.607,0,0,1-1.575,2.228c-.3.355-.642.691-.963,1.04s-.642.7-.994,1.038a7.019,7.019,0,0,1-.981.613,1.435,1.435,0,0,1-1.276-.164c-1.335-1.054-1.774-2.179-1.086-3.149a26.5,26.5,0,0,0,1.718-2.51q.382-.647.712-1.319c.228-.445.5-.872.715-1.323a3.043,3.043,0,0,1,.246-.287,1.967,1.967,0,0,1,1.959-.356" transform="translate(-51.96 -8.944)" fill="#fff"/>
      <path id="Контур_3022" data-name="Контур 3022" d="M441.311,147.313a2.974,2.974,0,0,1,1.176-2.785,3.642,3.642,0,0,1,2.162-.657,16.211,16.211,0,0,1,5.587,1.3,5.855,5.855,0,0,1,.9.665,1.312,1.312,0,0,1,.211,1.233c-.64,1.626-1.54,2.45-2.652,2.185a20.742,20.742,0,0,0-5.846-.4,2.813,2.813,0,0,1-.36-.061,1.759,1.759,0,0,1-1.18-1.472" transform="translate(-65.247 -21.272)" fill="#fff"/>
      <path id="Контур_3023" data-name="Контур 3023" d="M736.008,134.148a2.445,2.445,0,0,1,.764-2.948,5.315,5.315,0,0,1,2.595-1.03,26.025,26.025,0,0,1,7.508.269,9.153,9.153,0,0,1,1.328.5,1.174,1.174,0,0,1,.572,1.176c-.432,1.711-1.389,2.682-2.873,2.617a33.135,33.135,0,0,0-7.541.657,4.4,4.4,0,0,1-.474,0,2.291,2.291,0,0,1-1.878-1.242" transform="translate(-108.793 -19.224)" fill="#fff"/>
      <path id="Контур_3024" data-name="Контур 3024" d="M553.7,158.079a4.262,4.262,0,0,1,.087-.9,2.018,2.018,0,0,1,1.713-1.506c1.926-.283,3.852-.568,5.778-.744a27.34,27.34,0,0,1,3.257.048,1.873,1.873,0,0,1,1.172,1.609,2.015,2.015,0,0,1-.805,1.925,1.885,1.885,0,0,1-1.038.349,17.759,17.759,0,0,0-4.734.146c-1.459.1-2.919.185-4.378.233a1.539,1.539,0,0,1-1.052-1.162" transform="translate(-81.869 -22.904)" fill="#fff"/>
      <path id="Контур_3025" data-name="Контур 3025" d="M583.953,158.672c-1.038,0-1.651.018-2.263-.011a4.688,4.688,0,0,1-.724-.16,1.544,1.544,0,0,1-.073-2.761,4.335,4.335,0,0,1,.708-.187,17.21,17.21,0,0,0,5.374-1.079,7.74,7.74,0,0,1,3.973-.3,1.648,1.648,0,0,1,1.113,1.633,1.56,1.56,0,0,1-.928,1.738c-1.206.229-2.435.291-3.613.632a9.111,9.111,0,0,1-3.565.492" transform="translate(-85.768 -22.777)" fill="#fff"/>
      <path id="Контур_3026" data-name="Контур 3026" d="M424.4,52.366l-.017.061a1.92,1.92,0,0,1-1.705,1.364,2.528,2.528,0,0,1-.7-.135c-2.852-1.53-4.929-3.881-7.309-6.308a1.651,1.651,0,0,1,.295-1.648,1.927,1.927,0,0,1,2.539-.605c.944.747,1.864,1.513,2.833,2.185.948.709,1.859,1.468,2.765,2.216a6.33,6.33,0,0,1,1.248,1.864,2.381,2.381,0,0,1,.052,1.007" transform="translate(-61.295 -6.629)" fill="#fff"/>
      <path id="Контур_3027" data-name="Контур 3027" d="M350.846,83.5l.055-.028a1.975,1.975,0,0,1,2.164.342,2.575,2.575,0,0,1,.382.586c.891,2.988.9,5.871,1.226,9.18a1.649,1.649,0,0,1-1.253,1.087,1.966,1.966,0,0,1-2.406-1.112c-.1-.606-.231-1.2-.373-1.784l-.223-.873-.164-.89-.35-1.768c-.074-.6-.128-1.2-.179-1.8a5.347,5.347,0,0,1,.072-1.126,6.868,6.868,0,0,1,.351-1.093,2.272,2.272,0,0,1,.7-.724" transform="translate(-51.709 -12.315)" fill="#fff"/>
      <path id="Контур_3028" data-name="Контур 3028" d="M466.438,151.928l-.021-.058a1.881,1.881,0,0,1,.642-2.1,2.934,2.934,0,0,1,.7-.307c3.473-.5,6.694.413,9.917,1.551a1.537,1.537,0,0,1,.371,1.6,2.061,2.061,0,0,1-2.057,1.672c-2.269-.474-4.579-.579-6.874-.848a6.446,6.446,0,0,1-2.055-.732,2.324,2.324,0,0,1-.62-.775" transform="translate(-68.949 -22.078)" fill="#fff"/>
      <path id="Контур_3029" data-name="Контур 3029" d="M620.19,152.773a1.544,1.544,0,0,1,.6,1.608,1.365,1.365,0,0,1-1.025,1.148c-2.057.267-4.1.632-6.14,1.015a6.8,6.8,0,0,1-3.647-.264,2.329,2.329,0,0,1-1.428-1.427,1.094,1.094,0,0,1,.25-1.216c.218-.122.437-.356.652-.34a15.478,15.478,0,0,0,4.664-.7,13.25,13.25,0,0,1,5.081-.176,5.414,5.414,0,0,1,.992.354" transform="translate(-89.967 -22.512)" fill="#fff"/>
    </g>
  </g>
</svg>
