<svg xmlns="http://www.w3.org/2000/svg" width="123.423" height="187.65" viewBox="0 0 123.423 187.65">
  <g id="Сгруппировать_1689" data-name="Сгруппировать 1689" transform="translate(70.339 -11.602) rotate(44)">
    <path id="Контур_371" data-name="Контур 371" d="M537.913,335.408a4.169,4.169,0,0,1,.258,1.346c-.218,1.837-.512,3.669-.816,5.5a6.249,6.249,0,0,1-.469,1.435,14.955,14.955,0,0,1-.908,1.806,36.184,36.184,0,0,0-3.412,7.862c-.923,2.891-1.9,5.763-2.641,8.709a30.829,30.829,0,0,1-1.665,4.77,2.664,2.664,0,0,1-2.386,1.6,1.663,1.663,0,0,1-1.691-1.515,5.332,5.332,0,0,1,.065-1.5,75.333,75.333,0,0,1,2.205-7.769,25.267,25.267,0,0,0,1.053-3.377c.67-2.615,1.484-5.183,2.288-7.758a51.844,51.844,0,0,1,2.1-5.679c.682-1.533,1.121-3.175,1.721-4.749a4.2,4.2,0,0,1,.816-1.255A2.14,2.14,0,0,1,537.913,335.408Z" transform="translate(-463.066 -208.235)" fill="#fff"/>
    <path id="Контур_372" data-name="Контур 372" d="M585.432,399.484c1.054,1.65.651,3.028-.514,3.544a6.913,6.913,0,0,1-.925.405q-3.177.886-6.363,1.733c-.651.173-1.322.271-1.981.418a23.4,23.4,0,0,0-2.464.591,25.56,25.56,0,0,1-10,1.241,39.563,39.563,0,0,0-5.067.036c-2.021.129-4.052.2-6.077.162a1.488,1.488,0,0,1-1.179-2.263,2.525,2.525,0,0,1,1.451-1.332,17.6,17.6,0,0,1,5.447-1.1c.676-.014,1.35-.083,2.024-.126a25.524,25.524,0,0,0,5.485-.968,34.186,34.186,0,0,1,10.516-1.385c.506.014,1.015.034,1.521.011a9.038,9.038,0,0,0,3.456-.718,7.44,7.44,0,0,1,2.915-.793A2.38,2.38,0,0,1,585.432,399.484Z" transform="translate(-544.072 -351.869)" fill="#fff"/>
    <path id="Контур_373" data-name="Контур 373" d="M551.91,391.906c1.2-.764,1.928-1.194,2.619-1.674a19.5,19.5,0,0,1,4-2.135c1.247-.492,2.431-1.152,3.638-1.747.9-.446,1.777-.976,2.71-1.351,2.2-.882,4.216-2.109,6.34-3.125a68.506,68.506,0,0,0,6.422-2.938,3.21,3.21,0,0,1,.955-.3,2.226,2.226,0,0,1,2.758,2.6,1.8,1.8,0,0,1-.819,1.214,7.058,7.058,0,0,1-1.341.684c-1.591.553-3.15,1.178-4.706,1.827a41.016,41.016,0,0,0-6.726,3.469c-3.675,2.4-7.642,4.258-11.49,6.34a13.342,13.342,0,0,1-2.3,1.025c-1.609.506-3.119,1.253-4.7,1.828a1.883,1.883,0,0,1-1.453-.174,1.358,1.358,0,0,1-.808-1.167,2.106,2.106,0,0,1,.656-1.827,5.605,5.605,0,0,1,1.219-.881C550.048,392.9,551.238,392.272,551.91,391.906Z" transform="translate(-535.318 -311.339)" fill="#fff"/>
    <path id="Контур_374" data-name="Контур 374" d="M534.056,379.284a2.024,2.024,0,0,1-2.067-.045,2.136,2.136,0,0,1-.6-2.268c.15-.3.263-.62.433-.909,1.965-3.337,3.951-6.661,5.9-10.007.933-1.6,1.786-3.246,2.7-4.859a90.226,90.226,0,0,1,5.855-8.838,37.678,37.678,0,0,0,4.462-7.312,2.464,2.464,0,0,1,.575-.821,4.989,4.989,0,0,1,1.2-.891,2.122,2.122,0,0,1,2.351.332,2.241,2.241,0,0,1,.53,2.316,18.773,18.773,0,0,1-.883,1.816c-.763,1.308-1.655,2.547-2.334,3.895a18.31,18.31,0,0,1-3.543,4.878,20.561,20.561,0,0,0-3.068,3.993c-2.107,3.447-4.342,6.81-6.2,10.411-1.313,2.537-2.883,4.943-4.376,7.384A4.932,4.932,0,0,1,534.056,379.284Z" transform="translate(-491.622 -237.24)" fill="#fff"/>
    <path id="Контур_375" data-name="Контур 375" d="M544.82,385.844a9.63,9.63,0,0,1-.969.514,2.5,2.5,0,0,1-1.956-.022,1.984,1.984,0,0,1-.547-3.012c1.914-1.652,3.792-3.351,5.774-4.917a86.2,86.2,0,0,0,10.649-10.08c2.143-2.388,4.491-4.573,6.681-6.912a13.7,13.7,0,0,1,2.742-2.233c.283-.178.6-.312.9-.463a2.344,2.344,0,0,1,3.233,1.448,1.569,1.569,0,0,1-.249,1.424,3.03,3.03,0,0,1-.7.717,23.021,23.021,0,0,0-2.065,1.456c-1.861,1.711-3.716,3.436-5.477,5.249-2.587,2.662-5.083,5.411-7.635,8.107a15,15,0,0,1-1.85,1.713,56.934,56.934,0,0,0-6.6,5.517A16.726,16.726,0,0,1,544.82,385.844Z" transform="translate(-518.274 -271.53)" fill="#fff"/>
    <path id="Контур_376" data-name="Контур 376" d="M31.913,12.636a1.582,1.582,0,0,1-.559,1.781,6.478,6.478,0,0,1-1.47.31,2.882,2.882,0,0,1-1-.134,33.246,33.246,0,0,1-3.9-1.1c-3.132-1.267-6.47-1.931-9.517-3.458C12.911,8.746,10.233,7.7,7.69,6.354c-1.338-.709-2.8-1.191-4.2-1.77A11.892,11.892,0,0,1,.461,2.762,1.492,1.492,0,0,1,.183.929a1.633,1.633,0,0,1,1.655-.9,11.414,11.414,0,0,1,1.454.41,29.274,29.274,0,0,0,5.26,1.811,8.309,8.309,0,0,1,1.441.48c2.97,1.217,5.944,2.422,8.894,3.683A23.4,23.4,0,0,0,22.7,7.763,35.257,35.257,0,0,1,28.42,9.812a8.88,8.88,0,0,1,3.221,2.4A3.39,3.39,0,0,1,31.913,12.636Z" transform="matrix(0.985, -0.174, 0.174, 0.985, 5.044, 24.022)" fill="#fff"/>
    <path id="Контур_377" data-name="Контур 377" d="M.95.106A2.04,2.04,0,0,1,2.861.4,21.04,21.04,0,0,0,6.57,2.986a2.178,2.178,0,0,1,.424.271c2.64,2.353,5.72,4.116,8.447,6.357a58.826,58.826,0,0,0,5.237,3.926,6.688,6.688,0,0,1,1.106,1.019,2.3,2.3,0,0,1-.26,3.17,2.758,2.758,0,0,1-2.829.436,47.334,47.334,0,0,1-7.1-4.76C9.559,11.651,7.522,9.9,5.5,8.127a15.348,15.348,0,0,1-1.8-1.763A35.126,35.126,0,0,0,.556,3.11,1.981,1.981,0,0,1,.537.375,1.651,1.651,0,0,1,.95.106Z" transform="matrix(0.951, -0.309, 0.309, 0.951, 12.941, 3.631)" fill="#fff"/>
    <path id="Контур_378" data-name="Контур 378" d="M517.424,335.04a3.919,3.919,0,0,1,.354.913,6.161,6.161,0,0,1,.016,1.515c-.12,1.005-.3,2-.464,3.006a17.821,17.821,0,0,0-.271,4.546,17.516,17.516,0,0,1-.394,5.035,2.351,2.351,0,0,1-1.564,1.836,1.883,1.883,0,0,1-1.464-.062,1.067,1.067,0,0,1-.673-.707,6.238,6.238,0,0,1-.262-1.484c.045-2.536.185-5.068.2-7.6a27.576,27.576,0,0,1,.88-6.514,1.885,1.885,0,0,1,1.909-1.354A1.957,1.957,0,0,1,517.424,335.04Z" transform="translate(-429.034 -184.479)" fill="#fff"/>
    <path id="Контур_379" data-name="Контур 379" d="M2.675,6.449C1.4,4.446.738,3.482.168,2.464A1.825,1.825,0,0,1,.135,1,1.5,1.5,0,0,1,1.687.009a2.362,2.362,0,0,1,1.4.482C4.526,1.881,5.936,3.3,7.339,4.733a2.672,2.672,0,0,1,.537.84A17.251,17.251,0,0,1,9.1,9.38a1.764,1.764,0,0,1-1.37,1.8,2.25,2.25,0,0,1-1.87-.514,16.513,16.513,0,0,1-2.8-3.521C2.708,6.583,2.418,5.977,2.675,6.449Z" transform="matrix(0.921, -0.391, 0.391, 0.921, 32.78, -6.97)" fill="#fff"/>
    <path id="Контур_380" data-name="Контур 380" d="M502.5,340.293a55.377,55.377,0,0,1-2.026-5.338,2.344,2.344,0,0,1,.892-2.207,2.058,2.058,0,0,1,1.92-.044,2.757,2.757,0,0,1,1.38,1.407,44.443,44.443,0,0,1,1.83,5.766,1.8,1.8,0,0,1-.9,1.661,1.9,1.9,0,0,1-2.65-.538C502.868,340.857,502.773,340.717,502.5,340.293Z" transform="translate(-401.983 -165.814)" fill="#fff"/>
    <path id="Контур_381" data-name="Контур 381" d="M4.514,2.751c.2.413.528,1,.774,1.616A2.278,2.278,0,0,1,3.231,7.575,2.166,2.166,0,0,1,1.172,6.434a2.916,2.916,0,0,1-.235-.441A15.547,15.547,0,0,1,0,1.608C-.053.992.724-.1,1.588.007a2.419,2.419,0,0,1,1.7.9,4.8,4.8,0,0,1,.305.4C3.867,1.724,4.133,2.15,4.514,2.751Z" transform="matrix(0.839, -0.545, 0.545, 0.839, 47.59, -19.397)" fill="#fff"/>
  </g>
</svg>
