<svg id="Arbeitsschuhe_Icon" fill="#000000" data-name="Arbeitsschuhe Icon" xmlns="http://www.w3.org/2000/svg" viewBox="0 0 70 60"><defs></defs><path class="cls-1" d="M63.09,44.23a5,5,0,0,0-.21-.7,4.25,4.25,0,0,0-.7-1.58,2.12,2.12,0,0,1-.4-1.34c0-.22,0-.43,0-.65a1.47,1.47,0,0,0-.06-.42q-.22-.63-.48-1.23a3.21,3.21,0,0,1-.24-.8,5.62,5.62,0,0,1-.09-.57l.12-.08a.46.46,0,0,0,.11-.56.43.43,0,0,0-.35-.16c-.09-.78-.16-1.55-.19-2.33,0-.56-.05-1.11-.08-1.66A14.05,14.05,0,0,1,60.7,29,21.16,21.16,0,0,0,61,26c0-1.39.39-4.28.4-4.35a5.63,5.63,0,0,0-.31-2.76,1.64,1.64,0,0,0-.5-.69,1.07,1.07,0,0,0-1.38.08l-.86,1a2,2,0,0,1-.9.55,1,1,0,0,1-.85-.11c-.06,0-1.74-1.35-2.53-2a10.22,10.22,0,0,0-2.66-1.75,6.58,6.58,0,0,0-.82-.36,25.17,25.17,0,0,0-3.73-1.05,8.08,8.08,0,0,0-.86-.08,1.13,1.13,0,0,0-.7.25.12.12,0,0,1-.17,0c-.17-.19-1.22-1-1.59-1.34a.78.78,0,0,1-.22-.36.45.45,0,0,1,0-.41,1.56,1.56,0,0,1,1.22-.82,1.82,1.82,0,0,1,.52,0A9.62,9.62,0,0,1,48.39,13c.78.43,2.89.92,3.38,1.24s.53.42.4.84a.51.51,0,0,0,.63.6c.4-.18.47-.93.39-1.32a1.94,1.94,0,0,0-1.45-1.13c-.82-.22-3.19-1.26-3.91-1.59-.13-.07-1.72-.61-2.38-.82a1.69,1.69,0,0,0-.92-.05l-.62.16a3.81,3.81,0,0,0-.58.31c-.46.46-1,.74-1.52,1.18a2.89,2.89,0,0,0-.73,1,3.16,3.16,0,0,0-.18.67c-.07.42-.17.82-.27,1.23s0,1-.37,1.34a.87.87,0,0,0-.21.83c0,.14.08.27.12.41a14,14,0,0,1-.77,3.51c-.15.16-.31.3-.46.46a3.71,3.71,0,0,0-.35.84c-.15.32-.93.62-1,.72s-.62.51-.76.62c-.51.43-.67,1.29-1.28,1.55a.8.8,0,0,0-.45.5c-.3,1.11-2.18,2.07-2.8,2.44a5.07,5.07,0,0,1-1.32.65,7.31,7.31,0,0,0-2.18.49c-.25.17-.49.37-.74.55a9.26,9.26,0,0,1-.95.43,3.58,3.58,0,0,1-1.32.38,1.78,1.78,0,0,0-.86.36,11.71,11.71,0,0,1-1.32.79,18.27,18.27,0,0,1-3.74,1.32,17.45,17.45,0,0,1-3.68-.3c-1.28-.24-3.22-.42-3.71-.53a6.16,6.16,0,0,0-1.27,0,4,4,0,0,0-1.91,1,4.38,4.38,0,0,0-.72,1.15,17.38,17.38,0,0,0-.31,2,1.4,1.4,0,0,0,.05.41,3,3,0,0,0,.94,1.45c.06.05,1,.74,1.4,1A9.13,9.13,0,0,0,13,40.83c.34.1.68.22,1,.34a6.09,6.09,0,0,0,1.41.29,3.79,3.79,0,0,1,1.1.23,4.22,4.22,0,0,0,1,.21,4.12,4.12,0,0,1,.91.2,18.28,18.28,0,0,0,2.49.66l.66.16a.12.12,0,0,1,.09.08,1.9,1.9,0,0,0,.23.39,1.27,1.27,0,0,0,.34.27.59.59,0,0,0,.78-.38l.15-.12a4.4,4.4,0,0,1,.51.05,11.2,11.2,0,0,0,3.74-.06c.65-.06,1.3-.18,1.94-.29a3.07,3.07,0,0,1,.53-.07,10.85,10.85,0,0,0,2.52-.58,18,18,0,0,0,2.21-.85l1-.44c.35-.14,1.89-.5,2.29-.58a6.69,6.69,0,0,1,1-.12,29.84,29.84,0,0,1,3.66.11c.1,0,2.57.4,3.69.67.28.06.56.12.84.2a12.57,12.57,0,0,0,3.74.61,10.17,10.17,0,0,0,1.89-.36,9.33,9.33,0,0,1,1.17-.24c.57-.08,1.14-.17,1.71-.28,1.09-.21,2.18-.41,3.27-.63a1,1,0,0,0,.57-.28.45.45,0,0,0-.07-.73,1.51,1.51,0,0,0-.41-.09.78.78,0,0,0-.22,0c-.72.16-1.45.32-2.17.52s-2.14.38-2.26.41c-.62.17-1.27.24-1.9.36a9,9,0,0,1-4.2-.14l-.57-.12c-.42-.11-.83-.23-1.26-.31s-1-.11-1.44-.23l-.47-.1a29.45,29.45,0,0,0-4.08-.28c-1.09,0-2.17.08-3.25.2a10.83,10.83,0,0,0-1.82.58c-1.11.55-2.28.92-3.42,1.37a5.74,5.74,0,0,1-.81.23,22.81,22.81,0,0,1-3.28.42,12.48,12.48,0,0,0-1.92.26,3.13,3.13,0,0,1-1.6-.18,2.79,2.79,0,0,0-1.34-.15.13.13,0,0,1-.16-.11c-.24-1.15-.53-2.83-.55-3.25a9.42,9.42,0,0,0-.56-2.3A5.19,5.19,0,0,0,21,35.07a.69.69,0,0,1-.12-.42.4.4,0,0,1,.16-.38,4.58,4.58,0,0,1,1.6-.61,1.05,1.05,0,0,1,.63.09l.19.1a2.84,2.84,0,0,0,2.8.68.07.07,0,0,1,.08,0,6.79,6.79,0,0,0,.57.91,1.44,1.44,0,0,0,1,.31h.21a1.48,1.48,0,0,0,.94-.48,1.93,1.93,0,0,0,.35-.54,3.08,3.08,0,0,0,.08-1.68.14.14,0,0,1,.08-.15c1-.44,2.31-1,3.08-1.31a.13.13,0,0,1,.13,0,15.79,15.79,0,0,0,2,1.15,4.82,4.82,0,0,0,1.07.13,3.28,3.28,0,0,0,.43,0,1.17,1.17,0,0,0,1-1,16.06,16.06,0,0,0-.63-2.31.14.14,0,0,1,0-.15c.47-.39,1.08-1,1.66-1.54a.12.12,0,0,1,.16,0,5.41,5.41,0,0,0,2.33,1,1.26,1.26,0,0,0,1.28-1A2.4,2.4,0,0,0,41.7,26a1.87,1.87,0,0,1,.55.08c.63.2,2.51.87,2.77,1a2.18,2.18,0,0,0,.83.22.8.8,0,0,0,.83-.8,2.31,2.31,0,0,0-.4-1.34c-.29-.41-1-.53-1.67-.81a2.29,2.29,0,0,1-1-.8,6.54,6.54,0,0,0,3.16.13.75.75,0,0,0,.33-1.09,5.62,5.62,0,0,0-1-1.13c-.6-.51-1.24-1-1.86-1.48l-.32-.18c.05-.16.09-.28.11-.37a5.61,5.61,0,0,1,.37-1,6.77,6.77,0,0,0,1.12.15,2,2,0,0,0,.43,0A1.33,1.33,0,0,0,47,17.59a.61.61,0,0,0,0-.42,12.7,12.7,0,0,0-1-1.37.13.13,0,0,1,0-.19,2.52,2.52,0,0,1,1.66.06,3.65,3.65,0,0,1,.56.18,9.51,9.51,0,0,0,1.36.47,10.57,10.57,0,0,1,2.48,1.09,6.82,6.82,0,0,1,1,.66q1,.86,2.13,1.68c.34.26.63.59,1,.83a1.45,1.45,0,0,0,.81.26l.21,0,.63-.12a1.3,1.3,0,0,0,.43-.2l1.33-1a.4.4,0,0,1,.54.17,3.46,3.46,0,0,1,.2.83c0,.61,0,1.22-.08,1.83a10.37,10.37,0,0,1-.15,1.1,15.16,15.16,0,0,0-.21,2.22,12.73,12.73,0,0,1-.08,1.51c0,.14-.08.95-.37,1.05a4.65,4.65,0,0,1-.75,0c-.43.05-.86.08-1.29.12a8,8,0,0,0-.85.17,31.14,31.14,0,0,0-4.48,1.53,14.15,14.15,0,0,0-2.75,1.57,3.16,3.16,0,0,0-.79.8,1.18,1.18,0,0,0-.19.39c-.2.76-.43,1.52-.57,2.3-.09.49-.21,1-.32,1.47a5,5,0,0,0-.09.86,1.25,1.25,0,0,0,.33.77,1.72,1.72,0,0,0,.93.51,9.42,9.42,0,0,0,1.29.14,11.19,11.19,0,0,0,3-.21,6.92,6.92,0,0,1,1.28-.18,57.05,57.05,0,0,0,5.62-1.11,3.84,3.84,0,0,0,.71,1.87,1.35,1.35,0,0,1,.18.62c0,.21,0,.43,0,.64A3.66,3.66,0,0,0,61.11,42c.27.57.53,1.15.79,1.74a1.24,1.24,0,0,1,.09.63.88.88,0,0,1-.31.55.49.49,0,0,1-.18.11,7.32,7.32,0,0,1-1.21.45,1.37,1.37,0,0,1-.85,0l-.61-.2a2.16,2.16,0,0,0-1.07,0,1,1,0,0,0-.78.67,2.75,2.75,0,0,0-.11.41,1,1,0,0,1-.56.62l-.2.07c-.21.05-.42.1-.63.13a1.27,1.27,0,0,1-1-.27l-.33-.28a2.11,2.11,0,0,0-.75-.41.68.68,0,0,0-.42,0,1.41,1.41,0,0,0-1,.68,3.57,3.57,0,0,1-.33.56.67.67,0,0,1-.34.23,1.6,1.6,0,0,1-.42.1,5.58,5.58,0,0,1-1.29,0c-.5,0-1-.08-1.5-.14a1.11,1.11,0,0,1-.84-.55c0-.07-.09-.14-.13-.22s-.13-.25-.2-.38a2.17,2.17,0,0,0-.86-.89,3.49,3.49,0,0,0-1.13-.37l-.77-.08a41.67,41.67,0,0,0-5.3.16,1.18,1.18,0,0,0-.76.72c-.11.26-.16.55-.26.82a.83.83,0,0,1-.45.43,5.49,5.49,0,0,1-1.25.33,1.43,1.43,0,0,1-1-.2l-.36-.25a2,2,0,0,0-1.55-.26,1.17,1.17,0,0,0-.48.22,4.75,4.75,0,0,0-.49.42,1.6,1.6,0,0,1-.62.32,1.68,1.68,0,0,1-.59.08c-.5,0-1-.06-1.5-.08s-1.28-.11-1.93-.17a1.75,1.75,0,0,1-.79-.31l-.35-.26a1.23,1.23,0,0,0-.81-.22,1.63,1.63,0,0,0-.83.21l-.55.34a1.89,1.89,0,0,1-1.17.22,3.69,3.69,0,0,1-.74-.12c-.76-.19-1.53-.31-2.28-.53a1.09,1.09,0,0,1-.77-.69c0-.07-.06-.14-.08-.2a1.19,1.19,0,0,0-.08-.2,1.32,1.32,0,0,0-.62-.57,1.58,1.58,0,0,0-1.45.08c-.25.14-.48.3-.73.43a1.12,1.12,0,0,1-.7.07c-.47-.12-.93-.28-1.39-.41l-1.48-.39a2.62,2.62,0,0,1-.39-.15L9.82,43.71a3.73,3.73,0,0,1-.37-.23A3.28,3.28,0,0,1,8,40.7a3.93,3.93,0,0,1,.13-1.13,2.71,2.71,0,0,0,0-.4c0-.23-.32-.57-.59-.48a.81.81,0,0,0-.43.44A3.84,3.84,0,0,0,7,40.78c.09.42.19.84.29,1.26A3.18,3.18,0,0,0,8,43.36a4.08,4.08,0,0,0,1.54,1.16c1,.41,2,.92,2.94,1.33a6.39,6.39,0,0,0,.6.26c.9.25,1.75.65,2.62,1a1.34,1.34,0,0,0,.84-.1c.32-.17.62-.36.93-.54a.63.63,0,0,1,.78.16c.08.12.16.23.23.36s.11.26.17.39a.86.86,0,0,0,.64.52,6.12,6.12,0,0,0,.86.1,4.71,4.71,0,0,1,1.06.19,8.33,8.33,0,0,0,3,.4c.36,0,.69-.54,1-.65a.74.74,0,0,1,.62,0c.14,0,.29.57.43.62a1.35,1.35,0,0,0,.63.1,4.8,4.8,0,0,1,1.07,0,6.11,6.11,0,0,0,.86.09c.86,0,1.72,0,2.59,0a3.35,3.35,0,0,0,1.77-.75.69.69,0,0,1,.19-.1.73.73,0,0,1,.61-.06c.13.06.34.37.48.42a2.67,2.67,0,0,0,.84.17,13.07,13.07,0,0,0,2.58-.17l.21-.05a1.17,1.17,0,0,0,.86-.87c.05-.28.08-.57.15-.85a.9.9,0,0,1,.39-.49,1.18,1.18,0,0,1,.4-.17c.49-.1,2.9-.07,3.4-.07a4.84,4.84,0,0,1,1.68.38,1.81,1.81,0,0,1,.87.65c.19.26.36.54.54.8a1.69,1.69,0,0,0,.39.41,1.13,1.13,0,0,0,.52.27,2.63,2.63,0,0,0,.49.06,5.67,5.67,0,0,1,1.36.15,5.38,5.38,0,0,0,1.79,0l.43,0c.58-.06.94-.76,1.41-1.14a.72.72,0,0,1,.62-.09c.13,0,.46.65.59.69a1.05,1.05,0,0,0,.43.07,17.63,17.63,0,0,0,1.92-.22c.73-.14,1.07-.71,1.46-1.4a.69.69,0,0,1,.93-.25l.21.06c.21,0,.74.37.95.28a3.42,3.42,0,0,1,1-.35,3.71,3.71,0,0,0,1.25-.43,2.06,2.06,0,0,0,.92-.88A1.13,1.13,0,0,0,63.09,44.23ZM21,38.08a3.55,3.55,0,0,1,.1.64c0,.3.24,1.78.38,2.85a.13.13,0,0,1-.16.15l-.75-.13c-.26,0-.68-.13-.93-.2L18.34,41a4,4,0,0,0-.62-.12c-.93-.11-1.84-.35-2.77-.49l-.22,0a3.94,3.94,0,0,1-1-.26,7.87,7.87,0,0,0-1.13-.46,4.34,4.34,0,0,1-1.49-.74,13.86,13.86,0,0,1-1.33-1.1,1.77,1.77,0,0,1-.5-.93,3.34,3.34,0,0,1,.26-2.11,1.87,1.87,0,0,1,.74-.76,2.94,2.94,0,0,1,1.45-.36c.21,0,.43,0,.64,0l.84.08c.24,0,3.49.47,4.06.56a15,15,0,0,1,1.65.31c.77.28.74.79,1.18,1.48A6.6,6.6,0,0,1,21,38.08ZM41.68,15.46a4.16,4.16,0,0,1,.21-1.05.78.78,0,0,1,.11-.18.71.71,0,0,1,.34-.25.33.33,0,0,1,.21,0,10.28,10.28,0,0,1,1.88,1.54.11.11,0,0,1,0,.15,10.7,10.7,0,0,0-.61,1.16.13.13,0,0,1-.16.06c-.61-.26-1.23-.53-1.3-.54a1,1,0,0,1-.55-.32A.92.92,0,0,1,41.68,15.46Zm-1.19,5.31a2.3,2.3,0,0,1,.32-.78.74.74,0,0,1,.31-.27c.05,0,.13,0,.2,0a1.43,1.43,0,0,1,.59.23l.63.39a.11.11,0,0,1,.06.13c-.12.51-.22,1-.28,1.45a.14.14,0,0,1-.16.11c-.66-.17-1.2-.31-1.31-.36a.6.6,0,0,1-.37-.48A2,2,0,0,1,40.49,20.77ZM37.4,24.88a2.33,2.33,0,0,1,.7-.47.9.9,0,0,1,1,.17,6.53,6.53,0,0,1,.73.79.13.13,0,0,1,0,.2,3.73,3.73,0,0,0-.7.35,8,8,0,0,0-.69.59.15.15,0,0,1-.18,0l-.54-.39L37.51,26l-.14-.16A.68.68,0,0,1,37.4,24.88Zm-.76,1.72.39.17a3.88,3.88,0,0,1,.48.3.15.15,0,0,1,0,.22l-1.17,1.05a.14.14,0,0,1-.22-.05,8.82,8.82,0,0,1-.31-.86.76.76,0,0,1,0-.21A.62.62,0,0,1,36.64,26.6ZM32.5,29.41a17.42,17.42,0,0,1,1.76-1.18.71.71,0,0,1,.21,0,.73.73,0,0,1,.57.21,2.47,2.47,0,0,1,.4.7,1.3,1.3,0,0,1-.19.13c-.32.19-1.36.75-2.4,1.27l-.17,0a1.32,1.32,0,0,1-.36-.51.78.78,0,0,1,0-.21A.75.75,0,0,1,32.5,29.41Zm-6,2.25a2.36,2.36,0,0,1,.68-.27.87.87,0,0,1,.84.39,1.62,1.62,0,0,1,.19.6.13.13,0,0,1-.09.14l-1.55.74c-.1-.14-.17-.26-.19-.29a1.92,1.92,0,0,1-.22-.69A.69.69,0,0,1,26.54,31.66Zm-2.39,1.4c-.12-.11.44-.39.94-.48a.52.52,0,0,1,.39.37c0,.06.13.28.28.57a.07.07,0,0,1-.05.11A1.82,1.82,0,0,1,24.15,33.06Zm4,1.56a.74.74,0,0,1-.44.13,2.06,2.06,0,0,1-.48-.55.07.07,0,0,1,0-.1c.43-.25.81-.5,1.1-.64l.09,0C28.47,33.59,28.73,34.24,28.15,34.62ZM29.34,32a.13.13,0,0,1-.18-.08,1.38,1.38,0,0,1,0-1,.73.73,0,0,1,.29-.38,1.63,1.63,0,0,1,1.14-.35,1.49,1.49,0,0,1,.68.23l.47.38a.14.14,0,0,1,0,.23,7.94,7.94,0,0,1-1.14.47C30.28,31.62,29.84,31.79,29.34,32Zm6.85-.33a.61.61,0,0,1-.41.23c-.55.15-1.35-.35-1.83-.67A.14.14,0,0,1,34,31c.53-.27,1.18-.61,1.7-.91a.15.15,0,0,1,.2.08A4.11,4.11,0,0,1,36.19,31.67Zm4.48-3.76a3.34,3.34,0,0,1-1.4-.7.14.14,0,0,1,0-.22,5.26,5.26,0,0,1,.5-.42,3,3,0,0,1,.67-.34.13.13,0,0,1,.15,0c.29.35.53.65.61.73C41.39,27.25,41,27.93,40.67,27.91Zm2.09-3.77a9.44,9.44,0,0,0,2.61,1.56.26.26,0,0,1,0,.21.31.31,0,0,1-.35.16c-.57-.06-2.69-1-3.34-1a2.51,2.51,0,0,0-.55.08.12.12,0,0,1-.13,0,2.09,2.09,0,0,0-.25-.26,6.6,6.6,0,0,1-.83-1c-.08-.11-.14-.25-.21-.37a.48.48,0,0,1,.35-.65,1.49,1.49,0,0,1,.21,0c.24,0,1.06.22,2,.45a.12.12,0,0,1,.09.08A2.28,2.28,0,0,0,42.76,24.14Zm2.74-1.88a.28.28,0,0,1,0,.36.3.3,0,0,1-.36.12l-1.79-.41a.15.15,0,0,1-.1-.14,7.16,7.16,0,0,1,.2-1.09.12.12,0,0,1,.19-.07A13.35,13.35,0,0,1,45.5,22.26ZM43,19.07a.13.13,0,0,1-.19.07c-.42-.24-.78-.45-.82-.49a2.52,2.52,0,0,1-.27-.3,1.11,1.11,0,0,1-.09-.19.54.54,0,0,1,.49-.72,5.34,5.34,0,0,1,1.19.47.12.12,0,0,1,.06.16C43.27,18.22,43,18.78,43,19.07Zm2.8-1.71a.66.66,0,0,1-.89.08h0c.19-.38.38-.73.52-1C45.53,16.55,46,17.05,45.76,17.36ZM56.43,37.09c-.58,0-3.29.4-3.85.52a8.3,8.3,0,0,1-3.22.07,1,1,0,0,1-.75-.92,2,2,0,0,1,0-.43c.23-1.06.46-2.11.78-3.14a1.47,1.47,0,0,1,.36-.53A5,5,0,0,1,50.6,32a8.45,8.45,0,0,1,1.32-.72c.72-.33,1.45-.63,2.18-.94a24.26,24.26,0,0,1,2.46-.79,4.63,4.63,0,0,1,1.92-.17l.55.09c.33,0,.31.35.32.7,0,.14,0,.28,0,.43,0,1.22,0,2.44.11,3.66a15.64,15.64,0,0,0,.2,2.05c-.27,0-.54.11-.82.15S56.86,37.05,56.43,37.09Z"/>
<path class="cls-1" d="M50.22,19.12a.75.75,0,0,0-.27-.44A4.52,4.52,0,0,0,48.34,18h-.06a.56.56,0,0,0-.57.49v0a.06.06,0,0,1,0,0,.42.42,0,0,0,.08.2,5.69,5.69,0,0,0,1.68,1,.45.45,0,0,0,.2,0,.59.59,0,0,0,.35-.12A.5.5,0,0,0,50.22,19.12Z"/>
<path class="cls-1" d="M49.46,23.88a2.27,2.27,0,0,0-1-.44h-.08a.45.45,0,0,0-.43.29.15.15,0,0,0,0,.07.09.09,0,0,1,0,.05.35.35,0,0,0,0,.23,2,2,0,0,0,.82.72.73.73,0,0,0,.29.07.69.69,0,0,0,.24-.05.48.48,0,0,0,.35-.42A.52.52,0,0,0,49.46,23.88Z"/>
<path class="cls-1" d="M37.24,33.62h-.08a.45.45,0,0,0-.32.22.54.54,0,0,0-.08.44,7.2,7.2,0,0,0,.62,1.44.55.55,0,0,0,.45.21h.05a.43.43,0,0,0,.31-.19.62.62,0,0,0,.09-.46,7.72,7.72,0,0,0-.62-1.44A.53.53,0,0,0,37.24,33.62Z"/>
<path class="cls-1" d="M28.87,36.5a.57.57,0,0,0-.18,0,.58.58,0,0,0-.33.46,4.8,4.8,0,0,0,.43,1.46.56.56,0,0,0,.49.27h0a.54.54,0,0,0,.42-.35,2.83,2.83,0,0,0-.5-1.69A.5.5,0,0,0,28.87,36.5Z"/><path class="cls-1" d="M42.55,29.06h-.08a.48.48,0,0,0-.37.17.53.53,0,0,0-.13.42c0,.22.73,1.33,1,1.39h.11a.5.5,0,0,0,.43-.27c0-.09.07-.24-.14-.67C43.39,30.1,42.9,29.12,42.55,29.06Z"/></svg>
