<?xml version="1.0" encoding="utf-8"?>
<!-- Generator: Adobe Illustrator 24.0.2, SVG Export Plug-In . SVG Version: 6.00 Build 0)  -->
<svg version="1.1" id="Sneaker_Icon" xmlns="http://www.w3.org/2000/svg" xmlns:xlink="http://www.w3.org/1999/xlink" x="0px"
	 y="0px" viewBox="0 0 80 70" style="enable-background:new 0 0 80 70;" xml:space="preserve">
<path id="Group_945" d="M56.7,48.6c-0.9,0-1.8-0.1-2.8-0.1c-0.3,0-0.6,0-1-0.1c-0.8-0.1-1.5-0.1-2.3-0.2c-0.4,0-0.8,0-1.2-0.1
	C48.6,48,47.7,48,46.9,48c-1.2,0-2.5,0-3.7,0c-0.6,0-1.1,0-1.7,0.1c-0.3,0-0.6,0.1-0.8,0.1c-0.4,0-0.9,0.1-1.3,0.1
	c-0.3,0-0.6,0.1-1,0.1c-0.7,0-1.4,0.1-2,0.2c-0.2,0-0.5,0.1-0.7,0.1c-1.2,0-2.3,0-3.5,0.1c-0.8,0-1.7,0-2.5,0.1c-0.6,0-1.1,0-1.7,0
	c-2.5-0.2-5-0.5-7.6-0.9c-0.2,0-0.3-0.1-0.5-0.1c-0.9-0.3-1.8-0.6-2.7-1c-0.6-0.3-1.2-0.6-1.9-0.8c-0.7-0.3-1.3-0.8-1.9-1.3
	c-0.2-0.2-0.4-0.6-0.4-0.9c0-0.2,0-0.3,0-0.5c0-0.1,0.1-0.2,0.2-0.3c0.2-0.1,0.4-0.1,0.5,0.1l0,0c0.1,0.1,0.1,0.3,0.1,0.5
	c0.1,0.4,0.4,0.8,0.8,1c0.1,0.1,0.2,0.1,0.3,0.2c1.7,0.9,3.4,1.6,5.3,2.1c0.4,0.1,0.7,0.2,1.1,0.2c0.9,0.1,1.8,0.2,2.6,0.3
	c1,0.1,2.1,0.3,3.1,0.3c1,0.1,1.9,0.1,2.9,0.1c1.2,0,2.4-0.1,3.6-0.2c0.3,0,0.6,0,0.8,0c1.8,0,3.5-0.2,5.3-0.4
	c1.7-0.2,3.4-0.3,5.1-0.2c0.4,0,0.8,0,1.2,0c1.7-0.1,3.4,0,5.1,0.1c1.1,0.1,2.2,0.2,3.4,0.3c0.4,0,0.7,0.1,1.1,0.1
	c1.4,0,2.8,0,4.2,0c0.5,0,1,0,1.6-0.1s1.3-0.1,1.9-0.2c0.6-0.1,1.1-0.2,1.7-0.3c0.5-0.1,0.9-0.3,1.3-0.5c0.1-0.1,0.3-0.2,0.3-0.4
	c0.2-0.7,0.3-1.4,0.1-2.1v-0.1c-0.1-0.1-0.2-0.2-0.3-0.2c-0.1,0-0.2,0-0.2,0c-0.4,0-0.9,0-1.3,0C63.9,43.8,63,43.9,62,44
	c-0.3,0.1-0.6,0.1-1,0c-0.4,0-0.8-0.1-1.2,0c-0.5,0-1,0-1.6,0c-0.8,0-1.5-0.1-2.3-0.1c-0.3,0-0.6,0-0.8,0c-0.3,0-0.5,0-0.7,0
	s-0.5,0.1-0.6,0.3c-0.1,0.1-0.2,0.2-0.2,0.3c-0.2,0.2-0.5,0.2-0.7,0s-0.3-0.4-0.6-0.4c-0.6-0.1-1.3-0.1-1.9,0
	c-0.6,0.1-1.2,0.1-1.8,0.1c-0.5,0-1,0-1.4,0.1s-0.8,0.1-1.2,0.1c-0.7,0-1.4,0-2,0.1c-0.6,0-1.2,0.1-1.8,0.2
	c-0.4,0.1-0.8,0.1-1.2,0.2C40.6,45,40.3,45,39.9,45c-0.2,0-0.3,0-0.5,0c-1.2,0.1-2.5,0.1-3.7,0.1c-0.2,0-0.4,0-0.6,0
	c-1.7-0.1-3.5,0-5.2,0.1c-0.4,0-0.9,0-1.3,0c-0.3,0-0.6-0.1-1-0.1c-0.9,0-1.9,0-2.8,0c-0.4,0-0.8,0-1.2,0c-0.3,0-0.6,0-1-0.1
	c-0.8-0.2-1.7-0.3-2.5-0.4C19,44.5,18,44.3,16.9,44c-0.6-0.2-1.1-0.4-1.7-0.7c-0.3-0.2-0.6-0.3-0.9-0.5c-0.4-0.2-0.6-0.6-0.7-1.1
	c-0.1-0.4,0-0.9,0.3-1.2c0.3-0.4,0.6-0.7,0.9-1.1c0.2-0.3,0.4-0.5,0.7-0.6c0.8-0.5,1.6-0.9,2.5-1.2c0.6-0.2,1.1-0.4,1.7-0.4
	c0.8-0.2,1.7-0.2,2.5-0.3s1.5-0.2,2.3-0.1c0.2,0,0.4,0,0.6-0.1c0.6-0.2,1.1-0.5,1.6-0.8c0.3-0.2,0.6-0.4,1-0.4
	c0.2,0,0.4-0.2,0.4-0.4c0.1-0.3,0.2-0.5,0.3-0.8c0.1-0.2,0.2-0.3,0.3-0.3c0.6-0.1,1-0.5,1.6-0.6c0.1,0,0.2-0.1,0.2-0.1
	c0.9-0.6,2-0.9,2.9-1.5c0.1-0.1,0.3-0.2,0.4-0.2c0.8-0.3,1.5-0.7,2.3-1.1c0.3-0.2,0.6-0.3,0.8-0.5c0.7-0.4,1.5-0.8,2.2-1.2
	c0.4-0.2,0.7-0.4,1-0.6c0.5-0.4,1.1-0.7,1.6-1.1s1-0.6,1.5-1c0.1-0.1,0.3-0.2,0.4-0.2c0.7-0.4,1.4-0.9,1.9-1.5
	c0.1-0.1,0.2-0.2,0.3-0.2c0.2-0.1,0.3-0.2,0.6-0.2c0.2,0,0.3,0,0.5,0s0.3,0.1,0.4,0.2c0.2,0.1,0.3,0.3,0.5,0.5
	c0.5,0.9,0.8,1.9,1,2.9c0,0.3,0.1,0.6,0.1,1c0.1,0.4,0,0.9-0.1,1.3c0,0.2-0.1,0.3-0.1,0.5s0,0.3,0.2,0.4c0.1,0.1,0.2,0.2,0.3,0.2
	c0.4,0.3,0.8,0.5,1.3,0.7c0.7,0.4,1.4,0.7,2.1,1.1c0.6,0.4,1.3,0.6,2.1,0.6c0.1,0,0.2,0,0.4,0s0.5-0.1,0.7-0.1
	c1.3-0.1,2.5-0.5,3.6-1.2c0.2-0.1,0.5-0.3,0.7-0.5c0.3-0.3,0.6-0.6,0.9-0.9c0.1-0.1,0.2-0.2,0.3-0.4c0.5-0.7,0.8-1.5,1.1-2.3
	c0.1-0.3,0.2-0.6,0.3-0.9s0.2-0.6,0.3-0.9c0-0.2,0.1-0.5,0.2-0.7c0.1-0.3,0.4-0.6,0.7-0.8c0.4-0.3,1-0.2,1.3,0.2
	c0.5,0.5,0.8,1.1,1.1,1.7c0.5,1,0.9,2,1.2,3c0.3,1.1,0.5,2.3,0.5,3.5c0,0.6,0,1.1,0,1.7c-0.1,0.4-0.1,0.7-0.1,1.1
	c0,0.4,0.1,0.7,0.1,1.1c0,0.6,0.1,1.1,0.1,1.7c0,0.6,0,1.2-0.2,1.8c0,0.2-0.1,0.4-0.1,0.6c-0.1,0.4-0.1,0.7-0.1,1.1
	c0,0.4,0.1,0.7,0.2,1.1c0.1,0.6,0.1,1.3,0,1.9c-0.1,0.3-0.1,0.6-0.1,1c0,0.7-0.3,1.4-0.8,1.9c-0.1,0.2-0.3,0.3-0.5,0.3
	c-0.6,0-1.1,0.1-1.7,0.2c-1,0.2-2.1,0.3-3.1,0.4c-0.2,0-0.4,0-0.6,0.1c-0.6,0.1-1.2,0.1-1.8,0.1C58.3,48.6,57.5,48.6,56.7,48.6
	L56.7,48.6z M33.2,44.1L33.2,44.1c0.4,0,0.7,0,1.1,0c1,0,1.9,0.1,2.9,0s2.1-0.2,3.1-0.1c0.4,0,0.7,0,1.1-0.1
	c1.1-0.2,2.2-0.4,3.3-0.4c1-0.1,2.1-0.2,3.1-0.3c0.8-0.1,1.6-0.1,2.4-0.2c0.6-0.1,1.2-0.1,1.8-0.1c0.3,0,0.6,0,0.8-0.1
	c0.2,0,0.5-0.2,0.6-0.4c0.2-0.4,0.4-0.8,0.5-1.2s0.2-0.9,0.4-1.2c0.1-0.3,0.2-0.5,0.2-0.8c0-0.2-0.1-0.5-0.3-0.6
	c-0.1-0.1-0.2-0.1-0.3-0.2c-0.8-0.3-1.5-0.7-2.3-1.1c-0.5-0.3-1-0.5-1.5-0.8c-0.7-0.3-1.5-0.7-2.2-0.9c-0.3-0.1-0.6-0.3-0.9-0.4
	c-1-0.6-2-1.2-3-1.7c-0.1-0.1-0.3-0.1-0.5,0c-0.5,0.1-0.9,0.3-1.3,0.5c-0.6,0.3-1.2,0.5-1.8,0.8c-0.5,0.2-1,0.4-1.4,0.6
	c-0.2,0.1-0.4,0.2-0.6,0.2c-1.1,0.4-2.1,0.8-3.1,1.4c-0.4,0.2-0.8,0.4-1.2,0.6c-0.7,0.3-1.3,0.6-2,0.9c-0.8,0.3-1.5,0.7-2.3,1
	c-0.4,0.2-0.7,0.3-1.1,0.4s-0.8,0.3-1.2,0.5c-0.3,0.1-0.5,0.3-0.7,0.6s-0.3,0.6-0.5,0.8c-0.3,0.6-0.6,1.1-0.9,1.7
	c-0.2,0.4,0,0.7,0.5,0.7c0.1,0,0.2,0,0.4,0c1,0,1.9,0,2.9,0.1c0.4,0,0.7,0,1.1,0C31.2,44.2,32.2,44.1,33.2,44.1L33.2,44.1z M58.3,43
	h3.1c0.2,0,0.4,0,0.6,0c1-0.1,1.9-0.2,2.9-0.3c0.4,0,0.7-0.1,1.1-0.1c0.2,0,0.4-0.2,0.4-0.4c0.1-0.2,0.1-0.3,0.1-0.5
	c0.1-0.7,0.2-1.4,0.4-2.1c0.2-0.8,0.2-1.6,0-2.4c-0.1-0.5-0.2-0.6-0.6-0.6c-0.2,0-0.5,0-0.7-0.1c-0.3-0.1-0.6-0.1-0.9-0.2
	c-0.4-0.1-0.7-0.1-1.1,0c-0.8,0.2-1.6,0.3-2.3,0.6c-0.5,0.1-1,0.3-1.5,0.4c-0.6,0.2-1.3,0.2-1.9,0.1c-0.2,0-0.4-0.1-0.6-0.2
	c-0.1-0.1-0.2-0.1-0.3-0.2c-0.4-0.4-0.8-0.9-1.1-1.4c-0.2-0.3-0.4-0.6-0.6-0.9c-0.1-0.1-0.2-0.2-0.3-0.2c-0.2-0.1-0.3-0.1-0.5-0.1
	c-0.4,0-0.7-0.1-1.1-0.2c-0.4-0.1-0.8-0.3-1.2-0.5c-0.3-0.2-0.5-0.3-0.8-0.5c-1.1-0.5-2.2-1.1-3.2-1.6c-1-0.5-2-0.9-3-1.3
	c-0.2-0.1-0.4-0.1-0.6,0c-0.1,0-0.1,0.1-0.2,0.2c0,0.2,0,0.4,0,0.6c-0.1,0.3-0.4,0.5-0.7,0.5h-0.1c-0.1-0.1-0.2-0.1-0.3-0.2
	c-0.5-0.3-1-0.7-1.6-0.9c-0.6-0.2-0.8-0.1-0.9,0.5c0,0.2-0.1,0.4-0.1,0.6c0,0.3-0.1,0.6-0.1,1c0,0.2-0.1,0.3-0.1,0.5
	C40.4,32.9,40.2,33,40,33s-0.3-0.1-0.4-0.2c-0.2-0.2-0.4-0.5-0.6-0.7c-0.3-0.4-0.8-0.6-1.2-0.7c-0.2,0-0.3,0.1-0.4,0.2
	c-0.1,0.1-0.1,0.2-0.2,0.3c-0.2,0.5-0.3,0.9-0.3,1.4c0,0.2,0,0.5-0.1,0.7c-0.1,0.4-0.5,0.6-0.8,0.5l0,0c-0.1-0.1-0.3-0.1-0.4-0.2
	c-0.2-0.1-0.5-0.3-0.7-0.5c-0.2-0.1-0.4-0.2-0.6-0.2c-0.2,0-0.3,0.1-0.4,0.2l-0.1,0.1c-0.5,0.8-0.8,1.6-0.8,2.5
	c0,0.2,0.2,0.3,0.3,0.3s0.2,0,0.2,0c0.3-0.1,0.7-0.2,1-0.4c0.4-0.1,0.7-0.3,1.1-0.5c0.4-0.3,0.8-0.5,1.3-0.6
	c1.6-0.6,3.2-1.2,4.8-1.9c0.3-0.1,0.5-0.2,0.8-0.3c0.5-0.2,1-0.3,1.5-0.4c0.2,0,0.3,0,0.5-0.1c0.2,0,0.5,0,0.7,0.2
	c0.4,0.3,0.8,0.6,1.2,0.9c1.2,0.8,2.4,1.4,3.8,1.9c0.9,0.4,1.9,0.8,2.7,1.3c0.5,0.3,1.1,0.6,1.6,0.8c0.7,0.2,1.2,0.9,1.3,1.6
	c0.1,0.4,0,0.9-0.2,1.3c-0.3,0.5-0.5,1.1-0.6,1.7c0,0.2-0.1,0.3-0.1,0.5S55,43,55.2,43c0.1,0,0.2,0,0.4,0.1c0.4,0,0.8,0,1.2,0.1
	L58.3,43z M66.8,32.7V32c0-0.8-0.1-1.7-0.4-2.5c-0.2-0.7-0.5-1.4-0.8-2.1c-0.2-0.6-0.5-1.1-0.9-1.6c-0.1-0.1-0.1-0.1-0.2-0.2
	s-0.3,0-0.4,0.1v0.1c-0.2,0.8-0.5,1.6-0.8,2.4s-0.7,1.6-1.1,2.3c-0.1,0.1-0.2,0.3-0.3,0.4c-0.3,0.4-0.6,0.7-1,1.1s-0.9,0.8-1.5,1
	c-0.3,0.1-0.6,0.3-0.9,0.4c-0.5,0.3-1,0.5-1.6,0.6c-0.1,0-0.2,0.1-0.3,0.1c-0.1,0.1-0.2,0.2-0.2,0.4c0.2,0.6,0.5,1.1,0.9,1.5
	c0.2,0.2,0.5,0.4,0.9,0.4c0.2,0,0.4,0,0.6,0c0.5-0.1,1-0.2,1.5-0.4c0.8-0.3,1.6-0.4,2.4-0.6c0.1,0,0.2,0,0.2,0
	c0.6-0.1,1.3-0.1,1.9,0.1c0.3,0,0.5,0.1,0.8,0.1c0.4,0.1,0.8-0.2,0.9-0.6l0,0v-0.1v-0.1C66.9,34,66.9,33.4,66.8,32.7L66.8,32.7z
	 M22.5,37.6c-0.2,0-0.3,0-0.5,0c-0.6,0.1-1.1,0.2-1.7,0.2c-0.8,0.1-1.7,0.3-2.4,0.6c-0.4,0.2-0.9,0.4-1.3,0.6
	c-0.5,0.2-0.8,0.5-1.1,0.9c-0.1,0.2-0.3,0.3-0.4,0.4c-0.1,0.1-0.2,0.2-0.3,0.3c-0.2,0.2-0.2,0.5-0.1,0.7c0.1,0.1,0.1,0.2,0.2,0.3
	c0.6,0.4,1.2,0.8,1.9,1c1,0.3,2,0.6,3.1,0.6c0.2,0,0.3-0.1,0.4-0.2c0.1-0.2,0.2-0.4,0.3-0.7c0.2-0.7,0.5-1.3,0.9-2s0.9-1.3,1.4-2
	c0.1-0.2,0.2-0.3,0.3-0.5c0.1-0.1,0-0.3-0.1-0.3l0,0c0,0,0,0-0.1,0L22.5,37.6z M48,28.5c0-0.4,0-0.5,0-0.6c-0.1-0.8-0.3-1.7-0.6-2.4
	c-0.1-0.2-0.2-0.4-0.3-0.5c-0.1-0.2-0.4-0.3-0.6-0.2l0,0c0,0-0.1,0-0.1,0.1c-0.2,0.1-0.3,0.2-0.5,0.4c-0.5,0.4-1,0.8-1.6,1.1
	c-0.3,0.2-0.5,0.3-0.8,0.5c-0.7,0.4-1.4,0.9-2,1.5c-0.2,0.1-0.2,0.3-0.1,0.5c0,0.1,0.1,0.1,0.1,0.1c0.3,0.1,0.6,0.3,0.9,0.4
	c0.1,0.1,0.3,0.1,0.5,0c0.3-0.1,0.6-0.1,0.9-0.2c0.4-0.1,0.9-0.1,1.3,0l2.1,0.6c0.2,0,0.4,0,0.5-0.2c0.2-0.3,0.3-0.6,0.3-0.9
	C48,28.5,48,28.4,48,28.5L48,28.5z M23.4,44c0.1,0,0.1,0,0.2,0c0.2,0,0.3-0.1,0.4-0.2c0.4-0.7,0.9-1.4,1.3-2.2
	c0.1-0.2,0.2-0.4,0.3-0.6c0.1-0.1,0-0.3-0.1-0.4h-0.1c-0.1,0-0.2,0-0.4,0c-0.7,0.1-1.4,0.1-2,0.1c-0.2,0-0.3,0.1-0.4,0.2
	c-0.5,0.6-0.8,1.2-1.1,1.8c-0.1,0.2-0.1,0.3-0.1,0.5s0.1,0.4,0.3,0.5c0.4,0.1,0.9,0.2,1.3,0.3C23,44,23.2,44,23.4,44L23.4,44z
	 M28.3,38.1c0,0.1,0,0.2,0,0.3s0.1,0.2,0.2,0.2c0.2,0,0.3,0,0.5,0c0.9-0.3,1.7-0.7,2.5-1.1c0.2-0.1,0.3-0.3,0.2-0.5l0,0
	c0,0,0-0.1-0.1-0.1c-0.2-0.2-0.4-0.5-0.6-0.7s-0.4-0.5-0.6-0.7s-0.4-0.3-0.7-0.4c-0.2-0.1-0.5,0-0.6,0.2s-0.2,0.3-0.3,0.5
	C28.6,36.5,28.4,37.3,28.3,38.1L28.3,38.1z M24.1,39.5c0.1,0,0.2,0,0.4,0c0.6-0.1,1.3-0.2,1.9-0.2c0.2,0,0.4-0.1,0.6-0.2
	c0.2-0.1,0.4-0.3,0.4-0.6c0.1-0.5,0.1-1,0.2-1.6v-0.1c0-0.1,0-0.2-0.1-0.2s-0.1-0.1-0.2,0c-0.4,0.2-0.8,0.4-1.2,0.5
	c-0.1,0-0.1,0.1-0.2,0.1c-0.6,0.4-1.2,0.8-1.7,1.3c-0.2,0.2-0.3,0.4-0.3,0.6c0,0.1,0,0.1,0.1,0.2C24,39.5,24,39.5,24.1,39.5
	L24.1,39.5z M32.3,34c0-0.1,0.1-0.2,0.1-0.4v-0.1c0-0.1-0.1-0.2-0.1-0.1c-0.5,0.1-0.9,0.3-1.2,0.6c-0.1,0.1-0.1,0.2,0,0.3
	c0.2,0.2,0.4,0.4,0.6,0.6h0.1c0.1,0,0.2,0,0.2-0.1C32.1,34.6,32.2,34.3,32.3,34L32.3,34z M39.7,30.1c0-0.1,0-0.1,0-0.2
	c-0.1-0.2-0.3-0.3-0.5-0.3c-0.3,0.1-0.5,0.2-0.7,0.4c0,0.1,0,0.2,0,0.2c0.2,0.3,0.5,0.4,0.8,0.4c0.1,0,0.2-0.1,0.3-0.2
	C39.7,30.5,39.8,30.3,39.7,30.1L39.7,30.1z M34.7,32.3L34.7,32.3c0.2,0.3,0.4,0.5,0.7,0.5c0.1,0,0.2-0.1,0.3-0.2
	c0.1-0.2,0.1-0.4,0.1-0.6c0-0.2-0.1-0.3-0.3-0.3l0,0h-0.1c-0.2,0.1-0.4,0.2-0.6,0.3C34.8,32.1,34.8,32.2,34.7,32.3L34.7,32.3z
	 M40,39.6c0,0.1-0.1,0.3-0.1,0.3c-0.2,0.2-0.4,0.3-0.6,0.4c-0.2,0.1-0.4,0.1-0.6-0.1c-0.2-0.1-0.3-0.4-0.2-0.6l0,0
	c0-0.1,0.1-0.2,0.3-0.2c0.2-0.1,0.4-0.2,0.5-0.2c0.2-0.1,0.4,0,0.6,0.1C39.9,39.4,40,39.5,40,39.6z M37.7,38.2
	c-0.2,0-0.3-0.2-0.3-0.4s0-0.3,0.1-0.4c0.1-0.1,0.2-0.2,0.4-0.2s0.4,0.1,0.5,0.3l0,0c0,0,0,0,0,0.1c0,0.3-0.2,0.5-0.5,0.6
	C37.8,38.2,37.8,38.2,37.7,38.2z M44.7,38.5c-0.2,0-0.4-0.1-0.5-0.3c-0.1-0.1-0.1-0.3,0-0.4c0.1-0.1,0.3-0.2,0.5-0.2
	s0.3,0.1,0.4,0.2c0.1,0.2,0.1,0.4,0,0.5c0,0.1-0.1,0.1-0.2,0.1C44.9,38.5,44.8,38.5,44.7,38.5z M40.1,42.4c-0.1,0-0.2-0.1-0.3-0.1
	c-0.2-0.1-0.2-0.3-0.1-0.5l0,0c0-0.1,0.1-0.1,0.2-0.1c0.2-0.1,0.4-0.1,0.6-0.1c0.2,0,0.3,0.2,0.3,0.3s0,0.2-0.1,0.3
	C40.6,42.3,40.4,42.4,40.1,42.4z M32.8,41.2c-0.2,0-0.5-0.2-0.5-0.4c0-0.1,0-0.2,0.1-0.2c0.2-0.2,0.5-0.3,0.7-0.1l0.1,0.1
	c0,0,0,0.1,0.1,0.1C33.3,40.9,33.1,41.1,32.8,41.2z M42.9,36.4c-0.1,0-0.3-0.1-0.3-0.2c-0.1-0.1-0.1-0.2,0-0.3
	c0.2-0.2,0.5-0.3,0.7-0.2s0.3,0.3,0.2,0.5l0,0C43.4,36.3,43.1,36.4,42.9,36.4z M47.9,40.9c0-0.1,0.1-0.1,0.1-0.2
	c0.1-0.1,0.3-0.2,0.5-0.2s0.3,0.2,0.3,0.3c0,0.2-0.2,0.5-0.4,0.5c-0.2,0.1-0.5,0-0.5-0.2l0,0C47.9,41.1,47.9,41,47.9,40.9L47.9,40.9
	z M33.9,43.1c-0.2,0-0.3-0.1-0.4-0.2c-0.1-0.2-0.1-0.4,0-0.5l0,0c0.1,0,0.1-0.1,0.2-0.1c0.1,0,0.2,0,0.2,0c0.1,0.1,0.3,0.2,0.3,0.3
	C34.3,42.8,34.2,43,33.9,43.1L33.9,43.1L33.9,43.1z M46.7,40.1c-0.2,0-0.4-0.2-0.4-0.4s0.2-0.4,0.4-0.4s0.4,0.1,0.4,0.3
	C47.1,39.8,47,40,46.7,40.1C46.7,40,46.7,40,46.7,40.1L46.7,40.1z"/>
</svg>
