<svg id="Schnürschuh_Icon" data-name="Schnürschuh Icon" xmlns="http://www.w3.org/2000/svg" width="80" height="70" viewBox="0 0 80 70">
  <defs>
    <style>
      .cls-1 {
        fill: none;
      }

      .cls-2 {
        fill: #000000;
      }
    </style>
  </defs>
  <rect id="Rectangle_734" data-name="Rectangle 734" class="cls-1" width="70" height="70"/>
  <path id="Path_1414" data-name="Path 1414" class="cls-2" d="M1024.963,354.179l-.1-.092v.019h-.218l0-.019a3.271,3.271,0,0,1-.66.226,17.6,17.6,0,0,1-2.817.148,8.044,8.044,0,0,0-1.318.061c-.758.094-1.509.227-2.265.339a1.822,1.822,0,0,1-.436.017,8.624,8.624,0,0,0-2.02.012,2.67,2.67,0,0,1-.7-.018,3.761,3.761,0,0,0-1.315-.02,1.087,1.087,0,0,1-.6-.085.733.733,0,0,1-.508-.66c-.015-.265-.028-.53-.054-.793a.453.453,0,0,0-.458-.445,1.207,1.207,0,0,0-.264-.01,10.984,10.984,0,0,0-1.91.324c-.507.152-1.025.262-1.528.424a14.029,14.029,0,0,1-2.257.4c-.727.109-1.453.227-2.182.321a35.8,35.8,0,0,1-3.842.542c-.351.006-.7.006-1.055-.017a16.548,16.548,0,0,1-2.283-.213,1.738,1.738,0,0,0-.527,0,19.789,19.789,0,0,1-6.571-.468,12.493,12.493,0,0,0-2-.3,12.49,12.49,0,0,1-3.108-.6,11.477,11.477,0,0,0-3.121-.546,20.821,20.821,0,0,1-4.424-.783,2.3,2.3,0,0,1-1.4-1.381.735.735,0,0,1,.016-.425.278.278,0,0,1,.359-.161,4.243,4.243,0,0,1,.688.537,1.5,1.5,0,0,0,.833.451,26.355,26.355,0,0,0,4.27.647,10.528,10.528,0,0,1,3.023.577,10.946,10.946,0,0,0,2.946.524,12.279,12.279,0,0,1,2.177.34,16.549,16.549,0,0,0,3.053.443,16.308,16.308,0,0,0,2.907-.022,4.293,4.293,0,0,1,1.139.036,16.585,16.585,0,0,0,2.549.223,21.345,21.345,0,0,0,2.538-.3c1.194-.167,2.384-.355,3.577-.526.757-.108,1.519-.188,2.274-.309a7.659,7.659,0,0,0,1.2-.293,10.5,10.5,0,0,1,3.3-.494.785.785,0,0,1,.818.533,2.233,2.233,0,0,1,.227.934,3.928,3.928,0,0,0,.032.432,1.5,1.5,0,0,0,.874.187c1-.072,2-.039,3-.013a17.42,17.42,0,0,0,2.285-.186,17.217,17.217,0,0,1,2.29-.1c.673.018,1.349-.057,2.023-.095.352-.019.7-.061,1.057-.067.559-.011,1.118,0,1.678,0a5.28,5.28,0,0,0,.617-.026,1.331,1.331,0,0,0,1.058-.7,2.188,2.188,0,0,0,.31-1.606,10.724,10.724,0,0,0-.6-2.479c-.04-.079-.06-.167-.1-.245a.408.408,0,0,0-.431-.241c-1.187.207-2.39.312-3.569.592a29.1,29.1,0,0,1-5.062.71,9.22,9.22,0,0,0-1.573.207,24.278,24.278,0,0,1-3.492.5,10.7,10.7,0,0,0-2.066.449,24.893,24.893,0,0,1-2.552.692c-1.014.179-2,.487-3.017.644a4.733,4.733,0,0,0-.848.238,9.02,9.02,0,0,1-2.313.545,1.827,1.827,0,0,1-.262.035,29.939,29.939,0,0,0-3.952.313c-.264.016-.529.027-.794.017a27.15,27.15,0,0,1-3.078-.238c-.754-.116-1.524-.122-2.286-.182-1.144-.091-2.284-.213-3.415-.412a11.593,11.593,0,0,0-2.635-.211,4.408,4.408,0,0,1-1.4-.154c-.907-.248-1.8-.535-2.706-.792-1.214-.347-2.4-.789-3.642-1.04-.518-.105-1.037-.209-1.555-.315a3.5,3.5,0,0,1-.428-.106.462.462,0,0,1-.342-.543,4.412,4.412,0,0,0,.07-1.312,3.211,3.211,0,0,1,.838-2.347c.122-.127.21-.287.338-.407a1.457,1.457,0,0,1,.488-.363,9.643,9.643,0,0,1,1.454-.355,10.21,10.21,0,0,1,1.585-.108,18.7,18.7,0,0,0,2.9-.229c.494-.074.991-.121,1.484-.2.518-.084,1.016-.242,1.551-.278a3.478,3.478,0,0,0,1.338-.419,26.38,26.38,0,0,1,2.693-1.091c.712-.279,1.41-.59,2.113-.889a.829.829,0,0,0,.231-.129,10.091,10.091,0,0,1,2.066-1.172,2.078,2.078,0,0,0,1.007-.822.478.478,0,0,1,.449-.23,2.188,2.188,0,0,0,1.333-.792c.135-.12.148-.373.224-.563a.417.417,0,0,1,.558-.279.821.821,0,0,0,.824-.127c.247-.16.517-.289.749-.467a7.361,7.361,0,0,1,1.6-.924.975.975,0,0,0,.307-.168c.206-.206.358-.494.6-.63a4.5,4.5,0,0,1,.845-.185,3.2,3.2,0,0,0,.625-.321.96.96,0,0,0,.533-.763c.007-.076.083-.146.142-.244a2.51,2.51,0,0,0,1.124.036.618.618,0,0,1,.348.024,4.624,4.624,0,0,1,1.819.858,5.291,5.291,0,0,0,.945.64c.656.393,1.287.828,1.925,1.25.393.259.794.508,1.167.792a5.646,5.646,0,0,0,2.69,1.01c.58.087,1.153.223,1.724.356a7.916,7.916,0,0,0,2.715.2c.293-.033.584-.081.877-.1a8.048,8.048,0,0,0,2.138-.5c1.188-.432,2.4-.808,3.594-1.208.168-.056.338-.1.5-.169a.83.83,0,0,0,.607-.688.651.651,0,0,1,.046-.171.364.364,0,0,1,.514-.179.913.913,0,0,1,.269.221,3.719,3.719,0,0,1,.59,1.078,14.567,14.567,0,0,1,.625,2.841c.018.175.032.352.067.525a.8.8,0,0,0,.356.583,1.008,1.008,0,0,1,.251.242.426.426,0,0,1-.078.685,1,1,0,0,0-.467.972c-.018.647-.051,1.3-.1,1.94-.041.5-.118.991-.186,1.485a2.556,2.556,0,0,0-.018,1.22.623.623,0,0,1-.227.713.7.7,0,0,0-.19.877,9.2,9.2,0,0,1,.375,2.348,2.588,2.588,0,0,1-1.172,2.6,2.441,2.441,0,0,1-2.167.43.839.839,0,0,0-.68.012Zm-27.7-11.47a5.852,5.852,0,0,0,2.088.436c.44.031.887.012,1.32.082,1.137.182,2.29.126,3.429.255a15.435,15.435,0,0,0,2.554-.087,4.128,4.128,0,0,1,2.5.724,6.81,6.81,0,0,1,1.957,2.005,2,2,0,0,1,.28.641c.131.571.229,1.149.336,1.726.036.2.044.41.088.61a.282.282,0,0,0,.325.234c.524-.068,1.047-.144,1.567-.237a.665.665,0,0,0,.514-.439q.211-.533.428-1.064c.221-.544.442-1.09.67-1.631a.818.818,0,0,1,.19-.293,11.672,11.672,0,0,1,1.354-1.121A10.469,10.469,0,0,1,1020.67,343c.693-.119,1.37-.331,2.054-.5.542-.134,1.084-.268,1.627-.4.743-.176,1.489-.338,2.23-.524a5.282,5.282,0,0,0,1.461-.607.506.506,0,0,0,.252-.438,7.868,7.868,0,0,0-.489-2.941.412.412,0,0,0-.484-.289,5.278,5.278,0,0,0-1.356.373,9.431,9.431,0,0,1-.9.35c-.414.147-.828.3-1.25.419-.735.207-1.428.543-2.185.683-.665.122-1.323.28-1.991.39a5.658,5.658,0,0,1-2.619-.144,9.471,9.471,0,0,0-1.808-.38,6.5,6.5,0,0,1-2.975-1.016c-.685-.454-1.4-.858-2.056-1.364a1.093,1.093,0,0,0-.8-.3,5.355,5.355,0,0,0-.787.058,15.421,15.421,0,0,0-2.5.858,17.007,17.007,0,0,0-3.065,1.9,30,30,0,0,1-2.716,1.63c-.557.328-1.152.591-1.711.916A4.8,4.8,0,0,0,997.263,342.709Zm0,9.361a15.53,15.53,0,0,0,2.813-.166,9.815,9.815,0,0,1,1.76-.109,5.974,5.974,0,0,0,2.157-.357c.443-.154.9-.265,1.356-.383.853-.222,1.709-.432,2.562-.654a.371.371,0,0,0,.279-.474,1.99,1.99,0,0,0-1.213-1.417c-.99-.373-1.979-.749-2.968-1.122a4.947,4.947,0,0,0-2.511-.306,6.647,6.647,0,0,1-1.5.022c-.38-.029-.763-.022-1.145-.033a5.908,5.908,0,0,1-.7-.027,7.813,7.813,0,0,0-3.319.166c-.085.024-.171.047-.257.062a4.789,4.789,0,0,1-1.579,0c-.725-.114-1.451-.24-2.182-.3a8.021,8.021,0,0,1-3.974-1.3,2.242,2.242,0,0,1-.548-.434.916.916,0,0,0-1.017-.341c-.948.213-1.921.223-2.878.369a8.46,8.46,0,0,1-.964.042c-.617.023-1.234.043-1.85.07a4.216,4.216,0,0,0-1.453.333,1.341,1.341,0,0,0-.511.328,2.45,2.45,0,0,0-.627,1.783c.06.806.248,1.035,1.039,1.17a24.589,24.589,0,0,1,2.9.745c.787.236,1.564.506,2.346.758.112.036.227.06.342.085.372.085.749.151,1.115.256a4.895,4.895,0,0,0,1.656.185,4.682,4.682,0,0,1,.879.015c.786.1,1.569.236,2.353.352.2.031.408.052.613.071.907.082,1.816.159,2.724.241.526.047,1.055.082,1.578.158A18.092,18.092,0,0,0,997.265,352.069Zm13.292-2.349c.046-.335.065-.569.112-.8a3.993,3.993,0,0,0-.258-2.075,1.918,1.918,0,0,0-.558-.782c-.236-.22-.456-.457-.7-.67a2.883,2.883,0,0,0-2.139-.879c-.586.04-1.173.073-1.76.106a3.307,3.307,0,0,1-.526.011,22.934,22.934,0,0,0-2.466-.126c-.293,0-.586-.046-.879-.065-.763-.05-1.526-.093-2.289-.147a5.094,5.094,0,0,1-.872-.1c-.712-.178-1.416-.388-2.125-.581a1.112,1.112,0,0,1-.568-.393c-.395-.474-.8-.939-1.211-1.4a.358.358,0,0,0-.546-.069,7.434,7.434,0,0,1-2.453,1.173,39.1,39.1,0,0,0-3.673,1.478,1.471,1.471,0,0,0-.224.14.193.193,0,0,0,.017.3,5.729,5.729,0,0,0,2.88.993,17.389,17.389,0,0,1,2.009.264,5.739,5.739,0,0,0,3.042-.1,4.094,4.094,0,0,1,2.181-.087,6.373,6.373,0,0,0,1.491.1,7.872,7.872,0,0,1,1.232.026,5.764,5.764,0,0,0,1.229.017c.321-.029.646-.018.97-.036a2.885,2.885,0,0,1,1.212.181c.768.3,1.53.607,2.294.91.3.119.593.255.9.348a3.265,3.265,0,0,1,2.168,1.916c.034.081.061.166.1.243a.546.546,0,0,0,.721.337C1010.1,349.9,1010.315,349.805,1010.557,349.72Zm17.407-3.158a13.463,13.463,0,0,0,.4-3.872.58.58,0,0,0-.014-.087c-.039-.249-.182-.378-.421-.328-.43.091-.855.2-1.281.315a9.638,9.638,0,0,1-1.1.3,16.946,16.946,0,0,0-2.986.73,6.162,6.162,0,0,1-1.279.317,9.668,9.668,0,0,0-3.713,1.3,4.331,4.331,0,0,0-1.656,1.544,8.541,8.541,0,0,0-.6,1.832.251.251,0,0,0,.244.3c.233-.016.465-.047.7-.079.522-.074,1.041-.172,1.566-.224.672-.067,1.351-.067,2.02-.153a20.317,20.317,0,0,0,3.038-.5,10.851,10.851,0,0,1,1.211-.217c.144-.023.294-.017.435-.05.686-.158,1.371-.317,2.053-.491a.859.859,0,0,0,.464-.226A1.126,1.126,0,0,1,1027.964,346.562Zm-28.007-8.6a7.831,7.831,0,0,1-.238.828.519.519,0,0,1-.659.293.6.6,0,0,1-.164-.066.521.521,0,0,0-.583.037c-.219.141-.425.3-.65.46.062.206.128.368.16.537a.464.464,0,0,1-.541.522.958.958,0,0,1-.325-.129.783.783,0,0,0-.911.023,3.111,3.111,0,0,0-.857.625,2.182,2.182,0,0,0,.781.99l1.788-1.131c.224-.142.436-.3.668-.428.857-.456,1.725-.893,2.583-1.348a9.6,9.6,0,0,0,1.145-.661c.884-.64,1.8-1.232,2.727-1.8a6.928,6.928,0,0,1,2.241-1.006,1.276,1.276,0,0,0,.461-.237.241.241,0,0,0,.06-.229,1.3,1.3,0,0,0-.816-.625.218.218,0,0,0-.279.144c-.026.082-.01.178-.036.261a.449.449,0,0,1-.605.339c-.166-.057-.317-.152-.478-.223a1.408,1.408,0,0,0-1.315.477.644.644,0,0,0-.044.254c0,.088.028.177.019.263a.48.48,0,0,1-.471.439,1.015,1.015,0,0,1-.588-.149.5.5,0,0,0-.328-.063.7.7,0,0,0-.57.672c-.016.147-.021.294-.044.439a.4.4,0,0,1-.354.342.653.653,0,0,1-.51-.072c-.118-.08-.238-.155-.379-.247Z" transform="translate(-962.001 -309.237)"/>
</svg>
