<svg id="Stiefel_Icon" data-name="Stiefel Icon" xmlns="http://www.w3.org/2000/svg" width="80" height="70" viewBox="0 0 80 70">
  <defs>
    <style>
      .cls-1 {
        fill: none;
      }

      .cls-2 {
        fill: #000000;
      }
    </style>
  </defs>
  <rect id="Rectangle_732" data-name="Rectangle 732" class="cls-1" width="70" height="70"/>
  <path id="Path_1413" data-name="Path 1413" class="cls-2" d="M1007.449,729.613c.238.178.425.324.62.459a4.719,4.719,0,0,0,.6.389c.93.461,1.866.909,2.8,1.359a1.213,1.213,0,0,0,.334.12,2.022,2.022,0,0,1,1.351.937c.207.288.4.588.635.95a1.194,1.194,0,0,0,.348.069,14.889,14.889,0,0,1,2.484.224c.412.052.827.088,1.241.121.532.044,1.066.08,1.6.117a7.9,7.9,0,0,0,1.956-.023,1.027,1.027,0,0,0,.64-.285,4.745,4.745,0,0,1,2.067-1.177c.636-.241,1.3-.4,1.963-.575a.666.666,0,0,0,.492-.336.576.576,0,0,1,.109-.141.548.548,0,0,1,.986.175,2.608,2.608,0,0,1,.185.683,7.216,7.216,0,0,1,.053,1.776,23.676,23.676,0,0,0-.017,3.827,21.035,21.035,0,0,0,.315,2.112c.018.117.046.234.056.352a14.244,14.244,0,0,0,1.014,3.591c.228.612.435,1.231.638,1.852a1.731,1.731,0,0,1,.082.525q.008,1.962,0,3.923c0,.235-.07.47-.091.706a7.873,7.873,0,0,0-.087,1.331,9.664,9.664,0,0,1-.328,2.988,8.068,8.068,0,0,0-.2,1.225c-.063.829-.195,1.652-.3,2.478a.8.8,0,0,1-.648.757,9.3,9.3,0,0,1-1.489.237c-2.731.112-5.463.2-8.195.292-.889.031-1.78.062-2.669.109a8.721,8.721,0,0,0-.879.13,2.825,2.825,0,0,1-.347.061.694.694,0,0,1-.711-.65c-.013-.237.016-.476.011-.712-.009-.505-.022-1.01-.047-1.513-.006-.13-.118-.2-.242-.219a.253.253,0,0,0-.088,0c-.821.129-1.639.262-2.46.386a10.015,10.015,0,0,1-1.411.178,5.1,5.1,0,0,0-1.984.445,9.76,9.76,0,0,1-2.4.658,4.728,4.728,0,0,0-1.2.339,7.359,7.359,0,0,1-2.236.561,11.626,11.626,0,0,0-1.484.288,13.515,13.515,0,0,1-3.541.256c-1.127-.039-2.256-.011-3.385-.011-.386,0-.773,0-1.159.006-.623,0-1.244.008-1.867.04a12.081,12.081,0,0,1-4.64-.672,9.09,9.09,0,0,0-1.994-.434,8.082,8.082,0,0,1-2.635-.769,12.221,12.221,0,0,1-1.983-1.007,11.659,11.659,0,0,0-2.879-1.381c-.333-.127-.662-.264-.989-.406a.516.516,0,0,1-.326-.489.688.688,0,0,1,.341-.676.379.379,0,0,1,.254-.022.412.412,0,0,1,.227.13,2.684,2.684,0,0,0,1.282.764c.36.137.723.269,1.077.42a7.221,7.221,0,0,1,1.176.629,8.581,8.581,0,0,0,1.4.77,14.126,14.126,0,0,0,1.716.73,9.849,9.849,0,0,0,1.738.344,9.477,9.477,0,0,1,1.556.359c.688.182,1.351.443,2.053.588a7.685,7.685,0,0,0,2.036.151c1.219-.078,2.435-.018,3.652-.064.682-.026,1.365-.069,2.047-.091.3-.01.592.012.888.026.5.025,1.008.061,1.512.081a6.373,6.373,0,0,0,1.679-.162c.724-.161,1.458-.274,2.186-.415a5.75,5.75,0,0,0,.954-.22,35.435,35.435,0,0,1,3.864-1.044c.573-.147,1.133-.35,1.7-.51a4.235,4.235,0,0,1,.786-.146,27.072,27.072,0,0,0,4.389-.713,3.482,3.482,0,0,1,1.315-.192.511.511,0,0,1,.405.591c-.023.086-.081.16-.107.244a4.22,4.22,0,0,0-.135,1.763c.048.393.17.5.563.573a3.481,3.481,0,0,0,.619.068,15.85,15.85,0,0,0,1.781-.042c.976-.113,1.956-.122,2.935-.16,1.246-.048,2.491-.127,3.737-.176.653-.026,1.307-.015,1.96-.02a1.544,1.544,0,0,0,.355-.013c.777-.2,1.025-.095,1.042-1.116a15.136,15.136,0,0,1,.458-3.261,4.866,4.866,0,0,0,.093-.792.346.346,0,0,0-.279-.3.723.723,0,0,0-.177-.02,24.534,24.534,0,0,1-3.827-.081,13.1,13.1,0,0,0-2.575.139,1.233,1.233,0,0,0-.912.479.546.546,0,0,1-.712.2,1.211,1.211,0,0,0-.868-.053c-1.637.441-3.316.667-4.979.977-1.314.245-2.608.576-3.9.933a21.962,21.962,0,0,1-4.264.9,5.834,5.834,0,0,0-1.042.231,6.141,6.141,0,0,0-.762.25,16.666,16.666,0,0,1-3.529.909c-1.492.253-2.995.432-4.5.579a20.445,20.445,0,0,1-2.307.158,24.015,24.015,0,0,1-6.1-.648,3.271,3.271,0,0,0-.615-.1,13.042,13.042,0,0,1-3.9-.859c-.5-.2-1.009-.352-1.51-.537a5.589,5.589,0,0,1-.735-.316,8.036,8.036,0,0,0-1.059-.458,11.675,11.675,0,0,1-2.1-.968c-.782-.484-1.575-.952-2.362-1.427-.051-.031-.1-.064-.149-.1-.589-.408-.643-.588-.2-1.132a1.69,1.69,0,0,0,.3-.82,2.255,2.255,0,0,1,.6-1.264,2.625,2.625,0,0,1,.542-.454,11.638,11.638,0,0,1,2.366-1.014,7.909,7.909,0,0,1,2.2-.248c1.01.012,2.019.047,3.028.064.327.005.654-.017.98-.026a7.166,7.166,0,0,0,2.19-.35c1.042-.363,2.136-.514,3.2-.785.431-.11.868-.207,1.29-.347a5.11,5.11,0,0,0,1.059-.45,15.644,15.644,0,0,0,1.773-1.191,11.021,11.021,0,0,1,1.482-.981,4.165,4.165,0,0,0,1.447-1.154,4.957,4.957,0,0,1,.674-.711,6.47,6.47,0,0,0,.966-1.158c.784-1.188,1.618-2.344,2.429-3.515.406-.586.8-1.183,1.212-1.762a11.142,11.142,0,0,1,1.094-1.4,4.309,4.309,0,0,0,.949-1.59c.223-.583.42-1.176.657-1.752.214-.522.465-1.028.707-1.537A2.287,2.287,0,0,1,1007.449,729.613Zm-24.231,20.674v-.03c-.595,0-1.194.048-1.782-.01a6.82,6.82,0,0,0-3.766.844,7.2,7.2,0,0,0-.693.4.989.989,0,0,0-.463.821c-.015.327-.015.654-.016.982a.508.508,0,0,0,.258.438,16.8,16.8,0,0,0,2.841,1.656c1.094.463,2.174.96,3.281,1.388a13.525,13.525,0,0,0,3.61.939,13.926,13.926,0,0,1,2.716.477,7.139,7.139,0,0,0,2.2.271c.656-.012,1.3.042,1.957.066a13.08,13.08,0,0,0,1.778-.031c1.448-.144,2.9-.294,4.335-.509,1.233-.184,2.452-.459,3.677-.7a2.707,2.707,0,0,0,.508-.166,14.2,14.2,0,0,1,2.932-.722c.991-.181,1.964-.462,2.944-.7a.7.7,0,0,0,.519-.441c.13-.331.313-.646.416-.985.342-1.137.659-2.282.983-3.425a3.353,3.353,0,0,0,.088-.437.341.341,0,0,0-.273-.4,3.19,3.19,0,0,0-.53-.047c-.386,0-.772.038-1.158.039a5.84,5.84,0,0,1-2.936-.577,1.678,1.678,0,0,1-.934-1.673,10.745,10.745,0,0,1,1.944-5.288,21.766,21.766,0,0,0,1.6-2.571c.165-.315.344-.624.538-.923a29.327,29.327,0,0,1,2.041-2.92,3.249,3.249,0,0,0,.242-.374.741.741,0,0,0,0-.98.518.518,0,0,1,.043-.726c.037-.046.088-.081.124-.128a.463.463,0,0,0-.093-.751,1.956,1.956,0,0,0-.548-.289,8.778,8.778,0,0,1-1.527-.715c-.734-.388-1.489-.735-2.246-1.077a.528.528,0,0,0-.416.053,1.059,1.059,0,0,0-.365.379,11.239,11.239,0,0,0-.586,1.2c-.333.826-.6,1.676-1.01,2.473a5.266,5.266,0,0,1-.79,1.177,6.566,6.566,0,0,0-.526.6c-.4.555-.78,1.12-1.161,1.687-.531.787-1.052,1.582-1.585,2.369-.316.467-.681.9-.959,1.393a9.8,9.8,0,0,1-1.629,1.995,2.066,2.066,0,0,0-.31.318A3.906,3.906,0,0,1,997,745.9a19.109,19.109,0,0,0-2.137,1.448,7.835,7.835,0,0,1-2.82,1.479c-.46.119-.92.243-1.381.353-.72.171-1.448.309-2.162.5a14.053,14.053,0,0,1-3.768.6C984.228,750.284,983.724,750.287,983.218,750.287Zm30.3-15.308c-.085.161-.167.317-.251.472a6.228,6.228,0,0,1-.691,1.235c-.5.558-.868,1.2-1.309,1.793a14.6,14.6,0,0,0-1.448,2.344,11.262,11.262,0,0,1-.8,1.28c-.344.519-.709,1.025-1.048,1.548a9.082,9.082,0,0,0-1.361,4.373.713.713,0,0,0,.419.721,2.329,2.329,0,0,0,.937.255,19.783,19.783,0,0,0,2.669.033,2.076,2.076,0,0,0,1.339-.379.363.363,0,0,1,.493.015,1.091,1.091,0,0,0,.908.265c.679-.059,1.359-.121,2.035-.21a.873.873,0,0,0,.459-.244,4.74,4.74,0,0,0,1.343-1.745,3.555,3.555,0,0,1,.341-.624,12.038,12.038,0,0,0,1.287-3.021c.306-1.147.656-2.279,1-3.414.1-.339.247-.667.374-1a2.154,2.154,0,0,0,.158-.414,9.415,9.415,0,0,1,.451-1.534,2.045,2.045,0,0,0,.083-1.246c-.328-.014-.621-.022-.913-.04q-1.464-.087-2.929-.181a1.315,1.315,0,0,1-.262-.045,11.1,11.1,0,0,0-2.827-.284A3.7,3.7,0,0,0,1013.522,734.979Zm9.852-.644a5.092,5.092,0,0,1,.279.582.533.533,0,0,1-.564.7c-.176-.023-.346-.086-.521-.111a.526.526,0,0,0-.579.318,1.457,1.457,0,0,0-.13.331,39.936,39.936,0,0,1-1.194,3.912c-.247.761-.457,1.531-.674,2.3s-.559,1.5-.716,2.291a2.993,2.993,0,0,1-.238.573,26.358,26.358,0,0,0-1.224,2.365.552.552,0,0,1-.1.151,9.139,9.139,0,0,1-1.46,1.554.945.945,0,0,1-.391.193,9.01,9.01,0,0,1-1.75.3,6.113,6.113,0,0,0-.7.091.83.83,0,0,0-.728.674c-.4,1.4-.833,2.784-1.249,4.176-.085.286.081.44.4.376.523-.106,1.044-.224,1.568-.326,1.484-.29,2.973-.562,4.453-.868.608-.126,1.2-.329,1.8-.487a1,1,0,0,0,.668-.535,18.539,18.539,0,0,0,1.179-2.879c.312-.959.618-1.922.961-2.87a13.194,13.194,0,0,1,1.285-2.636,3.539,3.539,0,0,1,.814-.933c.518-.4,1.022-.815,1.556-1.19a2.245,2.245,0,0,0,1.016-2.219,9.642,9.642,0,0,0-.106-.973,13.187,13.187,0,0,1-.182-2.838,20.8,20.8,0,0,1,.108-2.578c.048-.359-.185-.56-.541-.519a8.647,8.647,0,0,0-2.879.883C1023.492,734.163,1023.464,734.226,1023.374,734.335Zm4.1,8.434a2.2,2.2,0,0,0-.29.151c-.625.453-1.249.9-1.863,1.371a1.732,1.732,0,0,0-.425.45c-.374.6-.765,1.2-1.078,1.841a17.887,17.887,0,0,0-1.15,3.172c-.2.741-.508,1.454-.767,2.18-.07.195-.147.388-.2.587a.361.361,0,0,0,.081.441,4.433,4.433,0,0,0,.932-.029,4.589,4.589,0,0,1,.976-.036,32.976,32.976,0,0,0,3.379.082,2.282,2.282,0,0,0,1.212-.227,3.983,3.983,0,0,0,.644-1.819,22.814,22.814,0,0,0,.067-4,5.308,5.308,0,0,0-.347-1.65c-.315-.8-.667-1.586-1.008-2.376C1027.608,742.858,1027.544,742.829,1027.472,742.769Z" transform="translate(-962.001 -710.552)"/>
</svg>
