<svg id="Halbschuh_Icon" data-name="Halbschuh Icon" xmlns="http://www.w3.org/2000/svg" width="80" height="70" viewBox="0 0 80 70">
  <defs>
    <style>
      .cls-1 {
        fill: none;
      }

      .cls-2 {
        fill: #000000;
      }
    </style>
  </defs>
  <rect id="Rectangle_731" data-name="Rectangle 731" class="cls-1" width="70" height="70"/>
  <path id="Path_1415" data-name="Path 1415" class="cls-2" d="M999.907,471.94a6.789,6.789,0,0,0,1.1-.81,4.532,4.532,0,0,1,.879-.6,3.915,3.915,0,0,0,.6-.387,3.6,3.6,0,0,1,1.211-.547.558.558,0,0,1,.426.085.454.454,0,0,1,.14.106,11.723,11.723,0,0,1,1.113,1.5,1.354,1.354,0,0,1,.173.5,4.592,4.592,0,0,1-.483,2.766c-.156.287-.306.577-.456.867-.028.053.082.193.147.192a1.213,1.213,0,0,0,.265-.01q.432-.106.859-.234a8.437,8.437,0,0,1,.937-.286,13.888,13.888,0,0,0,2.145-.591c1.239-.426,2.524-.678,3.779-1.045a6.631,6.631,0,0,1,.879-.151,18.851,18.851,0,0,0,1.923-.367c1.181-.306,2.4-.452,3.585-.715a35.821,35.821,0,0,0,3.56-.809c.253-.083.52-.123.777-.194a17.916,17.916,0,0,0,2.124-.67,1.764,1.764,0,0,1,.78-.154.721.721,0,0,1,.486.2c.191.187.38.376.556.576a1.114,1.114,0,0,1,.173.308c.1.247.2.5.289.748a1.5,1.5,0,0,0,.425.669.378.378,0,0,0,.241.091c.206-.014.409-.082.614-.083a.858.858,0,0,1,.8.483.4.4,0,0,1-.144.542c-.241.115-.488.217-.727.336a.309.309,0,0,0-.161.3.978.978,0,0,0,.04.263c.059.2.13.4.194.594a5.829,5.829,0,0,1,.328,1.744c0,.473.094.946.13,1.419a11.275,11.275,0,0,1,.059,1.336,14.2,14.2,0,0,1-.147,2.4c-.086.4-.049.828-.164,1.235a.894.894,0,0,0,.028.439,1.885,1.885,0,0,0,.192.5,2.318,2.318,0,0,1,.263,1.468,4.893,4.893,0,0,0-.01,1.153,5.864,5.864,0,0,1-.01.888c0,.084-.1.2-.165.183a.354.354,0,0,1-.128-.1c-.02-.019-.025-.054-.043-.076-.06-.068-.2-.055-.228.019a2.36,2.36,0,0,0-.1.336.384.384,0,0,1-.352.346c-.337.032-.6.27-.92.316s-.651-.028-.976-.014c-.445.02-.888.1-1.332.108-.743.012-1.486-.018-2.229-.019-1.278,0-2.557,0-3.835,0-.059,0-.119.009-.178,0-1.218-.108-2.437.012-3.655-.033-.267-.01-.535.014-.8.022s-.535.016-.8.02a1.739,1.739,0,0,1-1.753-1.251,1.939,1.939,0,0,0-.139-.421.578.578,0,0,0-.265-.217.88.88,0,0,0-.349-.052c-.565.009-1.131.009-1.694.046a7.361,7.361,0,0,0-1.325.169,6.152,6.152,0,0,1-.792.117c-.976.11-1.957.176-2.924.336-.761.126-1.53.191-2.29.332a28.683,28.683,0,0,1-3.188.369,30.124,30.124,0,0,0-3.451.415,6.616,6.616,0,0,1-1.239.135c-.772,0-1.545,0-2.318-.025a7.071,7.071,0,0,1-.793-.1,2.762,2.762,0,0,0-.35-.063,22.651,22.651,0,0,1-2.556-.379,1.028,1.028,0,0,1-.175-.033c-1.284-.379-2.616-.542-3.917-.848-.173-.04-.345-.087-.517-.136l-2.231-.631c-.144-.041-.29-.071-.429-.123-1-.375-2.019-.715-3-1.145a12.766,12.766,0,0,1-2.584-1.39,2.1,2.1,0,0,1-.781-1.161.3.3,0,0,1,.493-.317c.021.019.052.032.068.056a3.406,3.406,0,0,0,1.552,1.152c.349.164.695.336,1.042.5a3.2,3.2,0,0,0,.485.223c.631.18,1.232.439,1.84.677.861.337,1.767.517,2.647.789a22.239,22.239,0,0,0,2.772.665c.673.116,1.34.278,2,.456a20.763,20.763,0,0,0,2.365.438c.206.03.418.032.618.081a8.037,8.037,0,0,0,1.683.168c.654.022,1.309.03,1.962.016a6.171,6.171,0,0,0,1.061-.119,14.106,14.106,0,0,1,2.65-.329c.294,0,.588-.093.882-.105,1.1-.047,2.185-.248,3.276-.385.383-.048.764-.116,1.146-.173.706-.1,1.41-.217,2.117-.31.972-.128,1.944-.267,2.921-.353a19.014,19.014,0,0,1,3.384-.071,1.187,1.187,0,0,1,1.052.824,6.672,6.672,0,0,1,.208.681.547.547,0,0,0,.529.4,3.2,3.2,0,0,0,.622,0,20.776,20.776,0,0,1,3.029-.055c.594.01,1.187.067,1.781.082a8.724,8.724,0,0,0,1.157-.034,9.424,9.424,0,0,1,1.6-.019c1.008.06,2.019.115,3.028.1.92-.014,1.838-.127,2.757-.193a4.091,4.091,0,0,0,1.25-.428,2.922,2.922,0,0,0,.247-1.4,3.068,3.068,0,0,0-.242-1.211,1.519,1.519,0,0,0-.128-.235.679.679,0,0,0-.668-.356c-.533.044-1.065.1-1.6.131-.386.026-.772.024-1.158.045a9.2,9.2,0,0,0-1.064.087,7.243,7.243,0,0,1-1.333.085c-1.337-.017-2.674-.01-4.01.078-1.068.071-2.138.064-3.208.073a23.537,23.537,0,0,0-3.289.191,4.851,4.851,0,0,1-1.246.049,3.182,3.182,0,0,0-.888.044q-1.1.186-2.2.364a3.378,3.378,0,0,1-.616.085,11.98,11.98,0,0,0-1.952.182,22.56,22.56,0,0,0-2.811.477c-.544.15-1.1.258-1.642.411a28.631,28.631,0,0,1-3.231.644.853.853,0,0,1-.177.017c-.831-.038-1.665.031-2.495-.085-.588-.083-1.181-.133-1.773-.174-.385-.026-.772,0-1.159-.008a12.982,12.982,0,0,1-2.044-.133,8.017,8.017,0,0,0-1.246-.078,6.48,6.48,0,0,1-1.582-.241,9.6,9.6,0,0,0-1.479-.319,4.2,4.2,0,0,1-.69-.175c-.543-.152-1.092-.288-1.626-.466-.507-.168-.994-.393-1.5-.574-.587-.213-1.185-.393-1.77-.609-.7-.257-1.393-.518-2.073-.815a9.529,9.529,0,0,1-1.169-.646,2.521,2.521,0,0,1-.55-.45,1.252,1.252,0,0,1-.286-1.475,6.947,6.947,0,0,1,.388-.7c.127-.2.3-.374.418-.577a2.465,2.465,0,0,1,1.143-.959,1.305,1.305,0,0,1,.162-.075,1.446,1.446,0,0,0,.847-.61.3.3,0,0,1,.4-.057,2.545,2.545,0,0,0,1.963.348,2.647,2.647,0,0,1,.529-.069,9.126,9.126,0,0,0,1.94-.248c.73-.133,1.467-.236,2.2-.339a7.092,7.092,0,0,0,1.388-.319c.42-.148.851-.265,1.274-.407a12.566,12.566,0,0,1,1.993-.473,7.986,7.986,0,0,0,.783-.167c.546-.146,1.087-.3,1.63-.459a3.324,3.324,0,0,0,.421-.146,4.231,4.231,0,0,0,.636-.312c.224-.15.163-.432.228-.654a.6.6,0,0,1,.451-.5.838.838,0,0,0,.461-.252,1.57,1.57,0,0,1,.13-.123,8.671,8.671,0,0,1,.934-.822c.323-.215.631-.444.932-.685.022-.018.049-.033.073-.05a2.146,2.146,0,0,1,2.1-.38C999.787,471.962,999.821,471.949,999.907,471.94Zm-.6,7.949a3.063,3.063,0,0,0-1.219.15,1.313,1.313,0,0,1-.79-.012,2.5,2.5,0,0,1-.338-.113.858.858,0,0,0-.69,0c-.5.178-1.025.3-1.542.435a21.029,21.029,0,0,1-3.254.509c-.708.074-1.411.207-2.127.214a2.431,2.431,0,0,0-.263.043c-.295.036-.589.075-.884.1-.326.028-.655.028-.979.068a4.856,4.856,0,0,1-.979.005,5.893,5.893,0,0,0-1.423-.014,1.447,1.447,0,0,1-.356,0,13.142,13.142,0,0,0-1.783-.032,6.43,6.43,0,0,1-.713-.015,4.223,4.223,0,0,1-1.458-.386,1.469,1.469,0,0,1-.764-.719c-.062-.135-.13-.268-.2-.4a.368.368,0,0,0-.458-.163,1.519,1.519,0,0,0-.827.5c-.231.272-.454.551-.665.839a5,5,0,0,0-.316.538.488.488,0,0,0,.067.5.769.769,0,0,0,.12.131,6.746,6.746,0,0,0,1.606.951c.446.161.885.341,1.348.462a15.02,15.02,0,0,1,1.78.574c.885.356,1.789.649,2.7.917a20.675,20.675,0,0,0,3.749.779c.976.1,1.955.171,2.933.253.207.017.416.035.624.032,1.072-.014,2.137.107,3.205.165a18.232,18.232,0,0,0,2.228,0,12.357,12.357,0,0,0,2.542-.454c.485-.137.982-.235,1.47-.364a17.571,17.571,0,0,1,2.886-.545,1.188,1.188,0,0,0,.264-.04,4.568,4.568,0,0,1,1.232-.177,18.813,18.813,0,0,0,2.744-.326,11.1,11.1,0,0,1,2.219-.169,3.818,3.818,0,0,0,.8-.023,17.984,17.984,0,0,1,2.307-.222c.413-.035.831-.034,1.247-.041.743-.012,1.485-.018,2.228-.026.8-.008,1.606-.036,2.408-.016.626.015,1.25.01,1.873-.032,1.364-.092,2.729-.2,4.1-.164a3.744,3.744,0,0,0,.535-.015c.235-.028.469-.075.7-.121a.489.489,0,0,0,.447-.474,1.519,1.519,0,0,1,.122-.422.291.291,0,0,1,.28-.184,2.663,2.663,0,0,1,.262.046.26.26,0,0,0,.28-.166,1.9,1.9,0,0,0,.088-.343,14.187,14.187,0,0,0,.152-2.578c-.067-.8-.091-1.6-.178-2.4a7.946,7.946,0,0,0-.445-1.818c-.161-.446-.317-.539-.81-.5a4.964,4.964,0,0,0-.955.212c-.371.1-.746.195-1.119.291-.2.052-.405.094-.6.158q-1.652.542-3.3,1.094a3.171,3.171,0,0,1-.418.151c-1.025.185-1.988.618-3.026.754a1.865,1.865,0,0,0-.512.151,9.745,9.745,0,0,1-1.53.48c-.4.108-.8.221-1.191.367a14.2,14.2,0,0,1-2.234.609,15.078,15.078,0,0,0-1.894.5c-.7.238-1.4.5-2.119.688-1.039.265-2.054.6-3.073.925a17.492,17.492,0,0,1-1.7.525,16.432,16.432,0,0,1-1.774.192c-.237.022-.474.035-.712.044a1.751,1.751,0,0,1-.355-.016,1.01,1.01,0,0,1-.744-.439c-.188-.3-.37-.61-.549-.917C999.492,480.235,999.41,480.078,999.307,479.889Zm2.529.856v-.012h.356a4.332,4.332,0,0,0,1.739-.331c.3-.129.617-.216.928-.315,1.358-.433,2.713-.875,4.076-1.292.879-.269,1.751-.567,2.65-.768.493-.109.993-.2,1.471-.357.931-.3,1.876-.563,2.806-.869.877-.288,1.772-.494,2.663-.723a22.915,22.915,0,0,0,2.734-.795,18.7,18.7,0,0,1,2.1-.726c1.092-.287,2.155-.674,3.258-.921a3.359,3.359,0,0,0,.577-.227.343.343,0,0,0,.153-.3,6.966,6.966,0,0,0-.562-1.592.306.306,0,0,0-.221-.127.8.8,0,0,0-.349.039c-1.2.445-2.446.737-3.674,1.089a10.2,10.2,0,0,1-1.565.337c-.529.066-1.052.188-1.574.3-.464.1-.92.236-1.386.327-1.166.23-2.332.462-3.5.657a12.806,12.806,0,0,0-1.73.4c-.339.106-.694.157-1.04.242a13.745,13.745,0,0,0-1.455.408,16.477,16.477,0,0,1-2.053.591,15.027,15.027,0,0,0-1.454.411,7,7,0,0,1-1.2.338,17.4,17.4,0,0,0-2.584.674,1.7,1.7,0,0,0-.405.179.313.313,0,0,0-.167.294,1.1,1.1,0,0,0,.045.262.753.753,0,0,1-.326.854,1.87,1.87,0,0,1-.469.252c-.163.07-.337.114-.505.174s-.336.118-.5.186a.361.361,0,0,0-.213.439,3.953,3.953,0,0,0,.169.6.442.442,0,0,0,.405.3C1001.3,480.751,1001.569,480.745,1001.836,480.745Zm-16.33-.515a25.1,25.1,0,0,0,3.111-.148q1.418-.127,2.834-.263a12.356,12.356,0,0,0,1.325-.151c.812-.169,1.615-.381,2.42-.58a1.237,1.237,0,0,0,.242-.11.351.351,0,0,0,.163-.456,8.075,8.075,0,0,1-.7-1.727c-.009-.028-.025-.054-.037-.081a.317.317,0,0,0-.351-.206c-.2.049-.4.1-.6.159-.885.247-1.758.538-2.666.7a11.667,11.667,0,0,0-2.144.585,16.429,16.429,0,0,1-3.025.718c-.612.109-1.228.208-1.843.3a14.752,14.752,0,0,1-2.56.272,6.564,6.564,0,0,0-.8.054.3.3,0,0,0-.269.2.355.355,0,0,0,.15.385,1.515,1.515,0,0,0,.235.123,2.711,2.711,0,0,0,.958.178c.533-.009,1.067-.022,1.6-.014C984.2,480.182,984.854,480.21,985.505,480.231Zm10.177-4.33c.009.075.012.134.024.193a10.059,10.059,0,0,0,.716,2.1.457.457,0,0,0,.339.262.851.851,0,0,1,.643.552c.087.209.2.239.432.2.175-.029.352-.06.525-.1a.887.887,0,0,0,.758-.541c.009-.026.037-.046.057-.068a.35.35,0,0,1,.32-.115,1.206,1.206,0,0,1,.338.106.582.582,0,0,0,.513.016c.272-.12.544-.235.811-.362a.385.385,0,0,0,.167-.383,2.715,2.715,0,0,0-.4-.885,13.323,13.323,0,0,1-1.16-2.1c-.189-.437-.348-.882-.5-1.33-.058-.167-.125-.331-.2-.491a.283.283,0,0,0-.383-.1q-.393.289-.779.591c-.222.174-.266.3-.161.537a10.659,10.659,0,0,0,1.106,2.126,3.6,3.6,0,0,1,.233.378.348.348,0,0,1-.014.412.414.414,0,0,1-.411.108.977.977,0,0,1-.393-.185,2.072,2.072,0,0,1-.385-.484c-.314-.538-.609-1.086-.914-1.63-.043-.077-.1-.147-.146-.22a.209.209,0,0,0-.246-.022,5.4,5.4,0,0,0-.528.471A1.529,1.529,0,0,0,995.683,475.9Zm8.824-3.829a1.325,1.325,0,0,0-.541-1.22.35.35,0,0,0-.335-.06,4.733,4.733,0,0,0-.8.392c-.73.506-1.444,1.036-2.162,1.561a1.211,1.211,0,0,0-.257.242.379.379,0,0,0-.076.243,2.277,2.277,0,0,0,.113.521,14.3,14.3,0,0,0,.954,2.1,2.89,2.89,0,0,0,.259.36.433.433,0,0,0,.683-.068,1.809,1.809,0,0,1,.526-.695,5.484,5.484,0,0,0,1.4-2.136A4.8,4.8,0,0,0,1004.507,472.071Z" transform="translate(-962.001 -444.538)"/>
</svg>
