<svg id="Boot_Icon" data-name="Boot Icon" xmlns="http://www.w3.org/2000/svg" width="70" height="60" viewBox="0 0 70 60">
  <rect id="Rectangle_735" data-name="Rectangle 735" width="70" height="60" fill="none"/>
  <path id="Path_1412" fill="#000000" data-name="Path 1412" d="M1017.362,78.592a2.357,2.357,0,0,1,.694-1.566,13.472,13.472,0,0,1,1.328-1.552,1.407,1.407,0,0,0,.313-.4,3.631,3.631,0,0,1,.912-1.11,3.665,3.665,0,0,0,.771-1.007,7.449,7.449,0,0,1,.878-1.455,1.443,1.443,0,0,0,.3-.781,9.128,9.128,0,0,0,.033-2.215q-.156-1.53-.358-3.055a11.105,11.105,0,0,0-.6-2.4,3.889,3.889,0,0,1-.236-1.675c.076-.993.156-1.986.228-2.98.02-.284.028-.569.023-.853a.4.4,0,0,0-.411-.448,6.855,6.855,0,0,0-.85-.053,22.06,22.06,0,0,1-2.894-.155,12.9,12.9,0,0,1-1.346-.222,7.489,7.489,0,0,0-1.61-.136c-.853-.019-1.706-.047-2.557-.11a6.668,6.668,0,0,0-1.357-.007,1.689,1.689,0,0,1-1.349-.408c-1.194-1.011-1.232-1-1.13-2.533.052-.795.161-1.586.241-2.379a.507.507,0,0,0-.037-.159c-.05-.014-.119-.057-.147-.038a.783.783,0,0,1-.953.032,1.069,1.069,0,0,0-.311-.135.573.573,0,0,0-.748.57c.025.453.005.909.005,1.422.113.066.252.154.4.23a6.276,6.276,0,0,1,.6.309.431.431,0,0,1-.1.758.253.253,0,0,1-.079.031c-.441.062-.652.408-.921.7a2.621,2.621,0,0,0-.5,1.507c-.011.069.113.2.2.233.212.077.446.095.659.171a1.481,1.481,0,0,1,.427.26.37.37,0,0,1,.13.383.423.423,0,0,1-.358.319c-.169.007-.34-.009-.51-.014-.934-.028-.934-.028-1.314.861-.146.34-.3.677-.426,1.025a2.729,2.729,0,0,0-.08.529c.173.149.343.294.51.443a1.479,1.479,0,0,1,.454.709.485.485,0,0,1-.221.51.4.4,0,0,1-.474-.05c-.147-.134-.278-.283-.427-.415a.3.3,0,0,0-.39,0,.953.953,0,0,0-.22.256c-.209.5-.693.836-.811,1.41.2.234.512.243.74.4a.719.719,0,0,1,.333.474.324.324,0,0,1-.26.376,2.284,2.284,0,0,1-.424-.005,3.02,3.02,0,0,1-.756-.119,1.178,1.178,0,0,0-1.36.4,2.329,2.329,0,0,0-.746.951l.393.625c.06.1.126.19.177.291a.458.458,0,0,1-.135.537.387.387,0,0,1-.472-.053c-.167-.153-.317-.327-.479-.485-.08-.077-.172-.143-.285-.234a4.531,4.531,0,0,0-.519.28.948.948,0,0,0-.385,1.125,3.982,3.982,0,0,1,.183.74.455.455,0,0,1-.189.351.622.622,0,0,1-.4.006c-.073-.014-.132-.1-.2-.158-.082-.074-.163-.152-.227-.212-.191.005-.2.134-.216.239a.814.814,0,0,0,.083.577,17.192,17.192,0,0,1,.873,1.559,1,1,0,0,0,.567.495,2.116,2.116,0,0,0,1.735.053c1.621-.7,3.355-1.083,5-1.73a13.783,13.783,0,0,1,1.4-.383c.52-.144,1.045-.277,1.556-.448a4.532,4.532,0,0,1,1.419-.267,6.8,6.8,0,0,0,2.322-.493c1.174-.43,2.376-.782,3.568-1.163.3-.095.6-.165.9-.258.787-.245,1.573-.5,2.359-.746a4.335,4.335,0,0,0,1.408-.591.538.538,0,0,1,.64.028.433.433,0,0,1,.226.432.992.992,0,0,1-.6.862c-.532.2-1.079.357-1.623.522-.76.232-1.522.462-2.286.68-.465.132-.944.213-1.4.364q-1.256.415-2.491.889a7.682,7.682,0,0,1-2.567.574,4.787,4.787,0,0,0-1.335.26,11.309,11.309,0,0,1-1.4.354,9.242,9.242,0,0,0-1.8.5,16.086,16.086,0,0,1-2.738.949,7.059,7.059,0,0,0-1.843.649,2.963,2.963,0,0,1-2.562.019c-.961-.389-.974-.417-1.395-1.368-.15-.339-.287-.682-.439-1.02a1.3,1.3,0,0,0-.719-.8.844.844,0,0,1-.272-.2.681.681,0,0,1-.141-.857,2.3,2.3,0,0,1,.288-.417,8.938,8.938,0,0,1,.625-.7c.264-.256.456-.5.234-.89-.1-.169.054-.317.163-.451a.553.553,0,0,1,.735-.212c.333.143.424.092.579-.279a.806.806,0,0,1,.769-.571,1.624,1.624,0,0,0,.072-.355.709.709,0,0,1,.483-.727c.339-.145.685-.275,1.012-.441a1.617,1.617,0,0,0,.54-.4c.279-.356.515-.747.763-1.127a.7.7,0,0,0,.033-.217c-.1-.059-.212-.126-.322-.2a.65.65,0,0,1-.261-.515.539.539,0,0,1,.356-.528,1.81,1.81,0,0,1,.507-.053c.441.03.57-.1.7-.564.117-.435.27-.861.393-1.248a1.8,1.8,0,0,0-.114-.2c-.105-.132-.257-.25-.221-.439a.657.657,0,0,1,.342-.467c.173-.093.357-.164.541-.246.111-.361.245-.707.32-1.066a2.372,2.372,0,0,0,.022-.759.984.984,0,0,1,.071-.661,6.772,6.772,0,0,0,.467-2.153.686.686,0,0,0-.171-.555.752.752,0,0,1,.072-1.074,1.213,1.213,0,0,0,.221-.721,2.243,2.243,0,0,1,.528-1.143,6.289,6.289,0,0,0,.409-.645,5.4,5.4,0,0,1,.55-.751.761.761,0,0,1,.863-.2,2.552,2.552,0,0,1,1.221.747,1.706,1.706,0,0,0,.269.228,3.085,3.085,0,0,1,2.467-.314c.589.122,1.179.181,1.773.245.479.052.955.152,1.434.206a27.254,27.254,0,0,0,4.006.183c.794-.028,1.592.026,2.388.038a8.626,8.626,0,0,0,1.277-.006,6.23,6.23,0,0,1,2.434.336.8.8,0,0,1,.542.611,1.6,1.6,0,0,1-.047.922,15.965,15.965,0,0,0-.643,3.083c-.049.6-.161,1.184-.223,1.779a4.34,4.34,0,0,0,.315,2.161,11.578,11.578,0,0,1,.4,1.214,2.052,2.052,0,0,1-.022.93,6.858,6.858,0,0,0-.118,1.1c-.006.655.007,1.311.051,1.964a6.819,6.819,0,0,0,.7,2.535c.261.537.537,1.067.807,1.6a6.173,6.173,0,0,1,.627,3.4c-.093,1-.11,1.989-.133,2.984-.016.739.029,1.48.037,2.22.006.512-.015,1.025,0,1.537a4.914,4.914,0,0,0,.12,1.524,1.105,1.105,0,0,1-.12.738,1.414,1.414,0,0,0,.444.612c.173.189.359.367.52.565a.748.748,0,0,1,.153.561c-.089.991-.182,1.982-.243,2.974-.042.681-.033,1.365-.044,2.047,0,.114.014.228.013.342,0,.565-.078.626-.629.859a5.238,5.238,0,0,1-1.745.363q-.937.059-1.873.114c-.114.007-.227.018-.341.017a1.041,1.041,0,0,1-1.161-.9c-.025-.08-.047-.161-.078-.265a3.927,3.927,0,0,0-1.067-.215,1.263,1.263,0,0,0-.341-.016c-.3.024-.635-.217-.905.024-.234.208-.106.543-.17.815a.557.557,0,0,1-.507.5c-.368.04-.737.059-1.106.084s-.737.05-1.107.069a4.532,4.532,0,0,1-.6.014.95.95,0,0,1-.97-.883.577.577,0,0,0-.454-.54,5,5,0,0,0-.583-.119.418.418,0,0,0-.486.257,4.33,4.33,0,0,0-.182.479.582.582,0,0,1-.581.423c-.881.01-1.763-.008-2.644-.02-.113,0-.225-.035-.338-.046a1.015,1.015,0,0,1-1-.978,4.714,4.714,0,0,0-.461-1.52.917.917,0,0,0-.687-.08c-.791.087-1.58.2-2.374.258a6.475,6.475,0,0,0-1.906.432,5.575,5.575,0,0,1-1.405.333,19.352,19.352,0,0,1-2.124.154,2.878,2.878,0,0,0-.372.046.5.5,0,0,0-.2.49c-.009.313.008.628-.011.939a.631.631,0,0,1-.495.62.976.976,0,0,1-.248.062,9.461,9.461,0,0,0-1.588.286c-.561.081-1.131.11-1.7.139a2.307,2.307,0,0,1-.589-.083.676.676,0,0,1-.6-.628.618.618,0,0,0-.048-.248c-.055-.091-.138-.215-.223-.228a6.364,6.364,0,0,0-1.774-.11c-.025,0-.047.03-.11.071a3.368,3.368,0,0,1,0,.465.6.6,0,0,1-.556.555c-.508.056-1.017.111-1.527.146a3.739,3.739,0,0,1-.678-.032c-.622-.068-1.241-.15-1.862-.222a.669.669,0,0,1-.693-.621,4.863,4.863,0,0,1-.047-.51.612.612,0,0,0-.518-.592c-.3-.077-.6-.175-.907-.244a.478.478,0,0,0-.57.265c-.026.05-.045.105-.074.154a.672.672,0,0,1-.911.387,9.313,9.313,0,0,1-.972-.318c-.585-.221-1.162-.462-1.746-.686-.559-.214-.66-.342-.682-.934,0-.085.01-.17.007-.256a.589.589,0,0,0-.333-.552c-.276-.143-.546-.3-.812-.465a.777.777,0,0,0-.652-.1c-.3.086-.6.168-.9.254a.717.717,0,0,1-.655-.077,5.647,5.647,0,0,0-1.143-.565,3.757,3.757,0,0,1-.453-.238.9.9,0,0,1-.452-.78c0-.483.02-.968.059-1.449.022-.282.109-.558.142-.841a1.224,1.224,0,0,1,.564-.907.661.661,0,0,1,.474-.119c.318.028.432-.07.443-.356a3.4,3.4,0,0,0-.032-.849,2.686,2.686,0,0,1,.088-1.263,6.572,6.572,0,0,0,.219-.907,3.517,3.517,0,0,1,.412-1.2,1.91,1.91,0,0,1,1.412-1.122c.812-.142,1.617-.325,2.434-.435a35.984,35.984,0,0,1,4.5-.418,7.719,7.719,0,0,0,2.674-.483c.932-.351,1.871-.68,2.8-1.031.292-.11.569-.259.855-.387.7-.313,1.4-.63,2.1-.932a.722.722,0,0,1,.9.274.508.508,0,0,1-.179.732.369.369,0,0,1-.074.041c-.971.249-1.814.808-2.755,1.132-.348.119-.667.317-1.013.444-.853.316-1.711.617-2.571.915a6.6,6.6,0,0,1-2.189.3,30.269,30.269,0,0,0-3.051.275c-.85.084-1.684.2-2.521.365a13.513,13.513,0,0,0-1.428.188,1.348,1.348,0,0,0-.931.8,3.8,3.8,0,0,0-.339,1.049,2.761,2.761,0,0,1-.108.495,4.659,4.659,0,0,0,.134,2.847.637.637,0,0,0,.336.354,11.937,11.937,0,0,1,1.7.981c.511.3,1.074.519,1.606.79a5.811,5.811,0,0,1,.955.558,3.311,3.311,0,0,0,1.388.617c.724.153,1.431.364,2.141.567a13.807,13.807,0,0,0,2.107.3c.281.035.567.039.85.059a12.307,12.307,0,0,0,1.961.012,18,18,0,0,1,1.877-.078,11.827,11.827,0,0,0,2.29-.222c1.091-.2,2.183-.395,3.269-.621.7-.145,1.384-.322,2.067-.52a7.178,7.178,0,0,1,1.506-.275,11.819,11.819,0,0,0,1.178-.17c.224-.038.442-.134.665-.149a13.829,13.829,0,0,0,2.5-.523c.468-.119.945-.2,1.417-.3.444-.1.886-.207,1.331-.3.417-.086.836-.165,1.256-.229a23.515,23.515,0,0,0,3.76-.752,8.569,8.569,0,0,1,2.327-.513A6.135,6.135,0,0,0,1017.362,78.592Zm-1.011,7.622a.822.822,0,0,0,.253.108c.512.005,1.023,0,1.535-.008a.909.909,0,0,0,.249-.055c.169-.054.325-.142.349-.334a1.552,1.552,0,0,1,.778-1.067.683.683,0,0,1,.632-.116,10.092,10.092,0,0,0,1.258.212c.395.052.795.065,1.189.124a.65.65,0,0,1,.6.617c.014.083,0,.171.011.255.041.314.149.428.441.377a14.3,14.3,0,0,1,2.042-.122,3.794,3.794,0,0,0,.759-.1c.416-.1.507-.24.523-.656.026-.711.052-1.422.09-2.132s.088-1.42.14-2.13a.959.959,0,0,0-.273-.775,9.315,9.315,0,0,1-.821-.982.741.741,0,0,0-.862-.361,8.572,8.572,0,0,1-2.207.173,7.576,7.576,0,0,0-2.121.189,6.512,6.512,0,0,1-2.035.123,8.933,8.933,0,0,0-2.451.222c-.724.146-1.435.355-2.155.516-.887.2-1.777.389-2.672.555-.53.1-1.074.119-1.6.223-.866.169-1.725.369-2.583.571-.5.118-.986.268-1.48.4a5.949,5.949,0,0,1-.577.146c-.785.131-1.572.255-2.358.377a5.714,5.714,0,0,1-.677.08,5.272,5.272,0,0,0-1.171.215c-.659.173-1.294.423-1.972.537-1.317.223-2.629.483-3.945.712a8.824,8.824,0,0,1-1.272.134,35.9,35.9,0,0,1-4.263.073,10.408,10.408,0,0,1-2.208-.125,7.251,7.251,0,0,1-1.429-.232c-.988-.264-1.963-.579-2.946-.859a2.1,2.1,0,0,1-.75-.388,4.358,4.358,0,0,0-.7-.483c-.582-.3-1.18-.563-1.769-.846a2.116,2.116,0,0,1-.444-.248,5.3,5.3,0,0,0-1.333-.756,3.135,3.135,0,0,1-.92-.6,1.256,1.256,0,0,0-.619-.432.788.788,0,0,0-.413.519,7.245,7.245,0,0,0-.186,1.692.5.5,0,0,0,.256.414,1.954,1.954,0,0,0,2.093.248,1.164,1.164,0,0,0,.161-.054.73.73,0,0,1,.733.059,6.059,6.059,0,0,0,1.689.8.693.693,0,0,1,.5.715,3.923,3.923,0,0,0,.048.68.514.514,0,0,0,.231.329c.568.263,1.146.5,1.726.737a1.622,1.622,0,0,0,.421.049,2.526,2.526,0,0,1,1.115-.863c.506.144.97.278,1.435.407.219.061.447.094.661.167a.84.84,0,0,1,.678.868,1.552,1.552,0,0,0,.014.256.387.387,0,0,0,.37.4,7.977,7.977,0,0,0,2.205.167,3.788,3.788,0,0,0,.58-.155c.012-.171.012-.312.035-.448.064-.4.152-.492.525-.557a3.24,3.24,0,0,1,.677-.073q1.236.048,2.471.134c.375.026.579.248.665.658.034.16-.024.349.19.5a1.666,1.666,0,0,0,.278.045,12.058,12.058,0,0,0,2.523-.388.32.32,0,0,0,.241-.319,1.476,1.476,0,0,0-.047-.42c-.064-.247-.164-.486-.217-.734a.559.559,0,0,1,.524-.714c.37.006.74-.008,1.11-.009a11.127,11.127,0,0,0,3.86-.587,9.4,9.4,0,0,1,1.918-.388c.674-.1,1.356-.145,2.036-.2a1,1,0,0,0,.923-.5.266.266,0,0,1,.44-.033c.18.179.332.385.506.57a.8.8,0,0,1,.241.7,3.566,3.566,0,0,0,.29,1.717.837.837,0,0,0,.176.1,8.432,8.432,0,0,0,2.292.061c.192-.007.287-.155.365-.318a1.3,1.3,0,0,1,1.481-.745c.477.065.95.171,1.419.278a.628.628,0,0,1,.484.615Q1016.333,85.966,1016.351,86.215Zm5.772-30.126h.453c.028,0,.056.005.085,0a.475.475,0,0,0,.528-.441c.118-1.045.225-2.09.345-3.135.042-.366.108-.73.176-1.092.1-.529.215-1.055.311-1.585a.4.4,0,0,0-.377-.469c-.226-.018-.454-.01-.682-.01-.654,0-1.31.04-1.96-.009a12.584,12.584,0,0,0-2.631,0,3.45,3.45,0,0,1-.682,0c-.624-.042-1.248-.083-1.87-.146-.48-.048-.956-.127-1.434-.2-.59-.088-1.176-.2-1.768-.268a4.754,4.754,0,0,1-1.323-.308,4.641,4.641,0,0,0-.645-.216.634.634,0,0,0-.724.309,3.37,3.37,0,0,0-.6,2.093c.01.4,0,.795-.032,1.19-.056.766-.124,1.53-.2,2.294a1,1,0,0,0,.453.947,1.356,1.356,0,0,0,1.038.287,3.714,3.714,0,0,1,1.356.026,3.475,3.475,0,0,0,.6.029c1.078.056,2.158.1,3.235.173.51.036,1.013.159,1.522.2C1018.887,55.876,1020.476,55.977,1022.123,56.089Zm.743,22.269c.51-.029,1.019-.054,1.529-.089a.452.452,0,0,0,.455-.316.78.78,0,0,1,.673-.573.432.432,0,0,0,.363-.417,3.456,3.456,0,0,0,.04-.594c-.006-1.138-.029-2.276-.025-3.414,0-1.024-.021-2.053.072-3.07a6.406,6.406,0,0,0-.775-3.866,11.386,11.386,0,0,1-1.242-7.184,2.308,2.308,0,0,0-.126-1.172.716.716,0,0,0-.872-.3.23.23,0,0,0-.109.124,1.13,1.13,0,0,0-.057.334,25.018,25.018,0,0,1-.3,3.051,4.1,4.1,0,0,0,.325,2.578,1.277,1.277,0,0,1,.117.32,16.862,16.862,0,0,1,.559,3.014c.019.284.064.565.1.847a22.6,22.6,0,0,1,.2,3.061,2.378,2.378,0,0,1-.519,1.5,6.116,6.116,0,0,0-.716,1.158,3.118,3.118,0,0,1-.594.825,10.952,10.952,0,0,0-1.339,1.545,4.488,4.488,0,0,1-.453.51q-.572.631-1.145,1.259a1.681,1.681,0,0,0-.351.767.286.286,0,0,0,.214.321,4.134,4.134,0,0,0,.42.056,5.648,5.648,0,0,0,1.69-.2A5.3,5.3,0,0,1,1022.866,78.358Zm-16.341-28.823a8.725,8.725,0,0,1,.944.244c.31.118.6.293.95.471.037-.314.056-.566.1-.814s.116-.483.174-.723c-.274-.212-.514-.412-.768-.593a.382.382,0,0,0-.595.081A13.148,13.148,0,0,0,1006.525,49.535Z" transform="translate(-966.598 -37.127)"/>
</svg>
