<?xml version="1.0" encoding="UTF-8"?>
<svg width="541px" height="143px" viewBox="0 0 541 143" version="1.1" xmlns="http://www.w3.org/2000/svg" xmlns:xlink="http://www.w3.org/1999/xlink">
    <g id="Artboard" stroke="none" stroke-width="1" fill="none" fill-rule="evenodd">
        <g id="RGB-GetSteps-Schwarz" fill="#1C1C1C" fill-rule="nonzero">
            <path d="M187.288845,47.5014261 C180.715139,44.2384484 170.157371,40.774672 160.844622,40.6742727 C152.378486,40.6742727 148.095618,43.6862521 148.095618,48.254421 C148.095618,53.0735881 154.071713,54.2783799 161.641434,55.432972 L169.011952,56.5373645 C186.99004,59.2983457 197,67.4306902 197,81.5869937 C197,98.855676 182.956175,110 158.90239,110 C147.59761,110 132.756972,107.841415 122,100.160867 L130.814741,83.0929835 C137.936255,87.8619509 146.551793,91.2755277 159.101594,91.2755277 C169.460159,91.2755277 174.440239,88.3137479 174.440239,83.3941814 C174.440239,79.3280091 170.256972,77.1192242 160.645418,75.7136338 L153.87251,74.7598403 C134.699203,72.0992584 125.187251,63.6155163 125.187251,49.3588135 C125.187251,32.1905305 138.384462,22 160.247012,22 C173.543825,22 183.90239,24.5099829 194.958167,29.9315459 L187.288845,47.5014261 Z" id="Path"></path>
            <path d="M263.829082,44.6282865 L233.526361,44.6282865 L233.526361,74.9954669 C233.526361,85.3671804 239.045068,89.156845 246.018707,89.156845 C251.386905,89.156845 257.156463,86.5140526 261.721939,83.7715322 L270,101.273799 C262.67517,106.260199 254.196429,110 242.306122,110 C221.585884,110 211,98.3318223 211,76.7905712 L211,0 L233.526361,0 L233.526361,24.6826836 L263.829082,24.6826836 L263.829082,44.6282865 L263.829082,44.6282865 Z" id="Path"></path>
            <path d="M356,65.8996579 C356,68.4583808 355.849365,70.9669327 355.548094,73.4754846 L296.248034,73.4754846 C298.658197,85.5667047 307.143981,90.8346636 317.738657,90.8346636 C324.969147,90.8346636 332.85239,87.8745724 338.877798,82.8072976 L352.083485,97.3067275 C342.593466,106.036488 330.492438,110 316.433152,110 C290.774955,110 273,92.5906499 273,66.2508552 C273,39.9110604 290.272837,22 315.328494,22 C339.430127,22 355.899577,39.8608894 356,65.8996579 Z M296.348457,58.1733181 L333.404719,58.1733181 C331.346038,47.4868871 324.868724,41.4161916 315.177858,41.4161916 C304.53297,41.4161916 298.306715,47.7879133 296.348457,58.1733181 Z" id="Shape"></path>
            <path d="M457,66.8682784 C457,91.9287203 439.649857,110.736557 416.765616,110.736557 C405.597708,110.736557 397.720344,106.334723 392.335817,99.8820342 L392.335817,143 L370,143 L370,25.2509379 L391.887106,25.2509379 L391.887106,34.4547728 C397.271633,27.6519383 405.248711,23 416.665903,23 C439.649857,23 457,41.8578574 457,66.8682784 Z M391.238968,66.8682784 C391.238968,80.0237599 399.91404,89.8278449 412.57765,89.8278449 C425.789685,89.8278449 434.016046,79.5735723 434.016046,66.8682784 C434.016046,54.1629846 425.789685,43.908712 412.57765,43.908712 C399.864183,43.908712 391.238968,53.712797 391.238968,66.8682784 L391.238968,66.8682784 Z" id="Shape"></path>
            <path d="M531.288845,47.5014261 C524.715139,44.2384484 514.157371,40.774672 504.844622,40.6742727 C496.378486,40.6742727 492.095618,43.6862521 492.095618,48.254421 C492.095618,53.0735881 498.071713,54.2783799 505.641434,55.432972 L513.011952,56.5373645 C530.99004,59.2983457 541,67.4306902 541,81.5869937 C541,98.855676 526.956175,110 502.90239,110 C491.59761,110 476.756972,107.841415 466,100.160867 L474.814741,83.0929835 C481.936255,87.8619509 490.601594,91.2755277 503.101594,91.2755277 C513.460159,91.2755277 518.440239,88.3137479 518.440239,83.3941814 C518.440239,79.3280091 514.256972,77.1192242 504.645418,75.7136338 L497.87251,74.7598403 C478.699203,72.0992584 469.187251,63.6155163 469.187251,49.3588135 C469.187251,32.1905305 482.384462,22 504.197211,22 C517.494024,22 527.85259,24.5099829 538.908367,29.9315459 L531.288845,47.5014261 Z" id="Path"></path>
            <path d="M105.134426,29.3208284 C105.084054,32.1069846 105.084054,32.4552541 108.056036,32.0572318 C111.582116,31.5597039 114,31.5099511 114,34.6443768 C114,36.9827579 111.884352,38.2265776 108.962742,38.9231167 C107.098957,39.5201501 105.134426,38.8236111 105.184799,43.5998788 C105.235171,48.3761465 104.932936,52.1573585 106.19225,56.3365928 C106.796721,58.3764571 106.847094,60.5655798 106.998212,62.655197 C107.048584,63.2522304 106.494486,63.9487695 106.141878,64.5458029 C105.78927,65.1428364 103.975857,65.1428364 103.069151,64.5955557 C102.414307,64.2472862 101.860209,63.8492639 101.30611,63.351736 C99.3415797,61.2621189 97.0244411,60.8640966 94.3546945,61.709894 C92.6420268,62.2571747 90.9293592,62.9039609 89.2166915,63.351736 C87.4536513,63.7995111 85.690611,64.1477806 83.9275708,64.3467918 C75.3138599,65.1925892 69.3698957,61.0631077 65.0378539,54.1972228 C63.9800298,52.3563697 63.123696,50.3662581 62.5695976,48.276641 C61.8643815,46.2367766 61.8140089,43.9979011 62.4184799,41.908284 C63.7785395,37.7788025 65.74307,33.9478378 68.7150522,30.7636593 C69.9743666,29.4700868 71.4351714,28.3755254 72.9967213,27.529728 C75.2131148,26.2361555 77.933234,26.0868971 80.3007452,27.1317057 C83.0208644,28.226267 85.2876304,29.8681091 87.6551416,32.8035236 C88.8137109,34.2463545 88.4611028,35.2911631 91.3827124,35.0423991 C93.699851,34.843388 95.6643815,34.0473433 96.0673621,33.5000627 C96.6214605,32.6542652 97.0244411,31.7089623 97.2259314,30.7636593 C97.6792846,28.6740421 97.8304024,26.5346722 98.1830104,24.4450551 C98.4348733,23.051977 98.6867362,21.6091461 99.0393443,20.216068 C99.54307,18.0766981 101.255738,16.6338672 102.66617,17.0816423 C104.02623,17.628923 104.932936,18.9224955 104.983308,20.3653264 C105.033681,21.8579101 105.184799,26.584425 105.134426,29.3208284 Z M98.1326379,47.1323268 C98.1326379,46.9333157 98.0318927,45.4904848 97.880775,44.0476539 C97.6792846,42.1570479 96.2184799,41.0127338 94.2035768,40.8137226 C90.0730253,40.6147115 89.7707899,40.5649587 88.4107303,43.0525981 C85.6402385,47.2815852 81.509687,50.5652693 76.7242921,52.3563697 C76.0694486,52.6548864 75.5153502,53.1524143 75.1627422,53.7992005 C74.9108793,54.3464812 74.8605067,55.2917842 75.1627422,55.7395593 C76.5731744,57.6301653 78.6888227,58.2271987 80.9052161,58.177446 C86.0432191,58.1276932 90.9293592,56.8341207 95.6643815,54.8937619 C97.7800298,53.6499422 98.1830104,54.4957396 98.0822653,51.560325 C98.2837556,50.4657637 98.1326379,49.4209551 98.1326379,47.1323268 L98.1326379,47.1323268 Z M79.4947839,33.5995682 C77.8828614,33.5498154 77.2783905,33.649321 76.4220566,34.2961073 C74.4575261,35.8384437 72.6441133,37.5797914 70.9818182,39.4703973 C69.571386,41.0624866 68.6646796,43.0028453 69.5210134,45.1919681 C70.1254844,46.7840573 73.5508197,46.9830685 76.4724292,45.7392487 C76.8754098,45.5899904 77.2783905,45.440732 77.6309985,45.2417208 C80.4014903,43.79889 82.0134128,41.4107561 82.8697466,38.4753416 C83.423845,36.5349828 81.1067064,33.649321 79.4947839,33.5995682 L79.4947839,33.5995682 Z" id="Shape"></path>
            <path d="M52.8307217,34.6196792 C44.6756983,34.1708708 38.6219692,34.8191495 30.667069,36.2154422 C30.2668225,36.3151774 29.8665759,36.5146478 29.566391,36.8138533 C29.016052,37.2626617 28.4156822,38.8584247 29.1661445,39.7061738 C29.9166067,40.5539229 30.7671307,41.5014072 31.767747,42.0000832 C32.8183942,42.4488915 33.9190722,42.6483619 35.0197503,42.5984943 C38.3217843,42.6982295 42.2241881,42.3491563 45.3761297,42.6483619 C46.126592,42.6982295 46.8770543,42.6982295 46.9270851,43.2966406 C46.9771159,43.8950518 46.2766845,44.6430657 45.6763146,45.59055 C41.9740341,51.6743965 36.9209214,56.3619504 30.4169149,59.1545357 C28.3656514,60.0022848 26.2143262,60.6505636 24.0129701,61.1492395 C22.1618298,61.697783 20.2106279,61.947121 18.259426,61.8972534 C15.9079775,61.8972534 13.0562208,60.8500339 11.5552963,58.8054626 C8.60347797,54.7163198 7.35270751,51.2255882 7.85301569,46.1889611 C8.10316979,43.9449194 9.80421762,37.5618672 14.957392,31.6276235 C20.6108745,25.0949686 31.1173464,13.4259514 49.728811,8.68852995 C51.1797047,8.2895892 52.8307217,8.33945679 54.1815538,7.99038363 C55.5323859,7.64131047 55.78254,6.09541503 55.3322626,5.24766592 C53.9814305,2.60468341 51.9801978,0.859317596 49.0283795,1.00892038 C43.5750203,1.30812595 38.1716918,2.35534543 33.5188257,5.09806314 C19.1599807,13.475819 4.70107412,28.1368919 0.298362069,44.3937277 C-0.352038574,46.8372398 0.198300432,50.4775743 0.6485778,51.9237345 C2.49971809,58.1073162 3.95061184,61.1492395 8.20323143,65.2882499 C10.6047107,67.5821592 15.1074844,68.6792463 18.0593027,68.9285843 C21.011121,69.1779222 22.8622613,68.7291139 25.6139563,68.2803055 C28.2155589,67.8314972 30.7671307,67.0834833 33.16861,66.0362638 C41.2235718,62.6951349 47.4774241,55.065393 48.7782254,54.0181735 C50.3291808,52.8213512 49.8288726,61.947121 51.0296122,64.3906332 C51.4298588,65.387985 52.2303519,66.2357342 53.1809374,66.7842777 C54.4317079,67.5322916 55.5323859,67.0834833 56.4329407,66.7344101 C57.3334954,66.3853369 57.9338652,65.4877202 57.983896,63.9418248 C58.1840193,56.0128773 56.4329407,49.3804872 57.4835879,40.3544525 C58.0339269,37.1130589 56.1827866,34.8191495 52.8307217,34.6196792 Z" id="Path"></path>
        </g>
    </g>
</svg>
