<svg xmlns="http://www.w3.org/2000/svg" viewBox="0 0 82.16 173.18"><g data-name="Layer 2"><path d="M27.9 161.23a8.58 8.58 0 00-3.55-1.52c-3.06-.82-6.12-1.6-9.19-2.36-.7-.18-1.44-.18-2.14-.35a7.8 7.8 0 01-5.29-3.85 1.38 1.38 0 01.3-1.93 1.43 1.43 0 01.52-.23 10.18 10.18 0 003.89-1.8 2.09 2.09 0 01.76-.3c3.36-.62 6.58-2 10.08-1.93a16.55 16.55 0 004.26-.68c2-.5 4.08-.76 6.21-1.14.32.24.67.52 1 .77 1.44 1 2.18.8 3.08-.68a2.69 2.69 0 00.5-1.24c0-2.47 1.66-4.14 3-5.91 2.73-3.61 5.81-6.93 8.17-10.81.51-.84 1-1.73 1.46-2.58a10.41 10.41 0 011.07-1.55 1.31 1.31 0 011.48-.42c.56.22 1 .72.88 1.24-.57 2.11.6 3.69 1.61 5.23a54.2 54.2 0 013.29 5.91 52 52 0 003 5.17c2.73 4.25 5.52 8.48 8.3 12.71a9.42 9.42 0 00.8 1.08 49.23 49.23 0 015.91 8.75c.63 1.1 1.33 2.15 2 3.23.23.38.4.8.61 1.19.38.71.74 1.42 1.15 2.11a9.42 9.42 0 01.8 1.08c.72 1.76.19 2.71-1.6 2.76a17.42 17.42 0 01-2.17-.1c-6.21-.56-12.41-1.19-18.63-1.69-4.4-.36-8.83-.54-13.24-.81q-1.49-.09-3-.24c-2.78-.29-5.57-.6-8.35-.88-1.25-.13-2.52-.2-3.78-.32a17.14 17.14 0 00-4.85-.07 1.48 1.48 0 01-1.75-1.13 1.52 1.52 0 01.12-1 9.7 9.7 0 01.78-1.41c.83-1.36 1.61-2.75 2.51-4.3zm45.9 3.18c0-.41.14-.7 0-.92a19.58 19.58 0 00-2.56-4.74 88.713 88.713 0 01-4.15-5.68c-2.15-3.22-4.11-6.57-6.33-9.73a65.36 65.36 0 01-5.61-9.87c-.54-1.14-1.06-2.3-1.69-3.39a6 6 0 00-1.22-1.08c-.56.66-1 1.18-1.46 1.75-.59.8-1.07 1.69-1.71 2.44a89.39 89.39 0 00-6.44 8.68c-.76 1.14-.71 1.67.43 2.47 2.29 1.6 4.6 3.17 6.89 4.76 3.48 2.42 6.92 4.91 10.45 7.26 3.83 2.57 7.72 5 11.62 7.48a7 7 0 001.79.57zm-60.64-11.58a5.2 5.2 0 003.15 2.11c2.36.62 4.73 1.19 7.09 1.82 6.46 1.7 12.94 3.31 19.35 5.19q8.19 2.4 16.6 4c1.85.35 3.7.66 5.81 1-.31-.44-.41-.71-.61-.83-1.16-.7-2.32-1.4-3.52-2-2.81-1.45-5.67-2.8-8.46-4.29-3.1-1.65-6-3.58-9.3-5-3.72-1.61-7.06-4-11-5.22a1.62 1.62 0 01-.7-.39c-1.13-1.15-2.41-.92-3.79-.58-2.37.57-4.77 1-7.14 1.54-2.1.51-4.18 1.13-6.24 1.77a5.19 5.19 0 00-1.24.88zm40 15.22v-.29c-2.51-.71-5-1.39-7.54-2.13-1.82-.53-3.61-1.16-5.43-1.69-2.59-.76-5.33-1-7.82-2.17a.78.78 0 00-.52-.12c-.41.12-1 .2-1.15.48a10.19 10.19 0 00-1.42 3.44 5.17 5.17 0 003.12 1.08c3.14.33 6.28.64 9.42.88 3.43.25 6.86.42 10.28.61a6 6 0 001-.09zm-14.4-19.13A12.86 12.86 0 0043 151.8c4.4 2.06 8.74 4.23 13 6.63a7.2 7.2 0 001.43.45c.1-.85-.47-1.08-.88-1.38-2-1.42-4-2.8-5.92-4.22q-3.82-2.78-7.62-5.58c-2.01-1.47-2.89-1.58-4.29 1.22zm1.34-124.4a1.69 1.69 0 01.55 1.92 6.84 6.84 0 01-1.08 1.82c-1.09 1.2-2.28 2.32-3.42 3.46l-3 3a1.54 1.54 0 01-2.18 0 1.51 1.51 0 01-.41-.79 2.17 2.17 0 01.57-2.25q3.63-3.5 7.31-6.92a1.25 1.25 0 011.62-.24zM23.66 43.67c-1.42 1.86-2.85 3.7-4.3 5.54-.56.72-1.15 1.41-1.76 2.09a1.34 1.34 0 01-1.62.5c-.66-.29-.71-1-.7-1.56a2.75 2.75 0 01.32-1.15 34.37 34.37 0 015.64-7.54 4.3 4.3 0 013.3-1.28c.16 1.85.1 2.12-.88 3.4zM2.51 86.5a2.82 2.82 0 01-1.17-1.29 6.6 6.6 0 01-.22-1.83A21.84 21.84 0 013 75.4a2.09 2.09 0 011.4-1 1.55 1.55 0 011.71 1 2.63 2.63 0 01.07 1.47c-.36 1.6-.88 3.13-1.24 4.73-.3 1.29-.47 2.6-.67 3.9a1.17 1.17 0 01-1.2 1.15 1.23 1.23 0 01-.56-.15zM55 13.5c-.53.61-1.14 1.16-1.71 1.74-.3.27-.6.57-.92.81-1.45 1.13-2.87 2.29-4.38 3.33a1.38 1.38 0 01-1.92-.24 1.41 1.41 0 01-.28-.89 2.4 2.4 0 011.17-2.32c1.4-1 2.78-2.06 4.19-3.07a23.18 23.18 0 012.32-1.46 1.37 1.37 0 011.7.12A1.63 1.63 0 0155 13.5zM11 130.69a1.81 1.81 0 012.28.13c2.43 2 4.85 4 7.25 6-.88 1.63-1 1.72-2 1.39-3.22-1.07-5.55-3.39-7.9-5.66a1.22 1.22 0 01.21-1.71zM8.89 67.3a1.4 1.4 0 01-1.25-1.17 4.53 4.53 0 010-1 16.14 16.14 0 012.23-6.53A1.6 1.6 0 0112 58a1.78 1.78 0 011 2 10.72 10.72 0 01-.58 1.41c-.71 1.69-1.43 3.38-2.12 5.07a1.21 1.21 0 01-1.41.82zM69.28 3c-1.42.86-3.24 2-5.07 3.05A1.59 1.59 0 0162 5.81a1.74 1.74 0 010-2.25 3.09 3.09 0 01.86-.83c1.51-.84 3-1.66 4.57-2.42A2.78 2.78 0 0168.92 0c.46 0 1.17.25 1.27.56a3.46 3.46 0 01-.19 1.7c0 .16-.24.29-.72.74zM2.57 97a3 3 0 01.78 1.56c.07 2.2.39 4.43-.45 6.8-2.4.37-2.68.16-2.74-1.89 0-1.82-.12-3.63-.16-5.45a1.51 1.51 0 01.93-1.44 1.32 1.32 0 011.64.42zM2 116.63a1.79 1.79 0 012.5.11 4 4 0 01.79 1.26c.66 1.71 1.27 3.44 2 5.32-1.62 1.14-2.07 1.2-2.7.21-1.1-1.72-2.09-3.5-3.06-5.3a1.27 1.27 0 01.47-1.6z" fill="#fff" data-name="3 Steps Condensed Module Mobile"/></g></svg>