<svg xmlns="http://www.w3.org/2000/svg" viewBox="0 0 124.06 111.94"><g data-name="Layer 2"><path d="M91.08 24c-.67-.35-1.2-.68-1.77-.91-1.82-.74-2.86-.33-3.68 1.42-.19.43-.36.87-.59 1.28-1 1.85-.15 3.58 1.92 3.73a10.11 10.11 0 001.9-.18c.31 0 .61-.11 1.06-.2.56.66 1.16 1.29 1.67 2 1 1.35 1.91 2.75 2.91 4.1a7.14 7.14 0 005.38 3.18c.39 0 .79.09 1.18.15 4.34.74 7.62-1.6 9.46-5a22.54 22.54 0 001.82-4.92c.64-2.38 1.06-4.83 1.59-7.24a13.35 13.35 0 01.46-1.61 4.84 4.84 0 012.43-2.8 17.09 17.09 0 011.71-.86 10 10 0 003.41-2.55A7.52 7.52 0 00124 8.37a6.11 6.11 0 00-3.16-6 13.4 13.4 0 00-4.7-1.69c-1.73-.27-3.48-.45-5.23-.61a8.18 8.18 0 00-5.84 1.64 25.44 25.44 0 00-7 7.4 53.44 53.44 0 00-6.19 13.42 8.26 8.26 0 01-.8 1.47zm19-21.7a10.25 10.25 0 011.24 0c1.43.13 2.87.2 4.28.46a18.1 18.1 0 013.68 1 3.56 3.56 0 012.32 3.09 7.12 7.12 0 01-4.23 7.39c-.57.27-1.19.46-1.78.71a6.57 6.57 0 00-3.88 4.57c-.06.23-.11.47-.15.7-.38 1.88-.78 3.76-1.12 5.64a24.63 24.63 0 01-2.2 6.58 5.78 5.78 0 01-2.26 2.72 9.31 9.31 0 01-7.18.76 2.9 2.9 0 01-1.58-1c-1-1.44-1.78-3-2.6-4.52a2.48 2.48 0 010-1.18 5.66 5.66 0 00-.66-3.47 2.2 2.2 0 01-.18-1.75c.48-1.61 1-3.22 1.51-4.79a55.58 55.58 0 014.29-8.29A21.15 21.15 0 01106.12 4 11.18 11.18 0 01110 2.34zM86.19 26.4c.56-.41 1-.8 1.58-1.12a.75.75 0 01.64.14.86.86 0 01.29.6 2 2 0 01-1.37 1.76.9.9 0 01-.8-.27 4 4 0 01-.34-1.11zm9.37 21.26a3.38 3.38 0 003-3.76 3.5 3.5 0 00-.31-1.06 4.45 4.45 0 00-2.88-2.64 2.2 2.2 0 00-2.56.76 5.47 5.47 0 00-1.24 3 3.25 3.25 0 004 3.66zm-1.65-3.32a2.4 2.4 0 01.13-1 1.51 1.51 0 01.84-.69.91.91 0 01.78.39 2.74 2.74 0 01.45 1.29 1.2 1.2 0 01-1.32 1.07c-.51.05-.79-.28-.88-1.06zm14.9-1.7a4.6 4.6 0 002.38 3.42 2.77 2.77 0 003.53-.28 2.26 2.26 0 00.68-1c.57-2.2-.49-5.07-3.28-5.35a3.77 3.77 0 00-2.69.77 1.72 1.72 0 00-.59 1 6.74 6.74 0 00-.03 1.44zm4.07 1.06c-.73-.13-1.09-.7-.9-1.15a.63.63 0 01.53-.29c.46.12.55.53.51.94a2.19 2.19 0 01-.14.5zm-6.66 2.4c-.23-2-.8-2.66-2.17-3a2.67 2.67 0 00-3.05 1.15 5.25 5.25 0 00-.94 3.14 2.32 2.32 0 00.33 1.12 3.41 3.41 0 003 1.74 2.31 2.31 0 002.41-1.59 18.7 18.7 0 00.42-2.56zm-3 1.28c-.07-.47-.14-.88-.16-1.29 0-.09.19-.25.31-.27a.44.44 0 01.37.16c.2.52.26 1.02-.57 1.4zm-11-12.09c0-.32-.08-.63-.14-.95a2.16 2.16 0 00-1.84-1.92 2.44 2.44 0 00-2.71 1c-.61.93-1.34 1.78-1.06 3.05.06.29-.26.68-.41 1a1.38 1.38 0 00.38 1.89l.21.11a3.62 3.62 0 005.61-2.33 7.47 7.47 0 000-1.89zm-4.08 2.43c.17-.68.33-1.36.51-2 .11-.4.33-.81.81-.69a1.11 1.11 0 01.56.69 1.59 1.59 0 01-.15 1.59 1.38 1.38 0 01-1.73.41zM16.32 69.49c-.18-.74-.27-1.35-.47-1.94-.64-1.86-1.63-2.37-3.49-1.84-.45.13-.9.29-1.36.39-2.06.43-2.8 2.22-1.56 3.89a10.77 10.77 0 001.38 1.32c.24.21.49.39.85.67-.13.85-.21 1.71-.4 2.56-.37 1.63-.83 3.24-1.2 4.87a7.2 7.2 0 001.12 6.15c.24.32.46.66.67 1 2.28 3.75 6.2 4.71 10 3.85a22.71 22.71 0 004.91-1.84c2.23-1.08 4.33-2.36 6.5-3.57a13.78 13.78 0 011.51-.7 4.83 4.83 0 013.73 0 18.21 18.21 0 011.77.72 10 10 0 004.16.91 7.6 7.6 0 005.3-1.83 6.1 6.1 0 002.47-6.33 13.33 13.33 0 00-1.8-4.66c-.93-1.48-1.94-2.92-2.95-4.36a8.19 8.19 0 00-5.07-3.33 25.59 25.59 0 00-10.2-.42A53.66 53.66 0 0018 69.09a8.65 8.65 0 01-1.68.4zm28.81.11c.29.33.58.62.81.94.84 1.16 1.73 2.31 2.46 3.54a19.13 19.13 0 011.6 3.45 3.58 3.58 0 01-.82 3.78A7.14 7.14 0 0140.87 83c-.58-.26-1.13-.6-1.7-.88a6.55 6.55 0 00-6 .06c-.21.1-.42.22-.63.34-1.67 1-3.34 1.88-5 2.85a25.12 25.12 0 01-6.4 2.63 5.83 5.83 0 01-3.53.08 9.31 9.31 0 01-5.28-4.93 2.83 2.83 0 01-.28-1.85 51.13 51.13 0 011.71-4.92 2.35 2.35 0 01.85-.81 5.72 5.72 0 002.2-2.77 2.19 2.19 0 011.34-1.29c1.53-.69 3.06-1.39 4.62-2a55.52 55.52 0 019.07-2.2 21.42 21.42 0 019.49.42 11.22 11.22 0 013.8 1.87zm-33.79-2.26c.67.16 1.28.27 1.87.46a.71.71 0 01.31.57.84.84 0 01-.25.62 2 2 0 01-2.23.12.89.89 0 01-.32-.78 3.51 3.51 0 01.62-.99zm-9.94 21a3.38 3.38 0 004.78-.24 3.23 3.23 0 00.6-.93 4.43 4.43 0 00.1-3.89 2.19 2.19 0 00-2.25-1.43 5.42 5.42 0 00-3.1 1 3.27 3.27 0 00-1 4.51 3.36 3.36 0 00.87.99zm1.43-3.43a2.42 2.42 0 01.81-.53 1.54 1.54 0 011.07.19.92.92 0 01.22.84 2.86 2.86 0 01-.68 1.18 1.2 1.2 0 01-1.67-.3c-.34-.36-.3-.82.25-1.37zm11 10.15a4.6 4.6 0 00-1 4 2.77 2.77 0 002.53 2.48 2.23 2.23 0 001.17-.11c2-1 3.5-3.69 1.89-6A3.69 3.69 0 0016.09 94a1.77 1.77 0 00-1.13.18 6.81 6.81 0 00-1.09.89zm1.86 3.77c-.38-.64-.18-1.28.28-1.43a.6.6 0 01.57.21c.21.42 0 .75-.38 1a1.58 1.58 0 01-.43.23zm-6.13-3.45c1.35-1.47 1.49-2.35.87-3.63a2.67 2.67 0 00-2.91-1.56 5.27 5.27 0 00-3 1.35 2.25 2.25 0 00-.62 1 3.39 3.39 0 00.61 3.37 2.31 2.31 0 002.78.78 20.37 20.37 0 002.27-1.31zm-3-1.47a12.07 12.07 0 01.87-1c.06-.07.31 0 .41.06a.41.41 0 01.12.38c-.2.57-.52.97-1.37.56zm2-16.2c.21-.23.43-.47.62-.71a2.17 2.17 0 00.26-2.66A2.44 2.44 0 006.89 73c-1.11.15-2.23.15-3 1.19-.18.25-.68.26-1 .37A1.36 1.36 0 001.67 76a1.55 1.55 0 00.05.23 4.06 4.06 0 003.42 3.21 4.19 4.19 0 002-.49 7.64 7.64 0 001.45-1.21zm-4.51-1.49c.63-.32 1.24-.64 1.87-.94.38-.18.83-.28 1 .16a1.07 1.07 0 01-.15.87 1.57 1.57 0 01-1.31.94 1.38 1.38 0 01-1.46-1zm113.72-1.49c-.06-2.71-1.5-4.79-3.42-6.57a10.38 10.38 0 00-7.06-2.51 2.62 2.62 0 00-1.37.38c-1.88 1.11-3.7 2.29-3.88 4.8 0 .39-.23.77-.28 1.16-.43 3.26-2.5 5.21-5.22 6.71s-5.1 3-7.65 4.48A19.49 19.49 0 0085 86.75a2 2 0 00-.56 1 12.12 12.12 0 00-.16 5 33.27 33.27 0 001.45 3.79c.89 2.18 2.65 3.55 4.52 4.8a5.3 5.3 0 002.71.81 21.17 21.17 0 009.76-1.9c5.91-2.52 9.88-7 12.75-12.47a26.38 26.38 0 002.54-10.9 12.39 12.39 0 00-.24-2.15zM96.06 100l-1.42.18a6.7 6.7 0 01-4.57-1.06 8.74 8.74 0 01-3.81-5.86 6.24 6.24 0 012.44-6.57 35.73 35.73 0 014.4-2.87c2.51-1.39 5-2.75 7.43-4.33a8.55 8.55 0 004.21-7.59 3.7 3.7 0 01.43-1.59 3.12 3.12 0 014-1.87h.12a11.32 11.32 0 012.71 1.44 6.91 6.91 0 013 4.65 19.11 19.11 0 01-1.81 12.07 25.85 25.85 0 01-4.82 6.77A20.9 20.9 0 0196.06 100zm-11 7.66c.83.77 1.61 1.56 2.46 2.28a2.36 2.36 0 002.69.27 8.39 8.39 0 00.85-.42c1.88-1 2.26-2.56 1.12-4.41-1.48-2.4-3.54-2.36-5.8-1.2a2.14 2.14 0 00-1.16 1.73c-.04.43-.07.91-.15 1.71zm4 .51a1.25 1.25 0 01-1.45-1v-.14a1.06 1.06 0 01.95-1.12 1.53 1.53 0 011.64 1c.16.5-.38 1.09-1.09 1.22zm-6.41-3.68a2.83 2.83 0 002.75-2.08 2.4 2.4 0 00-.21-2.28c-.26-.4-.53-.8-.81-1.18a3.06 3.06 0 00-3.18-1.2c-1.84.3-3.18 1.77-2.47 3.81.09.22.2.44.27.66.71 1.97 1.46 2.45 3.7 2.23zm.15-3.35a1.06 1.06 0 01-1 1.12 1 1 0 01-1.23-.75.67.67 0 010-.28 1.09 1.09 0 01.92-1.17 1.21 1.21 0 011.31 1.09zM81 91.87a3.89 3.89 0 00-2.49-3.07 3.36 3.36 0 00-3.48 1.94 3.81 3.81 0 001 4.51 2.51 2.51 0 003.09.17 4 4 0 001.93-3.59zm-3.6 1.34c-.17-.21-.4-.21-.4-.36a1.11 1.11 0 01.48-1.23.46.46 0 01.41.07 1.59 1.59 0 01.13.86c-.02.25-.38.45-.57.62zm23.88 15.3a2.52 2.52 0 00-1.56-2.21 10.14 10.14 0 00-1.33-.51 3.18 3.18 0 00-3.8 2.07 2.47 2.47 0 00-.11.47c-.17 1.38.71 2.2 1.67 2.93a2.84 2.84 0 003.11.44 3.13 3.13 0 002.07-3.23zm-3.24 1c-.36-.26-.67-.37-.8-.59-.21-.37.26-.93.78-.88.24 0 .66.38.63.5a3.78 3.78 0 01-.56.97zm-21-26a9.89 9.89 0 00.61 1.56 2.76 2.76 0 003.74 1 2.57 2.57 0 001.26-3.23 3.88 3.88 0 00-1.24-2c-1.13-.92-1.83-1.07-2.8-.55a2.89 2.89 0 00-1.61 3.2zm2.73.48a2.22 2.22 0 01-.46-.51.48.48 0 01.16-.37c.19 0 .47.08.53.2s-.1.36-.22.68z" fill="#fff" data-name="3 Steps Condensed Module Mobile"/></g></svg>