<svg xmlns="http://www.w3.org/2000/svg" viewBox="0 0 135.46 80.58"><g data-name="Layer 2"><path d="M114.66 74.61c-3.56-.14-7.12-.68-10.81.23 0 .43-.09.82-.09 1.21a3.39 3.39 0 01-3.07 3.68 2.9 2.9 0 01-.83 0 6.15 6.15 0 01-3.55-1.37 2.46 2.46 0 01-1-2.36 5.36 5.36 0 013-3.93 2.2 2.2 0 011.39 0 19.43 19.43 0 007.29.09 7.51 7.51 0 012.22 0 26.79 26.79 0 008.52-.37c1.1-.17 2.06-1.89 1.8-3a2.76 2.76 0 00-2.53-2.45c-1-.08-2 0-3 0-2.24 0-4.49.07-6.72-.09a51.17 51.17 0 00-7.32.22c-1.86.12-2.1 0-2.4-1.88-.37-2.24-.77-4.48-1.15-6.73-.07-.4-.1-.82-.14-1.23-.21-2-.43-4-.63-6-.06-.62-.12-1.24-.14-1.86 0-1.31.53-1.8 1.75-1.47a13.41 13.41 0 003.84.34c3.05 0 6.1.05 9.15 0 2.37-.06 4.73-.27 7.1-.41l2.85-.19c.74-.06 1.5-.07 2.23-.18a2 2 0 002-2c.1-.6.1-1.23.14-1.76a1.32 1.32 0 011.71-.46 12.48 12.48 0 005.35 1.06 28.4 28.4 0 013.43.41c.21 0 .54.37.52.53s-.23.74-.45.81a7.24 7.24 0 01-1.79.26c-1.43 0-2.86 0-4.28.06s-1.82.38-2.12 1.74q-1.69 7.68-3.33 15.37a12.77 12.77 0 00-.14 2 3.22 3.22 0 010 .82c-.38 1.31-.81 2.61-1.2 3.93s-.7 2.38-1 3.57a1.85 1.85 0 00.42 1.74 4.65 4.65 0 01.9 1.37c.71 1.9.3 3.44-1.85 4a4.41 4.41 0 01-4.06-.71 3.9 3.9 0 01-1.71-3.94 4.21 4.21 0 000-.62 2.58 2.58 0 00-.3-.43zm7.63-25.51a22.76 22.76 0 00-5.94.31 1 1 0 00-.84.77 6.3 6.3 0 00-.18 1.22 1.25 1.25 0 001.26 1.51c1.55 0 3.1-.13 4.64-.24a3 3 0 00.86-.34 5.07 5.07 0 00.2-3.24zM111 60.06a5.69 5.69 0 00-4-.47 1.47 1.47 0 00-1.5 1.44v.15a2.91 2.91 0 00.62 1.92 1.56 1.56 0 00.95.65 23.57 23.57 0 003 .16 1 1 0 001.06-.94v-.1a5.49 5.49 0 00-.19-2.81zm8.7.93a3 3 0 00-2-.82l-2-.2c-1.4-.16-1.8.13-2.08 1.56a5.58 5.58 0 00-.1 1.23.92.92 0 00.83 1h.18c1.22 0 2.44-.09 3.65-.18a6.43 6.43 0 001.14-.32c.14-.53.28-1 .38-1.45a6 6 0 000-.85zm-1.21-6.2h-2.41c-1 .08-1.41.56-1.47 1.59a1.45 1.45 0 001.3 1.58h.19c1.2.09 2.42.12 3.63.14a1.23 1.23 0 001.25-.86 9.43 9.43 0 00.35-1.18.91.91 0 00-.59-1.14.78.78 0 00-.21 0c-.8-.09-1.62-.09-2-.11zm-14.06-2.65c.14-.19.2-.23.21-.29.28-1.63.1-1.9-1.36-2-1.28-.06-2.56-.07-3.84-.06a8.6 8.6 0 00-1.32.2 2.65 2.65 0 00.12 2.45c1.25 0 2.51.13 3.78.15a6 6 0 002.41-.47zm-1 11.42a6.56 6.56 0 00-.7-4c-.9-.06-1.77-.15-2.64-.17a.79.79 0 00-.89.67.74.74 0 000 .21 6.06 6.06 0 001 3.58c1-.22 2.13.26 3.23-.33zm6.9-14v.2h-2c-1 .07-1.4.55-1.42 1.62a1.15 1.15 0 001.2 1.35c1.28 0 2.57-.13 3.85-.23a1 1 0 00.87-.76 7.2 7.2 0 00.19-1.22.83.83 0 00-.66-1h-2zm1.63 5.5a7 7 0 00-3.54-.56c-1.47 0-2 .64-2.17 2.18-.08.88.37 1.2 1.35 1a3.34 3.34 0 01.77-.06h2.24c1-.05 1.3-.4 1.41-1.41a6.12 6.12 0 00-.06-1.13zm-8.51 2.36a2.51 2.51 0 00.6-1.93.86.86 0 00-.79-1h-.08a13 13 0 00-4.61.16c-.4 1.87-.2 2.23 1.41 2.42 1.14.13 2.28.21 3.48.31zM99.87 77.7c.8 0 1.27-.1 1.5-.63a1.21 1.21 0 00-.23-1.35 2.78 2.78 0 00-2.56-.92 1.08 1.08 0 00-.9 1 1.35 1.35 0 00.48 1 10.89 10.89 0 001.71.85zm19.52.76a1 1 0 00.38 0c.28-.14.68-.27.77-.5a1 1 0 00-.19-.93 10.93 10.93 0 00-1.8-1.29 1 1 0 00-1.26.35 1.19 1.19 0 000 1.35 2.19 2.19 0 002.1 1zM0 13a1.5 1.5 0 002 .22c1.5-.66 3-1.34 4.42-2.14a66.68 66.68 0 019.38-4.49c3.87-1.43 7.81-1.25 12.07-1.09-.22.74-.23 1.37-.56 1.74a10.57 10.57 0 00-2.56 4.38 6.23 6.23 0 001.85 6.47 2.82 2.82 0 001.3.71 12 12 0 008.77-1.89.72.72 0 00.24-.19c1.54-2.57 3.44-5.07 2.52-8.27a10.64 10.64 0 00-1.24-2.3c-.29-.49-.65-.94-1.09-1.57a6 6 0 011.46-.7 54.43 54.43 0 018.53-.94c2.4.07 4.77.94 7.12 1.56a9 9 0 011.93 1 2.14 2.14 0 01-1 2.27A13.17 13.17 0 0052 12.54c-1.09 2.36-.26 4.44 1.09 6.37a2.78 2.78 0 001.2.86C59.67 22 64.38 18.66 64.72 14a11.51 11.51 0 00-.89-5.5c-.23-.52-.42-1.07-.7-1.79a6.84 6.84 0 011.37-.61 14.41 14.41 0 017.26.21A82.39 82.39 0 0180.13 9a34.61 34.61 0 017.69 4.64 21.21 21.21 0 014 4.75 28.33 28.33 0 01-5.09 3.28 10.37 10.37 0 00-2 1.33 1.53 1.53 0 00-.26 2.14 1.51 1.51 0 00.75.51c1.45.69 3 1.27 4.34 2.08a120.56 120.56 0 0010.8 5.37 17.75 17.75 0 003.76 1.15 1.65 1.65 0 002-1.22 2 2 0 000-.48 14.13 14.13 0 00-.23-2.05 9.34 9.34 0 01.65-5.8c1.49-3 1.44-6.13 1.47-9.28a3.17 3.17 0 00-.14-.87 1.26 1.26 0 00-1.51-1 .2.2 0 00-.11 0c-2.44 1.14-5.14 1.37-7.62 2.33-.84.32-1.73.52-2.64.79-.88-1-1.71-1.84-2.4-2.78-2.29-3.12-5.54-5.07-8.92-6.88A24 24 0 0077 4.29a21 21 0 01-3.21-.91A14.46 14.46 0 0066 2.94c-1.39.34-2.83.5-4.21.87a3 3 0 01-2.59-.41c-2.56-1.7-5.59-2.3-8.51-3A17.61 17.61 0 0045.2.11c-3.33.23-6.72.18-9.86 1.78a9.61 9.61 0 01-6 .82 34.57 34.57 0 00-7.94 0 22.4 22.4 0 00-8.49 2.5c-3.74 1.87-7.5 3.72-11.26 5.58C.67 11.27-.09 11.86 0 13zm100.78 15.57a2.49 2.49 0 01-.82-.07c-2.67-1.17-5.34-2.37-8-3.58a1.26 1.26 0 01-.9-1.52 15.29 15.29 0 011.39-.86c1.75-.86 3.5-1.71 5.26-2.51 1.12-.51 2.26-1 3.42-1.38a2.46 2.46 0 012.48.23 5.3 5.3 0 010 1.59c-.75 2.56-1.57 5.1-2.39 7.63-.02.16-.22.28-.44.47zM33.15 15.81c-2.13.8-3.87.73-4.51-.1a3.85 3.85 0 01-.39-3.9 4.54 4.54 0 01.7-1.3A21.3 21.3 0 0131.11 8c1.78-1.64 3.06-1.51 4.54.33a3.63 3.63 0 01.79 2.73 5.35 5.35 0 01-3.29 4.75zm26.11-7c2.19 1.81 2.27 4 1.87 6.3-.3 1.69-2.57 2.85-4.34 2.42-1.45-.35-2.16-1.75-1.65-3.57a7.48 7.48 0 014.12-5.16z" fill="#fff" data-name="3 Steps Condensed Module Mobile"/></g></svg>