<svg xmlns="http://www.w3.org/2000/svg" viewBox="0 0 227.68 148.07"><defs><style>.cls-1{fill:#fff}</style></defs><g id="Layer_2" data-name="Layer 2"><g id="_3_Steps_Condensed_Module_Mobile" data-name="3 Steps Condensed Module Mobile"><path class="cls-1" d="M18.12 72.8a16.21 16.21 0 001.56.78 3.43 3.43 0 012 1.85c1.38 2.83 2.8 5.65 4.16 8.49.77 1.62 1.47 3.26 2.17 4.91a46.74 46.74 0 012.87 10 19.58 19.58 0 01-.6 9.34 9.91 9.91 0 01-4.92 6.28 6 6 0 01-7.14-.64 13.61 13.61 0 01-4-5.26c-1.27-3.08-2.46-6.18-3.77-9.24-1.07-2.5-2.34-4.93-3.39-7.44-1.06-2.69-2.43-5.39-2.78-8.4-.48-4-.66-3.76 2.61-6.51a8.74 8.74 0 014.81-2.17 16.88 16.88 0 003.22-.79c1.08-.36 2.08-.78 3.2-1.2zm10.18 33a19.52 19.52 0 00-.51-9.08 58.26 58.26 0 00-2.32-6.78 133.21 133.21 0 00-5.79-12.27 1.86 1.86 0 00-2.32-1.24l-.19.07c-2.3.63-4.61 1.29-6.87 2a8.45 8.45 0 00-2.23 1.25 2.43 2.43 0 00-1 2.48A10.53 10.53 0 007.46 84c.87 2.41 1.64 4.86 2.7 7.2 2.28 5.06 4.55 10.12 6.39 15.37a13.05 13.05 0 003.66 5.2 3.19 3.19 0 003.82.46 6.3 6.3 0 002-1.6 11 11 0 002.27-4.86zM10.89 58.43a6.63 6.63 0 014.77 3.93A35.82 35.82 0 0117 67.55a2.06 2.06 0 01-1.1 2.36c-1.6 1-3.14 2-4.75 3S7.68 74.81 6 75.75a7.24 7.24 0 01-1.39.63 2.07 2.07 0 01-2.64-1.26v-.07c-.45-1.29-.67-2.66-1.19-3.91a12.84 12.84 0 01-.54-6.3 4.56 4.56 0 01.61-1.92 37.81 37.81 0 012.59-3.48 3.26 3.26 0 012.7-1.23c1.64.05 3.33.15 4.75.22zM14 67.38c-.3-1.28-.53-2.45-.86-3.58a3.5 3.5 0 00-1.84-2.35 8.84 8.84 0 00-5.52-.3 1.59 1.59 0 00-.66.39 6.84 6.84 0 00-2.33 3.59 8.6 8.6 0 002.11 7.43 45.76 45.76 0 009.1-5.18zm87.23 68.8a17.66 17.66 0 01-3.13 8.54 8.18 8.18 0 01-4 2.59c-3.2 1.26-6.21 1.09-8.74-1.53a28.66 28.66 0 01-2.34-2.7c-1.39-1.84-2.72-3.72-4-5.61-3-4.27-5.87-8.63-7.48-13.64a43.25 43.25 0 01-1.48-6.22 7.61 7.61 0 01.36-2.76 2.29 2.29 0 011.29-1.51 40.1 40.1 0 007.72-5 4.06 4.06 0 01.86-.55 2.25 2.25 0 012.61.23 41.21 41.21 0 018.54 8.4c2 2.87 4.08 5.68 6.12 8.52a26.2 26.2 0 013.27 6.65 12 12 0 01.35 4.59zM72.8 115.93a10 10 0 00-.14 1.08 18.67 18.67 0 001.34 6.48A50.21 50.21 0 0081 136c1.1 1.53 2.21 3 3.35 4.54a25.16 25.16 0 002.26 2.78 5.52 5.52 0 004.28 2c2.72-.22 4.91-1.37 6-4.06.27-.63.56-1.24.84-1.87a10.34 10.34 0 00.19-8.47 30.44 30.44 0 00-1.35-2.75 107.59 107.59 0 00-8.12-11.52 33.24 33.24 0 00-6.17-5.74 4.46 4.46 0 00-1.11-.45zM62.09 102.2a5.75 5.75 0 012.41-4.15 11.09 11.09 0 016-2 5 5 0 001 0 4.55 4.55 0 013.87.82 7.58 7.58 0 012.85 3.52 9.1 9.1 0 00.68 1.65 2.25 2.25 0 01-.36 3c-.4.43-.82.86-1.26 1.26l-5.79 5a7.62 7.62 0 01-3.38 1.72 1.35 1.35 0 01-1.71-.75c-.26-.44-.48-.9-.72-1.35-1-1.81-1.88-3.63-2.84-5.43a6.28 6.28 0 01-.75-3.29zm14.53.9l-1-2.1a3.63 3.63 0 00-3.22-2.15 9.34 9.34 0 00-5.89 1.26 3.17 3.17 0 00-1.26 4.31l.06.11c.72 1.34 1.47 2.68 2.21 4a1.62 1.62 0 001.56 1.08zm-21.5-65.72a10.5 10.5 0 01-2.93 5.49q-1.77 1.62-3.69 3.06a9.76 9.76 0 01-5.83 1.89 6.44 6.44 0 01-6.54-4.93 16.12 16.12 0 01-.21-5.71c.27-3 .59-6 1-9a8.47 8.47 0 00-.87-4.87c-.53-1.15-1-2.33-1.62-3.46a2.51 2.51 0 01.33-2.9 5 5 0 012.73-1.85c1.47-.39 2.92-.84 4.37-1.26a4.68 4.68 0 002.66-1.47 1.42 1.42 0 012-.27l.14.13a8.37 8.37 0 011.57 1.46 18.53 18.53 0 012.92 4.64 60.74 60.74 0 012.71 6.38 42.27 42.27 0 011.45 9.69 21.77 21.77 0 01-.19 2.98zM45.8 15.46c-.62.17-1.39.36-2.14.57-1.46.4-2.91.9-4.38 1.2-2.11.44-2.72 1-1.42 3.31.07.14.2.25.27.39a11.53 11.53 0 011.46 5.68c-.14 1.91-.28 3.81-.56 5.7a37.33 37.33 0 00-.44 8.11A5.25 5.25 0 0040.18 44 3.25 3.25 0 0043 45.16c1.81-.33 3.62-.68 5-2 .68-.67 1.41-1.3 2.11-2a8.16 8.16 0 002.45-4.8c.57-3.23-.16-6.38-.78-9.48a28.62 28.62 0 00-4.08-9.38 4.86 4.86 0 00-1.9-2zm-14.54-1.09a21.43 21.43 0 01-1.36-6.52c-.09-1.18.07-2.39.1-3.59A2.72 2.72 0 0131.2 2 9.36 9.36 0 0138.39.1c1.11.17 2.21.36 3.33.45a2.52 2.52 0 012.18 1.62 12 12 0 011 5.35 2.55 2.55 0 01-1.72 2.39 9 9 0 01-1.15.34 22.5 22.5 0 00-5.51 2.28 28.66 28.66 0 01-3.48 1.59 8.06 8.06 0 01-1.78.25zm1.22-9.47c.06 1.59-.33 3.44.37 5.22a1.17 1.17 0 001.39.91 1.66 1.66 0 00.31-.12 3.89 3.89 0 00.66-.29 28 28 0 016-2.83.88.88 0 00.22-.1 1.41 1.41 0 00.83-1.57c-.08-.55-.11-1.12-.23-1.66a1.85 1.85 0 00-1.57-1.56 40.25 40.25 0 00-4.53-.34 6.23 6.23 0 00-2.27.65 2 2 0 00-1.18 1.69zM148.66 101.19a61.94 61.94 0 015.43-5.07c1.49-1.17 2.9-2.44 4.3-3.71.85-.78.86-1.22.12-2.26-2.2-3.08-4.31-6.25-6.7-9.18-1.11-1.37-.48-2.66-.57-4 0-.2.37-.54.63-.63a5 5 0 011.38-.22c2.92-.19 5.86-.2 8.75-.57s5.52 0 8.27-.22c2.51-.19 5-.14 7.56-.21.54 0 1.08-.11 1.69-.18.71-1.92 1.37-3.74.66-5.78-.2-.57-.41-1.31.12-1.8s1.28 0 1.93.25c1.49.51 3 .92 4.53 1.36.53.15 1.07.27 1.59.45a4.12 4.12 0 01.77.48c.53 1.77-.64 3.48 0 5.29a9.94 9.94 0 003.59.9 82.34 82.34 0 0017.26.64 2.64 2.64 0 012.45 1c3.55 4.36 7.81 8 11.7 12.1.93 1 2 1.77 3 2.73a1.49 1.49 0 01-.48 2.65c-2.92 1.4-5.8 2.86-8.74 4.24a83.63 83.63 0 00-8.53 5.11c-.4.25-.78.55-1.2.77a2.43 2.43 0 01-2.28.2 8.28 8.28 0 00-3.72-.52c-1.43 0-2.85.09-4.27 0s-3-.23-4.49-.34a22.33 22.33 0 00-2.83-.12 1.34 1.34 0 00-1.46 1.22 15.1 15.1 0 00-.3 2.11c-.3 4.26-.56 8.53-.86 12.79-.16 2.36-.41 4.72-.56 7.08-.11 1.89.22 2.52 2 4.16a41.87 41.87 0 004.26-2.82c1.45-1.25 2.87-.7 3.28 1.15.52 2.31 1.1 4.61 1.66 6.91.07.31.16.61.22.92.09.49.1 1.06-.44 1.2a1.9 1.9 0 01-1.3-.23 3 3 0 01-1.27-1.93c-.36-1.38-.78-2.74-1.19-4.1a7.55 7.55 0 00-.48-.94 5.61 5.61 0 00-1.29.6c-.79.65-1.51 1.39-2.26 2.09a1.77 1.77 0 01-2.5.27 1.71 1.71 0 01-.48-.59 18 18 0 00-2.77-3.81 7.44 7.44 0 01-.69-1.23c-.23-.39-.51-.76-.86-1.25a6.18 6.18 0 00-1.26.69 15 15 0 00-3.45 3.87c-.79 1.42-1.66 1.27-2.71.47a35.4 35.4 0 01-2.76-2.58l-.79-.76c-.84 0-1.19.59-1.6 1.05-1 1.18-2.06 2.4-3.09 3.6-.64.73-1.09.79-1.81.23a.93.93 0 01-.4-1.26 1 1 0 01.3-.34c1.1-1.13 2.23-2.22 3.31-3.38.69-.74 1.32-1.55 1.95-2.35a1.73 1.73 0 012.82 0c.33.44.56 1 .9 1.4a6.24 6.24 0 001 1c.1.09.29 0 .61.08a12.38 12.38 0 00.87-3c.21-1.57.38-3.14.54-4.72q.65-6.14 1.28-12.27c.13-1.25.34-2.51.39-3.77s-.32-1.71-1.69-1.7c-4.1 0-8.2-.4-12.32-.05a46.9 46.9 0 01-12.58-.36 5.36 5.36 0 01-4.14-2.81zm74.88-8a12.17 12.17 0 00-.92-1.22c-.49-.51-1.09-.92-1.58-1.43-2.44-2.59-4.84-5.21-7.29-7.78-.87-.92-1.83-1.74-2.77-2.59a3.48 3.48 0 00-2.13-1 20.47 20.47 0 00-2.82-.12 50.14 50.14 0 01-10.88-.44c-1.72-.23-3.44-.56-5.17-.63-4.82-.2-9.63-.31-14.45-.39-2 0-3.95.22-5.92.19a134 134 0 00-13.72 1c-.51.05-1.13-.06-1.5.58a1.67 1.67 0 00.16.62c2.58 3.3 4.63 7 7.44 10.11 1.1 1.23 1 2.36-.3 3.17-2.7 1.67-4.78 4.1-7.41 5.87a2.06 2.06 0 00-1.23 2 12.31 12.31 0 001.56.5 31.1 31.1 0 007.77.37c2-.14 3.94-.28 5.91-.28 6.09 0 12.17.09 18.25.16 1.81 0 3.61.1 5.42.18 3.07.13 6.15.31 9.23.43 1.73.06 3.47.11 5.2 0a5.89 5.89 0 002.24-.64c1.21-.57 2.37-1.25 3.53-1.92a83 83 0 019-4.79c.84-.34 1.95-.65 2.38-1.93zm-38.82 31.43c.12-.71.28-1.54.4-2.39s.19-1.72.26-2.58c.23-2.9.45-5.81.7-8.71.09-1.1.2-2.19.35-3.28a4.28 4.28 0 00-.15-2.78 5.78 5.78 0 00-2.79-.34c-1.46 0-1.72.28-1.89 1.8 0 .32 0 .63-.06 1-.44 4.54-.9 9.09-1.31 13.64-.15 1.64-.2 3.29-.26 4.94a3.39 3.39 0 00.29 1c1-.09 1.52-.75 2.18-1.16a21.64 21.64 0 012.28-1.09zM186 75c.2-1.08.41-2 .52-2.92a1.4 1.4 0 00-.86-1.55 4.51 4.51 0 00-3.4-.34 9.1 9.1 0 00-.31 4.74A9.12 9.12 0 00186 75zm16.17 10.7c-1.11.1-2.19-.72-3.06.54.38.23.7.43 1 .61.56.3 1.15.53 1.68.88 3.2 2.09 2.6 5 .8 7.09a6.37 6.37 0 01-7.85 1 1.92 1.92 0 01-.74-.88 1.54 1.54 0 010-1.1c.19-.43.64-.34 1-.2a16.22 16.22 0 002.21.8 4.3 4.3 0 004.47-2.4 1.55 1.55 0 00-.27-1.76A4.58 4.58 0 00199 88.9c-.84-.21-1.71-.31-2.56-.51a4.32 4.32 0 01-1.3-.52 1.53 1.53 0 01-.55-2.09 1.28 1.28 0 01.29-.36 7.88 7.88 0 016.28-2.17 1.51 1.51 0 011.32.88c.19.32.17.46-.34 1.59zM190.82 90a5.45 5.45 0 01-5.26 5.59 3.73 3.73 0 01-3.8-1.9 7.87 7.87 0 01-.32-7.88 4.21 4.21 0 013.73-1.92c3.45.44 5.63 2.8 5.65 6.11zm-8.1 0c0 .2.09.75.21 1.29a2.1 2.1 0 001.55 1.62A3.71 3.71 0 00188 92a2.69 2.69 0 00.72-3c-.43-1.74-2-3.12-3.42-3s-2.54 1.82-2.55 4zm-11.37 3.81l5.45.77a5 5 0 011.15.25 1.14 1.14 0 01.68 1.15c0 .57-.46.8-.92.92a3.36 3.36 0 01-1 .07c-1.81-.14-3.62-.27-5.43-.46a5.8 5.8 0 01-1.57-.47 1.62 1.62 0 01-1-1.72 3.25 3.25 0 01.17-.93 23.69 23.69 0 001.12-8.17 2.08 2.08 0 010-.93 5.84 5.84 0 01.84-1 2.87 2.87 0 011.2 2.82c-.15 1.89-.38 3.77-.57 5.65-.03.6-.05 1.24-.12 2.07zM207.81 90c.2-1.27.37-2.51.6-3.75a1.36 1.36 0 011.22-1.25c.54 0 1.07.89 1 1.69-.25 1.63-.56 3.24-.85 4.86a.81.81 0 01-.07.22c-.19.37-.45.72-.89.59a1 1 0 01-.68-.55 14.19 14.19 0 01-.33-1.81zm0 8.2c-.14-.2-.44-.45-.5-.75a.85.85 0 01.82-1.1.79.79 0 01.74.74 1 1 0 01-.89 1.11.49.49 0 01-.18-.03z"/></g></g></svg>