<svg xmlns="http://www.w3.org/2000/svg" width="1206.529" height="410.967" viewBox="0 0 1206.529 410.967">
  <g id="Group_884" data-name="Group 884" transform="translate(-36.299 -1047.703)">
    <g id="Group_871" data-name="Group 871" transform="translate(1114 1340.747)">
      <path id="Path_1440" data-name="Path 1440" d="M-3264.253,518.912a103.207,103.207,0,0,1,8.846-8.264c2.433-1.9,4.734-3.968,7.019-6.046,1.4-1.271,1.4-1.994.2-3.683-3.592-5.028-7.031-10.183-10.918-14.971-1.811-2.228-.78-4.341-.923-6.512-.021-.332.593-.879,1.02-1.031a8.356,8.356,0,0,1,2.255-.366c4.76-.3,9.551-.334,14.271-.929,4.5-.568,8.988-.021,13.478-.358,4.1-.308,8.219-.223,12.329-.342.879-.024,1.753-.181,2.752-.289,1.158-3.126,2.228-6.1,1.073-9.416-.325-.929-.665-2.149.19-2.939,1.084-1,2.1.034,3.162.4,2.429.832,4.917,1.5,7.383,2.22.862.253,1.747.434,2.589.739a6.76,6.76,0,0,1,1.263.776c.861,2.889-1.048,5.673-.032,8.627,1.766,1.016,3.821,1.158,5.84,1.462a134.486,134.486,0,0,0,28.139,1.04,4.289,4.289,0,0,1,4,1.71c5.8,7.12,12.737,13.134,19.087,19.72,1.515,1.571,3.284,2.9,4.816,4.451,1.607,1.631,1.21,3.379-.772,4.333-4.759,2.284-9.47,4.663-14.25,6.9-4.93,2.308-9.327,5.483-13.919,8.34-.656.41-1.268.9-1.95,1.255a3.985,3.985,0,0,1-3.708.321,13.47,13.47,0,0,0-6.073-.85c-2.318.023-4.639.15-6.954.068-2.444-.087-4.878-.387-7.318-.561a41.049,41.049,0,0,0-4.622-.2,2.2,2.2,0,0,0-2.389,2.078,24.753,24.753,0,0,0-.494,3.444c-.486,6.946-.917,13.9-1.405,20.843-.271,3.854-.671,7.7-.91,11.553-.192,3.086.347,4.1,3.223,6.786a67.629,67.629,0,0,0,6.94-4.61c2.373-2.029,4.678-1.127,5.349,1.879.844,3.768,1.8,7.512,2.705,11.266.121.5.272,1,.366,1.5.146.792.168,1.721-.718,1.949a3.073,3.073,0,0,1-2.131-.382,4.887,4.887,0,0,1-2.068-3.144c-.577-2.244-1.261-4.463-1.937-6.681a10.892,10.892,0,0,0-.781-1.526,9.21,9.21,0,0,0-2.11.968c-1.284,1.066-2.456,2.266-3.675,3.412-1.647,1.545-3.842,1.45-4.865-.518a29.049,29.049,0,0,0-4.521-6.215,12.357,12.357,0,0,1-1.11-2.007c-.389-.637-.845-1.231-1.41-2.042a11.345,11.345,0,0,0-2.053,1.128,24.253,24.253,0,0,0-5.622,6.309c-1.286,2.315-2.7,2.071-4.413.773a56.411,56.411,0,0,1-4.509-4.2c-.459-.435-.911-.879-1.286-1.24-1.374.023-1.947.965-2.607,1.7-1.711,1.926-3.36,3.909-5.042,5.862-1.036,1.2-1.765,1.284-2.949.373a1.519,1.519,0,0,1-.163-2.6c1.791-1.845,3.644-3.633,5.4-5.514,1.129-1.215,2.15-2.534,3.178-3.841a2.824,2.824,0,0,1,4.6-.034c.539.718.906,1.568,1.465,2.271a10.758,10.758,0,0,0,1.681,1.576c.161.132.479.071,1,.129a20.487,20.487,0,0,0,1.419-4.981c.343-2.554.608-5.12.879-7.685q1.055-10,2.084-20.009c.214-2.049.561-4.091.635-6.144.079-2.157-.519-2.8-2.749-2.773-6.695.076-13.361-.645-20.086-.084a77.011,77.011,0,0,1-20.424-.665C-3260.323,522.9-3262.607,521.839-3264.253,518.912Zm122.083-13.01a18.76,18.76,0,0,0-1.5-1.982c-.8-.832-1.784-1.5-2.576-2.337-3.977-4.213-7.889-8.487-11.882-12.682-1.418-1.489-2.993-2.833-4.522-4.213a5.6,5.6,0,0,0-3.463-1.558,33.457,33.457,0,0,0-4.609-.184,82.818,82.818,0,0,1-17.729-.723c-2.81-.376-5.618-.911-8.441-1.026-7.848-.319-15.7-.515-23.553-.636-3.215-.05-6.437.347-9.653.308-7.5-.089-14.917.9-22.359,1.584-.831.076-1.848-.1-2.458.942a2.65,2.65,0,0,0,.27,1c4.2,5.38,7.543,11.39,12.121,16.5,1.8,2,1.666,3.838-.474,5.162-4.4,2.723-7.808,6.683-12.082,9.572-.905.611-2.206,1.444-2.007,3.176a20.149,20.149,0,0,0,2.539.823,50.165,50.165,0,0,0,12.666.6c3.21-.224,6.429-.453,9.643-.445,9.916.023,19.833.144,29.749.261,2.944.034,5.89.157,8.832.284,5.019.218,10.033.5,15.052.7,2.824.108,5.66.192,8.481.069a9.873,9.873,0,0,0,3.657-1.036c1.973-.936,3.866-2.045,5.759-3.144a134.79,134.79,0,0,1,14.618-7.8C-3144.638,508.5-3142.858,507.995-3142.17,505.9Zm-63.289,51.251c.195-1.157.463-2.52.645-3.9.184-1.4.3-2.808.417-4.215.385-4.734.744-9.469,1.139-14.2.148-1.786.318-3.573.574-5.346.219-1.521.568-3.021-.242-4.525-1.459-.781-3.039-.537-4.545-.555-2.376-.027-2.8.45-3.088,2.941-.058.51-.05,1.027-.1,1.539-.714,7.412-1.463,14.823-2.133,22.238-.242,2.678-.332,5.371-.414,8.059a5.485,5.485,0,0,0,.471,1.639c1.665-.147,2.48-1.231,3.548-1.907A34.6,34.6,0,0,1-3205.459,557.154Zm2.043-80.906c.318-1.757.665-3.249.836-4.762a2.269,2.269,0,0,0-1.394-2.515c-1.765-.684-3.581-1.331-5.546-.563a14.845,14.845,0,0,0-.5,7.732A14.89,14.89,0,0,0-3203.416,476.248Z" transform="translate(3264.253 -463.343)" fill="#fff"/>
      <path id="Path_1441" data-name="Path 1441" d="M-3205.106,483.705c-1.8.171-3.56-1.168-4.986.886.621.369,1.139.7,1.679.994.908.487,1.881.869,2.739,1.431,5.223,3.415,4.236,8.12,1.308,11.555s-8.983,4.057-12.792,1.573a3.2,3.2,0,0,1-1.218-1.431,2.584,2.584,0,0,1,.052-1.8c.316-.7,1.052-.565,1.688-.329a25.638,25.638,0,0,0,3.6,1.292,6.984,6.984,0,0,0,7.28-3.917,2.513,2.513,0,0,0-.429-2.865,7.444,7.444,0,0,0-3.993-2.211c-1.37-.353-2.789-.51-4.165-.844a6.617,6.617,0,0,1-2.118-.848,2.492,2.492,0,0,1-.431-3.988,12.834,12.834,0,0,1,10.244-3.533,2.427,2.427,0,0,1,2.144,1.428C-3204.242,481.637-3204.266,481.857-3205.106,483.705Z" transform="translate(3292.296 -453.353)" fill="#fff"/>
      <path id="Path_1442" data-name="Path 1442" d="M-3215.258,490.283c-.048,5.5-3.786,8.617-8.58,9.115a6.073,6.073,0,0,1-6.2-3.1c-2.265-4.123-2.852-8.472-.526-12.85a6.909,6.909,0,0,1,6.092-3.129C-3218.838,481.042-3215.284,484.884-3215.258,490.283Zm-13.2.04c.053.334.148,1.223.342,2.089a3.458,3.458,0,0,0,2.521,2.644c2.16.65,4.046-.161,5.691-1.479,1.6-1.284,1.646-3.065,1.187-4.9-.709-2.845-3.244-5.089-5.584-4.962C-3226.506,483.832-3228.457,486.673-3228.461,490.323Z" transform="translate(3283.997 -452.951)" fill="#fff"/>
      <path id="Path_1443" data-name="Path 1443" d="M-3239.7,496.907c3.3.461,6.094.842,8.881,1.245a7.763,7.763,0,0,1,1.865.418,1.841,1.841,0,0,1,1.118,1.865c-.024.937-.747,1.3-1.511,1.5a4.8,4.8,0,0,1-1.534.115c-2.956-.221-5.912-.432-8.858-.742a9.5,9.5,0,0,1-2.569-.763,2.675,2.675,0,0,1-1.626-2.816,5.248,5.248,0,0,1,.286-1.513,38.331,38.331,0,0,0,1.755-13.35,3.527,3.527,0,0,1,.058-1.524,9.4,9.4,0,0,1,1.365-1.654,4.646,4.646,0,0,1,1.952,4.6c-.246,3.078-.626,6.144-.934,9.217C-3239.558,494.5-3239.6,495.505-3239.7,496.907Z" transform="translate(3276.706 -453.324)" fill="#fff"/>
      <path id="Path_1444" data-name="Path 1444" d="M-3204.467,489.541c.328-2.068.6-4.1.986-6.1a2.2,2.2,0,0,1,1.987-2.007c.877.061,1.742,1.437,1.545,2.749-.4,2.652-.908,5.288-1.376,7.93a1.21,1.21,0,0,1-.129.358c-.3.6-.721,1.165-1.45.963a1.722,1.722,0,0,1-1.1-.9A21.969,21.969,0,0,1-3204.467,489.541Z" transform="translate(3300.907 -452.254)" fill="#fff"/>
      <path id="Path_1445" data-name="Path 1445" d="M-3204.157,495.9c-.221-.321-.71-.737-.809-1.232a1.377,1.377,0,0,1,1.338-1.8,1.292,1.292,0,0,1,1.206,1.2A1.642,1.642,0,0,1-3204.157,495.9Z" transform="translate(3300.578 -445.241)" fill="#fff"/>
    </g>
    <g id="Group_883" data-name="Group 883" transform="translate(638.591 1268.697) rotate(-106)">
      <g id="Group_872" data-name="Group 872" transform="translate(26.42 31.317) rotate(21)">
        <path id="Path_1446" data-name="Path 1446" d="M15.242,53.473c-.951.516-1.766.878-2.494,1.368-2.324,1.559-2.66,3.117-1.241,5.479.345.576.734,1.129,1.039,1.725,1.368,2.675,4.108,3.033,5.941.7a14.106,14.106,0,0,0,1.3-2.387c.2-.395.355-.815.611-1.415,1.219-.135,2.44-.339,3.669-.391,2.383-.1,4.774-.064,7.156-.17a10.205,10.205,0,0,0,8.052-3.821c.35-.446.731-.872,1.123-1.284,4.323-4.532,4.175-10.284,1.6-15.175a32.543,32.543,0,0,0-4.356-6.075c-2.312-2.654-4.863-5.1-7.3-7.647a19.465,19.465,0,0,1-1.531-1.822,6.876,6.876,0,0,1-1.393-5.134,27.134,27.134,0,0,1,.338-2.708,14.147,14.147,0,0,0-.289-6.058,10.759,10.759,0,0,0-4.489-6.612A8.7,8.7,0,0,0,13.355.99a19.094,19.094,0,0,0-5.744,4.2c-1.7,1.836-3.3,3.758-4.894,5.69a11.656,11.656,0,0,0-2.7,8.21A36.32,36.32,0,0,0,3.147,33.3c3,6.4,6.253,12.628,10.918,18.019A12.013,12.013,0,0,1,15.242,53.473ZM4.7,13.778c.349-.523.632-1.025.989-1.464,1.3-1.585,2.533-3.233,3.955-4.7a26.911,26.911,0,0,1,4.14-3.529A5.084,5.084,0,0,1,19.3,3.808a10.186,10.186,0,0,1,5.355,10.884c-.146.9-.41,1.775-.581,2.67a9.351,9.351,0,0,0,2.308,8.231c.224.258.465.5.705.744,1.923,1.94,3.821,3.9,5.777,5.81a35.791,35.791,0,0,1,6.013,7.835A8.312,8.312,0,0,1,40.3,44.818a13.243,13.243,0,0,1-4.829,9.095,4.056,4.056,0,0,1-2.434,1.072c-2.471-.024-4.946-.271-7.407-.536a3.407,3.407,0,0,1-1.44-.87,8.059,8.059,0,0,0-4.625-1.994,3.145,3.145,0,0,1-2.273-1.37c-1.512-1.849-3.042-3.687-4.453-5.613C10.193,41,8.44,36.9,6.449,32.933a30.371,30.371,0,0,1-2.943-13.22A16.073,16.073,0,0,1,4.7,13.778ZM14.127,61.13c-.031-.985-.108-1.873-.054-2.752.014-.235.392-.554.665-.641a1.168,1.168,0,0,1,.942.125,2.821,2.821,0,0,1,.995,3.019,1.266,1.266,0,0,1-.959.728A5.408,5.408,0,0,1,14.127,61.13Z" transform="translate(0 0)" fill="#fff"/>
        <path id="Path_1447" data-name="Path 1447" d="M10.324,7.112a4.823,4.823,0,0,0-3.6-6.97,6.306,6.306,0,0,0-5.4,1.3A3.115,3.115,0,0,0,.188,5.067,7.724,7.724,0,0,0,2.775,8.955C5.6,11.12,8.811,10.346,10.324,7.112Zm-5.25-.7A3.471,3.471,0,0,1,4.048,5.5a2.158,2.158,0,0,1-.137-1.549,1.317,1.317,0,0,1,1.072-.609,4.043,4.043,0,0,1,1.877.49A1.721,1.721,0,0,1,7.067,6.25C6.683,6.858,6.042,6.969,5.074,6.412Z" transform="translate(36.405 59.897)" fill="#fff"/>
        <path id="Path_1448" data-name="Path 1448" d="M2.339,8.34a6.575,6.575,0,0,0,5.942-.084,3.938,3.938,0,0,0,2.474-4.4,3.148,3.148,0,0,0-.587-1.566C8.021-.142,3.788-1.167,1.225,1.9a5.359,5.359,0,0,0-1.22,3.79A2.5,2.5,0,0,0,.681,7.173,9.479,9.479,0,0,0,2.339,8.34ZM6.844,4.373c-.741.765-1.7.728-2.083.154a.9.9,0,0,1,.084-.869c.5-.439,1.053-.221,1.511.154A3.273,3.273,0,0,1,6.844,4.373Z" transform="translate(49.009 39.014)" fill="#fff"/>
        <path id="Path_1449" data-name="Path 1449" d="M6.71.917C4.187-.39,2.928-.263,1.4,1.065-.054,2.325-.307,3.733.327,5.655A7.5,7.5,0,0,0,3.292,9.273a3.216,3.216,0,0,0,1.582.5,4.849,4.849,0,0,0,4.411-2.1,3.306,3.306,0,0,0,.04-4.118A29.888,29.888,0,0,0,6.71.917ZM5.787,5.543c-.609-.3-1.152-.53-1.65-.835-.11-.067-.137-.422-.067-.586a.6.6,0,0,1,.477-.311C5.363,3.937,6.041,4.231,5.787,5.543Z" transform="translate(46.668 52.253)" fill="#fff"/>
        <path id="Path_1450" data-name="Path 1450" d="M6.213.949C5.805.75,5.406.531,4.99.353A3.1,3.1,0,0,0,1.243.992,3.471,3.471,0,0,0,.295,5.014c.607,1.462,1.03,3,2.752,3.68.4.16.6.849.887,1.3a1.94,1.94,0,0,0,2.832.894A5.787,5.787,0,0,0,9.91,5,5.927,5.927,0,0,0,8.48,2.4,10.7,10.7,0,0,0,6.276.852ZM5.831,7.7c-.668-.744-1.343-1.471-1.987-2.223-.388-.453-.7-1.038-.167-1.5a1.557,1.557,0,0,1,1.256-.12A2.263,2.263,0,0,1,6.7,5.313,1.966,1.966,0,0,1,5.831,7.7Z" transform="translate(23.225 60.151)" fill="#fff"/>
      </g>
      <g id="Group_873" data-name="Group 873" transform="matrix(0.616, 0.788, -0.788, 0.616, 52.556, 180.119)">
        <path id="Path_1451" data-name="Path 1451" d="M21.229,53.163c-.847.67-1.588,1.167-2.222,1.776-2.02,1.937-2.081,3.529-.279,5.611.439.507.918.985,1.321,1.519,1.809,2.4,4.568,2.281,5.974-.331a14.185,14.185,0,0,0,.865-2.576c.131-.423.209-.864.359-1.5,1.177-.342,2.345-.755,3.546-1.016,2.332-.507,4.691-.885,7.021-1.4A10.21,10.21,0,0,0,45.089,50.1c.268-.5.569-.985.884-1.458,3.478-5.21,2.343-10.849-1.036-15.224A32.6,32.6,0,0,0,39.6,28.181C36.867,25.965,33.932,24,31.1,21.9a19.392,19.392,0,0,1-1.82-1.529,6.871,6.871,0,0,1-2.256-4.819c-.043-.908-.182-1.822-.134-2.725a14.133,14.133,0,0,0-1.327-5.917A10.761,10.761,0,0,0,20,1.173a8.7,8.7,0,0,0-9.661.614A19.088,19.088,0,0,0,5.4,6.917c-1.356,2.1-2.607,4.272-3.841,6.447A11.662,11.662,0,0,0,.31,21.918,36.364,36.364,0,0,0,5.842,35.369C9.9,41.161,14.176,46.733,19.7,51.24A12.031,12.031,0,0,1,21.229,53.163ZM4.017,15.872c.255-.574.445-1.117.723-1.611,1-1.786,1.94-3.62,3.089-5.309A26.822,26.822,0,0,1,11.3,4.763a5.08,5.08,0,0,1,5.382-1.224,10.187,10.187,0,0,1,7.15,9.8c.01.908-.1,1.819-.114,2.728a9.354,9.354,0,0,0,3.69,7.712c.265.215.544.413.822.611,2.228,1.579,4.437,3.187,6.691,4.728A35.884,35.884,0,0,1,42.193,35.8a8.326,8.326,0,0,1,2.228,4.523,13.245,13.245,0,0,1-3.191,9.789,4.059,4.059,0,0,1-2.213,1.475c-2.439.4-4.919.584-7.389.747a3.4,3.4,0,0,1-1.569-.609,8.047,8.047,0,0,0-4.9-1.167,3.142,3.142,0,0,1-2.474-.959c-1.809-1.559-3.632-3.109-5.354-4.762-3.221-3.094-5.654-6.83-8.3-10.4A30.337,30.337,0,0,1,3.859,21.925,16.052,16.052,0,0,1,4.017,15.872ZM21.45,60.895c-.2-.964-.429-1.824-.528-2.7-.027-.235.291-.616.545-.747a1.174,1.174,0,0,1,.951-.04,2.824,2.824,0,0,1,1.5,2.8,1.264,1.264,0,0,1-.819.882A5.348,5.348,0,0,1,21.45,60.895Z" transform="translate(0 0)" fill="#fff"/>
        <path id="Path_1452" data-name="Path 1452" d="M10.757,6.249A4.823,4.823,0,0,0,6.014,0a6.3,6.3,0,0,0-5.1,2.211A3.112,3.112,0,0,0,.422,5.977,7.7,7.7,0,0,0,3.639,9.362C6.793,11.009,9.825,9.694,10.757,6.249Zm-5.291.212A3.439,3.439,0,0,1,4.3,5.739a2.168,2.168,0,0,1-.4-1.5,1.328,1.328,0,0,1,.952-.784,4.042,4.042,0,0,1,1.933.161A1.72,1.72,0,0,1,7.4,5.958C7.127,6.624,6.515,6.845,5.466,6.461Z" transform="translate(43.818 54.829)" fill="#fff"/>
        <path id="Path_1453" data-name="Path 1453" d="M2.9,8.8a6.571,6.571,0,0,0,5.84-1.106,3.936,3.936,0,0,0,1.68-4.756A3.158,3.158,0,0,0,9.574,1.5C7.041-.533,2.694-.814.7,2.65a5.361,5.361,0,0,0-.55,3.944,2.512,2.512,0,0,0,.921,1.343A9.49,9.49,0,0,0,2.9,8.8ZM6.658,4.116c-.6.882-1.545,1.011-2.024.512a.9.9,0,0,1-.067-.871c.416-.519,1-.4,1.515-.108A3.236,3.236,0,0,1,6.658,4.116Z" transform="translate(52.841 32.119)" fill="#fff"/>
        <path id="Path_1454" data-name="Path 1454" d="M6.155.455C3.445-.4,2.228-.057.948,1.515-.263,3.006-.272,4.437.683,6.22A7.509,7.509,0,0,0,4.228,9.276a3.224,3.224,0,0,0,1.642.217A4.85,4.85,0,0,0,9.855,6.666,3.3,3.3,0,0,0,9.185,2.6,29.483,29.483,0,0,0,6.155.455ZM6.044,5.171c-.65-.188-1.226-.324-1.769-.537-.12-.047-.208-.393-.168-.567a.606.606,0,0,1,.418-.388C5.348,3.662,6.067,3.834,6.044,5.171Z" transform="translate(52.588 45.843)" fill="#fff"/>
        <path id="Path_1455" data-name="Path 1455" d="M5.7.5C5.267.375,4.836.23,4.4.127A3.1,3.1,0,0,0,.814,1.4,3.47,3.47,0,0,0,.573,5.525c.849,1.337,1.532,2.782,3.344,3.153.426.087.743.731,1.1,1.13a1.939,1.939,0,0,0,2.943.392,5.783,5.783,0,0,0,2.085-6.338A5.932,5.932,0,0,0,8.186,1.54,10.785,10.785,0,0,0,5.747.4ZM6.49,7.224C5.7,6.605,4.913,6.005,4.149,5.375c-.46-.379-.865-.9-.422-1.45a1.554,1.554,0,0,1,1.216-.335A2.265,2.265,0,0,1,6.934,4.718,1.967,1.967,0,0,1,6.49,7.224Z" transform="translate(30.824 57.729)" fill="#fff"/>
      </g>
      <g id="Group_875" data-name="Group 875" transform="translate(89.481 110.173) rotate(14)">
        <path id="Path_1462" data-name="Path 1462" d="M17.49.565c-3.656-1.233-7.139-.3-10.469,1.4C3.6,3.709,1.615,6.744.224,10.2a3.794,3.794,0,0,0-.157,2.015C.64,15.269,1.329,18.283,4.6,19.747c.512.228.918.684,1.42.945,4.156,2.166,5.747,5.887,6.439,10.259.657,4.159,1.51,8.287,2.271,12.427.462,2.514,1.829,4.649,2.908,6.9a2.956,2.956,0,0,0,1.126,1.251c2.086,1.159,4.186,2.427,6.6,2.645a45.8,45.8,0,0,0,5.78-.1c3.351-.12,6.042-1.82,8.629-3.712a7.5,7.5,0,0,0,2.407-3.231,30.237,30.237,0,0,0,2.207-14.008C43.9,24,39.905,16.517,33.9,9.986c-3.672-4-8.382-6.613-13.348-8.717A17.976,17.976,0,0,0,17.49.565ZM40.7,41.958c-.146.667-.289,1.334-.443,2a9.536,9.536,0,0,1-3.655,5.6,12.4,12.4,0,0,1-9.7,2.241,8.885,8.885,0,0,1-7.608-6.465,49.215,49.215,0,0,1-1.7-7.293c-.639-4.039-1.236-8.1-2.185-12.07-1.056-4.424-3.586-7.774-8.106-9.332a5.256,5.256,0,0,1-1.93-1.347c-1.941-2.01-2.148-4.25-.429-6.437A15.988,15.988,0,0,1,8.2,5.893a9.89,9.89,0,0,1,7.721-1.822,27.288,27.288,0,0,1,15.283,8.3,37.161,37.161,0,0,1,6.722,9.76A29.778,29.778,0,0,1,40.7,41.958Z" transform="translate(0 0)" fill="#fff"/>
        <path id="Path_1463" data-name="Path 1463" d="M4.12,10.8C5.562,10.071,7,9.406,8.367,8.627A3.36,3.36,0,0,0,10.05,5.158C10.013,4.7,9.973,4.25,9.9,3.8,9.408.774,7.573-.469,4.54.158.6.973-.344,3.75.1,7.346A3.059,3.059,0,0,0,1.855,9.733C2.465,10.034,3.085,10.315,4.12,10.8Zm2.66-5.154A1.767,1.767,0,0,1,4.547,7.054,1.5,1.5,0,0,1,3.521,5.228a2.177,2.177,0,0,1,2.147-1.7C6.423,3.624,6.955,4.638,6.779,5.648Z" transform="translate(41.482 49.603)" fill="#fff"/>
        <path id="Path_1464" data-name="Path 1464" d="M9.84,5.628A4.047,4.047,0,0,0,8.38.933,3.416,3.416,0,0,0,5.224.1C4.561.253,3.9.433,3.252.619A4.341,4.341,0,0,0,.1,4.288C-.393,6.9.917,9.411,3.987,9.446c.341,0,.681-.041,1.02-.031C8.022,9.5,9.037,8.741,9.84,5.628ZM5.427,3.792a1.511,1.511,0,0,1,1.026,1.84A1.451,1.451,0,0,1,4.465,6.818a1.543,1.543,0,0,1-1.109-1.8A1.722,1.722,0,0,1,5.427,3.792Z" transform="translate(30.373 56.405)" fill="#fff"/>
        <path id="Path_1465" data-name="Path 1465" d="M5.874.122C4.044-.354,1.369.623.546,1.957a4.794,4.794,0,0,0,.9,5.606,5.409,5.409,0,0,0,6.543.8A3.591,3.591,0,0,0,9.741,4.3,5.771,5.771,0,0,0,5.874.122Zm.04,5.47c-.319.229-.514.477-.651.449A1.566,1.566,0,0,1,3.855,4.8c-.026-.155.2-.506.3-.5a2.232,2.232,0,0,1,1.216.237C5.663,4.752,5.75,5.246,5.914,5.593Z" transform="translate(16.625 57.973)" fill="#fff"/>
        <path id="Path_1466" data-name="Path 1466" d="M5.837.138a3.587,3.587,0,0,0-3.72,1A14.1,14.1,0,0,0,.793,2.68a4.531,4.531,0,0,0,.912,6.1,3.123,3.123,0,0,0,.563.373c1.777.9,3.3.13,4.746-.808A4.058,4.058,0,0,0,9.132,4.4C8.893,2.095,7.683.6,5.837.138ZM5.659,4.986c-.523.355-.83.711-1.189.774-.589.1-1.112-.8-.79-1.464.151-.308.827-.7.968-.607A5.3,5.3,0,0,1,5.659,4.986Z" transform="translate(48.827 38.911)" fill="#fff"/>
        <path id="Path_1467" data-name="Path 1467" d="M3.531,7.833A14.655,14.655,0,0,0,5.906,7.78a3.932,3.932,0,0,0,3.2-4.5A3.661,3.661,0,0,0,5.408.016a5.482,5.482,0,0,0-3.257.7C.37,1.772-.18,2.637.049,4.2A4.121,4.121,0,0,0,3.531,7.833ZM5.5,4.409a3.228,3.228,0,0,1-.909.372c-.141.006-.445-.344-.415-.4.121-.244.332-.59.53-.6S5.13,4.1,5.5,4.409Z" transform="translate(5.843 51.559)" fill="#fff"/>
      </g>
    </g>
    <g id="Group_869" data-name="Group 869" transform="translate(463.134 1395.01) rotate(-48)">
      <path id="Path_1428" data-name="Path 1428" d="M28.987,57.861a11.124,11.124,0,0,0-5.015-.545c-4.127.148-8.253.344-12.377.56-.94.049-1.866.328-2.8.377A10.173,10.173,0,0,1,.715,55.473a1.807,1.807,0,0,1,.2-3.02A13.321,13.321,0,0,0,5.09,48.731a2.6,2.6,0,0,1,.823-.663c3.965-2.06,7.473-4.973,11.854-6.265a21.921,21.921,0,0,0,5.06-2.467c2.314-1.393,4.794-2.507,7.312-3.8.491.176,1.03.394,1.584.563,2.16.653,3.03.176,3.589-2.023a3.548,3.548,0,0,0,.148-1.733c-.889-3.1.489-5.8,1.489-8.529,2.027-5.535,4.6-10.868,6.071-16.607.322-1.253.535-2.532.844-3.79a12.683,12.683,0,0,1,.743-2.34A1.7,1.7,0,0,1,46.291,0c.78.052,1.541.513,1.565,1.2.1,2.859,2.163,4.379,4.016,5.922a71.211,71.211,0,0,1,6.366,6.12,68.117,68.117,0,0,0,5.672,5.315c5.035,4.274,10.134,8.476,15.212,12.7a11.013,11.013,0,0,0,1.423,1.05c4,2.357,7.336,5.536,10.712,8.666,1.208,1.12,2.488,2.163,3.716,3.262.435.389.805.845,1.219,1.257.74.737,1.471,1.488,2.245,2.188a12.982,12.982,0,0,1,1.4,1.056c1.582,1.919,1.278,3.308-.946,4.044a24.888,24.888,0,0,1-2.742.709c-7.967,1.665-15.952,3.246-23.9,4.992-5.637,1.24-11.226,2.7-16.839,4.048-1.26.3-2.525.584-3.8.832-3.584.7-7.175,1.377-10.759,2.083-1.619.321-3.225.718-4.845,1.04a22.34,22.34,0,0,0-6.087,1.766A1.916,1.916,0,0,1,27.1,66.272a11.677,11.677,0,0,1,.435-2.058C28,62.171,28.469,60.126,28.987,57.861ZM87.509,44.309c-.123-.522-.1-.931-.293-1.164A25.541,25.541,0,0,0,82.205,38.2c-2.515-1.742-4.978-3.571-7.345-5.505-3.913-3.2-7.633-6.632-11.619-9.731A86.031,86.031,0,0,1,52.474,12.784c-1.11-1.219-2.2-2.463-3.4-3.583a7.131,7.131,0,0,0-2-.863c-.439,1.031-.845,1.866-1.154,2.736-.431,1.22-.686,2.512-1.2,3.694a117.413,117.413,0,0,0-4.731,13.288c-.509,1.72-.249,2.357,1.483,2.921,3.466,1.129,6.952,2.2,10.422,3.317,5.27,1.693,10.511,3.485,15.81,5.083,5.758,1.736,11.562,3.317,17.362,4.9A9.918,9.918,0,0,0,87.509,44.309ZM7.373,53a6.828,6.828,0,0,0,4.743,1.429c3.181-.134,6.359-.321,9.54-.44,8.714-.331,17.425-.8,26.142-.9a221.328,221.328,0,0,0,22.239-1.356c2.44-.275,4.873-.6,7.648-.94-.554-.424-.785-.731-1.076-.8-1.714-.428-3.431-.866-5.167-1.181-4.061-.739-8.148-1.337-12.2-2.125-4.5-.878-8.927-2.164-13.508-2.67-5.264-.581-10.359-2.334-15.716-2.312a2.219,2.219,0,0,1-1.028-.225c-1.843-1.009-3.351-.228-4.944.717-2.736,1.619-5.592,3.036-8.327,4.657-2.429,1.439-4.784,3.007-7.12,4.593A6.616,6.616,0,0,0,7.373,53Zm55.7,3.748-.093-.374c-3.407.077-6.814.18-10.221.219-2.475.028-4.951-.071-7.426-.04-3.532.044-7.046.765-10.593.27a1.129,1.129,0,0,0-.693.052c-.465.307-1.189.637-1.259,1.05-.267,1.578-.786,3.169-.455,4.825a6.636,6.636,0,0,0,4.3.163c4.044-.793,8.086-1.6,12.106-2.5,4.37-.987,8.716-2.088,13.068-3.156A9.659,9.659,0,0,0,63.076,56.748ZM37.785,38.359a16.843,16.843,0,0,0,6.454,1.956c6.284.888,12.532,1.946,18.725,3.33a9.456,9.456,0,0,0,1.966.018c-.2-1.1-1-1.175-1.628-1.39-3-1.028-6.013-1.987-9.01-3.013q-5.828-2-11.637-4.06C39.623,34.126,38.471,34.336,37.785,38.359Z" transform="translate(0 0)" fill="#fff"/>
    </g>
    <g id="Group_870" data-name="Group 870" transform="translate(288.687 1430.634) rotate(-71)">
      <path id="Path_1429" data-name="Path 1429" d="M12.58,13.937a2.175,2.175,0,0,0,.726-2.494,8.8,8.8,0,0,0-1.413-2.38C10.469,7.494,8.922,6.038,7.426,4.538l.018-.02C6.135,3.205,4.841,1.875,3.509.584A2.012,2.012,0,0,0,.127,1.643,2.839,2.839,0,0,0,.872,4.58q4.735,4.56,9.547,9.039A1.628,1.628,0,0,0,12.58,13.937Z" transform="translate(39.719 134.654)" fill="#fff"/>
      <path id="Path_1430" data-name="Path 1430" d="M10.936,10.763q-2.78-3.633-5.6-7.232C4.6,2.6,3.819,1.692,3.029.8A1.75,1.75,0,0,0,.917.147C.058.53-.009,1.4,0,2.179A3.614,3.614,0,0,0,.417,3.684c1.86,3.723,4.6,6.806,7.364,9.848A5.585,5.585,0,0,0,12.091,15.2C12.3,12.8,12.221,12.442,10.936,10.763Z" transform="translate(19.95 112.834)" fill="#fff"/>
      <path id="Path_1431" data-name="Path 1431" d="M1.818.223A3.607,3.607,0,0,0,.3,1.9,8.665,8.665,0,0,0,0,4.288c-.007,3.927,1.261,7.178,2.466,10.42a2.716,2.716,0,0,0,1.828,1.3,2.025,2.025,0,0,0,2.233-1.336,3.357,3.357,0,0,0,.1-1.913C6.136,10.7,5.465,8.675,4.99,6.609,4.6,4.934,4.384,3.22,4.122,1.517A1.535,1.535,0,0,0,1.818.223Z" transform="translate(1.463 67.466)" fill="#fff"/>
      <path id="Path_1432" data-name="Path 1432" d="M12.05,8.062c-.7-.8-1.493-1.52-2.245-2.275-.4-.357-.773-.738-1.193-1.063C6.718,3.259,4.861,1.739,2.891.381,1.574-.526.191.273.021,1.856a3.133,3.133,0,0,0,1.53,3.033c1.832,1.321,3.626,2.7,5.468,4a29.1,29.1,0,0,0,3.03,1.907,1.784,1.784,0,0,0,2.225-.151A2.14,2.14,0,0,0,12.05,8.062Z" transform="translate(59.734 154.929)" fill="#fff"/>
      <path id="Path_1433" data-name="Path 1433" d="M.89,9.992a2.356,2.356,0,0,0,2.968-.164C7.039,7.225,10.2,4.6,13.329,2.016,12.178-.1,11.97-.232,10.678.2,6.478,1.6,3.429,4.626.359,7.6A1.592,1.592,0,0,0,.89,9.992Z" transform="translate(13.503 0)" fill="#fff"/>
      <path id="Path_1434" data-name="Path 1434" d="M1.684.029A1.825,1.825,0,0,0,.062,1.564,5.86,5.86,0,0,0,.022,2.914a20.989,20.989,0,0,0,2.938,8.479,2.112,2.112,0,0,0,2.791.849,2.348,2.348,0,0,0,1.32-2.625,13.469,13.469,0,0,0-.761-1.838C5.384,5.57,4.446,3.367,3.54,1.151A1.579,1.579,0,0,0,1.684.029Z" transform="translate(9.92 92.718)" fill="#fff"/>
      <path id="Path_1435" data-name="Path 1435" d="M10.009,4.391C8.151,3.268,5.784,1.811,3.39.4A2.057,2.057,0,0,0,.548.755,2.271,2.271,0,0,0,.527,3.69,3.989,3.989,0,0,0,1.656,4.783C3.621,5.879,5.6,6.947,7.62,7.945a3.8,3.8,0,0,0,1.92.388c.6-.054,1.526-.338,1.662-.742a4.613,4.613,0,0,0-.219-2.2C10.938,5.178,10.632,5.015,10.009,4.391Z" transform="translate(80.437 172.268)" fill="#fff"/>
      <path id="Path_1436" data-name="Path 1436" d="M3.359,11.1A3.913,3.913,0,0,0,4.369,9.076c.1-2.879.511-5.8-.584-8.88C.652-.288.289-.02.208,2.663.137,5.032.051,7.4,0,9.768a1.953,1.953,0,0,0,1.216,1.882A1.725,1.725,0,0,0,3.359,11.1Z" transform="translate(0 42.832)" fill="#fff"/>
      <path id="Path_1437" data-name="Path 1437" d="M.849,9.937a2.356,2.356,0,0,0,3.266-.147A5.169,5.169,0,0,0,5.14,8.129C6,5.9,6.8,3.638,7.692,1.18,5.57-.3,4.979-.387,4.159.905,2.733,3.152,1.433,5.482.172,7.826A1.662,1.662,0,0,0,.849,9.937Z" transform="translate(1.769 18.419)" fill="#fff"/>
    </g>
    <path id="Path_1438" data-name="Path 1438" d="M-3229.977,381.563c-4.614-.17-9.234-.877-14.006.305-.043.557-.118,1.066-.117,1.575.01,3.082-2.09,5.1-5.053,4.766a8.035,8.035,0,0,1-4.6-1.787,3.235,3.235,0,0,1-1.233-3.081,6.984,6.984,0,0,1,3.916-5.118,2.814,2.814,0,0,1,1.806-.029,25.064,25.064,0,0,0,9.441.119,9.353,9.353,0,0,1,2.881.035c3.715.621,7.373.082,11.026-.483,1.427-.221,2.677-2.465,2.34-3.966a3.589,3.589,0,0,0-3.44-3.109c-1.309-.1-2.633-.023-3.951-.033-2.9-.023-5.81.092-8.7-.115a67.863,67.863,0,0,0-9.482.283c-2.418.162-2.721-.046-3.116-2.447-.482-2.924-1-5.844-1.492-8.767-.089-.532-.122-1.073-.178-1.61-.273-2.6-.552-5.19-.815-7.786-.081-.806-.161-1.615-.176-2.425-.032-1.7.676-2.353,2.264-1.912a17.4,17.4,0,0,0,4.967.45c3.952-.051,7.9.064,11.854-.025,3.072-.069,6.139-.342,9.208-.53,1.227-.076,2.454-.165,3.681-.253.965-.068,1.938-.089,2.894-.227a2.628,2.628,0,0,0,2.574-2.593c.131-.789.133-1.6.184-2.3a1.72,1.72,0,0,1,2.223-.6,16.062,16.062,0,0,0,6.923,1.383,35.057,35.057,0,0,1,4.444.537c.271.044.7.472.681.679-.044.384-.3.965-.587,1.057a8.6,8.6,0,0,1-2.323.337c-1.847.057-3.7-.009-5.542.08-1.88.09-2.362.5-2.75,2.276q-2.189,10.012-4.312,20.04a16.944,16.944,0,0,0-.172,2.663,4.925,4.925,0,0,1-.018,1.068c-.494,1.716-1.047,3.415-1.554,5.127-.456,1.548-.906,3.1-1.3,4.661a2.378,2.378,0,0,0,.537,2.258,6.208,6.208,0,0,1,1.162,1.792c.919,2.478.392,4.482-2.4,5.2a5.673,5.673,0,0,1-5.265-.928A5.124,5.124,0,0,1-3229.77,383a4.989,4.989,0,0,0,.051-.8A3.5,3.5,0,0,0-3229.977,381.563Zm9.881-33.256c-2.688-.4-5.186.143-7.694.406a1.238,1.238,0,0,0-1.094,1.013,9.456,9.456,0,0,0-.236,1.587c-.067,1.164.545,1.981,1.644,1.966,2-.026,4.007-.162,6.006-.31a3.752,3.752,0,0,0,1.115-.451C-3219.752,350.154-3219.752,350.154-3220.1,348.307Zm-14.622,14.294c-1.985-.874-2.577-.942-5.143-.61a1.911,1.911,0,0,0-1.943,2.064,3.829,3.829,0,0,0,.8,2.507,2.031,2.031,0,0,0,1.227.849,29.776,29.776,0,0,0,3.934.212,1.306,1.306,0,0,0,1.37-1.353C-3234.442,365.038-3234.122,363.763-3234.718,362.6Zm11.265,1.215a3.857,3.857,0,0,0-2.619-1.074c-.871-.083-1.742-.17-2.613-.266-1.811-.2-2.326.169-2.7,2.034a7.445,7.445,0,0,0-.132,1.6,1.213,1.213,0,0,0,1.314,1.343c1.575-.029,3.151-.11,4.722-.23a7.733,7.733,0,0,0,1.483-.415c.179-.69.36-1.286.483-1.895A7.548,7.548,0,0,0-3223.452,363.816Zm-1.562-8.082c-1.376,0-2.254-.053-3.122.012-1.3.1-1.838.72-1.914,2.065a1.887,1.887,0,0,0,1.93,2.074c1.565.117,3.136.158,4.705.188a1.585,1.585,0,0,0,1.62-1.123,11.5,11.5,0,0,0,.453-1.538,1.182,1.182,0,0,0-1.037-1.542C-3223.42,355.758-3224.47,355.759-3225.014,355.734Zm-18.22-3.464c.176-.236.264-.3.276-.376.355-2.126.132-2.483-1.771-2.573-1.656-.077-3.314-.095-4.972-.082a10.866,10.866,0,0,0-1.7.266c-.443,1.672-.443,1.673.144,3.2,1.622.066,3.261.161,4.9.192A7.775,7.775,0,0,0-3243.234,352.27Zm-1.33,14.892a8.658,8.658,0,0,0-.9-5.156c-1.174-.082-2.3-.2-3.422-.225a1.023,1.023,0,0,0-1.156,1.15c.12,1.574.151,3.195,1.3,4.66C-3247.4,367.306-3246,367.936-3244.564,367.162Zm8.94-18.208v.255c-.877,0-1.758-.05-2.631.011-1.3.092-1.81.71-1.847,2.114-.028,1.065.512,1.774,1.555,1.76,1.666-.025,3.333-.169,5-.3a1.233,1.233,0,0,0,1.121-.994,8.39,8.39,0,0,0,.245-1.59,1.058,1.058,0,0,0-1.07-1.25C-3234.045,348.927-3234.836,348.954-3235.625,348.954Zm2.112,7.163a9.222,9.222,0,0,0-4.6-.727c-1.9.05-2.62.833-2.8,2.842-.1,1.154.479,1.568,1.745,1.275a4.6,4.6,0,0,1,1-.077c.966,0,1.934.047,2.9,0,1.23-.056,1.681-.513,1.835-1.832A9.1,9.1,0,0,0-3233.512,356.117Zm-11.023,3.085a3.362,3.362,0,0,0,.776-2.525,1.14,1.14,0,0,0-1.131-1.242,16.625,16.625,0,0,0-5.972.21c-.529,2.433-.261,2.907,1.821,3.15C-3247.566,358.966-3246.081,359.064-3244.536,359.2Zm-4.606,26.4c1.04-.046,1.649-.135,1.947-.818a1.607,1.607,0,0,0-.289-1.76,3.593,3.593,0,0,0-3.321-1.2,1.407,1.407,0,0,0-1.173,1.3,1.8,1.8,0,0,0,.623,1.359A14.817,14.817,0,0,0-3249.142,385.6Zm25.287.987a1.136,1.136,0,0,0,.489-.012c.364-.18.882-.347,1-.655a1.371,1.371,0,0,0-.239-1.215,14.276,14.276,0,0,0-2.336-1.677,1.254,1.254,0,0,0-1.632.45,1.536,1.536,0,0,0,0,1.762A2.807,2.807,0,0,0-3223.854,386.588Z" transform="translate(3405.031 858.037)" fill="#fff"/>
    <path id="Path_1439" data-name="Path 1439" d="M.024,4c.408,1.159,1.44,1.29,2.419,1.239,2.246-.116,4.5-.244,6.721-.56a92.3,92.3,0,0,1,14.3-1.141c5.682.072,10.663,2.226,16.058,4.511-.657.835-.979,1.626-1.58,1.94A14.505,14.505,0,0,0,32.5,14.3a8.381,8.381,0,0,0-.792,9.1,3.89,3.89,0,0,0,1.321,1.53,16.669,16.669,0,0,0,12.2,1.887.961.961,0,0,0,.4-.123c3.244-2.512,6.917-4.754,7.3-9.253a14.259,14.259,0,0,0-.464-3.539c-.134-.756-.371-1.5-.629-2.512a8.031,8.031,0,0,1,2.225-.181c3.839.9,7.833,1.492,11.422,2.967,3.049,1.254,5.666,3.51,8.383,5.441a11.806,11.806,0,0,1,1.973,2.254,2.912,2.912,0,0,1-2.352,2.4,17.97,17.97,0,0,0-6.373,4.47c-2.562,2.452-2.52,5.5-1.728,8.606A3.794,3.794,0,0,0,66.5,39.031c5.8,5.4,13.493,3.5,16.191-2.2a15.394,15.394,0,0,0,1.554-7.392c-.038-.777-.015-1.556-.021-2.607a9.087,9.087,0,0,1,2.084-.144,20.1,20.1,0,0,1,9.229,3.8c3.159,2.48,6.516,4.69,9.426,7.5a47.464,47.464,0,0,1,7.608,9.641c1.5,2.477,2.1,5.166,2.833,7.976a39.628,39.628,0,0,1-8.154,1.685,14.21,14.21,0,0,0-3.259.7c-1.656.627-1.915,2.294-.669,3.593,1.524,1.585,3.192,3.063,4.563,4.757a163.99,163.99,0,0,0,11.246,12.075,24.054,24.054,0,0,0,4.26,3.3,2.265,2.265,0,0,0,3.425-1.171,18.214,18.214,0,0,0,.71-2.709A12.647,12.647,0,0,1,131.21,70.8c3.369-3.048,4.858-7.074,6.44-11.058a4.417,4.417,0,0,0,.252-1.165,1.738,1.738,0,0,0-1.627-1.99c-3.687.265-7.274-.758-10.935-.764-1.241,0-2.482-.174-3.783-.274-.63-1.7-1.292-3.176-1.719-4.706-1.412-5.069-4.629-9.128-8.082-13.065a33.087,33.087,0,0,0-8.448-7.273,30.165,30.165,0,0,1-3.689-2.715,19.888,19.888,0,0,0-9.861-4.383c-1.955-.26-3.882-.754-5.841-.96a4.114,4.114,0,0,1-3.131-1.789c-2.452-3.392-6.053-5.635-9.436-8.009a24.41,24.41,0,0,0-6.91-2.977c-4.4-1.337-8.726-3.048-13.542-2.552A13.426,13.426,0,0,1,42.79,5.23,47.7,47.7,0,0,0,32.6,1.315,30.984,30.984,0,0,0,20.469.334C14.731.924,8.983,1.434,3.237,1.96,1.744,2.1.472,2.474.024,4ZM121.91,72.872a3.448,3.448,0,0,1-1.029-.489q-4.283-4.186-8.5-8.431a1.694,1.694,0,0,1-.413-2.366,19.981,19.981,0,0,1,2.209-.424c2.66-.239,5.324-.455,7.99-.613,1.684-.1,3.38-.146,5.065-.088a3.4,3.4,0,0,1,3.073,1.51,6.859,6.859,0,0,1-.754,2.023c-2.212,2.879-4.515,5.7-6.808,8.517C122.6,72.69,122.258,72.727,121.91,72.872ZM41.249,23.7c-3.123-.034-5.324-.968-5.736-2.329a5.189,5.189,0,0,1,1.4-5.135,6.516,6.516,0,0,1,1.54-1.317,29.757,29.757,0,0,1,4-2.093c3.088-1.219,4.68-.42,5.669,2.622a4.877,4.877,0,0,1-.317,3.857A7.343,7.343,0,0,1,41.249,23.7Zm37,3.844c1.935,3.362.939,6.228-.69,8.909-1.211,1.992-4.7,2.355-6.756.95-1.7-1.156-1.914-3.273-.373-5.335A10.281,10.281,0,0,1,78.244,27.545Z" transform="matrix(0.995, -0.105, 0.105, 0.995, 36.261, 1116.36)" fill="#fff"/>
    <g id="Group_877" data-name="Group 877" transform="matrix(0.996, -0.087, 0.087, 0.996, 929.999, 1077.684)">
      <g id="Group_877-2" data-name="Group 877" transform="translate(79.047 20.864) rotate(-16)">
        <path id="Path_1468" data-name="Path 1468" d="M0,17.169a20.624,20.624,0,0,1,.587,2.41,4.906,4.906,0,0,0,1.919,3.387c3.5,2.826,6.954,5.7,10.469,8.5,1.994,1.587,4.059,3.084,6.115,4.589a66.2,66.2,0,0,0,13.04,7.208A27.794,27.794,0,0,0,45.3,45.418c3.984-.285,7.6-1.625,10.284-4.818,2.582-3.079,3.3-6.406,1.407-10.124a19.408,19.408,0,0,0-6.039-7.19c-3.864-2.744-7.792-5.4-11.615-8.194C36.2,12.8,33.242,10.261,30.085,8,26.644,5.53,23.331,2.815,19.263,1.356,13.864-.581,14.253-.752,9.389,2.9A12.388,12.388,0,0,0,4.824,8.886,23.734,23.734,0,0,1,2.66,13.1C1.863,14.454.942,15.739,0,17.169ZM42.532,41.878c-4.7-.07-8.628-1.69-12.45-3.619a84.318,84.318,0,0,1-8.667-5.4C16.03,29.269,11.2,24.988,6.223,20.888c-1.452-1.2-1.679-2.26-.82-3.862,1.613-3,3.281-5.98,5.053-8.891A12.02,12.02,0,0,1,12.9,5.453a3.437,3.437,0,0,1,3.767-.594,14.5,14.5,0,0,1,2.3,1.1C22.041,7.936,25.2,9.8,28.1,12.008c6.3,4.8,12.6,9.574,19.3,13.813a18.415,18.415,0,0,1,6.045,6.74,4.521,4.521,0,0,1-.578,5.452,8.853,8.853,0,0,1-2.852,2.207A15.829,15.829,0,0,1,42.532,41.878Z" transform="translate(17.632 10.373)" fill="#fff"/>
        <path id="Path_1469" data-name="Path 1469" d="M0,12.9c.178,3.524,1.411,6.17,3.932,7.885a51.894,51.894,0,0,0,6.789,3.466,2.919,2.919,0,0,0,3.623-.779c1.87-1.9,3.849-3.7,5.687-5.635,1.925-2.023,3.745-4.146,5.6-6.24a10.317,10.317,0,0,0,1.329-1.725,2.954,2.954,0,0,0-.992-4.135c-1.635-1.043-3.472-1.788-5.049-2.905C18.32.986,15.359.45,12.343.066A6.318,6.318,0,0,0,9.483.288,53.75,53.75,0,0,0,3.818,2.776,4.661,4.661,0,0,0,1.235,6.129C.765,8.51.361,10.9,0,12.9Zm11.444,7.114c-1.676-.829-3.224-1.518-4.693-2.346a4.988,4.988,0,0,1-2.68-3.3A12.638,12.638,0,0,1,5.437,6.6a2.186,2.186,0,0,1,.739-.791,9.79,9.79,0,0,1,5.74-2.088,12.267,12.267,0,0,1,9.645,5.306A65.316,65.316,0,0,1,11.444,20.009Z" transform="translate(0 0)" fill="#fff"/>
      </g>
      <g id="Group_879" data-name="Group 879" transform="translate(-65.545 9.143) rotate(-43)">
        <path id="Path_1472" data-name="Path 1472" d="M39.494,48.179c1.683,0,3.515-.125,5.32.044a4.753,4.753,0,0,0,3.1-.727,10.891,10.891,0,0,0,5.619-8.462,17,17,0,0,0-3-12.084,60.113,60.113,0,0,0-8.859-9.65c-1.978-1.8-4.016-3.532-6.074-5.239a28.412,28.412,0,0,0-3.524-2.587C27.491,6.748,23.123,3.608,17.983,1.9A7.446,7.446,0,0,1,16.073.878,4.222,4.222,0,0,0,11.312.6,6.14,6.14,0,0,0,7.682,4.367a16.428,16.428,0,0,1-5.043,7.467c-.367.319-.712.665-1.046,1.018-2.168,2.294-2.128,3.177.148,5.394a7.543,7.543,0,0,1,1.643,1.925C5.1,23.74,7.862,26.5,10.373,29.46c2.039,2.405,4.053,4.835,6,7.316a47.935,47.935,0,0,0,10.919,10.1,10.952,10.952,0,0,0,6.972,1.658C35.961,48.437,37.658,48.306,39.494,48.179ZM6.17,15.53c.59-.675,1.125-1.326,1.7-1.937,1.752-1.864,3.824-3.513,5.195-5.621C14.518,5.737,16.1,5.49,18.283,6.328a13.347,13.347,0,0,1,1.738.543c3.937,2.186,8.075,4.071,11.572,6.947,3.288,2.7,6.478,5.548,9.53,8.519a55.322,55.322,0,0,1,5.731,6.611c2.553,3.431,2.9,7.438,2.164,11.508a5.121,5.121,0,0,1-4.839,4.289c-3.149.21-6.309.245-9.464.372a12.193,12.193,0,0,1-7.8-2.614,38.733,38.733,0,0,1-7.574-7.368c-3.039-3.8-6.088-7.6-9.072-11.45A23.251,23.251,0,0,1,6.17,15.53Z" transform="translate(18.296 12.959)" fill="#fff"/>
        <path id="Path_1473" data-name="Path 1473" d="M.129,13.932c0,.971.011,1.943,0,2.916a4.392,4.392,0,0,0,2.724,4.368c2.109.919,4.321,1.61,6.5,2.367a1.873,1.873,0,0,0,1.078.052c2.652-.8,5.5-1.236,7.261-3.766,2.079-2.988,4.178-5.96,6.242-8.955A4.688,4.688,0,0,0,24.5,9.582a1.949,1.949,0,0,0-.671-2.291C19.47,4.151,14.873,1.472,9.58.19A5.794,5.794,0,0,0,4.158,1.542a10.363,10.363,0,0,0-3.5,6.231C.3,9.8.209,11.865,0,13.916Zm10.7,6.745c-1.675-.61-3.163-1.085-4.594-1.69a3.668,3.668,0,0,1-2.283-3.428,28.225,28.225,0,0,1,.889-8.29A5.8,5.8,0,0,1,6.076,5.081a3.19,3.19,0,0,1,4.2-1.017q2.986,1.34,5.88,2.878a4.847,4.847,0,0,1,2.908,3.446C17.152,14.092,14.07,17.15,10.828,20.677Z" transform="translate(0 0)" fill="#fff"/>
      </g>
      <g id="Group_882" data-name="Group 882" transform="matrix(0.985, -0.174, 0.174, 0.985, 10.585, 51.038)">
        <path id="Path_1474" data-name="Path 1474" d="M32.167,35.624c3.606-.011,6.26-.621,8.6-2.165a66.033,66.033,0,0,0,5.5-4.039A13.908,13.908,0,0,0,50.9,22.011a9.187,9.187,0,0,0-4.554-10.748A22.9,22.9,0,0,0,38.523,9c-4.27-.66-8.553-1.26-12.849-1.726A12.067,12.067,0,0,1,19.24,4.393C17.829,3.248,16.365,2.163,15,.961A3.555,3.555,0,0,0,10.88.417a7.233,7.233,0,0,0-3.5,3.13C6.341,5.44,5.215,7.284,4.132,9.153A6.651,6.651,0,0,1,1.181,12.32c-1.2.543-1.438,1.656-.927,2.922a11.82,11.82,0,0,0,1.478,2.665,26.285,26.285,0,0,0,5.418,5.639c2.652,1.944,4.983,4.3,7.879,5.951a60.862,60.862,0,0,0,12.9,5.349A32.152,32.152,0,0,0,32.167,35.624ZM5.07,15.174c.442-.8.976-1.789,1.526-2.765,1.061-1.88,2.238-3.7,3.173-5.643C11.1,4,12.037,3.342,14.826,5.943c.166.154.278.369.454.509,2.213,1.755,4.369,3.459,7.348,3.981,2.689.47,5.363.931,8.083,1.187A53.329,53.329,0,0,1,42.065,13.81a7.467,7.467,0,0,1,4.466,3.456,4.611,4.611,0,0,1,.579,4.243c-1.073,2.377-2.187,4.772-4.567,6.226-1.163.711-2.28,1.5-3.419,2.251a11.65,11.65,0,0,1-7.488,1.729c-4.667-.323-8.767-2.42-12.836-4.337A40.944,40.944,0,0,1,7.228,18.512,6.9,6.9,0,0,1,5.07,15.174Z" transform="translate(14.2 10.644)" fill="#fff"/>
        <path id="Path_1475" data-name="Path 1475" d="M22.776,5.336A31.04,31.04,0,0,0,14.233,1.2C12.618.677,10.9.477,9.232.1a3.872,3.872,0,0,0-3.486.906A13.292,13.292,0,0,0,.578,10.284C.427,11.87.319,13.465.058,15.034a3.6,3.6,0,0,0,1.479,3.577A16.984,16.984,0,0,0,8.58,21.9a3.622,3.622,0,0,0,3.9-1.549,12.376,12.376,0,0,0,.864-1.471,32.279,32.279,0,0,1,5.062-6.84,40.807,40.807,0,0,0,3.4-4.257A11.822,11.822,0,0,0,22.776,5.336ZM9.254,3.758c2.178.626,4.868.735,7.1,2.308a1.67,1.67,0,0,1,.5,2.627,5.874,5.874,0,0,1-.625.813c-2.162,2.333-4.435,4.575-6,7.392a1.434,1.434,0,0,1-.217.264,2.022,2.022,0,0,1-2.457.614c-.737-.305-1.509-.533-2.213-.9a2.624,2.624,0,0,1-1.6-2.771,56.215,56.215,0,0,1,1.1-6.378A8.7,8.7,0,0,1,6.515,4.8,2.831,2.831,0,0,1,9.254,3.758Z" transform="translate(0 0)" fill="#fff"/>
      </g>
    </g>
  </g>
</svg>
