<svg id="_3_Steps_Condensed_Module_Mobile" data-name="3 Steps Condensed Module Mobile" xmlns="http://www.w3.org/2000/svg" width="404.408" height="679.811" viewBox="0 0 404.408 679.811">
  <g id="Group_883" data-name="Group 883" transform="translate(386.105 356.545) rotate(56)">
    <g id="Group_872" data-name="Group 872" transform="translate(0.318 42.421)">
      <path id="Path_1446" data-name="Path 1446" d="M10.694,37.517c-.667.362-1.239.616-1.75.96-1.631,1.094-1.866,2.187-.871,3.844.242.4.515.792.729,1.21.96,1.877,2.882,2.128,4.168.492a9.9,9.9,0,0,0,.91-1.675c.141-.277.249-.572.429-.993.855-.095,1.712-.238,2.574-.274,1.672-.069,3.349-.045,5.021-.119a7.16,7.16,0,0,0,5.649-2.681c.246-.313.513-.612.788-.9,3.033-3.18,2.929-7.215,1.122-10.647a22.832,22.832,0,0,0-3.056-4.262c-1.622-1.862-3.412-3.577-5.119-5.365a13.657,13.657,0,0,1-1.074-1.278,4.824,4.824,0,0,1-.977-3.6,19.038,19.038,0,0,1,.237-1.9,9.925,9.925,0,0,0-.2-4.25,7.549,7.549,0,0,0-3.149-4.639A6.1,6.1,0,0,0,9.37.695a13.4,13.4,0,0,0-4.03,2.95C4.149,4.933,3.022,6.282,1.906,7.637a8.178,8.178,0,0,0-1.9,5.76,25.482,25.482,0,0,0,2.2,9.965A53.555,53.555,0,0,0,9.868,36,8.429,8.429,0,0,1,10.694,37.517ZM3.3,9.667c.245-.367.443-.719.694-1.027C4.9,7.528,5.772,6.372,6.77,5.344a18.881,18.881,0,0,1,2.9-2.476,3.567,3.567,0,0,1,3.868-.2A7.147,7.147,0,0,1,17.3,10.308c-.1.63-.288,1.245-.408,1.873a6.561,6.561,0,0,0,1.619,5.775c.157.181.326.352.495.522,1.349,1.361,2.681,2.738,4.053,4.076a25.111,25.111,0,0,1,4.219,5.5,5.831,5.831,0,0,1,.994,3.394,9.291,9.291,0,0,1-3.388,6.381,2.846,2.846,0,0,1-1.708.752c-1.734-.017-3.47-.19-5.2-.376a2.391,2.391,0,0,1-1.01-.61,5.655,5.655,0,0,0-3.245-1.4,2.206,2.206,0,0,1-1.595-.961c-1.061-1.3-2.134-2.587-3.124-3.938a55.627,55.627,0,0,1-4.48-8.188A21.308,21.308,0,0,1,2.46,13.831,11.277,11.277,0,0,1,3.3,9.667ZM9.912,42.889c-.022-.691-.076-1.314-.038-1.931.01-.165.275-.389.467-.45A.819.819,0,0,1,11,40.6a1.979,1.979,0,0,1,.7,2.118.888.888,0,0,1-.673.511A3.794,3.794,0,0,1,9.912,42.889Z" transform="translate(0 0)" fill="#fff"/>
      <path id="Path_1447" data-name="Path 1447" d="M7.243,4.99A3.384,3.384,0,0,0,4.719.1a4.424,4.424,0,0,0-3.792.912,2.185,2.185,0,0,0-.8,2.543A5.419,5.419,0,0,0,1.947,6.283,3.272,3.272,0,0,0,7.243,4.99ZM3.56,4.5a2.435,2.435,0,0,1-.72-.641,1.514,1.514,0,0,1-.1-1.087A.924.924,0,0,1,3.5,2.344a2.837,2.837,0,0,1,1.317.344,1.207,1.207,0,0,1,.145,1.7C4.689,4.812,4.239,4.89,3.56,4.5Z" transform="translate(25.542 42.024)" fill="#fff"/>
      <path id="Path_1448" data-name="Path 1448" d="M1.641,5.851A4.613,4.613,0,0,0,5.81,5.792,2.763,2.763,0,0,0,7.546,2.707a2.208,2.208,0,0,0-.412-1.1C5.628-.1,2.658-.819.86,1.334A3.76,3.76,0,0,0,0,3.993,1.757,1.757,0,0,0,.478,5.032,6.65,6.65,0,0,0,1.641,5.851ZM4.8,3.068c-.52.537-1.19.511-1.461.108a.632.632,0,0,1,.059-.61c.351-.308.739-.155,1.06.108A2.3,2.3,0,0,1,4.8,3.068Z" transform="translate(34.385 27.372)" fill="#fff"/>
      <path id="Path_1449" data-name="Path 1449" d="M4.708.643C2.938-.274,2.054-.185.98.747a2.667,2.667,0,0,0-.751,3.22A5.265,5.265,0,0,0,2.31,6.506a2.257,2.257,0,0,0,1.11.348A3.4,3.4,0,0,0,6.514,5.383a2.319,2.319,0,0,0,.028-2.889A20.97,20.97,0,0,0,4.708.643ZM4.061,3.889C3.634,3.68,3.252,3.517,2.9,3.3c-.077-.047-.1-.3-.047-.411a.424.424,0,0,1,.335-.218C3.762,2.762,4.239,2.968,4.061,3.889Z" transform="translate(32.742 36.66)" fill="#fff"/>
      <path id="Path_1450" data-name="Path 1450" d="M4.359.666C4.073.526,3.793.373,3.5.248A2.172,2.172,0,0,0,.872.7,2.435,2.435,0,0,0,.207,3.518C.633,4.544.93,5.626,2.138,6.1c.283.112.424.6.622.914a1.361,1.361,0,0,0,1.987.627,4.06,4.06,0,0,0,2.206-4.13,4.158,4.158,0,0,0-1-1.828A7.508,7.508,0,0,0,4.4.6Zm-.268,4.74c-.469-.522-.942-1.032-1.394-1.56-.272-.318-.489-.728-.117-1.053a1.092,1.092,0,0,1,.881-.084A1.588,1.588,0,0,1,4.7,3.728,1.38,1.38,0,0,1,4.091,5.406Z" transform="translate(16.295 42.202)" fill="#fff"/>
    </g>
    <g id="Group_873" data-name="Group 873" transform="translate(31.185 135.36) rotate(59)">
      <path id="Path_1451" data-name="Path 1451" d="M14.895,37.3c-.594.47-1.114.819-1.559,1.246-1.417,1.359-1.46,2.476-.2,3.937.308.356.644.691.927,1.066,1.269,1.684,3.205,1.6,4.191-.232a9.952,9.952,0,0,0,.607-1.807c.092-.3.147-.606.252-1.052.826-.24,1.645-.53,2.488-.713,1.636-.356,3.291-.621,4.926-.981a7.163,7.163,0,0,0,5.1-3.614c.188-.351.4-.691.62-1.023,2.44-3.655,1.644-7.612-.727-10.681a22.876,22.876,0,0,0-3.744-3.673c-1.918-1.555-3.977-2.936-5.966-4.4a13.605,13.605,0,0,1-1.277-1.073,4.821,4.821,0,0,1-1.583-3.381c-.03-.637-.128-1.278-.094-1.912a9.916,9.916,0,0,0-.931-4.151,7.55,7.55,0,0,0-3.9-4.028,6.1,6.1,0,0,0-6.778.431,13.392,13.392,0,0,0-3.463,3.6c-.951,1.474-1.829,3-2.7,4.523a8.182,8.182,0,0,0-.878,6A25.513,25.513,0,0,0,4.1,24.815,53.548,53.548,0,0,0,13.821,35.95,8.441,8.441,0,0,1,14.895,37.3ZM2.818,11.136c.179-.4.312-.784.507-1.13.7-1.253,1.361-2.54,2.167-3.725A18.819,18.819,0,0,1,7.927,3.342,3.564,3.564,0,0,1,11.7,2.483a7.147,7.147,0,0,1,5.016,6.876c.007.637-.07,1.276-.08,1.914a6.562,6.562,0,0,0,2.589,5.411c.186.151.382.29.577.429,1.563,1.108,3.113,2.236,4.694,3.317a25.176,25.176,0,0,1,5.1,4.689,5.842,5.842,0,0,1,1.563,3.173,9.293,9.293,0,0,1-2.239,6.868,2.848,2.848,0,0,1-1.553,1.035c-1.711.282-3.451.41-5.184.524a2.388,2.388,0,0,1-1.1-.427,5.646,5.646,0,0,0-3.437-.819,2.2,2.2,0,0,1-1.736-.673c-1.269-1.094-2.548-2.181-3.756-3.341a55.549,55.549,0,0,1-5.822-7.295,21.285,21.285,0,0,1-3.63-8.781A11.262,11.262,0,0,1,2.818,11.136ZM15.05,42.724c-.141-.676-.3-1.28-.37-1.894-.019-.165.2-.432.382-.524a.823.823,0,0,1,.667-.028,1.981,1.981,0,0,1,1.052,1.967.887.887,0,0,1-.575.619A3.752,3.752,0,0,1,15.05,42.724Z" transform="translate(0 0)" fill="#fff"/>
      <path id="Path_1452" data-name="Path 1452" d="M7.547,4.384A3.384,3.384,0,0,0,4.219,0,4.42,4.42,0,0,0,.641,1.552,2.183,2.183,0,0,0,.3,4.193,5.4,5.4,0,0,0,2.553,6.568,3.271,3.271,0,0,0,7.547,4.384Zm-3.712.149a2.413,2.413,0,0,1-.82-.507,1.521,1.521,0,0,1-.282-1.055.932.932,0,0,1,.668-.55,2.836,2.836,0,0,1,1.356.113A1.207,1.207,0,0,1,5.192,4.18C5,4.647,4.571,4.8,3.835,4.533Z" transform="translate(30.743 38.468)" fill="#fff"/>
      <path id="Path_1453" data-name="Path 1453" d="M2.036,6.174a4.61,4.61,0,0,0,4.1-.776A2.761,2.761,0,0,0,7.312,2.061a2.216,2.216,0,0,0-.595-1.012C4.94-.374,1.89-.571.49,1.859A3.761,3.761,0,0,0,.1,4.626a1.762,1.762,0,0,0,.646.942A6.658,6.658,0,0,0,2.036,6.174ZM4.671,2.888c-.42.619-1.084.709-1.42.359A.628.628,0,0,1,3.2,2.636c.292-.364.7-.28,1.063-.076A2.27,2.27,0,0,1,4.671,2.888Z" transform="translate(37.073 22.535)" fill="#fff"/>
      <path id="Path_1454" data-name="Path 1454" d="M4.318.319c-1.9-.6-2.755-.359-3.653.744a2.668,2.668,0,0,0-.186,3.3A5.268,5.268,0,0,0,2.966,6.508a2.262,2.262,0,0,0,1.152.152,3.4,3.4,0,0,0,2.8-1.983,2.317,2.317,0,0,0-.47-2.85A20.685,20.685,0,0,0,4.318.319ZM4.24,3.628C3.784,3.5,3.38,3.4,3,3.251c-.084-.033-.146-.276-.118-.4a.425.425,0,0,1,.293-.272C3.752,2.569,4.256,2.69,4.24,3.628Z" transform="translate(36.896 32.164)" fill="#fff"/>
      <path id="Path_1455" data-name="Path 1455" d="M4,.352C3.7.263,3.393.161,3.084.089A2.172,2.172,0,0,0,.571.982,2.435,2.435,0,0,0,.4,3.876c.6.938,1.075,1.952,2.346,2.212.3.061.521.513.77.793a1.36,1.36,0,0,0,2.065.275A4.057,4.057,0,0,0,7.046,2.709a4.162,4.162,0,0,0-1.3-1.629,7.566,7.566,0,0,0-1.711-.8Zm.552,4.716C4,4.634,3.447,4.213,2.911,3.771c-.323-.266-.607-.634-.3-1.017a1.091,1.091,0,0,1,.853-.235,1.589,1.589,0,0,1,1.4.791A1.38,1.38,0,0,1,4.553,5.068Z" transform="translate(21.626 40.503)" fill="#fff"/>
    </g>
    <g id="Group_875" data-name="Group 875" transform="translate(56.149 82.796) rotate(14)">
      <path id="Path_1462" data-name="Path 1462" d="M12.271.4C9.706-.469,7.262.183,4.926,1.375A10.4,10.4,0,0,0,.157,7.153a2.662,2.662,0,0,0-.11,1.414c.4,2.145.885,4.26,3.179,5.287.359.16.644.48,1,.663,2.916,1.52,4.032,4.13,4.518,7.2.461,2.918,1.059,5.814,1.593,8.719a19.643,19.643,0,0,0,2.04,4.842,2.074,2.074,0,0,0,.79.878A12.009,12.009,0,0,0,17.8,38.01a32.134,32.134,0,0,0,4.055-.067c2.351-.084,4.239-1.277,6.054-2.6a5.265,5.265,0,0,0,1.689-2.267,21.215,21.215,0,0,0,1.548-9.828C30.8,16.836,28,11.588,23.786,7.006A26.232,26.232,0,0,0,14.421.89,12.612,12.612,0,0,0,12.271.4ZM28.554,29.437c-.1.468-.2.936-.311,1.4a6.691,6.691,0,0,1-2.564,3.927,8.7,8.7,0,0,1-6.807,1.572A6.233,6.233,0,0,1,13.534,31.8a34.53,34.53,0,0,1-1.19-5.117c-.448-2.834-.867-5.682-1.533-8.468a8.541,8.541,0,0,0-5.687-6.547,3.688,3.688,0,0,1-1.354-.945,3.138,3.138,0,0,1-.3-4.516A11.217,11.217,0,0,1,5.753,4.134,6.939,6.939,0,0,1,11.17,2.856,19.145,19.145,0,0,1,21.893,8.681a26.072,26.072,0,0,1,4.716,6.848A20.893,20.893,0,0,1,28.554,29.437Z" transform="translate(0 0)" fill="#fff"/>
      <path id="Path_1463" data-name="Path 1463" d="M2.89,7.579C3.9,7.066,4.909,6.6,5.87,6.053A2.358,2.358,0,0,0,7.051,3.619C7.025,3.3,7,2.982,6.945,2.667,6.6.543,5.313-.329,3.185.111.419.683-.242,2.631.071,5.154A2.146,2.146,0,0,0,1.3,6.829C1.729,7.04,2.164,7.237,2.89,7.579ZM4.756,3.963a1.239,1.239,0,0,1-1.566.986,1.056,1.056,0,0,1-.72-1.281A1.527,1.527,0,0,1,3.976,2.476C4.506,2.543,4.879,3.254,4.756,3.963Z" transform="translate(29.104 34.801)" fill="#fff"/>
      <path id="Path_1464" data-name="Path 1464" d="M6.9,3.949A2.839,2.839,0,0,0,5.879.655,2.4,2.4,0,0,0,3.665.07C3.2.178,2.739.3,2.281.435A3.046,3.046,0,0,0,.071,3.009C-.276,4.84.643,6.6,2.8,6.628c.239,0,.478-.029.716-.022C5.628,6.667,6.34,6.133,6.9,3.949Zm-3.1-1.288a1.06,1.06,0,0,1,.72,1.291,1.018,1.018,0,0,1-1.4.832,1.082,1.082,0,0,1-.778-1.262A1.208,1.208,0,0,1,3.807,2.661Z" transform="translate(21.31 39.574)" fill="#fff"/>
      <path id="Path_1465" data-name="Path 1465" d="M4.121.086A3.9,3.9,0,0,0,.383,1.373a3.364,3.364,0,0,0,.634,3.933,3.8,3.8,0,0,0,4.591.563,2.52,2.52,0,0,0,1.226-2.85A4.049,4.049,0,0,0,4.121.086Zm.028,3.838c-.224.161-.361.335-.457.315A1.1,1.1,0,0,1,2.7,3.366c-.018-.109.139-.355.21-.353a1.566,1.566,0,0,1,.853.166C3.973,3.334,4.034,3.681,4.149,3.924Z" transform="translate(11.664 40.674)" fill="#fff"/>
      <path id="Path_1466" data-name="Path 1466" d="M4.1.1a2.517,2.517,0,0,0-2.61.7A9.891,9.891,0,0,0,.556,1.88,3.179,3.179,0,0,0,1.2,6.159a2.191,2.191,0,0,0,.4.262c1.247.632,2.317.091,3.33-.567A2.847,2.847,0,0,0,6.407,3.086,3.134,3.134,0,0,0,4.1.1ZM3.97,3.5c-.367.249-.582.5-.834.543-.413.072-.78-.563-.554-1.027.106-.216.58-.491.679-.426A3.715,3.715,0,0,1,3.97,3.5Z" transform="translate(34.257 27.3)" fill="#fff"/>
      <path id="Path_1467" data-name="Path 1467" d="M2.478,5.5a10.282,10.282,0,0,0,1.666-.037A2.758,2.758,0,0,0,6.392,2.3a2.569,2.569,0,0,0-2.6-2.29A3.846,3.846,0,0,0,1.51.5C.26,1.243-.126,1.85.035,2.948A2.891,2.891,0,0,0,2.478,5.5Zm1.38-2.4a2.264,2.264,0,0,1-.638.261c-.1,0-.312-.241-.291-.282.085-.171.233-.414.372-.424S3.6,2.873,3.858,3.093Z" transform="translate(4.1 36.174)" fill="#fff"/>
    </g>
  </g>
  <g id="Group_877" data-name="Group 877" transform="translate(595.438 4026.105) rotate(94)">
    <g id="Group_877-2" data-name="Group 877" transform="translate(-3383.627 780.938) rotate(9)">
      <path id="Path_1468" data-name="Path 1468" d="M0,19.876a14.47,14.47,0,0,0,.412-1.691,3.442,3.442,0,0,1,1.346-2.376c2.452-1.983,4.879-4,7.345-5.962,1.4-1.113,2.848-2.163,4.29-3.22A46.448,46.448,0,0,1,22.542,1.57,19.5,19.5,0,0,1,31.783.056,9.885,9.885,0,0,1,39,3.436c1.812,2.16,2.318,4.495.987,7.1a13.616,13.616,0,0,1-4.237,5.044c-2.711,1.925-5.467,3.788-8.149,5.749-2.2,1.609-4.276,3.39-6.491,4.978-2.415,1.731-4.739,3.636-7.593,4.659C9.728,32.329,10,32.449,6.588,29.888a8.691,8.691,0,0,1-3.2-4.2,16.652,16.652,0,0,0-1.518-2.954C1.307,21.781.661,20.879,0,19.876ZM29.841,2.54a19.641,19.641,0,0,0-8.735,2.539,59.158,59.158,0,0,0-6.081,3.787,134.452,134.452,0,0,0-10.659,8.4,1.863,1.863,0,0,0-.575,2.71c1.131,2.107,2.3,4.2,3.545,6.238A8.433,8.433,0,0,0,9.051,28.1a2.412,2.412,0,0,0,2.643.417,10.174,10.174,0,0,0,1.616-.772c2.155-1.387,4.374-2.695,6.409-4.243,4.42-3.364,8.842-6.717,13.541-9.691A12.92,12.92,0,0,0,37.5,9.077a3.172,3.172,0,0,0-.406-3.825,6.211,6.211,0,0,0-2-1.549A11.106,11.106,0,0,0,29.841,2.54Z" transform="translate(12.371)" fill="#fff"/>
      <path id="Path_1469" data-name="Path 1469" d="M0,8.2A6.621,6.621,0,0,1,2.759,2.665,36.409,36.409,0,0,1,7.522.233,2.048,2.048,0,0,1,10.064.78c1.312,1.335,2.7,2.6,3.99,3.954C15.4,6.152,16.681,7.642,17.98,9.111a7.238,7.238,0,0,1,.932,1.211,2.072,2.072,0,0,1-.7,2.9c-1.147.731-2.436,1.254-3.543,2.038A12.716,12.716,0,0,1,8.66,17.2a4.432,4.432,0,0,1-2.006-.156A37.711,37.711,0,0,1,2.679,15.3,3.27,3.27,0,0,1,.866,12.944C.537,11.274.254,9.6,0,8.2ZM8.029,3.206c-1.176.582-2.262,1.065-3.293,1.646A3.5,3.5,0,0,0,2.856,7.17a8.867,8.867,0,0,0,.958,5.444,1.534,1.534,0,0,0,.519.555,6.868,6.868,0,0,0,4.027,1.465,8.606,8.606,0,0,0,6.767-3.723A45.826,45.826,0,0,0,8.029,3.206Z" transform="translate(0 21.955)" fill="#fff"/>
    </g>
    <g id="Group_878" data-name="Group 878" transform="translate(-3355.248 715.232)">
      <path id="Path_1470" data-name="Path 1470" d="M-3346.849,730.769a17.781,17.781,0,0,1,8.742,2.519,8.265,8.265,0,0,1,2.865,3.865c1.473,3.106,1.518,6.116-.917,8.824a29.073,29.073,0,0,1-2.529,2.525c-1.742,1.51-3.528,2.973-5.32,4.424-4.053,3.283-8.2,6.449-13.085,8.414a44.437,44.437,0,0,1-6.1,1.906,7.55,7.55,0,0,1-2.778-.163,2.312,2.312,0,0,1-1.594-1.182,39.721,39.721,0,0,0-5.516-7.353,3.757,3.757,0,0,1-.608-.82,2.253,2.253,0,0,1,.041-2.627,41.108,41.108,0,0,1,7.786-9.1c2.724-2.194,5.384-4.468,8.075-6.7a26.324,26.324,0,0,1,6.406-3.726A11.9,11.9,0,0,1-3346.849,730.769Zm-18.22,29.719a9.892,9.892,0,0,0,1.088.066,18.584,18.584,0,0,0,6.372-1.8,50.143,50.143,0,0,0,11.947-7.866q2.173-1.794,4.3-3.65a25.5,25.5,0,0,0,2.612-2.457,5.509,5.509,0,0,0,1.71-4.41c-.417-2.694-1.718-4.8-4.473-5.73-.648-.218-1.283-.473-1.929-.7a10.255,10.255,0,0,0-8.456.4,28.612,28.612,0,0,0-2.655,1.54,106.905,106.905,0,0,0-10.924,8.9,33.213,33.213,0,0,0-5.294,6.555,4.188,4.188,0,0,0-.373,1.137Z" transform="translate(3385.014 -730.769)" fill="#fff"/>
      <path id="Path_1471" data-name="Path 1471" d="M-3377.312,770.57a5.789,5.789,0,0,1-4.305-2.115,11.062,11.062,0,0,1-2.419-5.815,5,5,0,0,0-.055-1.018,4.606,4.606,0,0,1,.544-3.922,7.645,7.645,0,0,1,3.312-3.089,9.105,9.105,0,0,0,1.6-.794,2.262,2.262,0,0,1,3.03.15c.461.374.919.757,1.341,1.175,1.817,1.8,3.62,3.613,5.426,5.421a7.527,7.527,0,0,1,1.95,3.251,1.343,1.343,0,0,1-.625,1.756c-.418.294-.866.545-1.3.814-1.739,1.072-3.484,2.132-5.216,3.216A6.368,6.368,0,0,1-3377.312,770.57Zm-.115-14.56-2.022,1.109a3.635,3.635,0,0,0-1.927,3.364,9.376,9.376,0,0,0,1.672,5.789,3.172,3.172,0,0,0,4.487.89c1.295-.814,2.576-1.65,3.857-2.486a1.605,1.605,0,0,0,.968-1.625Z" transform="translate(3384.305 -729.205)" fill="#fff"/>
    </g>
    <g id="Group_882" data-name="Group 882" transform="translate(86.515 598.737) rotate(10)">
      <path id="Path_1474" data-name="Path 1474" d="M-3416.384,774.345a10.439,10.439,0,0,1,6.035,1.519,46.287,46.287,0,0,1,3.858,2.834,9.756,9.756,0,0,1,3.249,5.2,6.446,6.446,0,0,1-3.2,7.541,16.069,16.069,0,0,1-5.487,1.586c-3,.463-6,.884-9.015,1.211a8.466,8.466,0,0,0-4.514,2.023c-.99.8-2.017,1.564-2.972,2.408a2.494,2.494,0,0,1-2.893.381,5.074,5.074,0,0,1-2.456-2.2c-.729-1.328-1.519-2.622-2.279-3.933a4.666,4.666,0,0,0-2.07-2.222,1.429,1.429,0,0,1-.651-2.05,8.3,8.3,0,0,1,1.037-1.87,18.443,18.443,0,0,1,3.8-3.956,60.428,60.428,0,0,1,5.528-4.175,42.7,42.7,0,0,1,9.054-3.753A22.558,22.558,0,0,1-3416.384,774.345Zm-19.011,14.348c.31.563.685,1.255,1.071,1.94.744,1.319,1.57,2.6,2.226,3.959.935,1.941,1.591,2.4,3.548.577.116-.108.2-.259.318-.357a11.463,11.463,0,0,1,5.155-2.793c1.887-.33,3.763-.653,5.671-.833a37.417,37.417,0,0,0,7.967-1.536,5.239,5.239,0,0,0,3.133-2.425,3.236,3.236,0,0,0,.406-2.977c-.753-1.668-1.534-3.348-3.2-4.368-.816-.5-1.6-1.052-2.4-1.579a8.173,8.173,0,0,0-5.253-1.213c-3.275.227-6.151,1.7-9.006,3.043a28.73,28.73,0,0,0-8.119,6.22A4.845,4.845,0,0,0-3435.4,788.693Z" fill="#fff"/>
      <path id="Path_1475" data-name="Path 1475" d="M-3432.935,803.063a21.778,21.778,0,0,1-5.994,2.9c-1.133.37-2.339.51-3.509.772a2.716,2.716,0,0,1-2.446-.636,9.325,9.325,0,0,1-3.625-6.506c-.106-1.113-.182-2.232-.365-3.333a2.523,2.523,0,0,1,1.038-2.51,11.916,11.916,0,0,1,4.941-2.3,2.542,2.542,0,0,1,2.737,1.087,8.73,8.73,0,0,1,.606,1.032,22.64,22.64,0,0,0,3.551,4.8,28.63,28.63,0,0,1,2.384,2.987A8.3,8.3,0,0,1-3432.935,803.063Zm-9.487,1.107c1.528-.439,3.415-.516,4.982-1.619a1.172,1.172,0,0,0,.35-1.843,4.092,4.092,0,0,0-.438-.57,27.8,27.8,0,0,1-4.212-5.186,1.018,1.018,0,0,0-.152-.185,1.419,1.419,0,0,0-1.724-.431c-.517.214-1.059.374-1.553.629a1.841,1.841,0,0,0-1.124,1.944,39.46,39.46,0,0,0,.77,4.475,6.107,6.107,0,0,0,1.179,2.053A1.986,1.986,0,0,0-3442.422,804.17Z" fill="#fff"/>
    </g>
  </g>
  <g id="Group_871" data-name="Group 871" transform="translate(160.819 598.133)">
    <path id="Path_1440" data-name="Path 1440" d="M-3264.253,497.426a63.3,63.3,0,0,1,5.426-5.069c1.492-1.164,2.9-2.434,4.3-3.708.857-.78.862-1.223.122-2.259-2.2-3.084-4.313-6.246-6.7-9.182-1.11-1.366-.478-2.662-.566-3.994-.013-.2.364-.539.625-.632a5.127,5.127,0,0,1,1.383-.225c2.919-.185,5.858-.2,8.753-.57,2.762-.348,5.513-.013,8.267-.22,2.512-.189,5.041-.137,7.562-.21.539-.015,1.075-.111,1.688-.177.71-1.917,1.366-3.739.658-5.775-.2-.57-.408-1.318.117-1.8.665-.614,1.285.021,1.939.244,1.49.51,3.016.918,4.528,1.361.528.155,1.071.266,1.588.453a4.146,4.146,0,0,1,.774.476c.528,1.772-.643,3.48-.02,5.291a9.925,9.925,0,0,0,3.582.9,82.488,82.488,0,0,0,17.259.638,2.63,2.63,0,0,1,2.451,1.049c3.555,4.367,7.812,8.056,11.707,12.1.929.964,2.014,1.776,2.954,2.73a1.5,1.5,0,0,1-.474,2.657c-2.919,1.4-5.808,2.86-8.74,4.233a83.69,83.69,0,0,0-8.537,5.115c-.4.251-.778.551-1.2.77a2.444,2.444,0,0,1-2.275.2,8.262,8.262,0,0,0-3.725-.521c-1.422.014-2.845.092-4.265.042-1.5-.053-2.992-.237-4.489-.344a25.176,25.176,0,0,0-2.834-.123,1.35,1.35,0,0,0-1.465,1.274,15.257,15.257,0,0,0-.3,2.112c-.3,4.26-.562,8.524-.862,12.784-.166,2.364-.412,4.721-.558,7.086-.117,1.893.213,2.517,1.977,4.162a41.512,41.512,0,0,0,4.257-2.828c1.455-1.245,2.869-.692,3.281,1.153.517,2.311,1.1,4.608,1.659,6.91.074.308.167.612.225.922.089.486.1,1.056-.44,1.2a1.885,1.885,0,0,1-1.307-.234,3,3,0,0,1-1.268-1.928c-.354-1.376-.774-2.738-1.188-4.1a6.69,6.69,0,0,0-.479-.936,5.652,5.652,0,0,0-1.294.594c-.787.654-1.506,1.39-2.254,2.093a1.783,1.783,0,0,1-2.984-.318,17.814,17.814,0,0,0-2.773-3.812,7.569,7.569,0,0,1-.681-1.231c-.239-.391-.519-.755-.865-1.253a6.947,6.947,0,0,0-1.26.692,14.871,14.871,0,0,0-3.448,3.869c-.789,1.42-1.657,1.27-2.707.474a34.677,34.677,0,0,1-2.765-2.578c-.282-.267-.559-.539-.789-.761-.843.014-1.194.592-1.6,1.046-1.05,1.181-2.061,2.4-3.093,3.6-.635.736-1.083.788-1.809.229a.931.931,0,0,1-.1-1.593c1.1-1.132,2.235-2.228,3.309-3.382.692-.745,1.319-1.554,1.949-2.356a1.732,1.732,0,0,1,2.823-.021c.331.44.556.962.9,1.393a6.606,6.606,0,0,0,1.031.967c.1.081.294.044.612.079a12.574,12.574,0,0,0,.87-3.055c.21-1.566.373-3.14.539-4.714q.647-6.135,1.279-12.272c.131-1.257.344-2.509.389-3.769.049-1.323-.318-1.717-1.686-1.7-4.106.046-8.2-.4-12.32-.051a47.233,47.233,0,0,1-12.527-.408A5.38,5.38,0,0,1-3264.253,497.426Zm74.879-7.979a11.5,11.5,0,0,0-.92-1.216c-.493-.511-1.094-.918-1.58-1.434-2.439-2.584-4.838-5.205-7.288-7.779-.87-.913-1.836-1.737-2.774-2.584a3.435,3.435,0,0,0-2.124-.956,20.519,20.519,0,0,0-2.827-.113,50.8,50.8,0,0,1-10.874-.443c-1.723-.231-3.446-.559-5.177-.629-4.813-.2-9.63-.316-14.446-.39-1.972-.031-3.948.213-5.921.189a132.9,132.9,0,0,0-13.714.972c-.51.046-1.134-.062-1.508.578a1.62,1.62,0,0,0,.165.614c2.576,3.3,4.626,6.986,7.434,10.117,1.1,1.229,1.022,2.354-.291,3.166-2.7,1.67-4.789,4.1-7.411,5.871a2.052,2.052,0,0,0-1.231,1.948,12.36,12.36,0,0,0,1.557.5,30.768,30.768,0,0,0,7.769.37c1.969-.138,3.943-.278,5.915-.273,6.082.014,12.165.088,18.246.16,1.806.021,3.612.1,5.417.174,3.078.134,6.154.31,9.232.428,1.732.066,3.472.118,5.2.043a6.057,6.057,0,0,0,2.243-.635c1.21-.574,2.371-1.255,3.532-1.928a82.694,82.694,0,0,1,8.966-4.783C-3190.887,491.039-3189.8,490.73-3189.374,489.447Zm-38.818,31.435c.119-.709.284-1.545.4-2.389s.185-1.722.255-2.585c.237-2.9.456-5.808.7-8.711.091-1.1.2-2.191.352-3.279a4.2,4.2,0,0,0-.149-2.775,5.705,5.705,0,0,0-2.788-.34c-1.457-.017-1.718.276-1.894,1.8-.035.313-.031.63-.061.944-.438,4.546-.9,9.091-1.308,13.64-.148,1.642-.2,3.295-.254,4.943a3.365,3.365,0,0,0,.289,1.005c1.021-.09,1.521-.755,2.177-1.169A21.184,21.184,0,0,1-3228.192,520.882Zm1.253-49.624c.2-1.077.408-1.993.513-2.921a1.391,1.391,0,0,0-.855-1.542,4.506,4.506,0,0,0-3.4-.345,9.1,9.1,0,0,0-.309,4.742A9.132,9.132,0,0,0-3226.938,471.258Z" transform="translate(3264.253 -463.343)" fill="#fff"/>
    <path id="Path_1441" data-name="Path 1441" d="M-3210.29,482.132c-1.105.1-2.184-.716-3.058.543.381.227.7.431,1.03.609.557.3,1.154.533,1.68.878,3.2,2.094,2.6,4.981.8,7.087a6.368,6.368,0,0,1-7.846.965,1.958,1.958,0,0,1-.747-.878,1.587,1.587,0,0,1,.031-1.1c.194-.429.645-.346,1.036-.2a15.711,15.711,0,0,0,2.209.793,4.283,4.283,0,0,0,4.465-2.4,1.541,1.541,0,0,0-.263-1.757,4.566,4.566,0,0,0-2.449-1.356c-.84-.217-1.71-.313-2.554-.517a4.057,4.057,0,0,1-1.3-.52,1.528,1.528,0,0,1-.264-2.446,7.872,7.872,0,0,1,6.283-2.167,1.489,1.489,0,0,1,1.315.876C-3209.76,480.864-3209.775,481-3210.29,482.132Z" transform="translate(3263.767 -463.516)" fill="#fff"/>
    <path id="Path_1442" data-name="Path 1442" d="M-3221.75,486.42a5.443,5.443,0,0,1-5.262,5.591,3.725,3.725,0,0,1-3.8-1.9,7.883,7.883,0,0,1-.323-7.881,4.238,4.238,0,0,1,3.737-1.919C-3223.946,480.752-3221.766,483.109-3221.75,486.42Zm-8.1.025c.032.2.091.75.209,1.281a2.121,2.121,0,0,0,1.546,1.622,3.709,3.709,0,0,0,3.491-.907,2.684,2.684,0,0,0,.728-3.008c-.435-1.745-1.99-3.122-3.425-3.043C-3228.649,482.464-3229.846,484.206-3229.848,486.445Z" transform="translate(3263.911 -463.523)" fill="#fff"/>
    <path id="Path_1443" data-name="Path 1443" d="M-3241.343,490.248c2.027.283,3.738.516,5.448.764a4.759,4.759,0,0,1,1.144.256,1.13,1.13,0,0,1,.686,1.144c-.015.575-.458.8-.927.918a2.942,2.942,0,0,1-.941.07c-1.812-.136-3.626-.265-5.433-.455a5.826,5.826,0,0,1-1.576-.468,1.641,1.641,0,0,1-1-1.727,3.22,3.22,0,0,1,.175-.928,23.508,23.508,0,0,0,1.076-8.188,2.169,2.169,0,0,1,.036-.935,5.766,5.766,0,0,1,.837-1.014,2.85,2.85,0,0,1,1.2,2.819c-.151,1.888-.384,3.769-.573,5.653C-3241.253,488.771-3241.281,489.388-3241.343,490.248Z" transform="translate(3264.037 -463.516)" fill="#fff"/>
    <path id="Path_1444" data-name="Path 1444" d="M-3204.467,486.4c.2-1.268.368-2.512.6-3.743a1.351,1.351,0,0,1,1.219-1.231c.538.038,1.068.882.948,1.686-.245,1.627-.557,3.243-.844,4.864a.761.761,0,0,1-.079.22c-.187.366-.442.714-.889.591a1.055,1.055,0,0,1-.674-.554A13.475,13.475,0,0,1-3204.467,486.4Z" transform="translate(3263.618 -463.535)" fill="#fff"/>
    <path id="Path_1445" data-name="Path 1445" d="M-3204.485,494.727c-.135-.2-.435-.452-.5-.756a.845.845,0,0,1,.821-1.1.792.792,0,0,1,.74.739A1.007,1.007,0,0,1-3204.485,494.727Z" transform="translate(3263.624 -463.656)" fill="#fff"/>
  </g>
  <path id="Path_1438" data-name="Path 1438" d="M-3235.693,371.815c-3.561-.131-7.127-.673-10.811.234-.034.427-.091.818-.09,1.208a3.389,3.389,0,0,1-3.9,3.656,6.223,6.223,0,0,1-3.554-1.371,2.473,2.473,0,0,1-.952-2.363,5.362,5.362,0,0,1,3.022-3.926,2.187,2.187,0,0,1,1.395-.023,19.462,19.462,0,0,0,7.287.092,7.267,7.267,0,0,1,2.224.027,26.727,26.727,0,0,0,8.511-.37c1.1-.169,2.066-1.891,1.806-3.042a2.764,2.764,0,0,0-2.655-2.385c-1.011-.08-2.033-.017-3.05-.025-2.238-.017-4.484.071-6.713-.088a52.705,52.705,0,0,0-7.319.217c-1.866.125-2.1-.035-2.405-1.877-.372-2.243-.773-4.483-1.152-6.725-.069-.408-.095-.823-.138-1.235-.21-1.991-.426-3.981-.629-5.973-.062-.618-.124-1.239-.136-1.86-.025-1.307.522-1.8,1.748-1.467a13.51,13.51,0,0,0,3.834.345c3.05-.039,6.1.049,9.15-.019,2.371-.053,4.738-.262,7.108-.406.947-.058,1.894-.126,2.841-.194.745-.052,1.5-.068,2.234-.174a2.023,2.023,0,0,0,1.987-1.989c.1-.605.1-1.228.142-1.764a1.332,1.332,0,0,1,1.716-.457,12.465,12.465,0,0,0,5.344,1.061,27.222,27.222,0,0,1,3.43.412c.209.034.543.362.525.521-.034.295-.229.74-.453.811a6.673,6.673,0,0,1-1.793.259c-1.426.044-2.855-.007-4.278.061-1.451.069-1.823.384-2.123,1.746q-1.69,7.68-3.329,15.372a12.93,12.93,0,0,0-.132,2.042,3.742,3.742,0,0,1-.014.819c-.382,1.316-.809,2.619-1.2,3.933-.352,1.187-.7,2.377-1.007,3.576a1.815,1.815,0,0,0,.415,1.732,4.766,4.766,0,0,1,.9,1.375c.709,1.9.3,3.438-1.849,3.988a4.4,4.4,0,0,1-4.064-.712,3.921,3.921,0,0,1-1.709-3.938,3.745,3.745,0,0,0,.039-.615A2.647,2.647,0,0,0-3235.693,371.815Zm7.627-25.51a23.137,23.137,0,0,0-5.939.311.953.953,0,0,0-.844.777,7.183,7.183,0,0,0-.182,1.218c-.052.893.42,1.519,1.269,1.508,1.546-.02,3.092-.125,4.636-.238a2.9,2.9,0,0,0,.86-.346A5.03,5.03,0,0,0-3228.066,346.3Zm-11.286,10.965a5.646,5.646,0,0,0-3.97-.468,1.47,1.47,0,0,0-1.5,1.583,2.922,2.922,0,0,0,.614,1.923,1.566,1.566,0,0,0,.947.651,23.133,23.133,0,0,0,3.037.163,1,1,0,0,0,1.058-1.038A5.517,5.517,0,0,0-3239.352,357.269Zm8.695.932a2.986,2.986,0,0,0-2.021-.824c-.673-.064-1.345-.131-2.017-.2-1.4-.154-1.8.13-2.081,1.56a5.651,5.651,0,0,0-.1,1.227.933.933,0,0,0,1.014,1.03c1.216-.022,2.432-.085,3.645-.176a5.993,5.993,0,0,0,1.145-.318c.139-.529.278-.987.374-1.454A5.819,5.819,0,0,0-3230.657,358.2Zm-1.206-6.2c-1.062,0-1.74-.041-2.41.01-1,.075-1.418.553-1.477,1.584a1.45,1.45,0,0,0,1.489,1.591c1.208.09,2.42.121,3.632.144a1.223,1.223,0,0,0,1.25-.861,8.737,8.737,0,0,0,.349-1.179.907.907,0,0,0-.8-1.183C-3230.631,352.02-3231.442,352.021-3231.862,352Zm-14.063-2.657c.136-.181.2-.23.213-.289.274-1.631.1-1.9-1.368-1.973-1.278-.059-2.558-.073-3.837-.063a8.449,8.449,0,0,0-1.314.2,2.665,2.665,0,0,0,.111,2.452c1.252.051,2.517.124,3.784.147A6.032,6.032,0,0,0-3245.926,349.345Zm-1.027,11.423a6.6,6.6,0,0,0-.7-3.955c-.906-.063-1.773-.156-2.641-.173a.788.788,0,0,0-.893.882,5.994,5.994,0,0,0,1,3.575C-3249.14,360.878-3248.061,361.362-3246.953,360.768Zm6.9-13.967v.2c-.677,0-1.356-.038-2.031.009-1.006.071-1.4.545-1.426,1.621-.022.817.4,1.361,1.2,1.35,1.286-.019,2.572-.13,3.856-.229a.949.949,0,0,0,.865-.763,6.358,6.358,0,0,0,.189-1.219.813.813,0,0,0-.826-.959C-3238.833,346.78-3239.443,346.8-3240.052,346.8Zm1.63,5.494a7.158,7.158,0,0,0-3.547-.558c-1.463.038-2.022.639-2.162,2.18-.08.885.37,1.2,1.348.978a3.57,3.57,0,0,1,.77-.059c.745,0,1.493.036,2.236,0,.95-.043,1.3-.393,1.417-1.405A6.97,6.97,0,0,0-3238.422,352.3Zm-8.508,2.367a2.567,2.567,0,0,0,.6-1.937.876.876,0,0,0-.873-.953,12.91,12.91,0,0,0-4.609.161c-.408,1.866-.2,2.23,1.405,2.416C-3249.269,354.481-3248.123,354.557-3246.93,354.662Zm-3.556,20.25c.8-.035,1.273-.1,1.5-.628a1.226,1.226,0,0,0-.224-1.35,2.783,2.783,0,0,0-2.563-.92,1.082,1.082,0,0,0-.906,1,1.383,1.383,0,0,0,.48,1.043A11.454,11.454,0,0,0-3250.486,374.912Zm19.519.758a.885.885,0,0,0,.378-.01c.281-.138.681-.266.771-.5a1.045,1.045,0,0,0-.184-.932,11.036,11.036,0,0,0-1.8-1.287.972.972,0,0,0-1.26.345,1.173,1.173,0,0,0,0,1.352A2.171,2.171,0,0,0-3230.967,375.67Z" transform="translate(3557.124 -271.669)" fill="#fff"/>
  <path id="Path_1439" data-name="Path 1439" d="M.013,2.947c.3.852,1.045.948,1.757.909,1.633-.088,3.272-.184,4.885-.419a66.308,66.308,0,0,1,10.4-.854c4.129.048,7.747,1.628,11.666,3.3-.478.615-.713,1.2-1.15,1.429a10.6,10.6,0,0,0-3.961,3.172,6.234,6.234,0,0,0-.584,6.7,2.842,2.842,0,0,0,.959,1.125,11.971,11.971,0,0,0,8.866,1.377.694.694,0,0,0,.289-.091c2.36-1.852,5.031-3.505,5.313-6.816a10.606,10.606,0,0,0-.334-2.6c-.1-.556-.268-1.1-.455-1.848A5.77,5.77,0,0,1,39.277,8.2a53.914,53.914,0,0,1,8.3,2.173c2.215.92,4.114,2.577,6.087,4a8.623,8.623,0,0,1,1.431,1.657,2.137,2.137,0,0,1-1.712,1.77,13.109,13.109,0,0,0-4.636,3.3c-1.864,1.807-1.837,4.047-1.264,6.334a2.785,2.785,0,0,0,.812,1.237c4.211,3.969,9.8,2.561,11.769-1.637A11.466,11.466,0,0,0,61.2,21.579c-.027-.572-.009-1.145-.013-1.919a6.527,6.527,0,0,1,1.514-.108,14.47,14.47,0,0,1,6.7,2.79,84.278,84.278,0,0,1,6.843,5.513,34.732,34.732,0,0,1,5.52,7.087,21.252,21.252,0,0,1,2.051,5.867,28.534,28.534,0,0,1-5.928,1.248,10.234,10.234,0,0,0-2.369.516,1.52,1.52,0,0,0-.49,2.645c1.106,1.165,2.317,2.251,3.311,3.5A119.623,119.623,0,0,0,86.5,57.59,17.444,17.444,0,0,0,89.6,60.014a1.641,1.641,0,0,0,2.49-.865,13.563,13.563,0,0,0,.519-1.994,9.374,9.374,0,0,1,2.684-5.183c2.451-2.246,3.537-5.21,4.691-8.143a3.291,3.291,0,0,0,.184-.858,1.27,1.27,0,0,0-1.18-1.463c-2.68.2-5.286-.551-7.947-.551-.9,0-1.8-.126-2.749-.2-.456-1.252-.936-2.336-1.245-3.461-1.021-3.729-3.356-6.713-5.861-9.606a24.039,24.039,0,0,0-6.133-5.344,21.856,21.856,0,0,1-2.678-1.994,14.327,14.327,0,0,0-7.162-3.216c-1.421-.189-2.821-.551-4.244-.7a2.973,2.973,0,0,1-2.274-1.314c-1.779-2.493-4.393-4.141-6.85-5.884a17.575,17.575,0,0,0-5.019-2.184c-3.195-.979-6.339-2.234-9.84-1.865a9.644,9.644,0,0,1-5.89-1.384,34.314,34.314,0,0,0-7.4-2.871,22.235,22.235,0,0,0-8.813-.71C10.7.665,6.527,1.047,2.35,1.439,1.265,1.542.341,1.82.013,2.947ZM88.528,53.506a2.485,2.485,0,0,1-.747-.359q-3.109-3.076-6.169-6.2a1.254,1.254,0,0,1-.3-1.74A14.382,14.382,0,0,1,82.92,44.9c1.934-.178,3.87-.34,5.808-.459,1.224-.075,2.456-.111,3.681-.07a2.45,2.45,0,0,1,2.232,1.108,5.1,5.1,0,0,1-.55,1.489c-1.611,2.121-3.286,4.2-4.956,6.274C89.029,53.371,88.781,53.4,88.528,53.506ZM29.954,17.4c-2.27-.022-3.868-.707-4.167-1.708a3.858,3.858,0,0,1,1.024-3.78,4.771,4.771,0,0,1,1.121-.97A21.6,21.6,0,0,1,30.84,9.4c2.246-.9,3.4-.313,4.118,1.924a3.631,3.631,0,0,1-.234,2.839A5.353,5.353,0,0,1,29.954,17.4Zm26.883,2.793c1.4,2.472.676,4.582-.51,6.557-.882,1.467-3.416,1.738-4.911.705-1.231-.849-1.388-2.407-.266-3.926A7.48,7.48,0,0,1,56.837,20.194Z" transform="matrix(0.934, -0.358, 0.358, 0.934, 205.709, 35.826)" fill="#fff"/>
  <g id="Group_869" data-name="Group 869" transform="translate(67.957 237.772) rotate(17)">
    <path id="Path_1428" data-name="Path 1428" d="M22.2,44.321a8.521,8.521,0,0,0-3.841-.418c-3.161.113-6.322.264-9.481.429-.72.037-1.429.251-2.148.289A7.793,7.793,0,0,1,.548,42.492,1.384,1.384,0,0,1,.7,40.179a10.2,10.2,0,0,0,3.2-2.851,1.993,1.993,0,0,1,.631-.508c3.037-1.578,5.724-3.809,9.08-4.8a16.791,16.791,0,0,0,3.876-1.89c1.772-1.067,3.672-1.921,5.6-2.909.376.135.789.3,1.213.431,1.655.5,2.321.135,2.749-1.549a2.717,2.717,0,0,0,.113-1.328c-.681-2.375.375-4.441,1.141-6.533C29.855,14,31.827,9.918,32.953,5.523c.247-.96.409-1.94.646-2.9A9.715,9.715,0,0,1,34.168.827,1.3,1.3,0,0,1,35.458,0c.6.04,1.18.393,1.2.922.075,2.19,1.657,3.354,3.076,4.536a54.546,54.546,0,0,1,4.876,4.688,52.176,52.176,0,0,0,4.345,4.071c3.857,3.274,7.763,6.493,11.652,9.73a8.436,8.436,0,0,0,1.09.8A48.821,48.821,0,0,1,69.9,31.392c.926.858,1.906,1.657,2.846,2.5.333.3.617.647.934.963.567.565,1.127,1.14,1.72,1.676a9.944,9.944,0,0,1,1.075.809c1.212,1.47.979,2.534-.724,3.1a19.063,19.063,0,0,1-2.1.543c-6.1,1.275-12.219,2.486-18.308,3.824-4.318.95-8.6,2.068-12.9,3.1-.965.232-1.934.447-2.909.637-2.746.54-5.5,1.055-8.241,1.6-1.24.246-2.47.55-3.711.8a17.113,17.113,0,0,0-4.663,1.352,1.468,1.468,0,0,1-2.162-1.523,8.944,8.944,0,0,1,.333-1.576C21.45,47.622,21.807,46.056,22.2,44.321Zm44.828-10.38c-.094-.4-.077-.713-.224-.892a19.564,19.564,0,0,0-3.839-3.787c-1.926-1.334-3.813-2.735-5.626-4.217-3-2.448-5.847-5.08-8.9-7.454a65.9,65.9,0,0,1-8.248-7.8c-.85-.934-1.685-1.887-2.607-2.744a5.463,5.463,0,0,0-1.535-.661c-.336.79-.647,1.429-.884,2.1-.33.935-.525,1.924-.917,2.829a89.937,89.937,0,0,0-3.624,10.179c-.39,1.317-.19,1.805,1.136,2.237,2.655.865,5.325,1.686,7.983,2.541,4.037,1.3,8.051,2.67,12.11,3.893,4.41,1.33,8.856,2.541,13.3,3.756A7.6,7.6,0,0,0,67.031,33.941ZM5.647,40.6A5.23,5.23,0,0,0,9.28,41.692c2.436-.1,4.871-.246,7.308-.337,6.675-.254,13.348-.612,20.025-.693a169.535,169.535,0,0,0,17.035-1.039c1.869-.21,3.733-.457,5.858-.72-.424-.325-.6-.56-.824-.616-1.313-.328-2.628-.663-3.958-.9-3.111-.566-6.241-1.024-9.345-1.627-3.45-.672-6.838-1.658-10.347-2.045C31,33.266,27.1,31.923,22.993,31.94a1.7,1.7,0,0,1-.788-.172c-1.411-.773-2.567-.174-3.787.549-2.1,1.24-4.284,2.326-6.378,3.567-1.861,1.1-3.665,2.3-5.454,3.519A5.068,5.068,0,0,0,5.647,40.6Zm42.669,2.871-.071-.286c-2.61.059-5.22.138-7.829.168-1.9.021-3.793-.054-5.688-.031-2.706.034-5.4.586-8.114.207a.865.865,0,0,0-.531.04c-.356.235-.911.488-.964.8a10.031,10.031,0,0,0-.348,3.7,5.083,5.083,0,0,0,3.292.125c3.1-.608,6.194-1.222,9.273-1.917,3.348-.756,6.676-1.6,10.01-2.417A7.4,7.4,0,0,0,48.316,43.469ZM28.943,29.383a12.9,12.9,0,0,0,4.943,1.5c4.813.68,9.6,1.491,14.343,2.551a7.243,7.243,0,0,0,1.506.014c-.155-.843-.77-.9-1.247-1.065-2.294-.788-4.606-1.522-6.9-2.308q-4.465-1.53-8.914-3.11C30.351,26.141,29.468,26.3,28.943,29.383Z" transform="translate(0 0)" fill="#fff"/>
  </g>
  <g id="Group_870" data-name="Group 870" transform="translate(48.326 125.414)">
    <path id="Path_1429" data-name="Path 1429" d="M-3304.3,448.7a1.666,1.666,0,0,1,.556,1.911,6.746,6.746,0,0,1-1.082,1.823c-1.091,1.2-2.276,2.317-3.422,3.466l.014.015c-1,1.005-1.994,2.025-3.015,3.013a1.541,1.541,0,0,1-2.59-.812,2.174,2.174,0,0,1,.571-2.249q3.627-3.493,7.313-6.924A1.247,1.247,0,0,1-3304.3,448.7Z" transform="translate(3344.358 -424.175)" fill="#fff"/>
    <path id="Path_1430" data-name="Path 1430" d="M-3292.986,464.332q-2.13,2.783-4.293,5.539c-.563.717-1.158,1.409-1.763,2.091a1.341,1.341,0,0,1-1.618.5c-.658-.294-.709-.958-.7-1.557a2.767,2.767,0,0,1,.319-1.153,34.355,34.355,0,0,1,5.641-7.543,4.278,4.278,0,0,1,3.3-1.275C-3291.943,462.776-3292,463.046-3292.986,464.332Z" transform="translate(3316.644 -420.66)" fill="#fff"/>
    <path id="Path_1431" data-name="Path 1431" d="M-3285.666,499.65a2.763,2.763,0,0,1-1.166-1.282,6.63,6.63,0,0,1-.227-1.831,22.076,22.076,0,0,1,1.889-7.982,2.08,2.08,0,0,1,1.4-1,1.551,1.551,0,0,1,1.71,1.023,2.572,2.572,0,0,1,.078,1.466c-.377,1.58-.891,3.129-1.256,4.711-.295,1.284-.464,2.6-.665,3.9A1.176,1.176,0,0,1-3285.666,499.65Z" transform="translate(3288.179 -413.153)" fill="#fff"/>
    <path id="Path_1432" data-name="Path 1432" d="M-3316.158,440.567c-.537.612-1.144,1.164-1.719,1.743-.3.273-.592.565-.914.814-1.451,1.122-2.874,2.286-4.382,3.326a1.364,1.364,0,0,1-2.2-1.13A2.4,2.4,0,0,1-3324.2,443c1.4-1.012,2.777-2.064,4.188-3.066a22.321,22.321,0,0,1,2.321-1.461,1.366,1.366,0,0,1,1.7.115A1.64,1.64,0,0,1-3316.158,440.567Z" transform="translate(3371.144 -427.069)" fill="#fff"/>
    <path id="Path_1433" data-name="Path 1433" d="M-3297.518,531.526a1.8,1.8,0,0,1,2.273.126c2.437,1.994,4.857,4,7.255,5.984-.882,1.623-1.041,1.722-2.031,1.391-3.217-1.076-5.553-3.39-7.9-5.666A1.219,1.219,0,0,1-3297.518,531.526Z" transform="translate(3308.543 -400.833)" fill="#fff"/>
    <path id="Path_1434" data-name="Path 1434" d="M-3291.066,484.108a1.4,1.4,0,0,1-1.242-1.176,4.469,4.469,0,0,1-.03-1.034,16.076,16.076,0,0,1,2.251-6.495,1.617,1.617,0,0,1,2.137-.65,1.8,1.8,0,0,1,1.011,2.011,10.365,10.365,0,0,1-.583,1.408c-.71,1.691-1.428,3.379-2.122,5.076A1.209,1.209,0,0,1-3291.066,484.108Z" transform="translate(3299.954 -416.805)" fill="#fff"/>
    <path id="Path_1435" data-name="Path 1435" d="M-3329.293,432.554c-1.423.86-3.236,1.976-5.07,3.054a1.576,1.576,0,0,1-2.177-.269,1.739,1.739,0,0,1-.015-2.248,3.053,3.053,0,0,1,.864-.837c1.505-.84,3.025-1.658,4.569-2.422a2.91,2.91,0,0,1,1.471-.3c.458.041,1.168.259,1.273.568a3.534,3.534,0,0,1-.168,1.684C-3328.582,431.951-3328.816,432.075-3329.293,432.554Z" transform="translate(3398.574 -429.526)" fill="#fff"/>
    <path id="Path_1436" data-name="Path 1436" d="M-3282.3,505.32a3,3,0,0,1,.774,1.553c.077,2.206.391,4.439-.447,6.8-2.4.371-2.679.165-2.74-1.89-.054-1.814-.121-3.628-.159-5.442a1.5,1.5,0,0,1,.931-1.441A1.321,1.321,0,0,1-3282.3,505.32Z" transform="translate(3284.875 -408.287)" fill="#fff"/>
    <path id="Path_1437" data-name="Path 1437" d="M-3287.171,520.579a1.8,1.8,0,0,1,2.5.113,3.964,3.964,0,0,1,.785,1.272c.66,1.709,1.269,3.44,1.955,5.323-1.626,1.131-2.079,1.2-2.707.21-1.093-1.721-2.088-3.506-3.054-5.3A1.273,1.273,0,0,1-3287.171,520.579Z" transform="translate(3289.177 -403.952)" fill="#fff"/>
  </g>
</svg>
