<svg id="Сгруппировать_1859" data-name="Сгруппировать 1859" xmlns="http://www.w3.org/2000/svg" xmlns:xlink="http://www.w3.org/1999/xlink" width="56.884" height="44.169" viewBox="0 0 56.884 44.169">
  <defs>
    <clipPath id="clip-path">
      <rect id="Прямоугольник_1280" data-name="Прямоугольник 1280" width="56.884" height="44.169" fill="none"/>
    </clipPath>
  </defs>
  <g id="Сгруппировать_1826" data-name="Сгруппировать 1826" transform="translate(0 0)" clip-path="url(#clip-path)">
    <path id="Контур_3092" data-name="Контур 3092" d="M45.3,33.893a2.522,2.522,0,0,1,.742-1.675,14.412,14.412,0,0,1,1.42-1.659,1.5,1.5,0,0,0,.334-.431,3.883,3.883,0,0,1,.975-1.187,3.91,3.91,0,0,0,.824-1.076,7.939,7.939,0,0,1,.939-1.555,1.543,1.543,0,0,0,.323-.836,9.779,9.779,0,0,0,.035-2.368q-.166-1.637-.383-3.267a11.886,11.886,0,0,0-.641-2.563,4.155,4.155,0,0,1-.252-1.791c.08-1.062.167-2.123.244-3.186q.032-.456.025-.913a.431.431,0,0,0-.382-.475.519.519,0,0,0-.058,0,7.326,7.326,0,0,0-.909-.057,23.648,23.648,0,0,1-3.1-.166A13.882,13.882,0,0,1,44,10.447a8.012,8.012,0,0,0-1.721-.145c-.912-.02-1.825-.051-2.734-.117a7.122,7.122,0,0,0-1.451-.007,1.8,1.8,0,0,1-1.442-.437c-1.277-1.081-1.318-1.064-1.209-2.708.055-.85.172-1.7.258-2.544a.538.538,0,0,0-.04-.17c-.054-.015-.127-.061-.159-.041a.838.838,0,0,1-1.019.033,1.136,1.136,0,0,0-.333-.145.613.613,0,0,0-.771.4.62.62,0,0,0-.029.214c.027.485.006.972.006,1.521.121.071.269.165.424.247a6.674,6.674,0,0,1,.645.331.461.461,0,0,1-.106.811.265.265,0,0,1-.084.033c-.472.066-.7.436-.984.754a2.806,2.806,0,0,0-.538,1.612c-.011.074.121.215.214.249.228.08.477.1.7.183a1.58,1.58,0,0,1,.457.278.4.4,0,0,1,.139.409.453.453,0,0,1-.382.341c-.182.007-.364-.01-.546-.015-1-.029-1-.029-1.4.921-.159.363-.318.724-.456,1.1a2.96,2.96,0,0,0-.085.566c.184.159.367.318.545.477a1.579,1.579,0,0,1,.486.758.52.52,0,0,1-.238.546.427.427,0,0,1-.507-.054c-.159-.143-.3-.3-.456-.444a.318.318,0,0,0-.417,0,1.016,1.016,0,0,0-.238.274c-.224.53-.742.894-.867,1.511.214.25.547.26.795.427a.767.767,0,0,1,.355.506.346.346,0,0,1-.277.4,2.416,2.416,0,0,1-.453-.006,3.225,3.225,0,0,1-.808-.128,1.26,1.26,0,0,0-1.454.431,2.5,2.5,0,0,0-.795,1.017l.42.668a3.552,3.552,0,0,1,.188.311.49.49,0,0,1-.145.575.413.413,0,0,1-.5-.057c-.179-.164-.339-.349-.512-.518-.085-.08-.183-.153-.3-.251a4.853,4.853,0,0,0-.557.3,1.013,1.013,0,0,0-.412,1.2,4.256,4.256,0,0,1,.2.8.488.488,0,0,1-.2.375.666.666,0,0,1-.427.006c-.08-.015-.141-.108-.208-.17-.088-.08-.174-.159-.243-.227-.2.006-.209.143-.231.256a.869.869,0,0,0,.089.617,18.4,18.4,0,0,1,.933,1.67,1.067,1.067,0,0,0,.606.528,2.262,2.262,0,0,0,1.855.057c1.734-.751,3.588-1.158,5.344-1.85a14.766,14.766,0,0,1,1.493-.409c.557-.154,1.117-.3,1.664-.477a4.85,4.85,0,0,1,1.517-.285,7.264,7.264,0,0,0,2.483-.527c1.255-.46,2.544-.836,3.816-1.243.318-.1.645-.176.964-.276.842-.262,1.682-.532,2.523-.795a4.635,4.635,0,0,0,1.506-.636.576.576,0,0,1,.684.029.463.463,0,0,1,.239.461,1.06,1.06,0,0,1-.646.921c-.569.211-1.154.382-1.736.557-.813.248-1.627.494-2.444.727-.5.142-1.01.229-1.5.39q-1.342.445-2.664.954a8.206,8.206,0,0,1-2.745.614,5.123,5.123,0,0,0-1.431.278,12.11,12.11,0,0,1-1.5.378,9.876,9.876,0,0,0-1.927.539,17.228,17.228,0,0,1-2.928,1.014,7.577,7.577,0,0,0-1.97.694,3.167,3.167,0,0,1-2.74.02c-1.027-.416-1.041-.445-1.492-1.462-.159-.362-.307-.73-.47-1.091a1.392,1.392,0,0,0-.769-.855.909.909,0,0,1-.291-.215.73.73,0,0,1-.15-.917,2.488,2.488,0,0,1,.309-.446,9.451,9.451,0,0,1,.668-.748c.282-.274.488-.533.249-.954-.1-.181.058-.339.174-.483a.592.592,0,0,1,.786-.227c.356.154.453.1.619-.3a.862.862,0,0,1,.821-.611,1.727,1.727,0,0,0,.079-.379.759.759,0,0,1,.516-.778c.362-.155.732-.294,1.082-.472a1.727,1.727,0,0,0,.577-.429c.3-.381.551-.795.816-1.2a.745.745,0,0,0,.036-.232c-.1-.064-.227-.135-.344-.218a.7.7,0,0,1-.279-.55.577.577,0,0,1,.381-.565,1.944,1.944,0,0,1,.542-.057c.472.032.609-.1.743-.6.125-.465.29-.92.421-1.335a2,2,0,0,0-.122-.22c-.112-.141-.274-.267-.239-.469a.7.7,0,0,1,.366-.5c.184-.1.382-.175.579-.263.119-.386.262-.756.342-1.139a2.529,2.529,0,0,0,.023-.812,1.052,1.052,0,0,1,.08-.707,7.253,7.253,0,0,0,.5-2.306.732.732,0,0,0-.183-.594A.8.8,0,0,1,32,3.769l.015-.013a1.3,1.3,0,0,0,.239-.771,2.392,2.392,0,0,1,.564-1.222,6.692,6.692,0,0,0,.437-.689,5.805,5.805,0,0,1,.588-.8.815.815,0,0,1,.923-.208,2.73,2.73,0,0,1,1.306.8,1.812,1.812,0,0,0,.288.244A3.3,3.3,0,0,1,38.994.767c.629.131,1.261.193,1.9.263.513.055,1.021.159,1.534.22a29.191,29.191,0,0,0,4.283.2c.849-.029,1.7.028,2.553.041a9.211,9.211,0,0,0,1.365-.006,6.662,6.662,0,0,1,2.6.359.856.856,0,0,1,.58.654,1.708,1.708,0,0,1-.051.986,17.076,17.076,0,0,0-.688,3.3c-.053.636-.172,1.267-.238,1.9a4.641,4.641,0,0,0,.336,2.31,12.331,12.331,0,0,1,.426,1.3,2.2,2.2,0,0,1-.024.995,7.4,7.4,0,0,0-.127,1.174c-.006.7.008,1.4.055,2.1a7.292,7.292,0,0,0,.752,2.71c.279.575.575,1.141.862,1.712a6.6,6.6,0,0,1,.671,3.632c-.1,1.065-.117,2.127-.142,3.191-.018.79.03,1.583.039,2.374.007.547-.016,1.1,0,1.643a5.246,5.246,0,0,0,.128,1.629,1.182,1.182,0,0,1-.128.789,1.515,1.515,0,0,0,.477.655c.186.2.384.393.557.6a.8.8,0,0,1,.163.6c-.094,1.06-.194,2.119-.259,3.18-.044.728-.035,1.459-.048,2.189,0,.122.015.244.014.365,0,.6-.084.669-.672.918a5.6,5.6,0,0,1-1.865.388q-1,.063-2,.122c-.122.007-.243.019-.365.018a1.113,1.113,0,0,1-1.241-.961c-.026-.086-.05-.172-.079-.283a4.2,4.2,0,0,0-1.141-.231,1.345,1.345,0,0,0-.364-.017c-.325.025-.679-.232-.968.025-.249.223-.114.581-.182.875a.6.6,0,0,1-.542.53c-.394.042-.788.063-1.182.09s-.788.053-1.183.074a4.931,4.931,0,0,1-.636.014,1.016,1.016,0,0,1-1.037-.945.617.617,0,0,0-.486-.578,5.41,5.41,0,0,0-.624-.128.447.447,0,0,0-.52.275,4.543,4.543,0,0,0-.195.512.623.623,0,0,1-.621.452c-.942.01-1.885-.008-2.827-.021-.12,0-.238-.038-.361-.049A1.085,1.085,0,0,1,36.42,41.86a5.035,5.035,0,0,0-.493-1.625.981.981,0,0,0-.734-.086c-.846.093-1.689.214-2.539.276a6.939,6.939,0,0,0-2.038.462,5.935,5.935,0,0,1-1.5.355,20.666,20.666,0,0,1-2.271.165,3.047,3.047,0,0,0-.4.049.536.536,0,0,0-.213.524c-.009.335.009.671-.012,1a.675.675,0,0,1-.528.663,1.056,1.056,0,0,1-.265.067,10.124,10.124,0,0,0-1.7.306c-.6.087-1.209.118-1.816.149a2.465,2.465,0,0,1-.63-.089.722.722,0,0,1-.641-.671.666.666,0,0,0-.051-.265c-.059-.1-.148-.231-.238-.244a6.8,6.8,0,0,0-1.9-.117c-.026,0-.051.032-.117.08a3.522,3.522,0,0,1,0,.5.643.643,0,0,1-.595.594c-.543.06-1.087.119-1.632.159a4.025,4.025,0,0,1-.725-.033c-.665-.073-1.327-.159-1.987-.238a.716.716,0,0,1-.741-.664,5.194,5.194,0,0,1-.05-.546A.655.655,0,0,0,12.052,42c-.324-.079-.644-.187-.97-.261a.512.512,0,0,0-.61.283c-.028.054-.048.112-.079.165a.715.715,0,0,1-.912.44c-.021-.007-.043-.016-.063-.025a9.94,9.94,0,0,1-1.039-.34c-.625-.238-1.243-.495-1.867-.734-.6-.229-.705-.366-.729-1,0-.091.011-.182.008-.274a.63.63,0,0,0-.355-.59c-.3-.154-.585-.323-.868-.5a.831.831,0,0,0-.7-.107c-.318.092-.644.18-.966.272a.766.766,0,0,1-.7-.079,6.037,6.037,0,0,0-1.222-.6A4,4,0,0,1,.5,38.389a.965.965,0,0,1-.5-.846q0-.775.063-1.549c.023-.3.117-.6.152-.9a1.309,1.309,0,0,1,.6-.97A.707.707,0,0,1,1.326,34c.34.029.461-.075.477-.38a3.646,3.646,0,0,0-.033-.908,2.87,2.87,0,0,1,.094-1.351,7.042,7.042,0,0,0,.235-.969,3.761,3.761,0,0,1,.44-1.288,2.043,2.043,0,0,1,1.511-1.2c.868-.152,1.729-.348,2.6-.464a38.407,38.407,0,0,1,4.814-.447,8.26,8.26,0,0,0,2.863-.516c1-.374,2-.727,3-1.1.312-.117.609-.277.914-.413.748-.335,1.495-.675,2.248-1a.772.772,0,0,1,.965.293.543.543,0,0,1-.145.754.471.471,0,0,1-.046.028.407.407,0,0,1-.08.044c-1.038.267-1.94.864-2.946,1.21-.372.128-.716.339-1.083.477-.912.338-1.828.66-2.748.979a7.047,7.047,0,0,1-2.34.324,32.3,32.3,0,0,0-3.26.294c-.909.09-1.8.219-2.7.39a14.523,14.523,0,0,0-1.527.2,1.443,1.443,0,0,0-1,.853,4.047,4.047,0,0,0-.361,1.122,2.986,2.986,0,0,1-.115.529A4.981,4.981,0,0,0,3.252,34.5a.682.682,0,0,0,.36.378A12.768,12.768,0,0,1,5.425,35.93c.546.325,1.148.557,1.717.844a6.23,6.23,0,0,1,1.021.6,3.534,3.534,0,0,0,1.484.66c.775.164,1.53.39,2.29.607a14.728,14.728,0,0,0,2.253.318c.3.037.606.042.909.063a13.158,13.158,0,0,0,2.1.013,19.207,19.207,0,0,1,2.007-.08,12.64,12.64,0,0,0,2.448-.238c1.167-.214,2.334-.422,3.5-.664.743-.155,1.48-.344,2.21-.557a7.673,7.673,0,0,1,1.61-.294,12.624,12.624,0,0,0,1.259-.181,7.232,7.232,0,0,1,.711-.159,14.8,14.8,0,0,0,2.671-.557c.5-.127,1.01-.21,1.515-.318.477-.1.947-.222,1.423-.318.446-.091.894-.177,1.343-.245a25.162,25.162,0,0,0,4.02-.8,9.165,9.165,0,0,1,2.488-.549,6.584,6.584,0,0,0,.893-.174m-1.081,8.15a.874.874,0,0,0,.27.116c.547.006,1.094,0,1.641-.008a.984.984,0,0,0,.267-.059c.18-.058.347-.152.373-.357a1.66,1.66,0,0,1,.833-1.141.73.73,0,0,1,.676-.123,10.833,10.833,0,0,0,1.345.226c.422.056.85.07,1.272.133a.7.7,0,0,1,.646.66c.016.089,0,.183.011.273.045.335.159.457.472.4a15.312,15.312,0,0,1,2.184-.131,4.056,4.056,0,0,0,.812-.1c.444-.107.542-.257.557-.7.028-.76.056-1.52.1-2.279s.095-1.519.15-2.278a1.025,1.025,0,0,0-.292-.828,9.944,9.944,0,0,1-.874-1.049.8.8,0,0,0-.922-.387,9.154,9.154,0,0,1-2.36.184,8.093,8.093,0,0,0-2.267.2,6.974,6.974,0,0,1-2.176.132,9.551,9.551,0,0,0-2.624.238c-.774.159-1.534.379-2.306.552-.948.212-1.9.416-2.857.594-.567.106-1.148.127-1.713.238-.925.181-1.844.4-2.762.611-.531.126-1.054.286-1.582.429-.2.056-.408.121-.617.159-.84.141-1.681.273-2.522.4a6.109,6.109,0,0,1-.724.085,5.638,5.638,0,0,0-1.252.231c-.7.184-1.383.452-2.109.575-1.409.238-2.81.516-4.218.761a9.386,9.386,0,0,1-1.36.143,38.321,38.321,0,0,1-4.558.08,11.132,11.132,0,0,1-2.361-.134,7.754,7.754,0,0,1-1.528-.248c-1.055-.282-2.1-.619-3.15-.919a2.25,2.25,0,0,1-.8-.415,4.634,4.634,0,0,0-.75-.517c-.622-.318-1.262-.6-1.891-.9a2.263,2.263,0,0,1-.477-.265,5.651,5.651,0,0,0-1.426-.808,3.354,3.354,0,0,1-.982-.646,1.346,1.346,0,0,0-.662-.462.842.842,0,0,0-.442.557,7.742,7.742,0,0,0-.2,1.809.535.535,0,0,0,.273.443,2.089,2.089,0,0,0,2.238.266,1.213,1.213,0,0,0,.172-.058.78.78,0,0,1,.783.064,6.494,6.494,0,0,0,1.805.851.74.74,0,0,1,.537.764,4.158,4.158,0,0,0,.052.728.551.551,0,0,0,.247.351c.607.281,1.225.538,1.845.788a1.717,1.717,0,0,0,.45.053,2.707,2.707,0,0,1,1.192-.923c.541.154,1.034.3,1.535.435.234.065.477.1.706.179a.9.9,0,0,1,.724.928,1.639,1.639,0,0,0,.015.274.413.413,0,0,0,.4.426,8.534,8.534,0,0,0,2.358.179,4.063,4.063,0,0,0,.62-.166c.014-.183.014-.333.037-.477.069-.423.159-.526.562-.6a3.446,3.446,0,0,1,.724-.079q1.322.051,2.642.143c.4.027.619.265.711.7.037.171-.026.373.2.537a1.748,1.748,0,0,0,.3.049,12.9,12.9,0,0,0,2.7-.415.341.341,0,0,0,.258-.341,1.565,1.565,0,0,0-.05-.448c-.068-.264-.175-.519-.232-.785a.6.6,0,0,1,.409-.74.617.617,0,0,1,.148-.023c.4.007.8-.007,1.187-.009a11.889,11.889,0,0,0,4.127-.628,10.077,10.077,0,0,1,2.05-.415c.72-.1,1.45-.155,2.178-.215a1.075,1.075,0,0,0,.987-.539.285.285,0,0,1,.388-.106.292.292,0,0,1,.082.071c.193.191.355.412.541.609a.857.857,0,0,1,.258.747,3.811,3.811,0,0,0,.311,1.837.9.9,0,0,0,.188.107,9.013,9.013,0,0,0,2.45.065c.205-.007.307-.166.391-.339a1.388,1.388,0,0,1,1.584-.795c.511.07,1.015.183,1.518.3a.672.672,0,0,1,.518.659c.018.168.032.346.044.523M50.386,9.832h.485c.03,0,.06.005.091,0a.508.508,0,0,0,.562-.447q0-.012,0-.025c.127-1.117.239-2.235.37-3.353.045-.391.115-.78.188-1.168.1-.566.23-1.128.333-1.7a.423.423,0,0,0-.335-.494.44.44,0,0,0-.069-.007c-.239-.019-.486-.01-.729-.01-.7,0-1.4.043-2.1-.01a13.488,13.488,0,0,0-2.814,0,3.677,3.677,0,0,1-.729,0c-.667-.045-1.334-.088-2-.159-.512-.052-1.022-.136-1.532-.212-.631-.094-1.258-.216-1.891-.286a5.094,5.094,0,0,1-1.414-.329,4.972,4.972,0,0,0-.689-.232.678.678,0,0,0-.774.33,3.6,3.6,0,0,0-.636,2.237c.01.424,0,.85-.035,1.272-.06.819-.133,1.636-.211,2.453a1.067,1.067,0,0,0,.484,1.012,1.448,1.448,0,0,0,1.113.307,3.985,3.985,0,0,1,1.45.028,3.7,3.7,0,0,0,.636.031c1.154.059,2.306.1,3.459.185.546.038,1.083.17,1.628.211,1.7.134,3.394.242,5.155.361Zm.795,23.811c.546-.031,1.09-.058,1.635-.095a.484.484,0,0,0,.487-.338.833.833,0,0,1,.72-.612.462.462,0,0,0,.388-.445,3.7,3.7,0,0,0,.042-.636c-.006-1.216-.031-2.434-.026-3.65,0-1.095-.022-2.2.08-3.283a6.85,6.85,0,0,0-.828-4.134,12.171,12.171,0,0,1-1.329-7.682,2.468,2.468,0,0,0-.134-1.253.766.766,0,0,0-.933-.318.248.248,0,0,0-.116.133,1.216,1.216,0,0,0-.061.357,26.794,26.794,0,0,1-.318,3.26,4.384,4.384,0,0,0,.348,2.757,1.362,1.362,0,0,1,.125.342,18,18,0,0,1,.6,3.223c.02.3.069.6.106.906a24.175,24.175,0,0,1,.208,3.273,2.543,2.543,0,0,1-.556,1.6,6.521,6.521,0,0,0-.766,1.239,3.342,3.342,0,0,1-.636.882,11.684,11.684,0,0,0-1.431,1.651,4.831,4.831,0,0,1-.485.544q-.611.674-1.224,1.346a1.8,1.8,0,0,0-.375.82.306.306,0,0,0,.23.343,4.339,4.339,0,0,0,.449.06,6.033,6.033,0,0,0,1.807-.209,5.668,5.668,0,0,1,2-.084ZM33.711,2.824a9.316,9.316,0,0,1,1.01.261c.331.125.636.313,1.016.5.039-.335.06-.605.108-.875s.124-.516.186-.773c-.292-.227-.55-.44-.82-.636a.408.408,0,0,0-.636.086,14.082,14.082,0,0,0-.864,1.433" transform="translate(-0.001 0)" fill="#1c1c1c"/>
  </g>
</svg>
