<svg xmlns="http://www.w3.org/2000/svg" viewBox="0 0 1280 1280">
<defs><style>.cls-1{fill:#ecdcd0;}.cls-2{fill:#fff;}</style></defs>
<g id="Ebene_2" data-name="Ebene 2">
<g id="type-3"><rect class="cls-1" width="1280" height="1280"/>
<g id="back">
  <path class="cls-2" d="M707.69,1177.83c-14.71-.14-29.21-2.55-43.5-5.65-9-1.69-18.34-2.7-26.43-7.12-3.57-1.5-6.53-5-10.36-5.54-11.58,2.46-21,11.08-32.75,14.08-11.32,1.6-22.81,3.37-34.23,1.86-23.92-4.31-51.67-8.84-64.1-32.2-24.22,1.12-49,9.64-72.66.13-12-5.54-23.39-15.75-32.21-23.9-7.34-6.38-7.95-17-10.93-25.87-.93-4.21-3-9.24-1.1-13.24,6.52-2.34,4.34,4.31,5,7.62,3.34,9.49,3.83,21.52,11.42,28.57,9.16,8.23,18.43,16.9,29.39,22.52,9.52,4.34,21,4.26,31.9,4.88,11.36-1.15,21.12-4.69,33.78-4.52,6.54.32,4.81-6.58,5.63-10.93a128.08,128.08,0,0,1,4.68-21.46c1.91-1.43,6,0,4.84,3-9.23,32.31-2.4,46.7,30.38,55.83a115.8,115.8,0,0,0,55.88,3.31c8.23-1.35,16.28-9.39,24.62-11.73,14-3.14,16.46-18,21.91-29,1.8-3.23,4.72-13.62,9.25-7.36,1,3.69-3.05,6.87-4.16,10.26-4,8.41-6.73,16.14-11.81,24.24,7.75,8.11,19.09,9.4,30.25,11.42,23.39,6,48.47,5.79,72.39,4.87,15.06-1.46,29.35-6.29,44.33-8.54,17.81-1.35,37.26-8.36,51.93-15.13,12.45-6.48,21.2-16.89,32.07-25.52,20-18.5,29.94-41.89,42.74-65.5,3.59-4.67,9.79-29.31,15.62-26.46,3.92,3.25-1,7.81-2.07,11.37-5.2,10.68-8.94,20.11-15.18,31.3-2.33,5.32-6.81,9.74-7.34,15.18,12.38,9.08,27.5,10.13,42.21,10.58,9.78,1.38,20.19,2.24,29.93.85,29.1-2,52.07-23.55,68.46-46.42,1.63-2.85,5.53-.8,5.16,2.21-.24,2.23-2.14,4.21-3.18,5.81-8.13,11.57-19.66,20.78-30.16,30.07,8,14.3,18.84,14.87,32.12,21.57,10.48,5,20.38,3.16,31.31,4.39a27.86,27.86,0,0,0,11.78-2.62c5.64-2.94,14.87-4.1,20-8.57-.23-6.92,4.82-3.3,8.74-10.91,2-2.79,5.15-1.25,6.44,1.28-.2,2-2.43,3.72-3.43,5.12-8.06,6.35-3.25,13.5.61,21.93,5.38,7.44,12.5,11.84,19.77,15.88,10.49,4.93,29.7,1.36,29.81-12.51-3.21-24,14.89,3.42,25.87,2,15.45-3.12,25.09-19,27-34.18-.06-18.67-20.15-32.08-37-31.69-4.51-.88-7.9,5.07-11.91,3.29-3.66-4.36,3.39-9.19,3.91-13.89a64.85,64.85,0,0,0,1.58-27.28c-2.8-14.91-14.77-25.56-26.21-35.57-17.55-11.68-43.06-16.36-64-13.72-8.83,1.56-16.31,1.79-24.92,2.91-2.27.35-3.8-3.51-1.61-4.3,8.83-3.25,20.38-2.29,28.37-4.39,10.18-1.3,20.17,1,30.24,1.11,14.31-37.64,21.11-81.4,4.73-119.54-11.88-17.74-26.52-38.73-46.58-48.52a183.17,183.17,0,0,0-24.41-10c-2.31-.16-4-4.21-.8-4.58,35,5.7,58.78,33.59,77.34,62.2,21.64,2.79,44.19,4.37,65.23-.42a67.67,67.67,0,0,0,31.51-28.49c15.75-22.71,0-50.51-13.28-70.25-13.36-15.95-33.11-29.85-52.84-37.38-16-4-31.68.33-48,1.32a2.83,2.83,0,0,1-2-4.43c2.19-1.92,6.23-1.26,8.74-1.8,9.94-1,20.18-2,30-3.07-7.76-14.65-25-22.13-40.82-18.5-7.91,2.09-16.51-.06-23.92,4.07-3.76,2.94-7.38-1.91-3.73-4.62,6.47-5.07,13.75-2,20.46-4.82-3-9.58-10.79-15.66-17.41-22.58-12.15-14.2-28.5-22.77-45-30.36-13.75-7-30-8.45-45.36-9.66-20.62-2.09-41.48-4.63-62.19-1.8-11.1,2.23-23.86,5.53-34.34,11.17-3.77,1.49-4.69-4.06-1.52-5.44,11.42-5.8,24.13-8.68,36.52-11.48-19.49-29.11-62.58-46.33-88.19-15.65,1.83,2.6,14.2,11.82,8.55,12.76-5.67-5-11.65-10.07-17.33-15.14C799.47,574.23,765,561.77,726.5,558.83c-26.07.07-51,6-75.23,15.79-54,20.26-89.66,66-123.86,111.19-1.39,2.84-6.4,7.18-7.79,2.08,5.51-11,15.54-20,22-30.58-18.52-20.8-72.54-6.51-90.28,10.56-11.94,12.69-31.12,26.67-33.14,45.15-10.9,11.41-11.39,33-16.28,47.76-12.36,10.09,6.87-44.43,8.16-48-16.36-9.41-44.73-4.74-62.52-1.95-21.37,7.51-41.94,11.49-60.39,26.62-13.5,8.73-26.06,21-32.25,35-9.14,19.16-17.15,39.32-21.22,59.8-1.31,5.57-2.36,19-9.87,9.49-14.13-12.23-32.51-4.84-47.37,1.2-11.81,4.55-17.51,19.6-19.65,31.17,16.42,1.95,34.93,5.29,50.06,11.64,2.76,1,44,18.06,33.62,21.87-30.14-16.94-63.17-30.91-99.09-28.21C91,881.31,57.66,919,58.21,970.12c-1.42,38.13,7.71,60.32,41.59,79.36,31.52,21,56.92,20,92.49,13.64,11.61-.41,20.27.43,32.28-4,10.82-2.92,21-7.81,31.85-9.53,1.28-.75,1.38-1,1.19-2.57-.66-4.88-4.32-20.45.78-23.09,6.17.92.07,17,3.88,22.56,4.49,13.24,3.54,30.57,12,42.76,11.42,15.46,32.34,29.6,51.47,36.49,15.65,5.38,34.37,3.33,50.92,2.33,5.29-.3,9-4.24,13.85-5.08,7,2.32-5.52,7.31-7.94,8.13-14.18,3.05-29.19,1.55-43.26,1.83-17.13-1.75-32.38-10.11-46-19.69-25.72-16.34-28.51-31-34.6-59.24-12.32,2.43-24,6.64-35.93,10.26-14.38,4.09-31.72,2.11-45.79,5.9-14.77,1.6-30.12,2.62-44.65-.33-25.86-7.45-50.49-22-67.2-42.76-17.1-26-15.75-72.3-4.53-100.48,19-41,48.35-49.76,89.5-53,4.11-11.59,7.84-27,19.68-32.77,17.75-9.31,37.67-14.73,56.72-3.93,6.56-31.11,18.52-62.53,36.71-88.77-6.76-8.91-24.57-6-28-18-3-11.11,3.77-17.7,11-24.22,5.9-7.58,13.52-9.81,22.94-9.27,4.4.1,6.36-.91,4.33-5.2-1.74-14.18,7.52-30.12,17.3-39.21,9.47-8.65,23.51-10,35.3-5.71,5.59,2.82,11.52,1.51,13.74-4.76,4.25-7.34,10.44-13.66,16-18.93,36.31-23.12,59.55-13.7,79.89,21.64,12.09-1.54,22.75,1.21,33.51,6.09,24.87-7.84,53.6-14,76.4,1.91,31.17-37.56,69.75-74.91,118.43-87.4,24-8.19,49.89-12.54,75.27-9.65,34.34,6.29,68.33,18,97.54,36.91,19.82-21.16,49.47-21.55,73.07-6.31,9.18,6.31,21.29,16.22,25,26.17a370.12,370.12,0,0,1,60,2.87c13.58,1.23,26.6,2.18,39.55,7.66,20.61,8.53,39.79,20.72,54.66,37.06,6.7,6.51,12.67,13.51,16.5,22.06,19-2.13,41.95,6.79,48.13,26.35,31.5,8.15,59.67,30.94,74.27,61.22,4.59,13.23,13.47,33.39,6,48.24-23,47.61-56.88,42.9-102.69,40.51,2.47,12.88,4.89,26.73,5.3,39.55,1,12.65-2.72,28.47-3.35,41.75.19,5.13-3.24,9.55-4.44,14.17-1.84,6.43-3.61,12.92-5.29,19.4,24.88,5.69,42.82,20,55.28,42.53,5.79,13.28,2.89,28.3.16,41.78,6.4.72,13-.79,19.17,2,12.32,5.62,27.24,19.92,26.81,35.16-.47,18.35-14,38.21-32.55,40.7-7.55.48-13.56-5.68-20.17-8.43,1.55,14.34-15.55,21.29-27,20.44-18.06-.43-34.17-17.17-39-34.12-24.29,8.42-25.26,11-51.55,9-10.3-.85-18.52-7.16-27.92-10.23-9.34-2.69-15.12-10.86-22-17.62-20,12.73-43.79,14-66.49,10-17.83,1.28-29.65-4.59-45.43-10.67-7.39,10.95-14.55,23.84-24.81,32-11.23,9.16-20.69,19.37-32.23,26.55-11.39,4.81-23.71,10.7-35.39,13.42-19.95,2.39-40.82,8.22-60.5,11.22C729.22,1177,718.27,1177.25,707.69,1177.83ZM270.18,702c-6.34.05-13.46-1-17.25,5.4-3.75,5.19-12.47,8.36-13,15.38,0,7.75,4.4,11.7,12.25,13.36,6.25.26,9.66,7.05,15.71,7.15,5.49,0,8.91-5.65,13.17-8.59,8.61-6,18.37-12.89,29.56-16.72,32.31-12.86,68.12-21.22,102.18-10.66,11-22,29-39.83,48.92-53.49-6.62-5.48-16.21-4.79-24-3.56-1.43,10.09-5.88,2.56-7.36-2.67-14.52-36.2-47.18-40.17-75-16-11.69,12.75-21.59,27.6-28,43.09-2.14,3.45-1.33,9.76-5.71,11.1a3,3,0,0,1-3-2.82c1.24-5.19,3.48-10.14,5.3-15.24,1.95-4.56,4.67-8.53,7-12.87,1.16-1.38-.63-2.47-2.08-2.64-18.41-5.39-31.67-1.67-42,14-3.33,6.4-6.58,13.06-8.21,20.13C278.29,696.67,286.26,703.62,270.18,702Z"/>
  <path class="cls-2" d="M335.76,990.39c-3.11-.14-1.83-4-.48-5.52,10.16-14.61,18.59-31,33.07-41.92a271.78,271.78,0,0,1,27.48-19.06c9.67-6.64,21.85-5,32.61-8.53,22.38-2.69,43.52-10.06,66.41-10.16,36.53-2.37,72,8.67,106.74,18.92,22.21,6.65,45.54,13.6,64.39,27.53,4.86,5.1-2.35,7.93-6.06,3.17-26.1-17.33-58.34-23.31-87.52-32.89-13.27-3.24-26.47-6.71-39.71-9.69-32.23-4.2-64.26-.24-95.64,7.41-11.74,3-24.6,2.7-35.79,7.06-13.22,7.54-26,16-36.91,26.66-11.73,10.35-16.73,27.58-28.58,37Z"/><path class="cls-2" d="M378.5,895.6c-8.77-4-15-12.9-22.13-19.27-5.56-4-12.68-8.7-18.81-12.52-11.57-6-26.15-6.33-39.14-5.61a12.85,12.85,0,0,0-3.1.4c-5.65,2.73-12.76,2.36-17.27,7.21-3.41,2.83-6.27,7.23-10.62,8.39-3.36,0-3.27-4.38-.79-5.74C282.25,850.83,308,850,329.8,853.83c12.67,3.41,24,12.26,33.73,20.82,5.12,4.65,9.72,10.06,15.35,14.05,3,1.33,3.35,6.49-.38,6.9Z"/>
  <path class="cls-2" d="M687.05,987c-12.94-1.7,17.9-25,20.29-30,3.66-5.88,34.82-23.35,38.93-16.1.45,3.74-4.83,3.54-7.72,4.86a110.9,110.9,0,0,0-20.52,9.7c-10.19,8.6-19.12,18.84-27.45,29.2a4.22,4.22,0,0,1-3.53,2.36Z"/>
  <path class="cls-2" d="M884.44,809.93c-11.82-1.79,16.2-22.67,18.44-27.41,3.47-5.4,31.57-21.28,35.52-14.65.43,3.45-4.41,3.28-7.06,4.49a100.76,100.76,0,0,0-18.67,8.82c-9.27,7.84-17.4,17.15-25,26.59a3.88,3.88,0,0,1-3.25,2.16Z"/>
</g>
<g id="shoe">
  <path class="cls-1" d="M350.37,892c11.61,3.35,21.27,11,32.07,16.1,21.18,9.2,43.44,15.59,65.77,21.39,20,2.34,40.14,2.09,60.23,1.66,12.77,1.22,25.31-.3,37.9-2.24,27.46-5.31,56.14-2.91,82.76-12.73,18.43-4.94,37.81-9.17,54.19-19.32a208.87,208.87,0,0,1,24.52-10.11c33.45-9.93,58.91-35.45,88.11-53.3,26-13.78,50.05-31.06,70.69-52,14.46-10.89,30.43-19.75,44.46-31.24a274.77,274.77,0,0,1,36.14-29.36c46.3-33.79,100.38-57.4,141.49-98,16.61-16.68,36.21-30.25,51.29-48.41,11.32-14.26,17.47-31.66,29.81-45.25,15.5-19.74,10.15-47.5,1-68.92-5.47-12-3.52-33.74-21.71-32.48-1.62-8.64-1.47-17.67-1.18-26.49-1.56-12.8-6.39-25.17-9.47-37.7-4.8-14.35-5.8-29.83-12.88-43.38-7-14.41-11.59-30.37-21.66-43.09-10.44-11.29-19.13-24.43-32.38-32.75a44,44,0,0,1-13-12.81c-5.84-11.15-16.81-18.33-22.39-29.5-2.49-4.81-4.35-10-7-14.67-11.75-17.07-25.17-32.69-37-49.68-3.74-6.09-11.62-7.89-14.87-14.49a12.27,12.27,0,0,0-8.22-6.06c-29.36-11.49-70.23-13.17-86,19.74-6.11,11.42-10.59,23.69-16.41,35.27-6.62,14.92-9.16,32.57-20.76,44.7-9.58,8.45-23.81,9.32-35.87,9-5-2-10.66-3.73-15.35-.07-14-6-29.47-7.57-43.78-13-14.28-4-29.67-8.51-42.5,1.53-6.4,5.63-8.88,16.64-12.69,24.38-4.58,10.91-9.31,21.81-14,32.64-4.94,9.37-7.75,19.66-14.48,28.05-9.2,11.64-11.5,26.78-19.33,39-5,4.38-8.49,3.2-8.18,12,1.37,12.09-22.66,19.12-10.06,31.19-13,5.12-8.54,14-16.14,19.4-4.12.59-3.87,5.07-5.26,8-1.07,2.61-1.32,4.95,1.39,6.82.41.28.53,1.29.44,1.91a1.27,1.27,0,0,1-1.51,1c-7.56-.73-10.88,8.4-11.82,14.52-7.68,5.52-16.91,14.73-14.87,25,.45,5.48,2.49,2.46,4.58,5.45-2,12.4-15,19.67-16.63,32.1-4,1.66-27.06,21.67-20.61,25.48,6.9,4.43-8.08,7-5.58,18.33-9.65,2.78-19,22.87-20.93,32.33a6,6,0,0,1-3.63,4.94c-6.38,3.19-12.72,10.52-12.5,18-3.38,2-6.71,2.9-5.35,7.38a46.08,46.08,0,0,0-17.78,20.25c-2.44,3.68-.75,3.28,1.32,6.57-10.94,8.77-23.27,16-32.85,26.44-15.44,15.41-28.64,33.14-45.67,46.86-20,14.22-40.73,27.72-55.91,47.41A58.86,58.86,0,0,0,329.93,794c.55,2.66-1.12,4.93-2.45,7.05-8.75,11.16-2.57,25.69-1.09,38.11-3.27.68-2.13-.93-4.4-1.72-4.47,3.42-1.65,7.3,3.25,7.15,7.38.47,5.59,18.54,9.7,24.12C340.06,879.64,333.78,891,350.37,892Z"/>
  <path class="cls-2" d="M501.31,601.62a.62.62,0,0,0,0-.38A.62.62,0,0,1,501.31,601.62Zm84.74-138.84a2.27,2.27,0,0,1,.37.56A2.27,2.27,0,0,0,586.05,462.78Zm-251.11,406c-4.11-5.58-2.32-23.65-9.7-24.12-4.9.15-7.72-3.73-3.25-7.15,2.27.79,1.13,2.4,4.4,1.72-1.48-12.42-7.66-27,1.09-38.11,1.33-2.12,3-4.39,2.45-7.05a58.86,58.86,0,0,1,20.39-44.45c15.18-19.69,35.92-33.19,55.91-47.41,17-13.72,30.23-31.45,45.67-46.86,9.58-10.39,21.91-17.67,32.85-26.44-2.07-3.29-3.76-2.89-1.32-6.57a46.08,46.08,0,0,1,17.78-20.25c-1.36-4.48,2-5.35,5.35-7.38-.22-7.44,6.12-14.77,12.5-18a6,6,0,0,0,3.63-4.94c2-9.46,11.28-29.55,20.93-32.33-2.5-11.37,12.48-13.9,5.58-18.33-6.45-3.81,16.56-23.82,20.61-25.48,1.67-12.43,14.65-19.7,16.63-32.1-2.09-3-4.13,0-4.58-5.45-2-10.3,7.19-19.51,14.87-25,.94-6.12,4.26-15.25,11.82-14.52a1.27,1.27,0,0,0,1.51-1c.09-.62,0-1.63-.44-1.91-2.71-1.87-2.46-4.21-1.39-6.82,1.39-3,1.14-7.45,5.26-8,7.6-5.41,3.12-14.28,16.14-19.4-12.6-12.07,11.43-19.1,10.06-31.19-.31-8.76,3.2-7.58,8.18-12,7.83-12.2,10.13-27.34,19.33-39,6.73-8.39,9.54-18.68,14.48-28.05,4.71-10.83,9.44-21.73,14-32.64,3.81-7.74,6.29-18.75,12.69-24.38,12.83-10,28.22-5.49,42.5-1.53,14.31,5.47,29.74,7.07,43.78,13,4.69-3.66,10.39-2,15.35.07,12.06.33,26.29-.54,35.87-9,11.6-12.13,14.14-29.78,20.76-44.7,5.82-11.58,10.3-23.85,16.41-35.27,15.81-32.91,56.68-31.23,86-19.74a12.27,12.27,0,0,1,8.22,6.06c3.25,6.6,11.13,8.4,14.87,14.49,11.8,17,25.22,32.61,37,49.68,2.64,4.72,4.5,9.86,7,14.67,5.58,11.17,16.55,18.35,22.39,29.5a44,44,0,0,0,13,12.81c13.25,8.32,21.94,21.46,32.38,32.75,10.07,12.72,14.66,28.68,21.66,43.09,7.08,13.55,8.08,29,12.88,43.38,3.08,12.53,7.91,24.9,9.47,37.7-.29,8.82-.44,17.85,1.18,26.49,18.19-1.26,16.24,20.47,21.71,32.48,9.12,21.42,14.47,49.18-1,68.92-12.34,13.59-18.49,31-29.81,45.25-15.08,18.16-34.68,31.73-51.29,48.41-41.11,40.65-95.19,64.26-141.49,98a274.77,274.77,0,0,0-36.14,29.36c-14,11.49-30,20.35-44.46,31.24-20.64,21-44.71,38.25-70.69,52-29.2,17.85-54.66,43.37-88.11,53.3a208.87,208.87,0,0,0-24.52,10.11c-16.38,10.15-35.76,14.38-54.19,19.32-26.62,9.82-55.3,7.42-82.76,12.73-12.59,1.94-25.13,3.46-37.9,2.24-20.09.43-40.24.68-60.23-1.66-22.33-5.8-44.59-12.19-65.77-21.39C371.64,903,362,895.32,350.37,892,333.78,891,340.06,879.64,334.94,868.74ZM658.31,369.45c-14.14-9.67-10.06-16.15-22.21-2.82-5.8,5-6.77,10.78,1.12,13.33,6.74-1.17,13.57-1.82,20.39-2.37C673.73,377,665.64,377.25,658.31,369.45Zm19.35,6.31a36.7,36.7,0,0,1,12.8-.25c10.69,1.4,21.3-1.53,31.94-2.26,15.34-1.39,30.28,3.21,45.55,3.38,41.82-51,66.65-23.39,119.84-15.25,22.85,6.15,45.79-6.66,65-17.94,22.55-18.66,40.46-42.13,51.19-69.54,5.49-15.66,4.59-34.38-.49-49.94-7.64-15.72-14.76-32.59-26.67-45.56-2.34-2.92-13.56-9.41-9.83-13,16.48,8.33,25.91,27,34.29,42.93,2.13,7.88,8.55,14.17,9.43,22.33,1.42,14,3.29,28.35-1,42.09-11,29.81-30.33,55.09-54.65,75.25-20,12.16-44.12,25-68.19,19.1-18.62-3.84-37-8.22-55.25-13.29-23.84-6.25-42.56,5.34-57,23.67,9.11,5,20.12,4.72,28.81,10.15,9.24-7.47,29.3,7,27.11,18.06-.46,7.75-5.84,16.7-14.53,16.07-6.26-.66-12.59-1.5-15.74-7.63-8.87,4-17.65.81-26.18-2.32-6.28-.55-17.84-4.55-22.8-.41-2.92,4.55-4.78,9.84-9.09,13.34-3.11,3.06-9.51,7.1-9.45,11.65,7,3.74,15.7.75,22.33,5.76.93.68,1.83.3,2.84.1,7.24-1.88-1.47,18.9-2.44,22.1,9,14.34,20.89,12,24.6-4.52.95-4.26,1.42-10.7-2.29-13.66-3.07-2.31-5-4.64-9-5.49-2.62-1.54-6.75,1.71-8.28-1.37.54-6.16,10.11-3.15,13.87-1.65,15.63,7.71,13.64,21.75,5.39,34.72-4.91,8.7-13.47,7.65-21.17,3.49-3.74-1.21-5.07-4.77-7.48-7.39-12.29,3.57-25.39,0-37.86-1.18-3.11-.77-3.63,3.09-4.85,5-3.12,5.77-6.89,11.23-9.67,17.17a224.89,224.89,0,0,0,22.15,7.78c6.34.34,5.78-4.63,15.08-1.09,15.15,4.46,13,25.57,1.41,33-4,4.64-13.35,5.68-16.84.26a10.13,10.13,0,0,0-3.91-5.13c-11.48.81-22.85-2.76-34.38-2.63-7.5.89-16.3,17.35-19.46,24,5.82,2.14,10.87,4.39,16.76,5.8,17-17.37,31.61-5.66,28.09,16.23-2.37,16.5-24.77,19-35.36,9-9.64,6.13-21.37.76-32,1.2a5.37,5.37,0,0,0-5.67,2.76c-2.39,4.65-6.83,8-8.94,12.74,5.33.69,16.27,1,20.45,1.28,4.61-.53,9.24-2,13.81-.25,14.16,0,20.72,17.71,14.22,28.76-2.76,3.64-7,5.37-10.84,7.46-9.69,6.29-16.05-3.18-23.34-8.37-13.27,6.6-29.46,1.71-43.78,3.07-13.15,1.28-26-4.16-38.86-3.8,15.86,9.4,33.49,18.37,51.9,22.83,3.49.44,6.07,3,9.31,4,10.52,2.38,10,2.55,12.69,10.87,4.63,11.47-5.45,31.18-19.19,26.54-4.41-2-8.76-3.55-11.38-8-2.92-.42-6,0-8.69-1.47-9.25-3.39-16.49-11.24-26.26-13.27-35.84,26.41-44.63,47.77-46,92.22,6.72,1.89,17.78-3.35,25.1-5.53,22.62-6.89,43.7-18.66,62.5-32.78,14-9.21,24.46-22.24,36.7-33.32,17.87-12.88,29.22-32.26,45.37-47,18.74-24.36,41.34-45.46,59.7-70.08,15.86-23,34-44.53,48.93-68.2,8.91-14.94,17.11-30.29,26.56-44.93a131.6,131.6,0,0,0,18.22-36.66c1.6-3.33,3.57-3.73,6.22-1.06,10.58,6.82,24.85,4.93,36.37,10.15,10.35,3.7,21.14,5.73,31.93,7.68,24.42,3,49,7.92,73.57,4.82,6.86,0,17.13-8.63,19,.41,2.76,11.84,1.79,23.33-.09,35.17,0,9.29,2.73,18.28,3.09,27.54-.13,18.39-2.37,36.61-2.44,55,.12,4.43-4.44,23.83-1.65,25.1,11.58-8.81,22.6-18.73,34.29-27.48,9.62-7.33,20.26-13.62,28.3-22.78,13.93-17.31,31.8-31.67,41.92-51.77,9.49-15.13,22.12-28,28.67-45,3-6.68.18-14.44.58-21.55s1.24-14.61-1.5-21.58c-5.67-17.93-9.09-37-14.89-54.59-17.21,6.24-28.36-11.44-43.3-15.72-20.45-6.72-28.91,25.14-44.8,33.25-12.94,8.63-22.17,22.15-36.89,28.14-12.12,6.06-25,7.44-38.34,5.53a31.71,31.71,0,0,1-21-8.56c-11.7,2.31-22.81,8.51-35.24,5.81A107.4,107.4,0,0,0,893,384.26c-25.93.32-51.66-12.24-77.58-5.63-2.4,1.35-5.58-1.35-3.36-3.57,2.69-2,6.42-2.38,9.65-3.09,22.64-2.74,44.37,5.18,66.54,6.74,14.46-.63,29.33,4.85,43.11-1.86,7.22-2.67,14.48-5.26,21.53-8.39a2.46,2.46,0,0,1,3.48,1.53c-.28,4.68-6,4.06-8.13,7.43,8.07,6.26,18,5.42,27.64,5.88,19.33,1.36,36.41-12.56,49.15-25.68,13.58-9,24.68-20.6,34.64-33.41,22.32-24.56,38.55,5.09,59.21,8.82,4.83.91,6.84-3.14,4.25-6.85-3.15-7.19-6.4-14.34-9.43-21.58-10-24.45-28.66-45.35-49.74-60.92-9.07-7.08-13.62-18.31-21.74-26.3-8.73-7.61-12.27-18.7-17.61-28.55-9.17-13-18.38-25.74-28.6-37.88-4.41-5.34-7.05-12.34-13-16.21a39.92,39.92,0,0,1-10.23-10.22c-9.09-6.86-22.1-7.78-33-10.57-20.51-3.54-44.22,6.07-53.29,25.55-8,17.32-16,34.67-22.44,52.68-8.39,26.73-20,36.9-48.12,38.12-2.7,1.86-14.35-4-13.86-1.38,15.2,6.32,30,13.49,45,20.27,13.74,4.92,27,15.43,26.78,31.19-1.21,13.95,4.47,29.56-3.26,42.42-2.88,4.75-2.1,3.71-4.56,8.7-2.78,3.59-6.13,17.79-12,14-.43-4.44,4-7.72,5.45-11.74,3-6.49,3-6.81,6.74-12.88,4.48-8.39,3.48-18.84,2.79-28.06-.55-11.3.83-24.14-9.89-31.51-22.22-13-46.34-22.14-69.75-32.83-12.72-5.3-27-6-39.85-11.32-6.37-2.87-13.48-2.2-20.06-4.19a11.11,11.11,0,0,0-8,.44c-4.62,2.57-11.31,3.91-13.32,9.35-10.06,23.27-20.65,46.26-31,69.37-7.74,11.48-15.49,23.09-19.84,36.35-1.84,5.59-7.24,16.38-12.09,19.14a13.21,13.21,0,0,0-.13,5.9c2,.68,4.4.62,5.74,2.59,5,5.67,11.67,9.57,16.88,15C670.06,373,673.74,376.17,677.66,375.76Zm327,183c-.2-23.58,4.76-47.44.65-70.81-4.34-15.89,4.67-32.47-1.36-47.9-20.13,7.62-42,3.81-62.89,1.74-17.22-2-34.86-3.55-51.25-9.26-13.79-5.32-28.09-6.66-42.47-10.21-8.23,20.25-20.51,38.25-32,56.73a312.28,312.28,0,0,1-35.3,54c-18.15,24.55-34.71,50.3-56.65,71.8-16.94,19.34-33,39.27-51,57.72-8.31,13.66-22.07,22.16-33.07,33.25-8.52,9.55-17.82,18.65-28.54,25.69-4.63,3.26,2,8.69,2.07,13.1,6.15,22.65,15.28,44.39,20.8,67.22,1,7.5,4.07,14.43,5.94,21.72.72,1.94.72,5.91,5.21,5,20.34-5.5,38.61-16.31,58.69-22.51,18.11-5.25,35-14,51.35-23.29,39-22.11,69.45-55.58,99.8-87.91,23.6-26.84,54.55-46.1,83.49-66.52,21.92-13.78,45.46-25.71,65.19-42.57C999.12,577.48,1005,567.6,1004.7,558.77ZM614.4,681.16c3,1.78,6.05-1,8.2-2.92,5.67-6.5,5.33-14.25,2-22a1.66,1.66,0,0,0-2.5-.81c-6.09,4.72-7.36,13.6-14.26,17.82C602.88,677.13,611.46,680,614.4,681.16Zm39-54.9c5.15,4,11.42-2.39,15.56-5.41,3.38-3.5,1.46-9.92.9-14.27-3.72-6.62-13.8-10-20.75-7.07-.66,5.08-1.55,9.93-4.27,14.29C641.8,619.27,650.12,623.1,653.41,626.26Zm48.4-56.8C705,559,700.61,540.89,687,551a2.58,2.58,0,0,0-1.61,2.74c-1.2,5.23-6.36,9.38-8.48,14.57C674.55,580.15,700.46,580.73,701.81,569.46Zm-44.6-26c5.88-6.83,9.22-15.18,15.17-21.86-31.82-5.19-64.61-.63-96.11,4.31,4.55,2.86,10.72,2.29,14.79,6.2,6.18,4.65,13,10.26,21.18,9.46,8.07.55,16.34-.08,24.22,2,5.9.92,16.26,4.89,20.75-.06Zm62.95-23.36c2.77,2,5.7,3.45,6.62,6.88,6,2.77,9.7-4.27,13.34-7.79,2.93-4.14,1.87-11.72-1.21-15.57C722.1,491.22,723,508,720.18,520.09Zm-33.73-42.5c3,2.16,5.38,5.38,9,6.47,3.54-5,7.93-10.87,9.08-16.89-13.27-2.21-26.91-3.22-39.91-7.3,5.51,7.38,14.58,12,21.87,17.72Zm3.46,10.51c-9.13-9.87-21.89-15.68-31.43-25.36-10.53-6.09-25.83-1.74-37.53-.7a13.9,13.9,0,0,0,5.39,6.75c7.09,4.51,11.82,11.49,17.79,17.16,8,3.25,16.76,3.24,25.22,2.28,6.28.17,12.55.41,18.82.59.66,0,1.46.18,1.75-.72Zm-14-67.58c5.71,2.34,8.37,10,14.9,10,12,.1,24,2.48,35.79,3.72,1.49-2.55,4.66-4.56,4.66-7.88-5.39-6.52-14.06-9-20.21-14.71-7.59-5.64-18-1.22-26.77-2-3.75.63-22.33-3.73-22.17.32,5.58,2,8.72,7.65,13.82,10.55Zm2.78,8.72c-3.56-3.71-8.58-5.5-12.3-9.05-4.83-3.44-12.75-11.15-16.83-10.53-11.61,1.8-26.45,2.66-34.81,11.49,4,8.34,12.2,7.25,20.18,7.32,7.08-1,13.48,3.72,20.64,2.62,7.65-.66,15.73.1,23.13-1.85Zm40.51-18.09A73.09,73.09,0,0,1,735.72,423a18.43,18.43,0,0,0,9.47-12.79c-1.54-1.18-27.62-1.51-26,1ZM802.7,408c3.81,6.46,7.65,8.15,14.91,8.32,6.5-.08,8.77-9.12,7.39-14.39-1-5-15-15.94-17.71-8-2,7.1-4.58,14-4.58,14Zm-189.51,1.46c-.56,5.18,5.35,3.28,7.93,1.46a67.4,67.4,0,0,1,21.69-6.26c12.85-1.89,25.91-3.23,38.8-1,9.13.84,17.73-1.11,27.12-.74,5.7.33,11.38,1,17.09,1.05,14.94-.76,30,.21,44.89,1.15,17.83,4.68,25.72,13.33,31.15-10.68-4.53-6-11.35-5.89-18-7.32-15.44-6.68-32.77-5.64-49.19-8.19-9.27-1.58-18.45,1.4-27.66,2-13.81,1.59-27.53-1.4-41.34,1.71-11.62,2.26-37.42-1.25-42,11.6-2.45,4.62-3.83,12-9.84,12.95a16.29,16.29,0,0,0-.58,2.26Zm-6.76,14.33c-3.18,2.6-3.23,2.68-3.61,6.92l10.31-2.55c-.62-4.11-4.13-3.54-6.69-4.37Zm-18.21,26a5.81,5.81,0,0,0-.54,6.42c6.69-.91,13.18.47,19.88.79,17.72-2.8,38.83-2.72,57.3-3.09a208.76,208.76,0,0,0,44,7.38c11.75.45,23.41,3.43,35.26,3a9,9,0,0,0,8.6-6.48c.47-3.14,3.47-8.1.13-10.35-10.46-5.71-23.35-3.21-34.3-8.12-19.73-3.56-40.1-3.95-60.1-3.05-23.34,1-55.75-12.25-70.27,13.46Zm-1.62,27a5.71,5.71,0,0,0-.24,1.42c2.95,4.05,8.34,5.24,11.76,8.89a4,4,0,0,0,3.54,1c11.06-1.6,22.21-2.89,33.26-3.4-3.42-7.8-12.62-10.2-17.12-17-1.78-2.24-3.49-6.07-6.94-5.29-21.28.74-15.22-6.92-24.26,14.39ZM576,492.14c-.24.39,0,1.07,0,2.1a31.69,31.69,0,0,0,16.68-4.75,33.28,33.28,0,0,0-10.7-6.73,99.05,99.05,0,0,0-6,9.38Zm-17.34,20a8.77,8.77,0,0,0-3.91,4.81c.81,1.3,1.56,2.5,2.51,4,28.17-1.36,56-5.6,84.15-7.5,17.11-.16,34.09,2.86,51.21,3,7.23.22,14.86,3.64,21.85,2.35a42.51,42.51,0,0,0,3.17-16.17c-21.24-11.93-45.54-6.94-68.55-9.07-23.57-6.65-47.39.14-70.19,6.08-9.27-.57-14.2,6.81-20.24,12.5Zm-9.35,22a36.29,36.29,0,0,0-.5,4.41c14.39.92,28.41.21,42.54,3.14.71.22,1.69.55,2.21-.51-3.12-4.7-9.33-7.25-14.71-8.76-5.1-.75-8.8-4.6-13.49-6.16-6.06-.84-13.84,1.75-16,7.89Zm-18.42,31.11a13.54,13.54,0,0,0,11,1.8c4.84-1.28,9.52.95,14.32,1.31,16.2,1.67,32.42,2.88,48.72,2.45,10.32-1.26,21.07,2.46,31.05.54a2.3,2.3,0,0,1,2.82.15c7,3.41,15.92.61,23.52,3.11,9.19.73,11.17-10.89,14.7-17.24-12.31-8.61-27.37-4.67-41.05-8.51-15.21-3.63-31-1.59-46.46-2.29A234.28,234.28,0,0,0,546.41,544c-8.86,1.77-12.11,13.23-15.68,20.47C530.64,564.64,530.8,565,530.85,565.27ZM516.46,583h0a16.08,16.08,0,0,0-4.7,10.57c11,.48,21.89-2.06,32.76-.45C545.25,591.4,519.13,576.38,516.46,583Zm103.24,10.7c1.42-6.1,8-9.79,9.61-15.86-16.36-4.14-34.11-.83-50.92-2.14-12.14-.15-24-3.53-35.92-4.17-4.37,1.07-8.71.1-13-.45a11.79,11.79,0,0,0-3.86,6.7c9.93,3.81,20.18,10.74,28.57,14.56C575.39,594.16,598.35,592.05,619.7,593.73Zm-111,5.74a3.84,3.84,0,0,0-3.5,2.37c8.89,4.44,19.15,5.88,27.16,12,3.48,2.75,8.07,3.34,12.15,4.79,4.94-7.43,15.11-1.32,22.35-1.9,10,1.87,19.86,3.62,30.07,3.2,9.48-1,34.45,3.74,40.31-3.25,2.07-5.28,8.65-12.14,4.53-17.69-42.68,0-90.38-2.59-133.08.45Zm-14.46,14.85A26,26,0,0,0,489,623c4.22,4.38,10.93,3.36,15.41,7.19,6.14,4.08,14.29,3.6,21,6.76a451.82,451.82,0,0,0,52.08,25.59c6.49,2.89,11.82,9.39,19.13,10.11,5.12-6.14,8.63-.1,13.83-9.73,6.31-8.86,5.94-11.59-5-14.29A128.78,128.78,0,0,1,571,634.93c-10.43-7.31-23-8.75-34.46-13.46-6.31-1.3-10.59-6.58-16.51-8.79a99.5,99.5,0,0,1-13.59-5.07c-5.13-2.55-8.68,4-12.2,6.71ZM511.7,786.66a280.32,280.32,0,0,1,9.15-76.21c5-21.83,22.92-35.83,38.52-49.87-10.66-7.37-23.43-11.11-34.48-18-7-4.14-15.39-4.21-22.41-7.83a16.43,16.43,0,0,0-8.17-3.31c-9.38,1.57-16,10-23.64,14.75-26.25,19.74-43.09,50.07-71.26,67.37C383.85,724,369,735.27,357,749.78c-5.63,7.14-13.88,12.32-16.46,21.53-2.12,7.84-6.4,15.82-4.23,24.1,2,9.77-12.83,8.79,2.71,22.33,6.85,4.75,12.12,12,19.35,16,10.6,2,20.12,7.4,31,7.51a757.29,757.29,0,0,0,76.49,7.84c16.44.7,32.88,1.26,49.23,2.49,13.37,1.07,26.55-2.75,40-1.86,23.46,1,45.36-9.08,67.51-15.24,17-3.84,13-3.29,8.77-18.5-4.27-17.59-9.08-34.9-15.58-51.86-1.36-6.7-4.11-13-5.78-19.65-2.68-5.36-1.94-12.27-6.4-16.65-12.78,5.59-23.47,13.92-36.27,19.27-15.66,6.76-32.17,12.64-49,15.39-3.25,21.77,1.44,43.77,1.85,65.61-.72,6.24,4.61,16-1.93,20-2.08.11-2.39-.66-2.85-2.66C515.07,826.45,512.34,805.92,511.7,786.66Zm655.09-324.17c-2.76-7.5-4.27-15.38-6.45-23.05-7.34-11.36-13.35-5.94-16.86,3.86-7.19,17.61-22.14,30.39-30.37,47.49-9.56,15.51-23.7,27.3-35.18,41.32-12.18,14.55-29.08,23.84-43.62,35.74-56,50.49-130.21,77.68-180,135.39-27.73,28.21-54.37,58.88-88.76,79.17-22.46,14.56-47,25.29-72.57,33.11-22.49,9-44.42,19.6-68.54,23.9-15.17,3.58-29.14,11.11-44.77,12.81-8.07,1.37-15.53,4.54-24,3.06-15.18-1.13-30.13,3-45.33,2.1-20.19-2.14-40.82-2.08-61.23-3.76-24.93-1.93-50.21-4.38-74.66-8.94-8.26-5.12-17.85-2.71-24.65-9.86-2.71-2.32-4.82-5.23-7.67-7.4-5.6-3.93-12.52-14.14-13.73-13.45s-1.41,5.6-.86,9.11c.29,8.36,2,18.13,11.18,20.18,24,15.56,54.11,16.34,81.4,22.39,31.45,6.61,63.84,10.46,96,7.32,26.61,1.94,52.45-4,78-11,25-5.61,50.44-7.57,75.53-12.58,20.14-3.25,35.78-18.69,53.74-27.51,20.7-15.3,43-28,64.72-41.8,13.53-8.47,27.31-17.06,37.23-29.83,7.22-7.42,13.91-15.74,22.63-21.45,15.78-14.92,34.32-26.48,50.3-41.22,14.75-12.95,29.22-26.74,46.91-35.62,21.27-13.47,45.11-22.29,66.32-35.57,18.11-12.42,33.69-28.28,49-44,15.49-15.36,29-32.79,45.39-47.18,15.8-15.61,31.89-32,42.56-51.58,3.78-5,6.91-10.53,10.49-15.58,1.53-1.33,4.29.37,3.5,2.29-2.59,8.43-9.7,14.42-12.73,22.7-14.52,21.16-33.08,39.3-51.56,57-27,28.34-52.4,58.82-84.48,81.61-25.65,14.5-53,26.06-77.92,42-18.53,13-33.78,29.71-51.7,43.45-9.82,7.76-21,13.93-29,23.8-5.23,3.83-11.25,6.92-15.07,12.46-7.93,6.92-13.86,15.78-22,22.61-20.23,17.27-44.27,29.16-66.44,43.57-9,4-15.43,11.76-24,16.31-13.8,7.26-26.5,16.23-40.05,23.8-25.56,10.72-54.75,9.8-81.67,15.81-22.58,4-44.63,11.25-67.57,13.37-18.29-.89-36.48.8-54.75.59-19.4-.4-38.61-3.84-57.83-6.26-30.44-7.64-62.86-8.83-90.88-24.11.58,8.55,3.76,16.11,6.21,24.16.38,3.63,1.24,9.6,2.43,10.65s9.56,5.18,13.25,6.31c7,2.58,17.94,8.22,24.89,12.35s27.81,11,30,12c25.68,7.66,52.4,13.2,79.41,11.84,21.13-.31,42.34.67,63.15-3.79,19.69-3.6,39.92-2.93,59.53-6.92,19.24-5.5,38.57-10.39,57.2-17.8,13.1-6.64,26.31-13.2,40.39-17.6,39.5-15.3,69.51-47.3,107.46-65.78,13.69-10.27,27.81-20.15,39.94-32.3C869.24,771,883.76,764.42,895.93,755c24.28-18.65,46.73-39.86,73.43-55.33,31.73-20.08,64.31-38.83,94.46-61.25,16.31-12.56,29.75-28.43,45.52-41.62,17.11-13.42,32.82-29.56,41.94-49.55,6.65-14.27,22.46-23.88,23-40.63C1176.21,492.26,1172.9,477.33,1166.79,462.49ZM501.31,601.62c0,.15-.07.3-.09.44-1.26.91-2.55,1.78-3.78,2.73,1.23-.95,2.52-1.82,3.79-2.73C501.25,601.92,501.29,601.77,501.31,601.62ZM1007.1,315.3c-2,3.3-29.88,24.49-17,23.34,4.8-3.32,8.34-8.2,12.81-11.93a99,99,0,0,0,31.72-64.43,65.41,65.41,0,0,0-2.12-25c-2.71-9.47-2.29-19.69-6.64-28.68-2.91-3.54-3.75-23-9.44-19.48a2.72,2.72,0,0,0-1,3.05C1029.86,240.37,1041.53,271.76,1007.1,315.3Zm-223,292.42c-.53-1.9-3.57-1.4-3.78.45s.88,3.75-.45,5.47c-4.31,1.51-9-4-5.86-7.77,4.38,1.39,7.33-3.49,2.95-5.68-6.33-1.21-10.51,8.39-7.62,13.35C774.49,621.79,788.7,618.64,784.07,607.72Zm42.42-82.78c3.18-9.13,26.23-.05,8,11.17C829,539.42,824.93,529.31,826.49,524.94Zm6.34,7a5.66,5.66,0,0,0,3.39-2.8c-1.42-3.67-2.84-4.06-5.31-2.15A5,5,0,0,0,832.83,531.91Zm105.42,53.83c-12.14,3.26-15.71-12.08-2.83-13.31C941.45,573.14,945.83,583.44,938.25,585.74Zm-1.39-4.55c-.14-.53-.23-1.39-.39-1.4.43-1.78-.07-3.18-3.66-1.59-1.39-.07-1,1.81-.19,2.28A5.5,5.5,0,0,0,936.86,581.19Zm-27-19.09a5.57,5.57,0,0,1-9,3.4c-6.43-2.73-5.19-13,2.13-13C904.9,552.48,910.72,558.79,909.91,562.1Zm-4.13.55c.61-.66.91-1,1.16-1.29C906.52,552.9,895.07,557.58,905.78,562.65Zm-28.42-16.47c-2.66,1.72-9.6,5.52-11,.9-1.86-6.09-.31-11.55,6.89-11.58C878.1,534.14,881.41,543.57,877.36,546.18Zm-2.64-3c1.94-3.15-2.49-3.3-4.48-2.48-.39,4.56,2.14,4.39,4.48,2.48ZM810.06,633.6c-10.9.92-4.93-14.79,3-12.56C819.87,624,817.66,634.25,810.06,633.6Zm.86-8.09c-2.65-.26-3.9,4.1-.64,4.31C811.56,629.64,813.36,625.76,810.92,625.51ZM716.81,689c-3.76,2.9-9.83-5.13-8.71-8.41,3.07-7.38,4.73-4.51,10.65-3.88C723.74,677.36,719.71,687,716.81,689Zm-2.34-8.2c-.7,0-1.42-1.56-2.11.15s1.9,4.64,3.21,4.16C717.91,683.61,717.56,679.79,714.47,680.77ZM741,706.33c-3.19-.91-7.15-.71-9.43-3.46a4.06,4.06,0,0,1,.83-5.68c3.39-4.51,8.56-.6,11.43,2.44C746.84,701.76,744.26,706.38,741,706.33Zm-5.42-7c-.94.68-1.05,1.66.1,2.19.09.08,4.87,2.49,5.45.32C740,700.64,737.35,697.45,735.58,699.38ZM766.4,723.1c-9.74,1.95-11.53-11.51-.86-11.57C772.41,711.35,772,721.3,766.4,723.1Zm.3-5c.13-2.56-4.2-4-4.49-.91.18,1.69,2,3,3.3,2.45C766.09,719.39,766.39,718.54,766.7,718.11Zm65.46-74.41c-2.48-5,6-10.42,9.38-5.9C850.22,645.55,835.35,652.62,832.16,643.7Zm8.35-.75a2.64,2.64,0,0,0-2.51-3.29c-3.59,1.7.81,7.23,2.52,3.29Zm19.66,18.93c-3.68-5.24,5.82-10.39,9.55-6C875.39,662.76,864.37,665.1,860.17,661.88Zm7.47-3.8h0c-2.29-2.91-8.56,2.51-2.88,2.15C865.94,660.23,867.83,658.39,867.64,658.08Zm-81,69.39c3.32-5.28,8.22,1.36,9.34,5C797.32,741.17,782.18,734.09,786.65,727.47Zm3.21,1.18c-1.79.67,1.09,5.25,2.6,4.57S791.25,729.48,789.86,728.65Z"/></g><g id="front">
  <path class="cls-2" d="M358.6,414.72c-23.24-.74-49.58-17.89-47.43-43.57-12.63,4.31-26.91,3.59-25.67-13.38-7.32-3-7.57-3.2-9.78-8.46-9.21.94-24.94,1.79-25.33-11-1.15-9.46,3.24-11.56,11.06-14.9-4.57-18,9.94-36.83,29-30.45,3.49-.48,4.56-5.06,6.65-7.47,4.76-9.3,19.41-5.17,26.85-1.46,20.64-16.48,52.52-2,63.9,19.18,19.83-10,46.87,8.35,45.8,30.08,15.89-.88,27.36,15.82,27.89,30.29-2.52,21.24-28.34,35.22-47,22C400.64,401.63,380.15,413.42,358.6,414.72Zm-44.84-49.44c4.76.9,0,15.18,5.4,20.91,7.79,17.35,30.12,26.25,48.18,22.46a78.47,78.47,0,0,0,39.78-22.45c3.34-2.12,3.61-8.48,7.54-9.05,3.06,0,3.41,5,6.24,6,19,11.17,47-14.68,31.06-33.14-4.18-8.05-12.28-13.05-21.44-11a3,3,0,0,1-2.5-.91c-1.93-3.56,2.5-8.2-.15-11.93-6.83-14.37-22.55-26.29-37.08-18.06-.12,2.91,3.71,9.47-1.91,9.09A2.58,2.58,0,0,1,387,315a49.2,49.2,0,0,0-7.88-15.36c-10.73-13.83-35.09-24.21-50.22-12.21,4.75,5.75,8.71,12.23,10.25,19.64A5,5,0,0,0,341,310.6c11.1-.5,25.7,2.81,29.17,14.9,2.76,7.08,2.6,15.06-2.72,20.92-3.28,3-5.53-2.67-2.59-4.71,5.1-7.1,1-19.25-7-22.39C351,315.18,343,318.06,336,316.51c-2.3-8.64-4.05-18.16-11-24.62-4.39-5.08-10.93-5.9-17.12-7.18-8.06-2.34-9.32,12.26-15.52,13.43-22.89-10.12-34.25,18.39-23.13,25a2.27,2.27,0,0,1,1,2.9c-5.19,3.91-16.63,0-15.26,10.45,1.15,12.65,18.06,8.07,26.05,5.42,3.11.7,3.6,3.4,1.29,6.09-1.46,4.3,4.16,3.89,6.83,3.81,2.49.42,2.92,3.27,1.83,5.18C287.79,373.09,304.42,370.19,313.76,365.28Z"/><path class="cls-2" d="M567.17,256.25c-5.45-2.28-10.87.43-16.16,1.78-1.88.52-2.53.26-3.62-1.29-6.47-12.1-21.3-15.11-33.5-10.21-13.73-18.55-50.06-15.29-32.79,12.64-11.48,4.34-17.57,8.21-19.88,21.26-3,14.45,10.07,18.1,21.69,18.77-.46,8.65,2.74,16.1,10.66,20.16,9.08,3.72,17.14-.75,26.13-3.52,5.83,15.86,22,15.57,34.81,7.83,12.19-5.76,10.69-19.85,12.1-31.16,5.33-2.67,12.56-2.61,14.83-8.74C586.42,271.88,580.23,258.41,567.17,256.25ZM579,277.59c1,11.28-13.12,6.59-19,10.67a3.14,3.14,0,0,0-.83,3.89c3.64,6.84,2.12,13.84.72,20.83-2,5.93-9.09,8.33-14.51,10.4-26.74,6.61-17.1-20-24.6-14.85-6.47,6-18.11,10.45-26,5.41-5.73-3.67-10-11.27-4.9-17.2,1.92-1.9.45-5.11-2.74-3.91-6.88,1.43-19,2.22-20.6-6.64-1.25-7.06.42-13.34,6-18,4-3.52,9.58-3.38,14.38-1.46,3.17,1.33,8.15-.51,5.34-4.4-31.21-31.6,18.06-24.72,15-8.83-1.13,3.73,3.76,1.76,5.35.67,11.13-8.88,27-3,31.68,10,1.28,3.42,5.23.17,7.31-.85C562.53,257.05,579.54,264.06,579,277.59Z"/><path class="cls-2" d="M425.38,421.26c-1.78-2.72-5.32-2.93-7.95-1-3.52,2.19-2.55,7.1-6.39,9-7.81,5.09-4.22,17.18,5.71,14.23,6.41,7.89,24.54,6.94,24.52-5.31,0-5.95-4.78-12.33-10.58-13.56A7.5,7.5,0,0,1,425.38,421.26Zm11.89,16.52c1.24,6.62-7.31,6.66-11.66,5.24-4.05-.42-4-7.09-8.05-6.33-2.63,1.45-5.65,2.09-5.61-2,3.14-.43,7.14-2.55,6.88-7,.09-.73-1.4-2.32.92-2.95a2.7,2.7,0,0,1,3.31,1.94C426,431.65,434.68,426.67,437.27,437.78Z"/>
</g>
</g>
</g>
</svg>
