<svg xmlns="http://www.w3.org/2000/svg" viewBox="0 0 1280 1280"><defs><style>.cls-1{fill:#ecdcd0;}.cls-2{fill:#fff;}</style></defs><g id="Ebene_2" data-name="Ebene 2"><g id="type-2"><rect class="cls-1" width="1280" height="1280"/><g id="back"><g id="Group_547" data-name="Group 547"><g id="Group_542" data-name="Group 542"><path id="Path_1261" data-name="Path 1261" class="cls-2" d="M1075.59,842.26a269,269,0,0,0,65.14-13.86c18.34-5.53,30.67-18.92,45.65-29.7,23.16,11.22,34,36.06,16.67,56.87-9.64,13.59-9.46,13-24.3,4.07-36.26-14.82-80.65-10.43-117-.33C1039,863.67,1005,890,1024.81,913.65c18.44,13.6,42,16,64.16,13.5,35.42-1.48,72-7.65,101.18-29.11,4.12-3.06,5.81,2.56,7.34,5.12,12.09,16.75,5.5,26.92-8.5,39.14-3.76,4.74-13.59-7.57-22.37-6.77-37-2.34-75.58-7.6-111.56,3.69-39.75,12-37.42,38.11.2,51.49a216.34,216.34,0,0,0,45.89,8.29c17.83-1.22,35.67-4.25,52.42-10.49,8.13-2.93,16.2-5.66,24-9.46,1.35-.51,3.59-2.26,4.6-.67,1,16.14-28.37,23-41,24.15a190.7,190.7,0,0,0-30.25,2.92c-4.3,1.69-13.81-2.69-13.55,4.34.32,15.22,5.92,11,17.86,12.92,16.85,3.31,33.32-2,49.57-5.81,13.43-3.24,23.52-12.33,31.67-23,13.16-11.87,2-25.88,11-35.11,10.77-6.9,13.89-19.81,19-30.85,3.6-14.52-9.15-34.41-17.84-45.68,3.55-6.58,11.27-11.12,17.29-17.53,24.46-31.34,5.89-68.28-26.66-83.88,3.1-8.35,10.88-17.94,12.43-28.79,2.71-32.17-29-48.92-48.69-68.48,3.42-11.61,5.24-23.57,7.39-35.48.28-4.35,2.81-9,.74-13.18-6.74-15.42-16.06-29-30.16-38.55-10.22-9.6-24.65-12-35.84-19.79,5.87-48.38-22.89-74-69-78,.21-17.46-13.1-35.68-31.42-35.82-8.89-.68-17.16,2.16-25.91,2.88-16,1.39-33,2.56-46.95,11.19-6.86,5.18,1.72,14,1.44,20.79,0,2.15,2.71,4.66,4.26,2.39,5.21-7.47,16.11-6.14,23.57-10.47A46.59,46.59,0,0,1,981.7,486c10.84,1,24.24-.48,30.61,10.38,1.08,1.65,1.35,4.25-.95,5-11.91,2.06-23,7.46-34.8,10.07-19.46,7-38.58,16-54.33,29.9a77.65,77.65,0,0,0-29.43,34.89,112.78,112.78,0,0,0-16,32.37c-5.31,29.74,13.54,56,45.06,41.84,8.89-1.45,14.41-9,22.13-12.87,8.19-6.41,15.21-14.25,23-21.12a50.12,50.12,0,0,1,10.2-9.58c9.39-7,15-17.61,22.14-26.66,17-18.55,27.44-42.9,35.17-66.58A55,55,0,0,1,1076,545.67c3.52,7.08-.39,14.27.19,21.62-1.23,13.73-4,27.23-10.93,39.3-13.84,25.54-33.09,48.8-58.5,63.44-14.68,8.39-32.85,18.68-49.81,11-5.13-2.28-3.9-8.37-.21-11.42a228.33,228.33,0,0,1,18.73-22c14.44-15.28,32.29-28.39,51.7-36.65,12.39-7.4,26.14-11.16,39.69-15.81,3.85-2.64.71-5.88-3.39-3.86-28.75,10.22-56.64,23.18-80.06,43.14-12.19,10.06-22,22.47-31.81,34.69-9.22,8.26-2.78,14.88,7,17.45,28,6,53.69-14.68,74.57-30.94,17.77-17.58,32.72-38.58,42.14-61.81,3.53-10.79,3.89-22.4,7-33.24,3.79-18.7-11.63-35.17-26.45-44.46-5.77-4.61-14.39-4.31-20-8.8,2.66-4.11,14.93.41,19.59,0,19.42,3.42,36.15,16.71,41.89,35.77,5.41,14.5.59,29.46-1.18,44.12-2.61,15.69-6.16,31.06-16.13,43.72-6.29,13-16.74,23.76-26.82,32.49-5.27,4.61-11.34,5.37-15.66,10.6-13.35,13.7-31.12,20.78-48,28.65-7.36,4-15.87,5-24,6.39-9.55,1.3-17.83-4.21-26.14-7.91-9.83-8.13-6.18-30.28-2.71-41.39,5-9.34,13.06-17,21.2-23.65,14.43-12.94,28.53-26.1,46.9-33.26,19.3-11.34,40.32-21.17,62.65-24.26,2.23-.41,6-.74,5.54-3.89a2.52,2.52,0,0,0-2.88-1.94c-10.09,1.9-19.94,5.15-29.6,8.57-33.15,12.49-64.55,30-89.49,55.34-12.84,9.18-23.66,22.78-23.52,39.27-1.41,24.68,3.07,28.46,25.65,36.44,19.07,4.6,36.61-6.37,53.8-12.83,16.07-5.8,27.5-18.81,41-28.38,13.24-8.83,25.12-19.12,32.3-30.77,11.86-12.29,16.55-22.08,19.66-38.79,2.49-13.46,29.73,11.17,34.5,15.67,4.76,6.79,10.36,14.25,10.61,22.79-2.33,16-5.77,32.44-14.8,46.15-19.23-5.13-38.73.3-57.67,4.15-16.11,4.79-33.68,7.12-48.31,15.58-14.13,9.05-35,17.27-35.68,36.53,4.94,21,28,20.1,44.82,16.8,9.09-.55,15.08-2.88,23.09-6.37,10.42-1.92,18.39-8.67,27.57-13.23,31.33-16.82,47.9-35.61,60.2-69.28,2.42-11.49,7.87-23.89,5.69-35.61-3.67-8.41-7.66-17.28-14.47-23.6-9.2-7.26-18-15.47-29.36-19.21-3.67-1.09-4.28-1.94-3-5.45-.27-6.11,4.09-3,7.49-1,22,10.66,50.34,24.66,54.15,51.34,2.43,12.5-2.59,25.69-5.33,37.86-8,29.77-28.18,53.57-51.4,73C1077.8,770,1023.46,780,987,771.37c-13.68-3.5-23.5-20.15-13.11-31.83,13.37-15,28.37-29.2,46.17-38.8,22.23-11,46.71-16.08,70.61-22.78,17.81-6.65,36.68,3.09,35.6-4.51-17-11.27-61.17,8.95-81.18,13.22-25,5.63-46.83,18.69-64.73,36.78-20.26,16-24.7,33.56-1.06,49.33,28.06,14.54,91.21,2.29,118.56-12.11a167.81,167.81,0,0,0,54.74-55.23c5-5.05,19.53,13.82,23.58,17.45,12.54,13.82,6.68,34.35-.74,49.18-30.11-2.07-60.43-.89-90.12,4.77-7.39,1.51-14.93,1.73-22.43,2.15-18.56,3.38-35.22,12.38-50.51,23.07-12,10.1-5.71,30.34,7,36.8,5.64,2.17,5.35,3.34,13.17,4.09C1044.5,843.75,1061.69,844,1075.59,842.26Zm110.54,146.13c1.94-10-1.18-16.37,11.49-20.71,4.82,11.49-3.6,20.49-10.39,28.31-17.82,19.24-55,25.09-80,19.82-1.25-.23-2.63-.25-2.89-2,.21-2.34,4-1.74,6-2.14,9.69-.83,19.27-3.72,29.09-3.12a41.92,41.92,0,0,0,15.35-2.25C1165.54,1001.25,1181.07,1000.65,1186.13,988.39Zm22.64-72.07c-2.8-9-8.08-15-11.71-23.12a24.36,24.36,0,0,1,7.44-6.85c7.88,5.39,21.29,29.83,17.21,39-8,27.33-27.43,38.35-50.36,49.79-34.23,15.63-69.91,22.73-106.37,12.8-60.79-16.91-28.85-43.67,15.42-47.27a284.39,284.39,0,0,1,57.38-.93c9.59.68,63.22.33,33.68,15.66-22.36-14.11-60.29-13.11-86-9.12-11.3,2-46.47,7.42-24.47,22.84,16.32,6.47,34.6,11.51,52.14,11.6,24.77-3.65,50.46-8.34,69.74-25.46C1196.31,945.27,1211.75,931,1208.77,916.32ZM1164,959.68c-11.7,9-44.52,15.86-59.42,14.76-14.27-4-34.16-2.48-44.46-14.09,25.71-13.55,62.74-12.32,90.83-7C1154.81,954.82,1163.39,954.72,1164,959.68Zm-65.8-104.2c30.82-3.35,62.67-.39,90.27,14.41a48.78,48.78,0,0,1-9.43,5.78c-10.46-8.83-24.24-8.88-37.17-10.34-10.49-.45-21-1.9-31.59-.58-23.14,3.29-50,3.17-66.7,22.14-11.54,39.52,46.25,27.48,68.72,25.46,12.38-3.48,25.18-6.54,37.12-11.44,13.38-6.08,24.63-15.69,37.33-22.95,13.23-7.27,24.68-22.44,28.9-36.22,3.61-12.27-1.47-21.26-6.31-31.6-4.43-7-11.53-11.15-17.73-16.36,1.52-2.5,2.28-7.74,6.26-6.22,13,6.07,25.23,16.66,31.15,29.81,11.22,26.82-7,43.88-24.94,60.83-15.2,17.38-35.76,28.89-57.58,36.1-19.79,5.28-40.59,6.25-60.94,8-18.87,2.36-38.32-.19-54.48-10.76-12.06-8-4.39-25.09,4.51-32.51C1053,863.36,1075.86,860.06,1098.18,855.48Zm74.69,24.32c-4.18-.95-6,4.55-9,6.59a113.15,113.15,0,0,1-39,16.76c-19.44,7-43.61,8.06-63.4,6.12-8.57-1-13.21-4.85-13.82-13.53,2.15-13.18,26.95-21.32,39.45-22.81,14.49-1.08,28.83-4.48,43.46-3.47C1137.77,870.42,1174.81,871.05,1172.87,879.8Zm17.26-165.28c11.26,10.82,20.67,27.56,14.5,43.5a117.46,117.46,0,0,1-41.9,53.62c-26.56,20.77-111.61,37.26-142.19,22.4-17.13-15-8.78-28.24,8.62-37.14,12.67-7.57,26.44-13.45,41.42-14,24.23-3.43,46.35-5.65,71.41-7,6.86-.48,20.48-.46,27.81,1.94-.58,2.5-8.92,9.53-10.15,9.62-14.65.73-27.07-2.24-40.9-1.11-26.33,1-52.58,4.38-76.29,16.25-9.93,4.93-21,18.45-6.87,25.79,12.61,5.29,27.21,1.75,40.47.85,22.31-1.79,43.78-10.28,62.92-21.59,14.79-7.51,29.17-15.2,39-29,5.07-5.65,7-13.11,8.55-20.37,2.86-6.79,3-13.46,1.44-20.69-1.66-17.9-19.48-27.19-30.76-39.09,1.23-2.74,2.44-5.47,3.66-8.22.8.47,3.84,1.05,3.61,2.23C1164.51,692.56,1183,708.16,1190.13,714.52Zm-45.71,85c-29.19,16.92-61,27.45-95,26.84-16.69,1.46-20-10.91-5.84-19.18,11.32-6.11,23.39-9.54,36.06-12.23,24.84-4.27,50.53-4.78,75.84-2.5A41.18,41.18,0,0,1,1144.42,799.54ZM1126,694.22c-11.1,20.79-29.3,32.29-49.53,43.85-13.43,7-32.75,17.76-47.55,16.89-13.71,1-35.45,2.77-34.66-16.46,2.63-8.63,12.31-14,19.09-19.62,21.14-16,47-22,72.61-26.8C1090.31,690.68,1134.37,685.25,1126,694.22ZM1011.37,508.87c2.5,1,.27,1.4-1.45,2-27.45,6.65-55.47,21.26-76.14,40.86-15.84,14.57-43.95,34.94-43.86,58.12,4.8,53.87,50.79,14.68,72.76-4.28C983.34,588.25,1036,516.18,1015,491c-8.73-10.4-23.45-10.95-36.05-11.41-15.07-.68-27.54,9.46-42,11.05-.68-2.57-1.38-5.17-2.06-7.75,14.25-11,37.21-7.87,54.3-12,8.3-1.29,18-3.65,25.37,1.65,8.27,5.53,16.2,12.76,15.76,23.48.55,22.23-10.05,41.84-20.19,60.89-6.5,11.6-15.63,21.11-23.37,31.83-2.94,4.74-7.22,8.54-10.94,12.72-3.77,2-7.25,3.94-9.51,7.76-3.81,6.25-10.76,9.19-15.07,15a34.25,34.25,0,0,1-10.5,9c-11.9,7-23.35,17.51-38.18,15.92-3.85-.71-8-1.23-11.38-3.1-5.58-2.87-9.62-11-8.36-12.79,2-4.34-1.45-7.35-1.91-11.27-1.63-11.28,3.64-21,9.12-30.46,8.31-13.54,14.92-28.78,27.68-38.9,7.85-5.82,14.76-13,23.66-17.24a183.54,183.54,0,0,1,41.6-19.17C991.55,514.14,1003.32,508.06,1011.37,508.87Zm-1.9,14.37c1.25,6-3.5,10.24-6.06,15.11-8.92,18.77-20.46,35.83-33.55,51.89-15.83,18.4-77.48,74.06-73.93,16.37,7-17.6,22.2-30.13,35.76-42.8,5.58-4.71,11.29-9.19,15.84-15,9.94-7.25,20.29-14,31.61-19,9.85-4.64,19.48-11.2,30.84-10.68C1009.55,520.08,1009.2,523.19,1009.47,523.24Z"/></g></g></g><g id="shoe"><path class="cls-1" d="M680.25,283c-17,4.62-33.78,10.56-51,14.64-5.77.32-8.83,4.72-7.91,10.3.43,14.53-1.23,29.08-2.67,43.52-3.51,2.86-4.09,3.38-5,5.6-1.66,7.17-9.14,15-5,22.19,7.37,11,4,25.43,2.19,37.58.38,4.66,6,1.81,6.22-1.58,3.72-24.21-2-26.61,14.67-4.11a1.79,1.79,0,0,1,1.54,1.84h0c-31.31,20-29,.81-36.26,34.91-1.62,8.19,7.81-1,7,8.87a2.08,2.08,0,0,1-1.73,2.26c-5.15,2-9.45,6.11-13.93,9.33-5.25,4.57,4.6,7.85,3.77,12-6.26,5.28-9.77,13-16,18.31-1.74,2-1.53,5.16-3.65,7.06a9.47,9.47,0,0,1-4.2,4.44c-3.16,2.05-4.66,5.81-7.28,8.48-2.73,4.45-9.37,8-9.47,13.43,4.65,6.83.51,6.08-4.36,10.27a27,27,0,0,0-9.57,11.33c-1.26,2.31-1.43,5.52-4,6.88a6,6,0,0,0-3.13,3.72c-1.91,8.7-10.7,12.45-14.54,19.7-6,16.28-26.11,24.54-27.06,43.12-6,.93-7.86,6.78-11.46,10.87-6.85,7.61-14.78,14.1-22.27,21-26.52,19.41-49.24,43.85-77.18,61.49-12.87,8.06-26.38,15.13-38.65,24.17-17.25,15.76-22,41.24-21.81,63.75-2,9.68,1.17,18.87,3.89,28.09.38,2.31,5.33,1.23,4.86,4.85.47,6,1.13,12.1,3.88,17.59,7.18,13,12.82,28.61,26.22,36.46,20.78,8.91,44.12,8.44,66.13,11.85,38.56,5.26,77.49,8.25,116.34,9.8,7.66-.46,7.28,10.47,15.44,8.48a18.07,18.07,0,0,1,3.75.06c11.38-.74,35,8.92,38.62-6.46,1.75-4.38,3.61-10,9.42-9,18.34,2.16,35.12-5.82,53-7.17,5,.51,7.31,9.08,12.81,7.56,10-4.58,21.58-4.34,32-7.81,4.52-2,13-1.46,13.74-7.71.36-1.89-.21-4.58,1.68-5.78a15.56,15.56,0,0,1,7.53-2.81c8-.74,15.6-4.76,22.66-8.48,19.11-12.79,19.37-.74,28.54-6.09,3.93-4.94,9.52-8,14.25-12.13,5.8-5.33,9.76-12.43,17.09-16.21,3.62-2.87-1.57-7.88.15-11.79a4.68,4.68,0,0,1,2.14-3.66c7.19-4.64,12.48-11.67,18.62-17.54,5.15-5.66,13.79-4,20.11-7.72,7.06-1.89,1-11.52,6.3-20.9,3.55-5.44-4.9-8.63-2.67-13.75,2-8.23,7.82-14.67,10.76-22.49,3.32-6.7,13.14-2.53,18.79-6.09,4.91-3.65,7.78-15.68,2.39-20.08-8.39-7.15,2.95-21.17,8.44-27.4,5.84-4.75,13.83-7.13,21-9,5.63.3,6,11.16,12.19,10,6.63-3.53,14.43-1.74,21.26-4.37,6.34-8.42-2-20.55,13.2-26.64,4.52-2.05,9.36-3.73,13-7.2,6.34-4.7,14.45-6.38,21.25-10.49,3.36-1.6,5.66,3.68,9.3,1.38,9.56-3,20.34.25,29.44-4.39,2.79-1.11,2.77-4.48,3.45-6.95,1-6.58,7.6-6.62,12.86-7.24,9-.62,15.94-7.1,24.35-9.29,2.06-.36,4.16-.68,5.71,1.38a2.75,2.75,0,0,0,1.58.94c4.74,1.47,9.72,5,13.57-.25a52.36,52.36,0,0,1,14.07-9.18c2.6-1.31,6.9-2.31,6-5.93-2.56-5.4-11.77-10.79-5.23-17,7-5.13,14.94-9.16,22.83-12.76,2.33-1.66,5.4-2.28,6.91-5.13a2.8,2.8,0,0,1,2.78-1.09c4.76,1.38,10.13,0,14.21-2.56,5-3.4,6.82-9.41,7.53-15.15.61-3.19,4.55-3.38,7-4.58,4.76-1.67,8.69-5,12-8.68,15.22-14.82,24.91-10.3,16.91-36.89-5.79-33.19,1.18-27.43-26.49-51.19,0-11.68-2.23-22-3.87-33.29-.62-4,.39-9.81-4.63-11.17-6.33-1.35-15.36-1.72-19.27-7.33-6.56-30.1-13.24-60.42-26.53-88.2a35,35,0,0,0-9.36-17.31c-7.93-8.6-13.93-18.69-21.81-27.3C1066,242.34,1040,224.46,1029.94,191a328.88,328.88,0,0,0-14-35.92c-2.41-8.69-6.68-16.61-10.86-24.53-2.15-4.3-8.68-2.09-12.53-4-8.68-.9-17.51-.72-26.12-2.38-8.9-1.5-17.84,1.09-26.8.27-11.85,2.87-27.25-6.92-36.43,3.58C897,137.9,886,146.66,884.7,158.61c.38,13.7,2.1,27.54.43,41.2-2,17.33,5.15,41.05-12.28,52.29-15,8.76-32.38,15.76-49.59,17.38-8.42-2-12.79-13.57-22.46-13.35-8.83-1.53-17-5.6-26-6.39A37.34,37.34,0,0,1,760,244.83c-10.06-7.52-22.85-5-34.06-9.13a7.7,7.7,0,0,0-5.53-.11c-9.72,3-12.37,14.23-17.79,21.68-18.6,23.36-23.8,52-37.09,74.84-8.31,15.37-12.62,32.77-22,47.51a1.32,1.32,0,0,1-1.67.27c-6.67-5.85-11.64-12.9-15.93-20.61-3.93-17.16,2.66-35.69.89-53.38-2.27-5.29,21-7.63,25.18-10.46,7.49-1.07,14.1-5,21.56-6.08C676.86,288.76,686.08,287.21,680.25,283Z"/><path class="cls-2" d="M685.12,553.6h0a8.73,8.73,0,0,0-.1-.91A6.67,6.67,0,0,1,685.12,553.6Zm1.5-29.61h0a3.86,3.86,0,0,1,1.61-.32A3.54,3.54,0,0,0,686.62,524Zm95.32-62.3-.1.19.11-.2.24,0a1,1,0,0,1-.38,0v0ZM673.57,289.36c-7.46,1.06-14.07,5-21.56,6.08-4.19,2.83-27.45,5.17-25.18,10.46,1.77,17.69-4.82,36.22-.89,53.38,4.29,7.71,9.26,14.76,15.93,20.61a1.32,1.32,0,0,0,1.67-.27c9.39-14.74,13.7-32.14,22-47.51,13.29-22.88,18.49-51.48,37.09-74.84,5.42-7.45,8.07-18.7,17.79-21.68a7.7,7.7,0,0,1,5.53.11c11.21,4.16,24,1.61,34.06,9.13a37.34,37.34,0,0,0,14.74,4.91c9,.79,17.21,4.86,26,6.39,9.67-.22,14,11.36,22.46,13.35,17.21-1.62,34.64-8.62,49.59-17.38,17.43-11.24,10.33-35,12.28-52.29,1.67-13.66,0-27.5-.43-41.2C886,146.66,897,137.9,903.18,128c9.18-10.5,24.58-.71,36.43-3.58,9,.82,17.9-1.77,26.8-.27,8.61,1.66,17.44,1.48,26.12,2.38,3.85,1.92,10.38-.29,12.53,4,4.18,7.92,8.45,15.84,10.86,24.53a328.88,328.88,0,0,1,14,35.92c10.1,33.44,36.08,51.32,59.87,74.23,7.88,8.61,13.88,18.7,21.81,27.3a35,35,0,0,1,9.36,17.31c13.29,27.78,20,58.1,26.53,88.2,3.91,5.61,12.94,6,19.27,7.33,5,1.36,4,7.15,4.63,11.17,1.64,11.27,3.85,21.61,3.87,33.29,27.67,23.76,20.7,18,26.49,51.19,8,26.59-1.69,22.07-16.91,36.89-3.36,3.68-7.29,7-12,8.68-2.42,1.2-6.36,1.39-7,4.58-.71,5.74-2.5,11.75-7.53,15.15-4.08,2.58-9.45,3.94-14.21,2.56a2.8,2.8,0,0,0-2.78,1.09c-1.51,2.85-4.58,3.47-6.91,5.13-7.89,3.6-15.86,7.63-22.83,12.76-6.54,6.22,2.67,11.61,5.23,17,.91,3.62-3.39,4.62-6,5.93a52.36,52.36,0,0,0-14.07,9.18c-3.85,5.22-8.83,1.72-13.57.25a2.75,2.75,0,0,1-1.58-.94c-1.55-2.06-3.65-1.74-5.71-1.38-8.41,2.19-15.34,8.67-24.35,9.29-5.26.62-11.85.66-12.86,7.24-.68,2.47-.66,5.84-3.45,6.95-9.1,4.64-19.88,1.35-29.44,4.39-3.64,2.3-5.94-3-9.3-1.38-6.8,4.11-14.91,5.79-21.25,10.49-3.69,3.47-8.53,5.15-13,7.2-15.22,6.09-6.86,18.22-13.2,26.64-6.83,2.63-14.63.84-21.26,4.37-6.24,1.11-6.56-9.75-12.19-10-7.18,1.92-15.17,4.3-21,9-5.49,6.23-16.83,20.25-8.44,27.4,5.39,4.4,2.52,16.43-2.39,20.08-5.65,3.56-15.47-.61-18.79,6.09-2.94,7.82-8.73,14.26-10.76,22.49-2.23,5.12,6.22,8.31,2.67,13.75-5.3,9.38.76,19-6.3,20.9-6.32,3.71-15,2.06-20.11,7.72-6.14,5.87-11.43,12.9-18.62,17.54a4.68,4.68,0,0,0-2.14,3.66c-1.72,3.91,3.47,8.92-.15,11.79-7.33,3.78-11.29,10.88-17.09,16.21-4.73,4.08-10.32,7.19-14.25,12.13-9.17,5.35-9.43-6.7-28.54,6.09-7.06,3.72-14.62,7.74-22.66,8.48a15.56,15.56,0,0,0-7.53,2.81c-1.89,1.2-1.32,3.89-1.68,5.78-.69,6.25-9.22,5.7-13.74,7.71-10.46,3.47-22.06,3.23-32,7.81-5.5,1.52-7.82-7-12.81-7.56-17.89,1.35-34.67,9.33-53,7.17-5.81-1-7.67,4.57-9.42,9-3.59,15.38-27.24,5.72-38.62,6.46a18.07,18.07,0,0,0-3.75-.06c-8.16,2-7.78-8.94-15.44-8.48-38.85-1.55-77.78-4.54-116.34-9.8-22-3.41-45.35-2.94-66.13-11.85-13.4-7.85-19-23.46-26.22-36.46-2.75-5.49-3.41-11.56-3.88-17.59.47-3.62-4.48-2.54-4.86-4.85-2.72-9.22-5.89-18.41-3.89-28.09-.19-22.51,4.56-48,21.81-63.75,12.27-9,25.78-16.11,38.65-24.17C406,702.84,428.72,678.4,455.24,659c7.49-6.94,15.42-13.43,22.27-21,3.6-4.09,5.48-9.94,11.46-10.87.95-18.58,21.1-26.84,27.06-43.12,3.84-7.25,12.63-11,14.54-19.7a6,6,0,0,1,3.13-3.72c2.53-1.36,2.7-4.57,4-6.88a27,27,0,0,1,9.57-11.33c4.87-4.19,9-3.44,4.36-10.27.1-5.39,6.74-9,9.47-13.43,2.62-2.67,4.12-6.43,7.28-8.48a9.47,9.47,0,0,0,4.2-4.44c2.12-1.9,1.91-5,3.65-7.06,6.22-5.34,9.73-13,16-18.31.83-4.14-9-7.42-3.77-12,4.48-3.22,8.78-7.3,13.93-9.33a2.08,2.08,0,0,0,1.73-2.26c.78-9.86-8.65-.68-7-8.87,7.28-34.1,5-14.9,36.26-34.91h0a1.79,1.79,0,0,0-1.54-1.84c-16.71-22.5-10.95-20.1-14.67,4.11-.18,3.39-5.84,6.24-6.22,1.58,1.86-12.15,5.18-26.58-2.19-37.58-4.13-7.16,3.35-15,5-22.19.89-2.22,1.47-2.74,5-5.6,1.44-14.44,3.1-29,2.67-43.52-.92-5.58,2.14-10,7.91-10.3,17.21-4.08,34-10,51-14.64C686.08,287.21,676.86,288.76,673.57,289.36ZM1144.4,405.67c-6.93,15.57-17,29-28.36,41.69-8.64,10.26-13.64,23.95-25.25,31.49-18.33,13.63-40.85,18.3-60.33,29.85-5.82,3.25-11.46,6.84-17.47,9.75a4.11,4.11,0,0,0-2.32,4.06c-.14,4.59-.56,1.64-.33,6.23a3.56,3.56,0,0,1-3.16,4c-1.31.22-2.23-1.86-2.44-3.17-.25-3.53-.09-3.55-.3-4.34-5.57-1.7-18.59,12-23.9,16.35-14.54,15.78-27.83,32.66-42.84,48.05-11.48,14.6-26.1,26.36-39.4,39.21-12.88,15.62-29.7,26.58-44.81,39.74C839.55,680,828.74,694.42,816,707c-20.51,22.3-44.73,40.62-68,59.86-11.21,8.4-21,18.41-31.94,27.1-23.29,16.35-49.91,27.8-75.37,40.44-27,18.38-38.93,12.3-66.16,22.74-20.83,6.05-42.9,6.17-64.19,9.65-15.32,4.38-30.52-1-45.88-1.63-13.55-.88-54.47-16.82-24.61,8.28,4.55,2.68,6.31,8.78,11.23,10.58,7.59,1.28,15.22,2.41,22.73,4.18a381.5,381.5,0,0,0,60.27,10.1,263.21,263.21,0,0,1,30-1.33c3.92.11,8.17-.2,11.14-3,12.22-9.35,19.54-23.3,31.21-33.18,8.91-8.82,21.61-10.36,33.19-13.29,37-12.49,77.24-11.73,113.53-26.25,9.8-4.88,21.18-6.15,24.09-18.34,8.84-16.59,17.62-33,24.44-50.6,9.14-17.4,26-29.22,38.27-44.33,17.78-17.91,33.73-38.84,57.42-49.33,19.46-10.51,28.68-32.22,46.4-44.88,18.65-16,41.88-24.53,62.19-38,17.38-10.85,33-23.84,49.09-36.46,18.54-12.67,36.59-26.17,53.3-41.26,4.31-5,10.39-7.53,15.86-10.93,13.62-10.63,26.54-22,40.14-32.64,3.44-4.75-3.68-5.08,4.75-9.56.5-11.57-2.26-22-4-33.23-.56-1.69-2.54-2.11-4.07-2.47-4.86.29-13.26-5.45-16.61-3.55Zm-86.53-158.91c-11.88,7.45-9.49,10.72-5.4,22.41,6.48,17.39,10.19,35.65,15.28,53.47,11.36,40.54-4.72,46.82-21.87,78.56-7.31,20.71-19.42,39.13-27.72,59.42-6.55,11.89-12.24,24-9,37.92h-.07c.59,25.06,8.41,9.22,22.09,4.14,14.45-9,31.55-12.12,45.9-21.08,16.78-7.48,24-23.15,34.09-37.2,8.07-10.53,18.25-19.84,23.39-32.3,4-9.17,6.87-12.7,4.75-22-2.72-13.21-4.56-26.83-9.75-39.38A43.85,43.85,0,0,1,1126.3,340c-1.49-10.92-8.1-19.9-11.37-30.23-5.36-14.21-17.35-24.32-25.86-36.58-4.92-6.79-11.45-12.09-17.6-17.72-3.82-2.67-8.69-9.87-13.6-8.68ZM1010.17,158c-3.7-7.81-5.64-21.81-13.74-25.7a264.65,264.65,0,0,0-60.29-2.67,103.29,103.29,0,0,1-12,.19c-.9-.33-3.65.13-1.39.6,9.25,3.29,21.51,4.19,30.89,8,13.61,4.45,28.64,3.95,40.89,12.48,6.57,2,10.59,9.13,14.37,13.76,6,6.61,9.59,16.61,7.4,26.29-5.82,13.51-15.31,25.33-23.16,37.76a16.61,16.61,0,0,0-3.87,12.78c3.28,21.43,2.23,43.46,9.89,64.06,4.61,10.88,5.34,22.71,8,34,2.54,10.31,6.62,21.2,4.12,31.87-2.28,11.29-14.85,15.15-22.34,22.52-6.57,4.95-14.52,10.74-23.18,8.47-37.61-11-72.39-32.77-111.59-37.73-11.87-1.93-22.82,5.45-31.18,12.84-.68,2.52-3.06,1.81-4.41,2.92-1.52,1.42-2.86,3-4.25,4.58a99,99,0,0,1-16,14.89c-6.77,4.57-9.66,12.38-15,18.25-.31,3.66,5.72,6.11,8.51,8.1,7.3,4,12.41,10.45,18.31,16,2.38,2.36,1.62,5.56-.53,7.8-2,2.8-17.22,17.83-19.7,16.5,1.34,1.72-26.8-22.44-21-12h0c5.44,4.07,14.27,6.6,16.19,14.11-1.4,9.1-6,17.46-11.91,24.43-5.66,7.43-28.54-11.8-32.2-4a88.48,88.48,0,0,1-7.36,15.17c-1.88,5.65,8.22,10.24,3.29,17.84-3.11,5.68-8.37,9.83-12.46,14.8-3,3.32-4.08,3.55-8,1.52-1.8-.57-4.6-3.42-6-1.06-1.19,2.66-2.39,5.32-3.5,8-1.69,3.41,7.77,4.83,2.15,7.92-14.64,5.14-21.17,19-29,31.37-2.37,4.28-7.22,1.41-10.89,1.41C666.17,588,672,592,673,594c3.61,10.15-14.37,17.79-18.19,26.42-9.16,7.59-9.62-11.66-17.5.51,4.67,4.9-2.61,10.19-5.58,14-7.54,5.55-14.6,19.36-25.49,13.61-4.31-2.48-6.14-2.91-10.12,1.9-2.56,3.19-6.89,3-10.38,1.64-8.2-2.38-16.8-3.21-24.67-6.76-11.2-4.7-23.71-7.36-34.06-13.68-4.14-4.08-9.27-7.34-11.86-12.71-5.47-5.62,5.51-26.91-8.37-13.43-6.76,7.8-13.16,16.25-11.6,27.18.57,6.29-1.52,14.16,3.05,19.27,7.09,7.29,17.89,6.29,26.22,11,11.4,8.67,25.59,9.22,38.55,13.83,10.18,2.66,21.62,5.5,31.88,1.75a34.84,34.84,0,0,1,13.47-2.36c15.33-.32,31-2,45.45-7.41,9-3.83,17.71-8.43,27.08-11.36,10.66-3.67,20.65-8.93,31.17-12.93,7.9-4.81,18.9-5,24.06-13.53,15.41-21.32,14.23-49.64,28.94-71.51,15.26-24.24,19.38-54.14,39.53-75.48,10-12.41,27.75-10.13,42.06-11,24.79-2,49.51,2.83,74.26.86,15.4-1.62,30.84,1.82,46.21-.09,8.36-3.62,12.49-17,17.47-24.4,2.15-9.64,16.58-20.73,11.88-30.28-2.73-3.28-4.68-11.21,1.85-10.91a2.07,2.07,0,0,1,1.75,2.27c7.76,17.67.09,19.64-7.12,34.11a108.41,108.41,0,0,1-9.16,17.05c-4.2,6.45-7.09,16.18-16.15,16.76-13.1,2-26.21-.82-39.33-.05-9.78.54-19.58,1.42-29.38.77-16.85-1.14-33.68-2.5-50.56-1.39-13.76.92-31.64-2.33-40.43,10.88-12.13,13.69-19.26,30-24.88,47.16-4.81,12.5-12.14,23.75-18.09,35.69-10.65,19.08-9.48,42.7-22.75,60.54-4.47,8.23-13.47,10.72-21.63,13.74-10.34,4.42-20.53,9.18-30.93,13.45a348.52,348.52,0,0,0-34,14.27c-14.6,5.54-30.63,6.74-46.12,7.49-12.83.64-24.36,7.19-37.51,2.67-8.32-.19-15.46-4.43-23.56-5.67A64.75,64.75,0,0,1,524,669c-4.8-3.5-10.5-4.85-16.14-6.33-5.79-1.75-12.33-5.8-17-9.82-2.83-32.21-2-14.8-20.57-.43-28.63,23.06-55.41,48.82-86,69.44-15.05,12-36.24,17.65-47.58,33.64-9.67,14.69-13.51,31.89-13.37,49.35-.58,8.16-1.47,18.47,3.93,24.86,4.24-2.27,8.24-4.89,13.33-4.23,6.91-.07,13.49-2.82,20.45-2.59,17.23-.84,36.51-6,51,6.47.62,7.6,6.23,14.88,9.62,21.69,1.7,5.41,5.93,3.52,10,3.58,9.68-.87,19,2.49,28.27,4.54,11.51,1.67,23.22,2.09,34.73,4.21,20-.86,40.05-5.07,60.1-7.07,17-1.92,32.51-10.51,49.79-11.65,12.79-.61,22.58-9,33.64-14.33,19.18-8.72,37.46-19.16,56.16-28.81,18.1-8.5,31.12-24.3,47-36,27.19-23,56.12-44.2,79.5-71.31,16.58-22.65,40.51-37.69,60.8-56.42,11.36-12.24,24.06-23.06,36.07-34.63,14.28-14.55,27.71-30,41.34-45.18a155,155,0,0,1,24.65-26.52A136,136,0,0,1,1000.09,520c4.19-1.71,5.59-5.44,4.59-9.71-4.44-31.35-.66-33.77,12.71-61.23,5.3-13.18,13.41-25,18.7-38.17,3-8.23,6.14-16.48,11.44-23.55,6.62-11.35,17.71-22,18.18-35.72.2-32.74-15-63.25-22.32-94.54-2.48-8.47,16.35-11.89,8.69-18.65C1035.53,222,1026,200,1019.21,177.88,1019.21,177.88,1010.47,159,1010.17,158Zm-160,155.43a120.66,120.66,0,0,1-25.35,37c-3.12,3.67-9.39,8.41-6.19,13.68,1.15,2,1.08,5.5,4,5.71,8-2.7,14.11-10.51,23.24-10.19,18.45-.6,36.27,5.63,53.23,12.3,24.38,7.94,47.3,21.94,72.52,26.55,11.73-3.77,20.32-13.83,30.21-20.81,8.85-9.93,2.75-25.1,0-36.45-3-8.66-1.93-18.29-5.6-26.86-9.33-24.2-9.7-50.15-12.82-75.55-.41-9.92,9.12-16.62,13.18-25,9.15-14.67,24.67-31.3,7.67-46.74-8.44-11.16-21.89-17.25-35.35-20.08A52.08,52.08,0,0,1,950,143c-11.32-4.36-23.72-4.54-35.17-8.58-3.16-.83-7.44-3.22-9.74.35-4.48,8.15-13.77,14.74-14.57,24.32.64,16.51,1.39,32.85-.14,49.32,4.33,53-20.46,50.57-61.18,66.54C824.91,278.32,856.65,304,850.19,313.4ZM648.38,383.83c-.9,1.76.4,4.57,2.46,4.66,5.73-9.76,17.74-12.36,25-20.39a2.94,2.94,0,0,1,3.75-.14c3.21,5.73-9.57,9.79-13.2,12.72-13.46,7.42-12.92,25.5-17.75,38.5-4,13.36-9.34,26.36-13.85,39.45-4.2,4.2-6.11-1.74-4.33-5.29,1.14-2.95-15.84-2.57-18.11-2.57-4.48.2-1.52,5.61-3.45,8.21-.39.65.16,1.62.91,2.1,7.27,4.64,14,8.88,21.24,13.86,11.14,2.11,23.07,2.69,34.14,5.48,18.9,3.16,37,10.85,55.41,14.38,3,1.12,6.12,6.61,9.38,4.66,2.85-4.1,4.5-8.94,6.24-13.59.84-3.49-20.14-6.48-24.56-10.34a143.67,143.67,0,0,0-34.51-11.86c-3.8-.75-3.82,4.64-5.49,6.89A3.46,3.46,0,0,1,668,472.3c-4.15-1.87.3-7.44.81-10.74-.29-1.54-1.6-3.82.13-5.06,8.33-9.81,9.48-24.43,18.67-34.26,5.06-8.38,10.65-16.43,16.18-24.52,1.74-2.64,11.54-20.8,12.39-10.08-6.32,11.79-14.59,22.32-21.34,33.84-4.34,5.08,19,13.25,23.09,14,14.74.89,26.84,9.11,40.28,14.38,1.38.65,3.79,1.12,3.92-1-1-1.85-.65-4.23-3.13-5-3.8-3.59-11.75-9.84-9-15.64,3.21-4.86,7.05-9.29,9.85-14.43,2.51-3.11,8.18-2.87,11.63-1.59,2.87,1.07,4.85,3.4,8,3.71,8.39-17.46,27.27-26.06,37.36-42.16-1.86-3.91-2.6-8.3-5.16-11.83,2-5.34,5.79-9.85,9.66-13.93,9.16-8.15,14.4-19.32,21.26-29.24,7.65-9.43,2-15-4-23-6.7-9.14-13.55-18.14-22.84-24.83-4.46-3.21-7.87-8.64-13.51-9.65-9.18-1.06-17.5-5.56-26.66-6.56-12.78-.19-22.15-10.82-34.74-11.29-6.78,1-13.83-4.77-20.06-2-7.68,4.11-9.41,13.91-15,20.12-11.34,14.08-17.6,30.66-23.6,47.75q-17.46,37.07-33.81,74.56ZM779.29,468.2c.11-1.85-1.77-2.72-3.11-3.58-14.44-8.73-30.39-14.54-45.38-22.23-13.15-3-26.68-4.56-38.08-12.74-5.86-2.19-8.22,11-11.12,14.69-.88,4-6.79,11.08-2.77,14.2,11.31,4.13,23.37,5.95,34.07,11.94,10.07,5.74,21.58,7.41,32.38,11.17,7.81,1.81,16.26,8.42,24.09,6.91,4.9-5.68,9.72-12.62,9.91-20.36Zm-8-22.73c4.8,4.31,10.31,7.7,15.39,11.64,3.86,3.15,4,3.16,8,.2,3.71-3,7.83-5.76,10-10.09-3.68-12.88-21.24-17.82-30.33-27.17-2.84-2.75-6.21-4.15-10.15-3.22-3.09,4.46-5.48,7.71-8.23,11.8-1.67,8,9.88,12.7,15.27,16.84ZM618.73,386.19c5.16,4.5,19.76,30.47,26.43,23,.92-4.9,5.64-10.69,2.51-15.42-6.39-8.73-15.53-15.29-21.22-24.46-2.08-3.07-3.39-8.41-8.06-7.72-5.79,10.27-7.74,15,.33,24.61Zm-14.07,55.33a6.38,6.38,0,0,0,.32,2.17c7,2.68,21,4.32,27.91,1.23,1.76-3.33,13.61-29.07,8-28.43-8.69,1.79-15.88,7.16-24.07,10.1-10.45,2.67-10.86,4.66-12.19,14.93Zm-10,28.72c-1.41,2.63,4.33,4.26,5.63,6a59.66,59.66,0,0,0,16.75-2.35c-1.52-3.84-7.06-5.81-10.45-8.18-4.5-2.77-8.43,2.25-11.94,4.5Zm-11.25,29.27c.13,3.83,9.37,1.49,12.37,2.88,12.73-.26,25.28,1.16,38,2.19,25.29,1.55,49.36,9.69,72,20.85,5,1.2,10.74,9.94,15.59,7.25,3.49-4.57,12.44-9.45,10.19-15.9-1.91-6.77-6.54-12-12.18-16.07-25.61-7.51-52.09-16.29-79.15-19.11a96.46,96.46,0,0,0-36-.43c-10.28.88-15.25,11-20.77,18.35Zm120.31,38.34a35.19,35.19,0,0,0-1.21-3.64c.64-1,1.76-2.7,1-3.72-5-2.87-11-7-16.89-6.48l0,0,.14-.31a2.65,2.65,0,0,1-.27.42l.19-.06c2.6,1.89,15.49,17.86,17.12,13.85Zm-24.69-12.16c-4.21-1.94-7.26-5.49-10.62-8.56-6.09-5.78-20.92-5.28-29.52-6.93-2.56,2.74,10.52,7.09,12.72,9,9.2,5.34,14.92,14.92,24.33,20.22,10.85,7,10.42,5.56,17.37,13,2.5,3,4.4,1.77,7.12.06C706.34,547.32,683.81,529,679.05,525.69ZM577.91,507.87c-5.07,3.76,15.47,17.46,19,19.65a45,45,0,0,1,16.74,13.71,4.28,4.28,0,0,0,3.14,1.83c12.59,1.39,25.36,1.21,37.84,3.62,10.17,1.24,20.42,8.82,30.48,6.93h0c-.68-3.14-4.4-5-7-6.61a91.7,91.7,0,0,1-20.32-15.38c-7.26-10.11-20.82-11.83-29.09-20.94-9-3.81-19.28-3.06-28.89-3.23-7,.61-15.85-3.2-22,.43Zm-17.3,19.22c-6.74,6.62,4.26,11.67,9.95,10.46,9.11-.3,18,3,27,4.15,20.56,2.93-11-12.22-13.79-16.31-12.71-12.44-12.19-11.25-23.16,1.71Zm-18.38,30.69c-.15,4.4,10.92,3.46,14.36,4.29a157,157,0,0,1,33.23,5.3c27.95,5.49,55.81,11.25,84.14,13.76a3.11,3.11,0,0,0,3.17-1.53c1.42-4.41,13.27-16.24,11-19.27-6.57-.76-13.29-1.54-19.5-3.93-13.1-5.5-27.51-6.71-41.56-7.42-8.75-.31-17.39-1.14-26.13-1.34-13.39-1.7-26.45-6-40.09-5v.28c-8.81-.24-16.12,6.83-18.67,14.89ZM655.63,584c-13.06-1.77-26.21-3.28-39.12-6-13-3.27-22-4.23-5,6,10.79,6.18,18.75,17,29.41,22.83,5.26-1.38,6,5.59,9.18,8.2a1.39,1.39,0,0,0,1.95-.19c4.27-5.69,10.89-9.12,14.67-15.23C669.1,594.87,658.69,587.43,655.63,584ZM532,574.54c2.12,12.51,56.49,24.13,67.84,33.33,9.19,6.18,20.69,7.43,30.68,12a1.79,1.79,0,0,0,2.15-.77c.36-2.92,4.31-4.59,3.85-7.47-8.43-7.58-17-15.43-26.27-22-5.36-4.59-14.43-7.58-15.94-15-16-6.16-33.31-6.52-50.09-8.71-8.2-2-9.67,1.68-12.23,8.58ZM521.29,596c.12,5.62,11.32,7,15.41,10.07,16.6,6.89,30.66,18.83,47.59,24.75a69.88,69.88,0,0,1,18.57,8.86c3.56,1.88,8,7.36,12,3.82,3-3.66,18.14-13.69,15.78-17.89-10.26-4.58-21.59-6.57-31.51-11.79a83.11,83.11,0,0,0-19.66-9.42c-18.19-5.71-35.35-13.83-52.26-22.29-3.94,3-4.46,9.32-5.94,13.9ZM520,608.72c-2.27,4,.57,8.19,3.07,11.34,8.49,10.91,22.13,13,34.14,18.13,10.46,4.29,21.36,6.91,32.33,9.4,2.87.51,5-2.88,6.45-5-10-7.86-24.34-9-34.67-17-10.19-6.94-21.44-12-32.39-17.59-3.2-1.28-8-4.68-8.95.68Zm673.67-115.15c1.28-11.82-2.6-23.24-12.49-30.25-2.41-2-5-3.74-7.31-5.82-2.31-3.19-4.93.83-7,2.45-11.8,7.68-21.66,17.47-32.61,26.1-17.83,11.15-32.5,24.47-49,37.5-9.88,9.4-22.33,15.22-32.62,24.09-15.31,12.07-30.61,24.45-47.71,34-17.06,12-37.38,18.54-53.21,32.32-13.13,9.14-22.58,22.07-32.65,34.19-10,11-23.77,16.49-35.8,24.78-15.67,12.47-28.69,27.88-42.62,42.14-10.42,12.39-23.92,22.46-32.37,36.35-4.34,7.63-7.21,15.94-10.69,24-5.66,13-14.46,24.36-19.35,37.8-6.12,7.62-23.94,11.95-33.25,16.24-31.88,9.2-65,11.91-97.13,20.15-11.85,4.33-25.36,4.86-35.66,12.69-13.87,11.08-22.25,27.74-37.29,37.62-12.4,4.72-27.08.3-40.2,3.12-10,1.34-19.72-3-29.72-3.21a95.78,95.78,0,0,1-15.43-2.4c-14.28-4.72-29.57-5.67-43.83-9.71-6.44-8.05-15-14.88-21.63-23.15-2.94-5.83-13.25-2.49-7.08-10.93-2.67-6.07-6.09-11.49-8.62-17.56-2.06-5-2.71-4.18-5.77-6.1a37,37,0,0,0-25.48-3.59c-13.7,1.29-27.36,2.51-41,4.2-7.94,1.8-3.75,12.36-3.51,18.1,1.27,11.38,9.59,19.68,14,29.8,6.79,11.37,19.52,16.17,32.1,17.79,39.59,6.41,79.65,10.74,119.64,14.07,16,.74,32.06,1.55,48,3,4.09,1,3.78,7.49,10,7.2,9.63,0,19,3.53,28.53,3.05,11.87-1.19,5.35-21.41,23.69-18.15,18.41,2.35,35.47-6,53.54-7.53,5-.45,6.77,7.74,12.06,6.42,12.45-3,26.86-2.82,37.86-9.38,1.63-2.77-.86-7.36,3-9,10.73-4.66,22.68-4.91,32.67-11.85,37-20.45,11.18,13.3,54.24-30.66,1.5-1.31,2.6-2.69,1.43-4.86.41-4.61,1.53-11.13,5.46-14.07,10-4.84,14.47-17.88,24.35-21.8,4.69-1.68,14.84-.43,14.86-7.24-1.33-6.7,7.22-13.67,1-19.37-5.71-7.83,9-24.31,11.31-32.81,3.12-11,20.2-1.86,22.08-12.17,1.9-5.22-2.76-8.77-6-12.12-1.72-9.23,8.21-24.74,15-31,7.94-6.25,18.7-8.45,28.35-10.82,5-.34,4.51,7.49,8.84,9.36,25.41-.61,11.94-4,20.85-20.9a27.55,27.55,0,0,1,12.66-8.8,24.53,24.53,0,0,0,9.63-5.65c8.82-5.65,19.32-8.71,28.47-14.06a3.48,3.48,0,0,1,3.89,1.25c1.6,3.58,18-.08,23,.65a6.1,6.1,0,0,0,5.79-4.79c4.95-17.78,19.15-6.48,36.25-19.34,23.36-8.34,11.58.9,23.37.86,4.77-2.91,9-6.74,14.5-8.47,7-3.11-13.37-13.34,3.68-25.38,10.45-6.05,21.48-11.17,31.51-17.57,4-1.39,8.54,1.1,12.16-1.57,6-3,3.93-10.49,6.87-15.43a7.33,7.33,0,0,1,4.69-3.82,29.06,29.06,0,0,0,15.62-9.78c4.46-6.37,14.88-7.89,17-15.77C1197.76,509.73,1194.14,501.83,1193.63,493.57ZM898.54,413.75c2.25,9-11.53,13.93-18.53,15.39-22.25-1-19-21.33-1.87-28.53,9.37-3.5,13.36-3.12,14.05,7.84C892.7,409.81,897.82,412.49,898.54,413.75ZM886,407.82c1-.65,2.12-1.89,1-3-6.49-4.51-15,4.93-17.2,10.84a4,4,0,0,0,.73,4.11c5.69,7.63,16.21,3.84,21.69-2C894.5,413.62,884.67,411.74,886,407.82Zm47.11,22.9c-.52,4.65-.43,9.81-6.89,10-7.09,0-14.23-11.44-8.71-16.77,3.3-1.84,7.17-5.11,10.71-1.95C932.31,422.67,933.75,427,933.14,430.72Zm-11.76-1.81c.18,2.39,2.89,8.23,5.64,5.49C929.54,431.07,922.52,422.42,921.38,428.91Z"/></g><g id="front"><g id="Group_546" data-name="Group 546"><path id="Path_1278" data-name="Path 1278" class="cls-2" d="M585.5,311.89c-11.91,3.31-21.23,16.11-34.41,17.8-11.3.64-14-7.39-2.85-11.89,6.82-2.57,13.47-5.58,20.33-8.07a37.15,37.15,0,0,1,10.24-2.49c7.56-6.46-8.54-3.9-11.31-1.75-9.83,5.05-21.9,7.35-29.25,16.15-8.33,12.05,13.6,15.59,21.06,10.24C563.47,328.81,589.79,317.16,585.5,311.89Z"/><path id="Path_1279" data-name="Path 1279" class="cls-2" d="M582.49,287.46c14-7.74-33.08-1.89-35.93-6.33-12.86-12.71,21.63-14.47,28.43-12.26,5.79,1.61,11.54,3.56,17.39,4.82,8.35-4.89-9.76-6.24-12.75-7.51-12-4.25-52.71-1.82-36.71,18.45C554.11,290.6,569.93,286.74,582.49,287.46Z"/><path id="Path_1280" data-name="Path 1280" class="cls-2" d="M587.35,234.77c11.83,3.85,23.2,11.4,30.75,21.32,1.67,2.48,7.43,3.52,5.95-.9-1.52-2-3-3.95-4.61-5.88-7.59-8.05-34.47-28.81-42.35-13.26-3.29,8.42,22.22,22.49,29.06,25.09,2.77,1.1,5.19-2.6,1.9-3.72C603.16,256.47,569.27,233.78,587.35,234.77Z"/></g><g id="Group_545" data-name="Group 545"><path id="Path_1270" data-name="Path 1270" class="cls-2" d="M422.34,960.58c-6.95,9.46-4.77,22.32-10.18,32.63-8.65,26.37-14.49,53.69-20.76,80.71l-1.18-.29c-3.58-19.17,0-39-4.9-58.12-5.41-17.67-7.19-75-30-75.3C341.45,942.17,317,978,317.54,992c.13,3.21,4.73,4.12,5.7.91,4.65-16.47,16.12-30.08,27.48-42.46,6.1-6.39,13.79-.45,14.85,6.87,8.11,30.16,18.77,61.6,16.09,93.07-.25,18.5,2.32,36.85,4.95,55.07,1.42,5.36-3.49,23,5.42,21,6.7-4.76-2.65-27.89-.54-36.42a3.53,3.53,0,0,1,1.66-2.37c4.06-1.83,4.4-7,4.63-10.9-.25-9.53,3.33-18.44,5.32-27.59,4.72-18.9,8.27-38,15.34-56.31,5.42-15.3,2.32-23.58,14.72-37.2,6.54-9.87,19.49-8.32,29.68-6.52,10.84,3.1,22.28,1.09,32.61,6,1.18.27,2.68-1.29,2.49-2.66-2.08-7.7-14.69-6.27-21.1-7.59C453.28,943.13,435.84,934.41,422.34,960.58Z"/><path id="Path_1271" data-name="Path 1271" class="cls-2" d="M178.21,858.29c25.68-11.74,53.18-20.78,77-36.16,21.64-17.69,25.92-31.7-1.4-46.21-2-8.72,21.12,7.55,21.56,11.46,1.11,1.76,2,3.64,2.89,5.31,1.35,26.45-30.23,39.11-49.38,49.27-14.57,7.43-33.16,14.57-45.33,20.6-1.07.53-1.86,1.17-1.64,2.52s3.14.57,3.68.51c7.26-.82,32.86-4.66,40.15-5,7.11.3,39.54-9.13,38.88.28-.31,3.57-3.79,2.65-6.47,2.34-11-1.31-22,2.57-32.89,3.69-17.76,1.41-35.15,6-53.1,5-5.14-.38-9.35-2.87-6.18-4.53S173,860.64,178.21,858.29Z"/><path id="Path_1272" data-name="Path 1272" class="cls-2" d="M273.56,993.45c-1.41,2.51-2.88,6.69.7,8.07a2.49,2.49,0,0,0,3.33-1.1c2.35-6,6.67-10.78,11.18-15.27,10.46-9.51,12.23-24,19.66-35.33,5.42-8.37,6.89-18.12,9.38-27.49,1.39-6.73-2.79-13-7.36-17.53-4.35-5.14-28.07,6.25-18.42,11.5,3.93.18,6.88-3.06,10.31-4.51,23.78-3.67-4.58,39.68-6.82,48.83C291.23,973.31,280.13,982,273.56,993.45Z"/><path id="Path_1273" data-name="Path 1273" class="cls-2" d="M270.61,892.72c4.61,0,2.67-6.49-1.14-6C265.43,887.3,267.5,892.34,270.61,892.72Z"/></g><path id="Path_1274" data-name="Path 1274" class="cls-2" d="M688.21,985.66c10.85-9.75,29.21,2.73,37.49,11,6.87,7.34,9.38,17.63,16,24.95,3,2,5.11-2.41,3.48-4.78-7.46-13.56-14.35-29.29-29.61-35.65-10.85-7.24-28.07-10.72-36.1,2.32-3.42,5.05-6.34,10.44-9.51,15.66-1,1.53-1.89,8.44-4.79,5.08-3.17-8.52-1.32-19.2-6.9-27-5.54-9.82-9.52-25.73-23.5-25.1-20.72.71-29.67,18.45-31,36.89-.65,2.07-.33,4.93,1.89,5.89,7.84-1.94-1.81-34.44,30.28-36.27,12.88.65,20.11,30.18,21.88,40.81,2.29,7.83,1.52,5.66,4,13.45.94,3.37,0,10.85,5.22,10.17C674.29,1009,676.73,996.21,688.21,985.66Z"/><path id="Path_1275" data-name="Path 1275" class="cls-2" d="M818,953.3c-33.37-22.52-46.74,16.24-44.11,43.93.07,8.16,8.05,10.77,4.9.5-1.65-13.08,1.61-27.68,9.24-38.52,15.65-15.66,36.53,6,49.38,15.8,17,11.73-9.13-31.43-9.74-36.48-2.95-7.6-2.53-16.07-3.44-24.09,2-14.65,9-29.65,22.42-37.15,2-1,4.19-2.32,4.57-4.72a2.74,2.74,0,0,0-4.23-2.39c-16.69,10.4-27.79,29.19-27.68,48.93,1.54,9.35,1.61,18.77,6.08,27.38C839.52,972.71,837,968.13,818,953.3Z"/><path id="Path_1276" data-name="Path 1276" class="cls-2" d="M728.36,960.8c5.93,2.36,4.51-9.78,5.41-13.24,3.73-11.8,19.56-.6,27.82-.44,7.27-2.54-3.87-11.36-5.59-15.08-5.47-6.87-3-16.33-5.81-24.15-3.46-3.76-5.85,2.51-4.19,5.59,1.89,6.09,1.17,12.65,3.16,18.75a3.3,3.3,0,0,1-.26,3.08c-26.14-3.2-16,18.23-26.1,8.89-4.4-3.85-9.5-7.22-15.53-7.36-3.55.43-11.53-3.06-11.52,2.65,1,4.77,8.39,2.85,12,4.13C717.21,945.1,722.58,954.14,728.36,960.8Z"/><path id="Path_1277" data-name="Path 1277" class="cls-2" d="M555.83,958.48c-10.51.78-13.7,13.94-3.48,7.54,6.35-3.46,9.44,7.86,15.84,7.74,1.82.12,3.39-2.3,1.79-3.61C564.64,967.34,562,958.42,555.83,958.48Z"/></g></g></g></svg>