<svg xmlns="http://www.w3.org/2000/svg" xmlns:xlink="http://www.w3.org/1999/xlink" width="66.994" height="45.409" viewBox="0 0 66.994 45.409">
  <defs>
    <clipPath id="clip-path">
      <rect id="Прямоугольник_1283" data-name="Прямоугольник 1283" width="66.994" height="45.409" fill="none"/>
    </clipPath>
  </defs>
  <g id="Сгруппировать_1832" data-name="Сгруппировать 1832" clip-path="url(#clip-path)">
    <path id="Контур_3097" data-name="Контур 3097" d="M66.98,39.956a7.092,7.092,0,0,0-.254-.836,4.886,4.886,0,0,0-.837-1.889,2.515,2.515,0,0,1-.469-1.6c0-.257.035-.514.031-.771a1.594,1.594,0,0,0-.074-.5c-.178-.5-.366-.987-.574-1.47a4.21,4.21,0,0,1-.288-.948c-.04-.227-.073-.454-.107-.681.048-.034.1-.064.145-.1a.547.547,0,0,0,.136-.672.563.563,0,0,0-.414-.19c-.114-.921-.194-1.846-.226-2.777-.023-.662-.068-1.323-.1-1.984a17.129,17.129,0,0,1,.181-3.71,25.1,25.1,0,0,0,.367-3.652,31.221,31.221,0,0,1,.441-4.934c.015-.084.02-.17.033-.255A6.685,6.685,0,0,0,64.606,9.7a1.865,1.865,0,0,0-.6-.816,1.266,1.266,0,0,0-1.646.094c-.346.381-.681.772-1.024,1.155a2.311,2.311,0,0,1-1.069.656,1.276,1.276,0,0,1-1.021-.126,1.615,1.615,0,0,1-.194-.121q-1.41-1.121-2.816-2.247A12.426,12.426,0,0,0,53.051,6.2a8.4,8.4,0,0,0-.971-.433A30.347,30.347,0,0,0,47.625,4.52a9.157,9.157,0,0,0-1.023-.1,1.342,1.342,0,0,0-.839.3.152.152,0,0,1-.206-.021c-.194-.227-.357-.408-.462-.51a8.428,8.428,0,0,1-1.431-1.088,1.121,1.121,0,0,1-.266-.434.573.573,0,0,1,.02-.495,1.848,1.848,0,0,1,1.453-.972,2.4,2.4,0,0,1,.619.017,11.421,11.421,0,0,1,3.946,1.488c.939.514,3.449,1.087,4.037,1.471s.628.5.475,1.009a.6.6,0,0,0,.75.713c.476-.211.558-1.113.471-1.574a2.306,2.306,0,0,0-1.727-1.343,50.189,50.189,0,0,1-4.671-1.905A2.9,2.9,0,0,0,48.3.877C47.512.614,46.723.353,45.931.1A2.136,2.136,0,0,0,44.837.047c-.251.054-.5.117-.746.2a3.172,3.172,0,0,0-.468.21.865.865,0,0,0-.218.16c-.548.544-1.256.881-1.82,1.4a3.537,3.537,0,0,0-.868,1.245,3.662,3.662,0,0,0-.214.8c-.084.493-.2.977-.327,1.462a3.515,3.515,0,0,1-.813,1.544,1.03,1.03,0,0,0-.249.985c.039.166.1.327.151.491a1.965,1.965,0,0,1,.054,1.016c-.147.67-.306,1.338-.485,2a2.039,2.039,0,0,1-.493.892c-.18.186-.37.361-.553.545a2.156,2.156,0,0,0-.436.625c-.177.391-.33.792-.515,1.178a1.782,1.782,0,0,1-.31.407,3.479,3.479,0,0,1-.379.347c-.169.137-.353.256-.52.393a8.624,8.624,0,0,1-1.972,1.335,1.159,1.159,0,0,0-.539.594,3.98,3.98,0,0,0-.18.481c-.054.163-.092.331-.151.491a2.4,2.4,0,0,1-.557.856,10.165,10.165,0,0,1-2.014,1.591,7.827,7.827,0,0,1-.852.41,2.909,2.909,0,0,1-1.09.249c-.338.009-.677-.009-1.015-.01a2.45,2.45,0,0,0-1.439.484c-.3.212-.582.448-.883.659a2.805,2.805,0,0,1-.7.354c-.146.05-.291.1-.433.159a6.073,6.073,0,0,1-1.921.491,1.084,1.084,0,0,0-.687.389c-.119.123-.225.259-.334.392a3.044,3.044,0,0,1-1.008.783c-1,.5-3.683,1.622-3.767,1.637-.671.121-.93-.1-1.6-.072a3.442,3.442,0,0,1-.646-.055c-.3-.055-.593-.124-.89-.181-1.518-.289-5.791-.611-6.379-.744a5.939,5.939,0,0,0-.873-.1,2.163,2.163,0,0,0-.635.039,4.853,4.853,0,0,0-2.288,1.165,4.3,4.3,0,0,0-.344.382,2.44,2.44,0,0,0-.513.989c-.116.468-.228.938-.308,1.413a6.5,6.5,0,0,0-.061,1,1.639,1.639,0,0,0,.062.5A3.519,3.519,0,0,0,2.734,33.35c.066.055.131.111.2.161.489.349.968.713,1.47,1.041A10.7,10.7,0,0,0,7.176,35.9c.412.123.815.271,1.222.412a7.3,7.3,0,0,0,1.675.339,5.228,5.228,0,0,1,1.316.274,4.77,4.77,0,0,0,1.2.25,5,5,0,0,1,1.094.249,24.825,24.825,0,0,0,2.964.788c.265.054.527.118.79.181a.163.163,0,0,1,.112.1,2,2,0,0,0,.276.469,1.544,1.544,0,0,0,.4.313.708.708,0,0,0,.933-.442l.18-.147c.2.012.405.026.607.053a13.19,13.19,0,0,0,4.469-.071c.775-.071,1.544-.2,2.309-.345a6.041,6.041,0,0,1,.632-.082,12.21,12.21,0,0,0,3-.692A22.834,22.834,0,0,0,33,36.535c.388-.187.784-.357,1.181-.525a6.718,6.718,0,0,1,1.29-.4l1.443-.291a7.1,7.1,0,0,1,1.18-.144,33.988,33.988,0,0,1,4.369.13c.118.012.236.03.353.054,1.345.271,2.712.424,4.049.739.334.078.672.144,1,.242a14.965,14.965,0,0,0,4.461.732,12.577,12.577,0,0,0,2.264-.427,9.994,9.994,0,0,1,1.388-.293c.684-.091,1.365-.2,2.042-.332,1.3-.258,2.6-.494,3.9-.751a1.26,1.26,0,0,0,.682-.336.537.537,0,0,0-.089-.868,1.467,1.467,0,0,0-.49-.109,1.235,1.235,0,0,0-.256.02c-.865.2-1.735.381-2.589.621a14.9,14.9,0,0,1-2.264.414,3.076,3.076,0,0,0-.428.081c-.748.2-1.518.281-2.274.43a10.672,10.672,0,0,1-5.007-.177c-.187-.033-.492-.094-.676-.14-.5-.126-1-.267-1.508-.362-.571-.107-1.156-.133-1.723-.277-.152-.038-.4-.1-.556-.118a33.377,33.377,0,0,0-4.875-.334c-1.293.022-2.587.093-3.875.23a4.917,4.917,0,0,0-1.3.338c-.293.117-.589.226-.871.364-1.319.647-2.72,1.089-4.081,1.628a6.2,6.2,0,0,1-.966.282,27.106,27.106,0,0,1-3.913.5,15.289,15.289,0,0,0-2.286.305,3.813,3.813,0,0,1-1.914-.21,3.323,3.323,0,0,0-1.594-.18.165.165,0,0,1-.194-.127c-.281-1.373-.634-3.387-.655-3.877a11.776,11.776,0,0,0-.668-2.754,5.926,5.926,0,0,0-.806-1.577,1,1,0,0,1-.141-.506.477.477,0,0,1,.192-.449,5.426,5.426,0,0,1,1.911-.729,1.283,1.283,0,0,1,.748.107,1.178,1.178,0,0,1,.226.122,3.411,3.411,0,0,0,3.344.808.087.087,0,0,1,.1.041,8.13,8.13,0,0,0,.671,1.085,1.725,1.725,0,0,0,1.2.381c.085,0,.172,0,.256-.015a1.789,1.789,0,0,0,1.119-.573,2.039,2.039,0,0,0,.417-.643c.091-.241.166-.487.254-.728a4.257,4.257,0,0,0-.157-1.275.161.161,0,0,1,.094-.184c1.21-.519,2.758-1.167,3.672-1.56a.156.156,0,0,1,.155.017,10.368,10.368,0,0,0,1.437.92c.251.055.7.392.951.454a5.221,5.221,0,0,0,1.275.155,3.067,3.067,0,0,0,.511-.051,1.385,1.385,0,0,0,1.177-1.192,19.548,19.548,0,0,0-.756-2.755.156.156,0,0,1,.049-.172c.556-.467,1.292-1.182,1.978-1.846a.162.162,0,0,1,.19-.029A16.986,16.986,0,0,0,40.4,21.586a1.511,1.511,0,0,0,1.517-1.149c.083-.331.113-.674.17-1.012a4.466,4.466,0,0,0-.633-1.243,2.239,2.239,0,0,1,.656.089c.755.24,3,1.044,3.308,1.2a2.416,2.416,0,0,0,.986.26.956.956,0,0,0,1-.949,2.925,2.925,0,0,0-.477-1.607c-.351-.487-1.153-.621-2-.96a2.772,2.772,0,0,1-1.221-.949,9.98,9.98,0,0,0,3.049.439c.236-.1.48-.186.712-.294a.909.909,0,0,0,.4-1.295,6.838,6.838,0,0,0-1.19-1.346c-.716-.615-1.476-1.175-2.213-1.764l-.385-.217c.062-.19.109-.343.132-.442a7.1,7.1,0,0,1,.443-1.19,3.055,3.055,0,0,0,.314.118c.342.016.685.043,1.027.051a2.456,2.456,0,0,0,.512-.041,1.584,1.584,0,0,0,1.3-1.111.734.734,0,0,0,0-.5,15.039,15.039,0,0,0-1.163-1.637.149.149,0,0,1,.044-.224,2.975,2.975,0,0,1,1.975.074,3.6,3.6,0,0,1,.673.2,10.509,10.509,0,0,0,1.628.572,12.675,12.675,0,0,1,2.951,1.29,9.217,9.217,0,0,1,1.146.789c.832.688,1.686,1.348,2.543,2.006.407.313.748.706,1.177,1a1.8,1.8,0,0,0,.966.3,1.205,1.205,0,0,0,.255-.02q.38-.068.757-.147a1.477,1.477,0,0,0,.512-.24c.456-.36.9-.728,1.36-1.088.065-.052.152-.074.223-.121a.471.471,0,0,1,.648.2,1.547,1.547,0,0,1,.178.476,2.965,2.965,0,0,1,.053.511c-.018.727-.036,1.455-.087,2.181a13.029,13.029,0,0,1-.184,1.321,17.616,17.616,0,0,0-.245,2.645,13.31,13.31,0,0,1-.1,1.8c-.026.168-.1,1.138-.432,1.26a6.835,6.835,0,0,1-.9.048c-.514.056-1.032.092-1.547.147a8.3,8.3,0,0,0-1.016.194,38.737,38.737,0,0,0-5.335,1.823,17.614,17.614,0,0,0-3.29,1.876,3.751,3.751,0,0,0-.94.963,1.5,1.5,0,0,0-.23.457c-.233.913-.505,1.817-.673,2.747-.107.591-.257,1.173-.382,1.76a5.337,5.337,0,0,0-.106,1.022,1.467,1.467,0,0,0,.391.923,2.1,2.1,0,0,0,1.111.6,9.937,9.937,0,0,0,1.534.162,13.386,13.386,0,0,0,3.584-.246,8.331,8.331,0,0,1,1.528-.212,66.717,66.717,0,0,0,6.7-1.33,4.5,4.5,0,0,0,.848,2.237,1.68,1.68,0,0,1,.215.733c.02.256.023.514.025.771a4.217,4.217,0,0,0,.411,1.77c.324.688.635,1.383.943,2.079a1.467,1.467,0,0,1,.112.756,1.105,1.105,0,0,1-.37.657.761.761,0,0,1-.216.135,10.044,10.044,0,0,1-1.445.532,1.733,1.733,0,0,1-1.014-.023c-.243-.083-.486-.17-.732-.242a2.53,2.53,0,0,0-1.272-.034,1.232,1.232,0,0,0-.931.8,3.946,3.946,0,0,0-.134.5,1.118,1.118,0,0,1-.66.733,1.049,1.049,0,0,1-.242.087c-.25.055-.5.114-.755.152a1.508,1.508,0,0,1-1.2-.315c-.134-.107-.259-.225-.386-.339a2.866,2.866,0,0,0-.9-.493.928.928,0,0,0-.5-.059A1.707,1.707,0,0,0,53.66,43a4.474,4.474,0,0,1-.385.666.888.888,0,0,1-.416.283,3.11,3.11,0,0,1-.5.119,7.385,7.385,0,0,1-1.54.06c-.6-.047-1.2-.1-1.792-.167a1.35,1.35,0,0,1-1-.659c-.051-.086-.1-.172-.15-.26-.08-.152-.163-.3-.237-.457a2.528,2.528,0,0,0-1.034-1.063,3.95,3.95,0,0,0-1.344-.444c-.307-.034-.612-.074-.919-.1a50.1,50.1,0,0,0-6.327.193,1.428,1.428,0,0,0-.908.852c-.13.315-.181.663-.312.978a.93.93,0,0,1-.534.523,6.718,6.718,0,0,1-1.49.387,1.661,1.661,0,0,1-1.229-.24c-.141-.1-.281-.2-.424-.292a2.341,2.341,0,0,0-1.856-.313,1.47,1.47,0,0,0-.572.257,6.793,6.793,0,0,0-.584.5,1.911,1.911,0,0,1-.734.384,1.8,1.8,0,0,1-.705.091c-.6-.044-1.192-.074-1.789-.1-.77-.028-1.537-.132-2.306-.2a2,2,0,0,1-.947-.367c-.142-.1-.276-.2-.413-.306a1.518,1.518,0,0,0-.971-.27,1.967,1.967,0,0,0-.983.257c-.221.131-.436.273-.655.407a2.332,2.332,0,0,1-1.407.26,4.846,4.846,0,0,1-.878-.146c-.9-.229-1.826-.376-2.723-.631a1.322,1.322,0,0,1-.917-.828c-.031-.08-.066-.158-.1-.238a1.559,1.559,0,0,0-.094-.239,1.6,1.6,0,0,0-.744-.681,1.9,1.9,0,0,0-1.729.1c-.291.161-.566.355-.862.505a1.363,1.363,0,0,1-.835.092c-.559-.151-1.109-.335-1.667-.491-.587-.164-1.179-.308-1.766-.468A2.709,2.709,0,0,1,6.43,40.8q-1.508-.722-3.011-1.456a4.878,4.878,0,0,1-.435-.273,3.922,3.922,0,0,1-1.752-3.322,4.837,4.837,0,0,1,.16-1.347,3.156,3.156,0,0,0,.048-.479c.02-.276-.385-.685-.7-.573a.912.912,0,0,0-.513.525,4.482,4.482,0,0,0-.178,1.964c.106.5.217,1.007.339,1.506a3.849,3.849,0,0,0,.839,1.576A4.84,4.84,0,0,0,3.058,40.3c1.189.493,2.327,1.1,3.517,1.588a6.629,6.629,0,0,0,.707.309c1.077.3,2.09.771,3.132,1.165a1.578,1.578,0,0,0,1-.114c.378-.2.74-.432,1.113-.642a.738.738,0,0,1,.923.189,4.671,4.671,0,0,1,.276.428c.08.15.133.315.2.472a1.056,1.056,0,0,0,.772.616,7.54,7.54,0,0,0,1.021.117,5.08,5.08,0,0,1,1.262.232,10.13,10.13,0,0,0,3.553.468c.432-.009.823-.635,1.234-.77a.912.912,0,0,1,.745,0c.16.061.342.682.5.745a1.721,1.721,0,0,0,.755.121,5.428,5.428,0,0,1,1.276.021,7.6,7.6,0,0,0,1.029.106c1.029.03,2.058.055,3.088.058a4.045,4.045,0,0,0,2.115-.891,1.341,1.341,0,0,1,.223-.129.877.877,0,0,1,.736-.064c.155.072.408.441.569.5a3.157,3.157,0,0,0,1,.2,15.853,15.853,0,0,0,3.076-.206c.084-.014.167-.038.251-.058a1.387,1.387,0,0,0,1.032-1.035c.055-.338.091-.681.176-1.011a1.046,1.046,0,0,1,.467-.591,1.394,1.394,0,0,1,.468-.2c.588-.12,3.463-.081,4.067-.079a6.066,6.066,0,0,1,2,.446,2.168,2.168,0,0,1,1.036.776c.226.313.429.644.649.963a2.249,2.249,0,0,0,.458.491,1.411,1.411,0,0,0,.622.313,2.769,2.769,0,0,0,.587.072,7.316,7.316,0,0,1,1.627.179,6.405,6.405,0,0,0,2.131.037c.169-.025.341-.034.512-.051.693-.072,1.122-.906,1.682-1.356a.892.892,0,0,1,.737-.112c.163.05.55.776.711.832a1.225,1.225,0,0,0,.505.076,22.156,22.156,0,0,0,2.3-.254c.865-.167,1.274-.855,1.743-1.674.263-.46.669-.456,1.109-.3a1.905,1.905,0,0,0,.246.076c.256.052.887.442,1.13.335a4.211,4.211,0,0,1,1.155-.418,4.343,4.343,0,0,0,1.5-.514,2.437,2.437,0,0,0,1.093-1.05,1.309,1.309,0,0,0,.1-.75M16.706,32.624a4.54,4.54,0,0,1,.109.763c.026.349.286,2.125.462,3.39a.165.165,0,0,1-.2.183c-.3-.056-.6-.106-.894-.152a9.553,9.553,0,0,1-1.111-.244c-.5-.152-.99-.319-1.486-.474a4.785,4.785,0,0,0-.737-.146c-1.115-.127-2.2-.416-3.312-.577-.085-.012-.17-.021-.255-.035a4.563,4.563,0,0,1-1.139-.318A9.857,9.857,0,0,0,6.8,34.472a5.268,5.268,0,0,1-1.776-.89,15.573,15.573,0,0,1-1.588-1.307,2.069,2.069,0,0,1-.6-1.115,4.01,4.01,0,0,1,.316-2.51,2.119,2.119,0,0,1,.878-.906,3.478,3.478,0,0,1,1.725-.439c.256,0,.514.023.77.045.342.028.683.064,1,.1.281,0,4.168.554,4.845.669a17.8,17.8,0,0,1,1.967.364c.924.332.888.948,1.408,1.77a8.061,8.061,0,0,1,.961,2.376M41.438,5.629a4.414,4.414,0,0,1,.247-1.251.882.882,0,0,1,.134-.218.789.789,0,0,1,.4-.292.444.444,0,0,1,.25.04,12.972,12.972,0,0,1,2.247,1.837.145.145,0,0,1,.023.186,12.627,12.627,0,0,0-.728,1.377.148.148,0,0,1-.193.074c-.725-.312-1.471-.628-1.554-.645a1.113,1.113,0,0,1-.651-.379,1.046,1.046,0,0,1-.177-.728m-1.423,6.342a2.773,2.773,0,0,1,.377-.931.866.866,0,0,1,.37-.328A.628.628,0,0,1,41,10.708a1.821,1.821,0,0,1,.7.281c.092.061.378.232.759.459a.152.152,0,0,1,.071.162c-.138.612-.261,1.23-.339,1.733a.149.149,0,0,1-.184.121c-.789-.2-1.431-.364-1.565-.427a.682.682,0,0,1-.438-.567,1.9,1.9,0,0,1,.009-.5m-3.687,4.9a2.882,2.882,0,0,1,.837-.559,1.087,1.087,0,0,1,1.176.2,8.691,8.691,0,0,1,.873.948.15.15,0,0,1-.055.235,5.651,5.651,0,0,0-.838.418c-.132.088-.436.352-.826.7a.173.173,0,0,1-.209.018,7.381,7.381,0,0,1-.645-.466,2.157,2.157,0,0,1-.184-.173c-.058-.06-.111-.127-.166-.189a.809.809,0,0,1,.038-1.132m-.906,2.059c.155.064.311.126.462.2a3.284,3.284,0,0,1,.576.361.168.168,0,0,1,.007.256c-.464.423-.949.864-1.388,1.252a.168.168,0,0,1-.263-.056,9.07,9.07,0,0,1-.38-1.028,1.159,1.159,0,0,1-.028-.25.743.743,0,0,1,1.014-.735m-4.938,3.35a21.189,21.189,0,0,1,2.095-1.408.619.619,0,0,1,.247-.044.818.818,0,0,1,.685.244,3.018,3.018,0,0,1,.484.836,2.584,2.584,0,0,1-.231.158c-.389.222-1.629.889-2.871,1.516l-.191-.023a1.571,1.571,0,0,1-.438-.619,1.3,1.3,0,0,1-.046-.248.87.87,0,0,1,.268-.413m-7.119,2.684a2.777,2.777,0,0,1,.816-.319,1.01,1.01,0,0,1,1,.464,1.829,1.829,0,0,1,.229.714.171.171,0,0,1-.1.17c-.683.314-1.35.633-1.858.883-.113-.177-.195-.31-.218-.35a2.114,2.114,0,0,1-.264-.829.815.815,0,0,1,.4-.733m-2.848,1.674c-.144-.139.53-.474,1.127-.579a.634.634,0,0,1,.46.44c.025.071.158.337.341.683a.091.091,0,0,1-.062.131,2.2,2.2,0,0,1-1.866-.675m5.172.923a1.277,1.277,0,0,1-.395.931.731.731,0,0,1-.533.152c-.084,0-.311-.289-.566-.647a.09.09,0,0,1,.03-.129c.522-.289.965-.6,1.31-.759l.106-.049a2.78,2.78,0,0,1,.046.5m1.027-2.195a.168.168,0,0,1-.225-.094,1.668,1.668,0,0,1-.023-1.142.924.924,0,0,1,.347-.451,2.338,2.338,0,0,1,1.07-.417,2.246,2.246,0,0,1,.294,0,1.7,1.7,0,0,1,.813.276c.191.14.373.29.554.444a.168.168,0,0,1-.039.279,10.654,10.654,0,0,1-1.361.563,13.4,13.4,0,0,0-1.431.544m8.162-.389a.736.736,0,0,1-.481.276c-.657.177-1.618-.426-2.186-.8a.167.167,0,0,1,.016-.289c.634-.326,1.4-.733,2.021-1.084a.166.166,0,0,1,.239.092,4.772,4.772,0,0,1,.391,1.8m5.412-4.362c-.152.1-1.08-.515-1.735-.964a.168.168,0,0,1-.018-.263,6.628,6.628,0,0,1,.6-.5,3.656,3.656,0,0,1,.8-.409.153.153,0,0,1,.17.047c.352.427.64.78.726.88.25.292-.313,1.064-.542,1.21m2.435-4.623c.954,1.1,3.04,1.706,3.114,1.86a.318.318,0,0,1,0,.247.376.376,0,0,1-.417.2c-.685-.078-3.219-1.244-3.991-1.244a3.064,3.064,0,0,0-.66.1.152.152,0,0,1-.147-.046,4.027,4.027,0,0,0-.3-.309,8.833,8.833,0,0,1-.99-1.181,5.089,5.089,0,0,1-.249-.447.559.559,0,0,1,.409-.769,2.286,2.286,0,0,1,.255-.031c.291.023,1.263.262,2.4.536a.149.149,0,0,1,.108.1,2.741,2.741,0,0,0,.468.988m3.269-2.248a.34.34,0,0,1,.056.436.369.369,0,0,1-.427.143c-.073-.016-1.047-.24-2.134-.5a.152.152,0,0,1-.118-.158,8.167,8.167,0,0,1,.235-1.3.15.15,0,0,1,.224-.09,16.152,16.152,0,0,1,2.164,1.468m-2.772-4.57a5.909,5.909,0,0,0-.265.764.151.151,0,0,1-.22.089c-.5-.29-.932-.542-.981-.588a3.094,3.094,0,0,1-.322-.362.936.936,0,0,1-.1-.219A.641.641,0,0,1,41.912,8a6.408,6.408,0,0,1,1.415.554.151.151,0,0,1,.077.193c-.075.184-.136.332-.182.428M46.05,7.986A.671.671,0,0,1,45.245,8l-.026-.011c.226-.444.448-.859.62-1.171l.054.053c.479.3.557.819.158,1.116M59.027,31.438c-.685.061-3.918.475-4.59.619a10.038,10.038,0,0,1-3.835.084,1.148,1.148,0,0,1-.9-1.1,2.313,2.313,0,0,1,.015-.512c.273-1.257.548-2.514.938-3.741a1.686,1.686,0,0,1,.427-.637,6.1,6.1,0,0,1,.991-.817,10.965,10.965,0,0,1,1.577-.867c.859-.39,1.731-.751,2.6-1.119a30.23,30.23,0,0,1,2.938-.944,5.579,5.579,0,0,1,2.291-.194c.085.009.565.084.65.1.395.062.367.424.385.835.008.171.034.342.031.513-.025,1.46.062,2.916.131,4.372a18.947,18.947,0,0,0,.239,2.44c-.322.068-.645.136-.971.186-.508.078-2.408.74-2.921.785" transform="translate(0 0)"/>
    <path id="Контур_3098" data-name="Контур 3098" d="M131.906,24.2a.98.98,0,0,0-.316-.528,5.634,5.634,0,0,0-1.92-.863.687.687,0,0,0-.761.576.2.2,0,0,0,.008.06.442.442,0,0,1,.012.056.492.492,0,0,0,.094.238,6.872,6.872,0,0,0,2,1.192.649.649,0,0,0,.24.046.672.672,0,0,0,.413-.147.6.6,0,0,0,.227-.631" transform="translate(-80.286 -14.201)"/>
    <path id="Контур_3099" data-name="Контур 3099" d="M131.447,40.669a2.863,2.863,0,0,0-1.189-.525.793.793,0,0,0-.1-.008.537.537,0,0,0-.507.341.194.194,0,0,0-.017.09c0,.019,0,.038,0,.058a.438.438,0,0,0,.049.276,2.44,2.44,0,0,0,.987.855.749.749,0,0,0,.342.081.924.924,0,0,0,.289-.049.582.582,0,0,0,.422-.5.648.648,0,0,0-.267-.617" transform="translate(-80.73 -24.998)"/>
    <path id="Контур_3100" data-name="Контур 3100" d="M94.82,72.38a.634.634,0,0,0-.1.008.586.586,0,0,0-.387.265.675.675,0,0,0-.1.527,9.708,9.708,0,0,0,.741,1.711.679.679,0,0,0,.542.258c.009,0,.055,0,.064,0a.541.541,0,0,0,.366-.227.716.716,0,0,0,.106-.553,8.78,8.78,0,0,0-.741-1.718.625.625,0,0,0-.5-.268" transform="translate(-58.681 -45.079)"/>
    <path id="Контур_3101" data-name="Контур 3101" d="M68.312,81.472a.559.559,0,0,0-.214.044.659.659,0,0,0-.394.547A5.861,5.861,0,0,0,68.22,83.8a.667.667,0,0,0,.588.329h.007a.165.165,0,0,0,.034,0,.631.631,0,0,0,.5-.418,3.4,3.4,0,0,0-.591-2.02.614.614,0,0,0-.446-.212" transform="translate(-42.164 -50.742)"/>
    <path id="Контур_3102" data-name="Контур 3102" d="M111.442,57.949a.558.558,0,0,0-.1-.008.6.6,0,0,0-.445.2.642.642,0,0,0-.157.5c.031.265.874,1.588,1.222,1.654a.684.684,0,0,0,.127.012.574.574,0,0,0,.516-.319c.056-.1.088-.285-.164-.8-.006-.012-.584-1.175-1-1.242" transform="translate(-68.97 -36.086)"/>
  </g>
</svg>
