<svg id="Сгруппировать_1856" data-name="Сгруппировать 1856" xmlns="http://www.w3.org/2000/svg" xmlns:xlink="http://www.w3.org/1999/xlink" width="64.454" height="25.351" viewBox="0 0 64.454 25.351">
  <defs>
    <clipPath id="clip-path">
      <rect id="Прямоугольник_1279" data-name="Прямоугольник 1279" width="64.454" height="25.351" fill="none"/>
    </clipPath>
  </defs>
  <g id="Сгруппировать_1824" data-name="Сгруппировать 1824" transform="translate(0 0)" clip-path="url(#clip-path)">
    <path id="Контур_3091" data-name="Контур 3091" d="M58.547,24.5l-.113-.107v.023h-.256v-.023a3.833,3.833,0,0,1-.774.265,20.641,20.641,0,0,1-3.3.174,9.421,9.421,0,0,0-1.544.071c-.888.109-1.769.266-2.654.4a2.149,2.149,0,0,1-.511.019,10.124,10.124,0,0,0-2.368.014,3.122,3.122,0,0,1-.824-.021,4.422,4.422,0,0,0-1.541-.024,1.273,1.273,0,0,1-.7-.1.857.857,0,0,1-.6-.773c-.018-.31-.033-.621-.063-.93a.531.531,0,0,0-.537-.521,1.4,1.4,0,0,0-.308-.012,12.881,12.881,0,0,0-2.239.379c-.594.179-1.2.306-1.791.5a16.44,16.44,0,0,1-2.645.466c-.852.128-1.7.266-2.557.376a41.879,41.879,0,0,1-4.5.634c-.409.008-.825.008-1.236-.019a19.444,19.444,0,0,1-2.675-.246,2.028,2.028,0,0,0-.617,0,23.2,23.2,0,0,1-7.7-.549,14.666,14.666,0,0,0-2.342-.348,14.64,14.64,0,0,1-3.642-.707A13.45,13.45,0,0,0,6.85,22.8a24.415,24.415,0,0,1-5.184-.917A2.693,2.693,0,0,1,.028,20.261a.861.861,0,0,1,.019-.5.328.328,0,0,1,.421-.189,4.957,4.957,0,0,1,.806.629,1.75,1.75,0,0,0,.975.528,30.847,30.847,0,0,0,5,.757,12.351,12.351,0,0,1,3.542.677,12.819,12.819,0,0,0,3.452.614,14.382,14.382,0,0,1,2.551.4,19.41,19.41,0,0,0,3.577.519,19.111,19.111,0,0,0,3.407-.025,5.032,5.032,0,0,1,1.335.042,19.447,19.447,0,0,0,2.987.261,25.025,25.025,0,0,0,2.974-.348c1.4-.2,2.795-.416,4.192-.617.887-.126,1.78-.22,2.664-.362a8.978,8.978,0,0,0,1.4-.344,12.307,12.307,0,0,1,3.871-.578.92.92,0,0,1,.959.625,2.622,2.622,0,0,1,.266,1.094,4.66,4.66,0,0,0,.037.505,1.765,1.765,0,0,0,1.025.22c1.17-.082,2.339-.045,3.51-.015a20.482,20.482,0,0,0,2.677-.219,20.089,20.089,0,0,1,2.683-.116c.789.021,1.58-.067,2.371-.111.409-.023.825-.071,1.239-.082.655-.013,1.31,0,1.966,0a6.2,6.2,0,0,0,.723-.031,1.557,1.557,0,0,0,1.241-.824,2.564,2.564,0,0,0,.363-1.884,12.574,12.574,0,0,0-.7-2.9c-.046-.093-.071-.2-.116-.287a.477.477,0,0,0-.505-.283c-1.392.246-2.8.365-4.182.694a34.122,34.122,0,0,1-5.932.832,10.785,10.785,0,0,0-1.843.246,28.408,28.408,0,0,1-4.1.591,12.539,12.539,0,0,0-2.421.527,29.2,29.2,0,0,1-2.99.811c-1.188.21-2.342.574-3.535.755a5.563,5.563,0,0,0-.994.279,10.567,10.567,0,0,1-2.71.638,2.182,2.182,0,0,1-.308.041,35.088,35.088,0,0,0-4.631.367c-.31.019-.621.032-.93.021a31.909,31.909,0,0,1-3.6-.279c-.883-.137-1.786-.142-2.679-.213-1.341-.107-2.677-.246-4-.484A13.608,13.608,0,0,0,13,21.994a5.166,5.166,0,0,1-1.638-.181c-1.065-.291-2.112-.627-3.17-.929-1.423-.41-2.813-.925-4.267-1.219L2.1,19.3a4.121,4.121,0,0,1-.5-.124.54.54,0,0,1-.4-.636A5.179,5.179,0,0,0,1.282,17a3.761,3.761,0,0,1,.983-2.75c.143-.149.246-.337.4-.478a1.711,1.711,0,0,1,.573-.426,11.256,11.256,0,0,1,1.7-.416A11.985,11.985,0,0,1,6.794,12.8a21.885,21.885,0,0,0,3.4-.269c.579-.086,1.162-.142,1.739-.235.607-.1,1.19-.283,1.818-.328a4.07,4.07,0,0,0,1.567-.491A30.99,30.99,0,0,1,18.474,10.2c.834-.328,1.652-.691,2.476-1.043a.972.972,0,0,0,.271-.151,11.82,11.82,0,0,1,2.421-1.373,2.435,2.435,0,0,0,1.18-.963.561.561,0,0,1,.526-.27,2.563,2.563,0,0,0,1.563-.929c.158-.141.173-.437.262-.659a.491.491,0,0,1,.6-.345.432.432,0,0,1,.052.017.962.962,0,0,0,.966-.149c.29-.187.605-.339.877-.548a8.615,8.615,0,0,1,1.875-1.082,1.159,1.159,0,0,0,.36-.2c.246-.241.419-.579.7-.737a5.267,5.267,0,0,1,.99-.217,3.752,3.752,0,0,0,.732-.377,1.125,1.125,0,0,0,.625-.894c.008-.089.1-.171.164-.286a2.943,2.943,0,0,0,1.317.042.723.723,0,0,1,.409.028,5.421,5.421,0,0,1,2.13,1,6.206,6.206,0,0,0,1.108.75c.768.461,1.508.971,2.256,1.465.461.3.931.595,1.368.929A6.617,6.617,0,0,0,46.86,5.4c.679.1,1.351.261,2.019.418a9.281,9.281,0,0,0,3.181.23c.342-.039.684-.094,1.028-.121a9.428,9.428,0,0,0,2.506-.591c1.392-.506,2.807-.947,4.212-1.415.2-.066.4-.121.588-.2A.972.972,0,0,0,61.1,2.92a.762.762,0,0,1,.053-.2.427.427,0,0,1,.558-.231.416.416,0,0,1,.045.022,1.061,1.061,0,0,1,.314.259,4.364,4.364,0,0,1,.692,1.263,17.041,17.041,0,0,1,.732,3.33,5.949,5.949,0,0,0,.082.616A.94.94,0,0,0,64,8.66a1.174,1.174,0,0,1,.3.283.5.5,0,0,1,.03.706.507.507,0,0,1-.12.1,1.174,1.174,0,0,0-.547,1.139c-.021.758-.06,1.517-.122,2.273-.048.582-.138,1.161-.218,1.74a3,3,0,0,0-.022,1.43.73.73,0,0,1-.265.835.819.819,0,0,0-.223,1.028,10.763,10.763,0,0,1,.439,2.751,3.031,3.031,0,0,1-1.374,3.042,2.861,2.861,0,0,1-2.539.5.984.984,0,0,0-.8.015ZM26.087,11.059a6.868,6.868,0,0,0,2.446.511c.516.036,1.039.015,1.547.1,1.332.214,2.683.148,4.018.3a18.053,18.053,0,0,0,2.994-.1,4.839,4.839,0,0,1,2.925.849,7.978,7.978,0,0,1,2.294,2.35,2.33,2.33,0,0,1,.327.751c.153.669.269,1.347.394,2.023.042.236.051.48.1.715a.328.328,0,0,0,.373.275h.007c.614-.082,1.229-.168,1.836-.277a.78.78,0,0,0,.6-.515q.245-.625.5-1.247c.259-.637.518-1.277.786-1.912a.964.964,0,0,1,.223-.343,13.691,13.691,0,0,1,1.587-1.311A12.26,12.26,0,0,1,53.514,11.4c.812-.139,1.6-.388,2.407-.586.635-.156,1.269-.314,1.907-.465.871-.206,1.745-.4,2.613-.614a6.2,6.2,0,0,0,1.712-.711.594.594,0,0,0,.3-.513,9.214,9.214,0,0,0-.574-3.446.483.483,0,0,0-.567-.338,6.178,6.178,0,0,0-1.589.437,11.055,11.055,0,0,1-1.056.409c-.486.172-.971.352-1.465.492-.862.246-1.673.636-2.56.8-.78.142-1.55.328-2.332.456a6.626,6.626,0,0,1-3.07-.169,11.1,11.1,0,0,0-2.119-.445A7.622,7.622,0,0,1,43.63,5.521c-.8-.532-1.646-1-2.409-1.6a1.28,1.28,0,0,0-.943-.347,6.271,6.271,0,0,0-.922.068,18.066,18.066,0,0,0-2.929,1.006,19.945,19.945,0,0,0-3.592,2.228,35.205,35.205,0,0,1-3.182,1.91c-.655.385-1.35.692-2,1.073a5.626,5.626,0,0,0-1.56,1.2Zm0,10.969a18.225,18.225,0,0,0,3.3-.2,11.5,11.5,0,0,1,2.062-.128,7.006,7.006,0,0,0,2.528-.418c.519-.181,1.055-.31,1.588-.448,1-.26,2-.507,3-.767a.434.434,0,0,0,.339-.512c0-.015-.007-.03-.011-.044a2.332,2.332,0,0,0-1.421-1.661c-1.16-.436-2.318-.878-3.478-1.315a5.8,5.8,0,0,0-2.943-.359,7.819,7.819,0,0,1-1.753.026c-.446-.034-.893-.026-1.341-.04a6.913,6.913,0,0,1-.826-.032,9.151,9.151,0,0,0-3.889.2c-.1.027-.2.055-.3.072a5.615,5.615,0,0,1-1.85,0c-.849-.134-1.7-.281-2.557-.351a9.4,9.4,0,0,1-4.656-1.522,2.631,2.631,0,0,1-.642-.509,1.072,1.072,0,0,0-1.192-.4c-1.111.25-2.251.261-3.373.433a9.857,9.857,0,0,1-1.129.049c-.723.027-1.446.05-2.168.082a4.954,4.954,0,0,0-1.7.39,1.576,1.576,0,0,0-.6.385,2.868,2.868,0,0,0-.737,2.089c.069.945.29,1.213,1.218,1.371a28.842,28.842,0,0,1,3.4.873c.923.277,1.833.593,2.75.889.131.042.266.071.4.1.436.1.878.178,1.311.3a5.725,5.725,0,0,0,1.941.217,5.507,5.507,0,0,1,1.031.017c.921.122,1.838.277,2.757.41.239.036.478.062.719.082,1.065.1,2.129.187,3.194.283.617.056,1.237.1,1.848.186a21.2,21.2,0,0,0,3.19.247Zm15.575-2.753c.054-.394.076-.667.131-.935a4.683,4.683,0,0,0-.3-2.432,2.252,2.252,0,0,0-.655-.917c-.276-.257-.534-.536-.819-.785a3.377,3.377,0,0,0-2.506-1.029c-.687.048-1.374.082-2.063.124a3.944,3.944,0,0,1-.617.013,26.819,26.819,0,0,0-2.889-.148c-.343,0-.686-.053-1.031-.076-.894-.059-1.788-.109-2.682-.173a5.984,5.984,0,0,1-1.021-.117c-.835-.208-1.66-.455-2.49-.682a1.3,1.3,0,0,1-.666-.46c-.463-.555-.939-1.1-1.419-1.638a.419.419,0,0,0-.579-.129.378.378,0,0,0-.061.047,8.713,8.713,0,0,1-2.874,1.375,45.882,45.882,0,0,0-4.3,1.729,1.734,1.734,0,0,0-.262.164.227.227,0,0,0-.017.321.256.256,0,0,0,.037.033,6.717,6.717,0,0,0,3.375,1.164,20.386,20.386,0,0,1,2.354.309,6.722,6.722,0,0,0,3.565-.12,4.8,4.8,0,0,1,2.556-.1,7.491,7.491,0,0,0,1.747.12,9.19,9.19,0,0,1,1.444.03,6.792,6.792,0,0,0,1.441.019c.376-.033.758-.021,1.137-.042a3.386,3.386,0,0,1,1.42.212c.9.347,1.793.711,2.688,1.065.351.139.7.3,1.055.41A3.828,3.828,0,0,1,39.9,18.873c.04.094.071.2.119.285a.64.64,0,0,0,.807.408l.037-.014c.264-.067.516-.177.8-.276Zm20.394-3.7a15.763,15.763,0,0,0,.469-4.537.684.684,0,0,0-.016-.1c-.046-.291-.213-.443-.491-.385-.5.107-1,.239-1.5.37a11.336,11.336,0,0,1-1.292.348,19.9,19.9,0,0,0-3.5.856,7.217,7.217,0,0,1-1.5.372,11.333,11.333,0,0,0-4.351,1.523,5.073,5.073,0,0,0-1.94,1.809,10.027,10.027,0,0,0-.705,2.147.3.3,0,0,0,.235.344.3.3,0,0,0,.051.005c.273-.019.545-.055.819-.093.612-.086,1.22-.2,1.835-.263.787-.082,1.583-.082,2.368-.179a23.8,23.8,0,0,0,3.561-.585,12.746,12.746,0,0,1,1.419-.254c.17-.027.344-.019.51-.058.8-.184,1.607-.372,2.406-.573a1.006,1.006,0,0,0,.543-.264,1.318,1.318,0,0,1,1.086-.48ZM29.237,5.5a9.2,9.2,0,0,1-.279.971.609.609,0,0,1-.772.343.69.69,0,0,1-.192-.077.611.611,0,0,0-.683.044c-.256.164-.5.351-.762.539q.109.31.188.629a.544.544,0,0,1-.463.614.558.558,0,0,1-.171,0,1.118,1.118,0,0,1-.381-.151.918.918,0,0,0-1.065.027,3.65,3.65,0,0,0-1,.733,2.559,2.559,0,0,0,.915,1.16L26.664,9c.262-.164.51-.357.783-.5,1-.534,2.022-1.047,3.031-1.58a11.278,11.278,0,0,0,1.341-.775c1.036-.749,2.1-1.444,3.194-2.1a8.126,8.126,0,0,1,2.626-1.179,1.5,1.5,0,0,0,.541-.278.283.283,0,0,0,.07-.269,1.52,1.52,0,0,0-.957-.732.255.255,0,0,0-.324.157l0,.011c-.03.1-.011.208-.042.305a.526.526,0,0,1-.612.425.5.5,0,0,1-.1-.027c-.194-.066-.371-.179-.56-.261a1.65,1.65,0,0,0-1.541.56.756.756,0,0,0-.052.3,2.929,2.929,0,0,1,.022.308.562.562,0,0,1-.552.514,1.19,1.19,0,0,1-.69-.175.591.591,0,0,0-.384-.074.818.818,0,0,0-.667.788c-.018.172-.025.345-.052.514a.47.47,0,0,1-.414.4.764.764,0,0,1-.6-.082c-.138-.093-.279-.182-.444-.289Z" transform="translate(0 0)" fill="#1c1c1c"/>
  </g>
</svg>
