<svg id="Сгруппировать_1853" data-name="Сгруппировать 1853" xmlns="http://www.w3.org/2000/svg" xmlns:xlink="http://www.w3.org/1999/xlink" width="60.165" height="27.663" viewBox="0 0 60.165 27.663">
  <defs>
    <clipPath id="clip-path">
      <rect id="Прямоугольник_1277" data-name="Прямоугольник 1277" width="60.165" height="27.663" fill="none"/>
    </clipPath>
  </defs>
  <g id="Сгруппировать_1820" data-name="Сгруппировать 1820" transform="translate(0 0)" clip-path="url(#clip-path)">
    <path id="Контур_3080" data-name="Контур 3080" d="M47.843,27.317c-1.012-.037-2.023-.072-3.035-.112a9.2,9.2,0,0,1-1.054-.066c-.829-.129-1.664-.163-2.5-.213-.44-.027-.881-.042-1.317-.1a22.71,22.71,0,0,0-2.9-.137c-1.365-.01-2.73,0-4.094-.037a9.076,9.076,0,0,0-1.836.137c-.306.054-.612.089-.917.123-.481.053-.964.1-1.446.144-.35.035-.7.091-1.051.093a17.883,17.883,0,0,0-2.236.184,7.25,7.25,0,0,1-.788.083c-1.276.035-2.552.054-3.828.089-.924.025-1.848.032-2.769.118a11.576,11.576,0,0,1-1.847.009c-2.769-.184-5.522-.514-8.263-.944a3.577,3.577,0,0,1-.516-.108,24.7,24.7,0,0,1-2.983-1.064q-1.018-.472-2.054-.9A5.746,5.746,0,0,1,.383,23.167,1.381,1.381,0,0,1,0,22.207a4.647,4.647,0,0,1,.028-.525.532.532,0,0,1,.211-.322.382.382,0,0,1,.537.06.444.444,0,0,1,.032.047,2.862,2.862,0,0,1,.162.5,1.879,1.879,0,0,0,.872,1.116,3.889,3.889,0,0,0,.348.19,29.422,29.422,0,0,0,5.772,2.25,8.907,8.907,0,0,0,1.164.229c.96.118,1.917.266,2.878.382,1.136.135,2.272.282,3.413.358,1.053.07,2.113.09,3.169.066,1.32-.03,2.638-.127,3.957-.2.306-.016.612-.052.922-.053a52.37,52.37,0,0,0,5.792-.433,36.311,36.311,0,0,1,5.536-.244c.44.018.88.011,1.32.007a46.7,46.7,0,0,1,5.541.164c1.223.133,2.458.18,3.68.359a9.225,9.225,0,0,0,1.185.069c1.541.022,3.082.032,4.623.05a13.657,13.657,0,0,0,1.713-.087c.7-.077,1.4-.133,2.1-.23.612-.082,1.219-.179,1.817-.32a5.691,5.691,0,0,0,1.462-.6.647.647,0,0,0,.323-.4,5.362,5.362,0,0,0,.157-2.348.429.429,0,0,0-.049-.121.512.512,0,0,0-.306-.236.85.85,0,0,0-.259-.041c-.484.011-.97,0-1.453.051-1.008.1-2.014.219-3.017.352a3.72,3.72,0,0,1-1.049.027,6.525,6.525,0,0,0-1.317-.034,15.113,15.113,0,0,1-1.715-.011c-.835-.054-1.669-.092-2.507-.077-.306.006-.616-.02-.924-.028-.265-.008-.528-.021-.792-.014a.88.88,0,0,0-.7.316,3.464,3.464,0,0,1-.263.294.549.549,0,0,1-.719.034c-.2-.167-.33-.434-.607-.486a5.639,5.639,0,0,0-.784-.077,6.06,6.06,0,0,0-1.316.083,11.817,11.817,0,0,1-1.974.148,9.233,9.233,0,0,0-1.577.125,12.233,12.233,0,0,1-1.312.141c-.746.046-1.5.05-2.242.109-.657.052-1.311.153-1.964.241-.436.061-.868.145-1.3.22a4.881,4.881,0,0,1-1.182.089,3.4,3.4,0,0,0-.528,0c-1.362.119-2.728.062-4.091.109-.22.008-.441.022-.66.012a48.2,48.2,0,0,0-5.674.135,6.923,6.923,0,0,1-1.447-.045,8.1,8.1,0,0,0-1.053-.065c-1.012-.01-2.026,0-3.037-.008-.441,0-.88-.024-1.321-.034a5.491,5.491,0,0,1-1.045-.133c-.9-.2-1.813-.342-2.731-.464a23.558,23.558,0,0,1-3.493-.7,8.576,8.576,0,0,1-1.828-.746c-.345-.2-.7-.371-1.032-.588A1.8,1.8,0,0,1,.668,19.7,1.494,1.494,0,0,1,1,18.336,14.389,14.389,0,0,0,1.982,17.1a2.33,2.33,0,0,1,.782-.7A23.3,23.3,0,0,1,5.5,15.089a5.614,5.614,0,0,1,1.911-.475c.9-.2,1.831-.25,2.746-.376a13.3,13.3,0,0,1,2.5-.152,1.521,1.521,0,0,0,.645-.1,8.466,8.466,0,0,0,1.759-.894,2.854,2.854,0,0,1,1.078-.474.645.645,0,0,0,.466-.427c.114-.286.219-.576.346-.857a.568.568,0,0,1,.382-.341c.612-.122,1.123-.5,1.734-.612a.773.773,0,0,0,.24-.107c1.025-.6,2.15-1.015,3.157-1.653a2.468,2.468,0,0,1,.476-.229,15.1,15.1,0,0,0,2.475-1.243c.306-.178.612-.347.925-.508.82-.428,1.647-.841,2.461-1.277.386-.209.756-.449,1.123-.693.586-.39,1.168-.788,1.74-1.2.536-.382,1.143-.664,1.656-1.086a2.186,2.186,0,0,1,.45-.274A7.193,7.193,0,0,0,35.845.5c.091-.1.186-.188.285-.275a.9.9,0,0,1,.6-.229,3.291,3.291,0,0,1,.525.04,1.01,1.01,0,0,1,.471.223,1.88,1.88,0,0,1,.509.6A8.756,8.756,0,0,1,39.3,4.1c.035.35.091.7.13,1.048a2.913,2.913,0,0,1-.122,1.431,3.039,3.039,0,0,0-.124.512.525.525,0,0,0,.173.475,1.581,1.581,0,0,0,.314.238c.449.278.918.525,1.39.757.79.387,1.581.772,2.334,1.234a4.72,4.72,0,0,0,2.263.643,2.23,2.23,0,0,0,.393-.032c.261-.031.522-.084.784-.1A9.254,9.254,0,0,0,50.814,9a3.848,3.848,0,0,0,.729-.564c.354-.33.688-.681,1.022-1.031a2.757,2.757,0,0,0,.316-.421,11.266,11.266,0,0,0,1.195-2.494c.111-.333.21-.673.333-1a5.673,5.673,0,0,0,.306-1.007,4.316,4.316,0,0,1,.22-.76A1.791,1.791,0,0,1,55.683.83a1.123,1.123,0,0,1,1.445.19,7.842,7.842,0,0,1,1.224,1.876,18.772,18.772,0,0,1,1.27,3.326A13.774,13.774,0,0,1,60.15,10c-.015.616.032,1.233-.042,1.847a10.782,10.782,0,0,0-.153,1.175c0,.392.1.784.124,1.179.042.612.077,1.231.082,1.848a8.541,8.541,0,0,1-.168,1.97c-.047.216-.083.433-.117.65a7.639,7.639,0,0,0-.16,1.174,8.363,8.363,0,0,0,.169,1.172,7.2,7.2,0,0,1,.034,2.105,7.628,7.628,0,0,0-.1,1.051,3.455,3.455,0,0,1-.927,2.134.728.728,0,0,1-.563.306,12.487,12.487,0,0,0-1.831.221,21.928,21.928,0,0,1-3.4.408,3.444,3.444,0,0,0-.657.061,8.312,8.312,0,0,1-1.973.1c-.878-.042-1.759-.066-2.638-.1ZM22.1,22.443V22.4c.394.01.791.016,1.185.031,1.055.04,2.11.076,3.167.015,1.142-.064,2.281-.17,3.427-.158a5.926,5.926,0,0,0,1.18-.125,28.251,28.251,0,0,1,3.662-.459c1.141-.066,2.279-.194,3.418-.289.877-.077,1.759-.13,2.633-.206a17.493,17.493,0,0,1,1.976-.094,5.61,5.61,0,0,0,.918-.062.831.831,0,0,0,.621-.446,4.974,4.974,0,0,0,.545-1.34,5.3,5.3,0,0,1,.487-1.359,2.158,2.158,0,0,0,.2-.9.815.815,0,0,0-.332-.688,1.189,1.189,0,0,0-.335-.2,13.609,13.609,0,0,1-2.468-1.253,10.075,10.075,0,0,0-1.65-.824c-.822-.312-1.6-.727-2.44-1a4.538,4.538,0,0,1-.938-.48c-1.091-.66-2.185-1.318-3.326-1.89a.7.7,0,0,0-.512-.049,11.044,11.044,0,0,0-1.47.584c-.646.279-1.29.564-1.942.829-.53.216-1.063.422-1.573.684a4,4,0,0,1-.612.247,18.8,18.8,0,0,0-3.373,1.495c-.422.235-.869.425-1.309.626-.72.329-1.446.646-2.166.973-.841.382-1.677.776-2.524,1.147-.4.177-.82.316-1.231.471-.453.171-.907.337-1.357.515a1.552,1.552,0,0,0-.77.694q-.268.459-.519.918c-.335.619-.67,1.237-1,1.86-.23.435-.014.765.507.788.133.007.264.015.4.015,1.056,0,2.112.015,3.167.09a11.272,11.272,0,0,0,1.187,0c1.062-.03,2.117-.076,3.172-.118M49.57,21.172c1.341-.005,2.354-.008,3.365-.014a5.909,5.909,0,0,0,.66-.025q1.577-.159,3.153-.331c.393-.043.786-.094,1.176-.16a.6.6,0,0,0,.472-.415,2.82,2.82,0,0,0,.131-.51c.127-.782.252-1.563.4-2.341a7.4,7.4,0,0,0,.04-2.629c-.094-.563-.259-.63-.672-.629a3.61,3.61,0,0,1-.786-.068c-.344-.076-.693-.13-1.036-.207a2.66,2.66,0,0,0-1.179-.007c-.859.192-1.721.375-2.569.6-.551.147-1.11.281-1.651.453a4.971,4.971,0,0,1-2.088.142,1.247,1.247,0,0,1-.607-.241,2.3,2.3,0,0,1-.31-.244,6.584,6.584,0,0,1-1.227-1.541c-.183-.35-.388-.688-.605-1.021a.689.689,0,0,0-.312-.229,2.216,2.216,0,0,0-.51-.123,11.759,11.759,0,0,1-1.168-.211,4.3,4.3,0,0,1-1.338-.541,7.966,7.966,0,0,0-.918-.515c-1.195-.565-2.364-1.178-3.531-1.8a19.367,19.367,0,0,0-3.27-1.4,1.183,1.183,0,0,0-.649-.055.2.2,0,0,0-.168.178,4.124,4.124,0,0,1-.011.65.678.678,0,0,1-.928.475,2.931,2.931,0,0,1-.34-.2c-.575-.323-1.1-.722-1.712-.994-.643-.283-.863-.11-1,.562-.046.215-.066.435-.09.654-.04.35-.063.7-.114,1.05a2.681,2.681,0,0,1-.148.5.5.5,0,0,1-.535.288.792.792,0,0,1-.459-.233c-.229-.265-.442-.548-.678-.807A2.456,2.456,0,0,0,27,8.47a.5.5,0,0,0-.459.2,1.968,1.968,0,0,0-.183.348,6.306,6.306,0,0,0-.318,1.548,6.428,6.428,0,0,1-.1.783.735.735,0,0,1-.906.511L25,11.849a3.8,3.8,0,0,1-.473-.229c-.263-.16-.514-.34-.776-.5a1.315,1.315,0,0,0-.623-.2.628.628,0,0,0-.476.185.523.523,0,0,0-.09.1,5.919,5.919,0,0,0-.888,2.731.36.36,0,0,0,.355.31,1.951,1.951,0,0,0,.258-.054c.372-.134.746-.266,1.112-.416a7.48,7.48,0,0,0,1.2-.542,7.745,7.745,0,0,1,1.422-.688c1.769-.674,3.531-1.364,5.264-2.126.282-.124.569-.236.857-.346a4.4,4.4,0,0,1,1.662-.386,2.533,2.533,0,0,0,.514-.11.911.911,0,0,1,.745.186c.423.316.829.657,1.266.952a19.511,19.511,0,0,0,4.12,2.065,20.914,20.914,0,0,1,2.983,1.4,10.618,10.618,0,0,0,1.783.857,2.145,2.145,0,0,1,1.426,1.736,2.577,2.577,0,0,1-.216,1.418,9.529,9.529,0,0,0-.71,1.845,3.289,3.289,0,0,0-.068.52.436.436,0,0,0,.306.382,3.311,3.311,0,0,0,.388.067c.44.03.878.054,1.318.077l1.909.094ZM58.925,9.989v-.82a8.539,8.539,0,0,0-.463-2.714c-.254-.793-.57-1.566-.863-2.346a7.307,7.307,0,0,0-.964-1.717,1.232,1.232,0,0,0-.2-.172.344.344,0,0,0-.452.125,1.22,1.22,0,0,0-.057.117c-.229.893-.569,1.752-.841,2.631a12.406,12.406,0,0,1-1.2,2.483,2.6,2.6,0,0,1-.316.42c-.351.393-.7.792-1.071,1.164a4.761,4.761,0,0,1-1.624,1.1c-.326.129-.639.288-.954.443a6.8,6.8,0,0,1-1.725.632,2.876,2.876,0,0,0-.374.123.431.431,0,0,0-.192.446,5.151,5.151,0,0,0,1.026,1.67,1.267,1.267,0,0,0,.941.412,2.551,2.551,0,0,0,.653-.054,15.516,15.516,0,0,0,1.652-.446c.873-.313,1.8-.406,2.676-.678a1.913,1.913,0,0,1,.261-.039,6.533,6.533,0,0,1,2.1.058c.306.048.6.119.907.158a.875.875,0,0,0,1.009-.717c0-.025.008-.051.01-.076.007-.044.02-.085.023-.13a9.094,9.094,0,0,0,.038-2.07M10.458,15.325a5.045,5.045,0,0,0-.522.041c-.607.109-1.219.167-1.83.235a7.623,7.623,0,0,0-2.666.7c-.47.239-.96.439-1.442.654a2.859,2.859,0,0,0-1.24.951,3.733,3.733,0,0,1-.466.464c-.124.123-.251.246-.369.375a.7.7,0,0,0-.1.743,1,1,0,0,0,.233.311,6.983,6.983,0,0,0,2.095,1.1,14.75,14.75,0,0,0,3.348.71.524.524,0,0,0,.44-.24c.1-.243.207-.486.288-.735a10.675,10.675,0,0,1,.994-2.151,25.6,25.6,0,0,1,1.5-2.173c.13-.175.241-.365.356-.551a.282.282,0,0,0-.149-.37.3.3,0,0,0-.067-.019Zm27.88-9.947c-.03-.4-.043-.53-.049-.662a7.831,7.831,0,0,0-.66-2.662,3.953,3.953,0,0,0-.32-.57.5.5,0,0,0-.678-.2.489.489,0,0,0-.11.082,6.04,6.04,0,0,0-.511.412A7.719,7.719,0,0,1,34.3,2.99c-.306.166-.6.358-.912.52a11.975,11.975,0,0,0-2.236,1.606.368.368,0,0,0,.055.643c.314.153.634.3.959.424a.879.879,0,0,0,.515.051c.342-.077.688-.133,1.026-.223a2.582,2.582,0,0,1,1.425.023c.756.219,1.515.427,2.273.64a.588.588,0,0,0,.583-.2A1.539,1.539,0,0,0,38.34,5.5c0-.131,0-.262,0-.124ZM11.365,22.354c.1,0,.14,0,.184,0A.567.567,0,0,0,12,22.13c.492-.778.962-1.569,1.387-2.386.121-.233.229-.473.341-.711a.327.327,0,0,0-.131-.443.332.332,0,0,0-.124-.038c-.131,0-.262-.014-.393-.01a17.952,17.952,0,0,1-2.227.11.554.554,0,0,0-.449.243,8.234,8.234,0,0,0-1.223,2.016,3.458,3.458,0,0,0-.133.507.477.477,0,0,0,.314.514c.467.116.935.235,1.4.339.21.042.431.058.6.081Zm5.429-6.507c.018.147.031.233.041.319a.448.448,0,0,0,.269.254.856.856,0,0,0,.513-.042c.933-.372,1.847-.787,2.745-1.236a.412.412,0,0,0,.169-.648c-.218-.272-.43-.55-.657-.814s-.459-.524-.71-.77a2.069,2.069,0,0,0-.771-.481.624.624,0,0,0-.7.226,4.075,4.075,0,0,0-.306.576,12.879,12.879,0,0,0-.6,2.613Zm-4.62,1.587a3,3,0,0,0,.392,0,15.745,15.745,0,0,1,2.093-.21,1.146,1.146,0,0,0,.612-.229.869.869,0,0,0,.432-.628q.109-.851.218-1.7a1.109,1.109,0,0,0,0-.131.235.235,0,0,0-.1-.229.325.325,0,0,0-.237-.051c-.443.19-.879.4-1.317.6a2.037,2.037,0,0,0-.229.129,9.538,9.538,0,0,0-1.853,1.473,1.143,1.143,0,0,0-.375.677.306.306,0,0,0,.114.215.763.763,0,0,0,.245.083ZM21.1,11.41c.037-.094.1-.255.159-.417a.283.283,0,0,0,.006-.128c-.013-.1-.071-.17-.159-.16a2.707,2.707,0,0,0-1.377.666.334.334,0,0,0-.025.36,2.136,2.136,0,0,0,.668.6.433.433,0,0,0,.121.04.229.229,0,0,0,.235-.067,2.079,2.079,0,0,0,.372-.9Zm8.166-4.24c-.015-.077-.025-.161-.049-.242a.435.435,0,0,0-.5-.292,1.442,1.442,0,0,0-.749.465.2.2,0,0,0-.009.24,1.246,1.246,0,0,0,.863.491.415.415,0,0,0,.326-.166.812.812,0,0,0,.116-.5ZM23.808,9.508c.005.043,0,.1.018.127a.936.936,0,0,0,.777.4.383.383,0,0,0,.306-.212,1.213,1.213,0,0,0,.145-.625.319.319,0,0,0-.322-.316.311.311,0,0,0-.131.03,1.93,1.93,0,0,0-.68.373.7.7,0,0,0-.115.217Z" transform="translate(-0.001 -0.001)" fill="#1c1c1c"/>
    <path id="Контур_3081" data-name="Контур 3081" d="M83.2,50.238c-.055.129-.077.281-.16.355a3.616,3.616,0,0,1-.646.442.571.571,0,0,1-.619-.066.505.505,0,0,1,.019-.938,2.986,2.986,0,0,1,.6-.267A.591.591,0,0,1,83,49.9a1.488,1.488,0,0,1,.2.338" transform="translate(-53.62 -32.732)" fill="#1c1c1c"/>
    <path id="Контур_3082" data-name="Контур 3082" d="M78.345,44.66a.514.514,0,0,1-.382-.39.447.447,0,0,1,.153-.458.914.914,0,0,1,.44-.245.442.442,0,0,1,.5.378.462.462,0,0,1,0,.062.73.73,0,0,1-.524.65.945.945,0,0,1-.189,0" transform="translate(-51.305 -28.672)" fill="#1c1c1c"/>
    <path id="Контур_3083" data-name="Контур 3083" d="M100.229,45.865a.633.633,0,0,1-.587-.306.442.442,0,0,1,.05-.473.79.79,0,0,1,.567-.251.51.51,0,0,1,.441.213.563.563,0,0,1,.034.6.352.352,0,0,1-.192.153,1.775,1.775,0,0,1-.312.063" transform="translate(-65.552 -29.509)" fill="#1c1c1c"/>
    <path id="Контур_3084" data-name="Контур 3084" d="M85.966,58.249a1.067,1.067,0,0,1-.286-.132.408.408,0,0,1,.077-.723.947.947,0,0,1,.625-.064.472.472,0,0,1,.33.352.4.4,0,0,1-.109.351.765.765,0,0,1-.636.216" transform="translate(-56.271 -37.716)" fill="#1c1c1c"/>
    <path id="Контур_3085" data-name="Контур 3085" d="M62.471,54.483a.569.569,0,0,1-.56-.459.316.316,0,0,1,.072-.235.575.575,0,0,1,.908.042.3.3,0,0,1,.056.119.535.535,0,0,1-.476.532" transform="translate(-40.748 -35.27)" fill="#1c1c1c"/>
    <path id="Контур_3086" data-name="Контур 3086" d="M94.876,39.177a.483.483,0,0,1-.339-.266.336.336,0,0,1,.006-.358.688.688,0,0,1,.79-.251.4.4,0,0,1,.232.511l0,.008a.649.649,0,0,1-.687.356" transform="translate(-62.191 -25.184)" fill="#1c1c1c"/>
    <path id="Контур_3087" data-name="Контур 3087" d="M111.838,54.7a.674.674,0,0,1,.106-.216.739.739,0,0,1,.589-.2.434.434,0,0,1,.342.336.56.56,0,0,1-.426.566.454.454,0,0,1-.612-.488Z" transform="translate(-73.607 -35.729)" fill="#1c1c1c"/>
    <path id="Контур_3088" data-name="Контур 3088" d="M65.743,60.789a.537.537,0,0,1-.44-.207.42.42,0,0,1,.23-.694.43.43,0,0,1,.245.019.593.593,0,0,1,.331.36.382.382,0,0,1-.217.5.373.373,0,0,1-.149.026" transform="translate(-42.91 -39.411)" fill="#1c1c1c"/>
    <path id="Контур_3089" data-name="Контур 3089" d="M106.992,50.99a.48.48,0,0,1-.477-.48.412.412,0,0,1,.39-.412.478.478,0,0,1,.471.35.444.444,0,0,1-.331.534.384.384,0,0,1-.053.009" transform="translate(-70.107 -32.974)" fill="#1c1c1c"/>
  </g>
</svg>
