<svg id="Сгруппировать_1858" data-name="Сгруппировать 1858" xmlns="http://www.w3.org/2000/svg" xmlns:xlink="http://www.w3.org/1999/xlink" width="65.281" height="23.177" viewBox="0 0 65.281 23.177">
  <defs>
    <clipPath id="clip-path">
      <rect id="Прямоугольник_1282" data-name="Прямоугольник 1282" width="65.281" height="23.177" fill="none"/>
    </clipPath>
  </defs>
  <g id="Сгруппировать_1830" data-name="Сгруппировать 1830" transform="translate(0 0)" clip-path="url(#clip-path)">
    <path id="Контур_3096" data-name="Контур 3096" d="M29.56,2.8a8.055,8.055,0,0,0,1.31-.961,5.38,5.38,0,0,1,1.043-.716,4.643,4.643,0,0,0,.707-.459,4.269,4.269,0,0,1,1.437-.65.664.664,0,0,1,.506.1.535.535,0,0,1,.166.126,13.861,13.861,0,0,1,1.321,1.784,1.615,1.615,0,0,1,.205.593A5.448,5.448,0,0,1,35.682,5.9c-.185.341-.363.685-.542,1.028-.033.062.1.229.175.228a1.468,1.468,0,0,0,.315-.011q.513-.127,1.019-.277a10.078,10.078,0,0,1,1.111-.339,16.458,16.458,0,0,0,2.546-.7c1.47-.506,2.995-.805,4.485-1.24a7.835,7.835,0,0,1,1.043-.179,22.4,22.4,0,0,0,2.282-.436c1.4-.363,2.843-.536,4.254-.849a42.444,42.444,0,0,0,4.225-.96c.3-.1.617-.145.922-.231a21.271,21.271,0,0,0,2.52-.795,2.094,2.094,0,0,1,.926-.182.856.856,0,0,1,.581.233c.227.221.452.445.664.683a1.34,1.34,0,0,1,.206.366c.121.293.234.59.342.888a1.779,1.779,0,0,0,.5.794.447.447,0,0,0,.285.108c.244-.017.485-.1.728-.1a1.018,1.018,0,0,1,.944.573.472.472,0,0,1-.171.644c-.285.136-.581.257-.863.4a.367.367,0,0,0-.192.351,1.158,1.158,0,0,0,.047.312c.07.236.155.469.231.7a6.918,6.918,0,0,1,.389,2.074c0,.561.112,1.123.154,1.685a13.309,13.309,0,0,1,.071,1.585,16.9,16.9,0,0,1-.174,2.847c-.1.48-.058.983-.194,1.466a1.062,1.062,0,0,0,.033.52,2.241,2.241,0,0,0,.228.59,2.75,2.75,0,0,1,.312,1.742,5.807,5.807,0,0,0-.013,1.368,6.941,6.941,0,0,1-.011,1.054c0,.1-.125.238-.195.217a.425.425,0,0,1-.152-.119c-.024-.023-.029-.065-.052-.09-.072-.083-.239-.066-.27.023a2.817,2.817,0,0,0-.124.4.456.456,0,0,1-.414.415c-.4.038-.716.32-1.091.375s-.773-.033-1.162-.016c-.528.024-1.053.119-1.581.128-.881.015-1.763-.022-2.645-.023-1.517,0-3.034,0-4.551,0-.07,0-.142.011-.211.005-1.446-.128-2.893.015-4.337-.04-.317-.011-.635.017-.952.026s-.634.018-.952.024a2.063,2.063,0,0,1-2.08-1.485,2.329,2.329,0,0,0-.166-.5.686.686,0,0,0-.314-.258,1.047,1.047,0,0,0-.415-.061c-.67.01-1.342.01-2.01.054a8.739,8.739,0,0,0-1.576.2,7.311,7.311,0,0,1-.941.139c-1.161.131-2.322.209-3.471.4-.9.149-1.816.227-2.717.394a34.018,34.018,0,0,1-3.783.437,35.778,35.778,0,0,0-4.1.492,7.832,7.832,0,0,1-1.47.161c-.916,0-1.834-.006-2.751-.03a8.466,8.466,0,0,1-.941-.117,3.21,3.21,0,0,0-.415-.075,26.908,26.908,0,0,1-3.032-.449,1.232,1.232,0,0,1-.208-.039c-1.525-.45-3.1-.643-4.645-1.006-.206-.048-.41-.1-.613-.161l-2.646-.747c-.171-.049-.344-.083-.509-.146-1.189-.445-2.4-.848-3.557-1.358a15.151,15.151,0,0,1-3.069-1.65,2.489,2.489,0,0,1-.926-1.378.356.356,0,0,1,.585-.376c.025.023.062.037.083.066a4.043,4.043,0,0,0,1.842,1.367c.415.194.825.4,1.237.6a3.828,3.828,0,0,0,.576.264c.746.214,1.461.522,2.184.8,1.022.4,2.1.613,3.141.936a26.3,26.3,0,0,0,3.29.79c.8.139,1.59.332,2.372.542a24.71,24.71,0,0,0,2.806.519c.244.036.5.037.734.1a9.546,9.546,0,0,0,2,.2c.776.026,1.552.036,2.328.019a7.3,7.3,0,0,0,1.259-.141,16.725,16.725,0,0,1,3.145-.391c.349,0,.7-.11,1.047-.125,1.308-.056,2.594-.294,3.888-.457.455-.057.906-.137,1.359-.206.837-.125,1.674-.258,2.512-.368,1.154-.152,2.308-.317,3.466-.419a22.591,22.591,0,0,1,4.015-.083,1.41,1.41,0,0,1,1.244.978,8.013,8.013,0,0,1,.249.809.649.649,0,0,0,.627.48,3.781,3.781,0,0,0,.739,0,24.689,24.689,0,0,1,3.594-.065c.7.012,1.41.083,2.113.1a10.3,10.3,0,0,0,1.374-.04,11.141,11.141,0,0,1,1.9-.023c1.2.071,2.4.136,3.593.118,1.091-.017,2.181-.151,3.271-.228a4.866,4.866,0,0,0,1.484-.509,3.469,3.469,0,0,0,.293-1.659,3.638,3.638,0,0,0-.288-1.437,1.78,1.78,0,0,0-.152-.279.806.806,0,0,0-.793-.423c-.633.052-1.265.113-1.9.156-.458.03-.916.028-1.374.053a10.9,10.9,0,0,0-1.262.1,8.589,8.589,0,0,1-1.582.1c-1.587-.021-3.174-.013-4.759.093-1.268.083-2.537.075-3.806.083a27.976,27.976,0,0,0-3.9.227,5.765,5.765,0,0,1-1.479.058,3.769,3.769,0,0,0-1.053.052q-1.3.221-2.609.432a4,4,0,0,1-.732.1,14.15,14.15,0,0,0-2.316.216,26.8,26.8,0,0,0-3.336.566c-.646.178-1.3.307-1.949.489a33.972,33.972,0,0,1-3.835.765,1.018,1.018,0,0,1-.209.02c-.986-.044-1.976.037-2.96-.1-.7-.1-1.4-.159-2.1-.207-.458-.03-.917,0-1.375-.009a15.389,15.389,0,0,1-2.426-.158,9.533,9.533,0,0,0-1.479-.092,7.679,7.679,0,0,1-1.877-.285,11.4,11.4,0,0,0-1.755-.378,4.98,4.98,0,0,1-.819-.208c-.645-.181-1.3-.342-1.93-.554-.6-.2-1.179-.466-1.777-.682-.7-.249-1.41-.466-2.1-.722-.829-.305-1.653-.615-2.46-.967a11.378,11.378,0,0,1-1.387-.766,3,3,0,0,1-.653-.534,1.486,1.486,0,0,1-.338-1.751,8.218,8.218,0,0,1,.46-.829c.151-.237.351-.444.5-.685A2.922,2.922,0,0,1,3.9,10.88a1.589,1.589,0,0,1,.193-.089A1.714,1.714,0,0,0,5.1,10.067.354.354,0,0,1,5.576,10a3.019,3.019,0,0,0,2.33.414,3.146,3.146,0,0,1,.628-.083,10.844,10.844,0,0,0,2.3-.294c.867-.159,1.742-.28,2.613-.4a8.443,8.443,0,0,0,1.646-.378c.5-.176,1.01-.314,1.511-.484a14.88,14.88,0,0,1,2.366-.561,9.475,9.475,0,0,0,.929-.2c.647-.174,1.29-.359,1.934-.544a3.872,3.872,0,0,0,.5-.173,4.994,4.994,0,0,0,.755-.37c.266-.177.194-.512.271-.776a.717.717,0,0,1,.535-.591.994.994,0,0,0,.548-.3,1.9,1.9,0,0,1,.153-.145A10.307,10.307,0,0,1,25.7,4.142c.383-.255.747-.526,1.106-.813.027-.022.058-.039.083-.06a2.548,2.548,0,0,1,2.488-.45.95.95,0,0,0,.18-.019m-.712,9.433a3.637,3.637,0,0,0-1.447.178,1.558,1.558,0,0,1-.937-.014,2.969,2.969,0,0,1-.4-.134,1.018,1.018,0,0,0-.82,0c-.6.211-1.216.353-1.83.516a24.99,24.99,0,0,1-3.862.6c-.84.088-1.674.249-2.524.253a2.847,2.847,0,0,0-.312.052c-.35.042-.7.089-1.049.119-.387.033-.777.033-1.162.083a5.787,5.787,0,0,1-1.161.007,6.993,6.993,0,0,0-1.689-.017,1.718,1.718,0,0,1-.423-.006,15.606,15.606,0,0,0-2.115-.039,7.689,7.689,0,0,1-.847-.017,5.014,5.014,0,0,1-1.73-.459,1.742,1.742,0,0,1-.906-.852c-.074-.16-.153-.318-.238-.474a.437.437,0,0,0-.544-.193,1.8,1.8,0,0,0-.981.592c-.274.323-.539.654-.79,1a5.954,5.954,0,0,0-.376.638.581.581,0,0,0,.083.6.919.919,0,0,0,.143.156,8,8,0,0,0,1.908,1.129c.53.192,1.05.4,1.6.548a17.763,17.763,0,0,1,2.112.682c1.05.423,2.123.77,3.206,1.089a24.542,24.542,0,0,0,4.449.925c1.161.118,2.322.2,3.483.3.249.02.5.042.741.038,1.272-.016,2.537.127,3.8.2a21.7,21.7,0,0,0,2.644,0,14.693,14.693,0,0,0,3.016-.538c.575-.166,1.161-.279,1.742-.432a20.877,20.877,0,0,1,3.425-.647,1.424,1.424,0,0,0,.314-.048,5.407,5.407,0,0,1,1.462-.21,22.307,22.307,0,0,0,3.256-.387,13.165,13.165,0,0,1,2.633-.2,4.52,4.52,0,0,0,.95-.027,21.369,21.369,0,0,1,2.737-.264c.492-.042.987-.04,1.48-.049.881-.014,1.762-.022,2.644-.032.952-.009,1.908-.042,2.857-.019.747.018,1.483.012,2.223-.037,1.619-.11,3.234-.235,4.863-.194a4.424,4.424,0,0,0,.635-.017c.279-.033.556-.09.829-.144a.581.581,0,0,0,.531-.562,1.8,1.8,0,0,1,.144-.5.345.345,0,0,1,.332-.218c.1.013.208.032.311.055a.308.308,0,0,0,.331-.2,2.238,2.238,0,0,0,.1-.407,16.835,16.835,0,0,0,.181-3.06c-.083-.95-.108-1.908-.212-2.85a9.409,9.409,0,0,0-.527-2.157c-.191-.529-.377-.64-.961-.595a5.88,5.88,0,0,0-1.134.249c-.44.123-.885.231-1.327.346-.238.061-.48.111-.715.188q-1.96.643-3.917,1.3a3.758,3.758,0,0,1-.5.179c-1.216.219-2.359.733-3.591.894a2.213,2.213,0,0,0-.608.18,11.555,11.555,0,0,1-1.817.569,14.746,14.746,0,0,0-1.41.436,16.9,16.9,0,0,1-2.654.723,17.848,17.848,0,0,0-2.247.589c-.835.282-1.659.6-2.515.817-1.233.315-2.437.714-3.65,1.1a20.774,20.774,0,0,1-2.019.623,19.487,19.487,0,0,1-2.105.227c-.281.027-.562.042-.845.052a2.09,2.09,0,0,1-.422-.018,1.2,1.2,0,0,1-.883-.52c-.223-.359-.438-.724-.652-1.089-.106-.188-.2-.376-.326-.6Zm3,1.016v-.014h.423a5.139,5.139,0,0,0,2.063-.393c.355-.152.733-.256,1.1-.374,1.612-.514,3.22-1.038,4.837-1.533,1.043-.32,2.074-.674,3.145-.912C44,9.892,44.6,9.783,45.16,9.6c1.106-.361,2.226-.668,3.33-1.032,1.041-.342,2.1-.586,3.16-.858a27.222,27.222,0,0,0,3.245-.943,22.248,22.248,0,0,1,2.5-.862c1.3-.341,2.557-.8,3.865-1.093a4,4,0,0,0,.684-.27.407.407,0,0,0,.182-.358,8.25,8.25,0,0,0-.664-1.889.363.363,0,0,0-.263-.151.943.943,0,0,0-.414.046c-1.425.528-2.9.875-4.36,1.292a12.128,12.128,0,0,1-1.857.4c-.628.078-1.249.223-1.869.357-.551.118-1.093.28-1.645.389-1.383.274-2.767.548-4.158.779a15.161,15.161,0,0,0-2.053.48c-.4.126-.823.186-1.234.287a16.274,16.274,0,0,0-1.727.485,19.533,19.533,0,0,1-2.436.7,17.864,17.864,0,0,0-1.727.487,8.312,8.312,0,0,1-1.421.4,20.659,20.659,0,0,0-3.069.8,2.018,2.018,0,0,0-.481.211.372.372,0,0,0-.2.349,1.314,1.314,0,0,0,.053.31.9.9,0,0,1-.386,1.013,2.223,2.223,0,0,1-.557.3c-.193.083-.4.135-.6.207s-.4.14-.593.221a.429.429,0,0,0-.249.52,4.664,4.664,0,0,0,.2.71.524.524,0,0,0,.481.357c.316.013.634.005.955.005Zm-19.38-.611a29.809,29.809,0,0,0,3.692-.176q1.683-.151,3.363-.313a14.7,14.7,0,0,0,1.576-.18c.963-.2,1.917-.452,2.873-.688a1.471,1.471,0,0,0,.287-.131.415.415,0,0,0,.194-.541,9.591,9.591,0,0,1-.829-2.049c-.011-.033-.03-.064-.043-.1a.375.375,0,0,0-.414-.249c-.239.058-.476.123-.713.189-1.05.293-2.086.638-3.164.829a13.825,13.825,0,0,0-2.544.694,19.5,19.5,0,0,1-3.59.852c-.727.13-1.457.249-2.186.36a17.494,17.494,0,0,1-3.038.323,7.858,7.858,0,0,0-.947.065.356.356,0,0,0-.32.237.421.421,0,0,0,.178.457,1.761,1.761,0,0,0,.28.147,3.214,3.214,0,0,0,1.136.212c.633-.01,1.266-.026,1.9-.017.763.016,1.539.05,2.311.074M24.547,7.5c.011.089.015.159.028.228a11.917,11.917,0,0,0,.849,2.488.542.542,0,0,0,.4.311,1.011,1.011,0,0,1,.763.655c.1.249.233.284.512.237.208-.035.415-.072.624-.116a1.054,1.054,0,0,0,.9-.642c.01-.032.043-.054.067-.083a.415.415,0,0,1,.38-.136,1.438,1.438,0,0,1,.4.125.69.69,0,0,0,.609.019c.323-.142.645-.278.962-.429a.456.456,0,0,0,.2-.456,3.21,3.21,0,0,0-.479-1.051,15.832,15.832,0,0,1-1.377-2.488c-.225-.518-.415-1.047-.6-1.576-.069-.2-.148-.392-.235-.581a.337.337,0,0,0-.456-.123q-.467.343-.924.7c-.264.207-.316.361-.192.637a12.631,12.631,0,0,0,1.312,2.523,4.289,4.289,0,0,1,.276.449.415.415,0,0,1-.016.489.491.491,0,0,1-.487.128,1.161,1.161,0,0,1-.466-.219,2.466,2.466,0,0,1-.457-.575c-.372-.638-.723-1.29-1.084-1.934-.051-.091-.115-.175-.174-.261a.249.249,0,0,0-.292-.026,6.363,6.363,0,0,0-.627.559,1.812,1.812,0,0,0-.42,1.15ZM35.018,2.952A1.575,1.575,0,0,0,34.376,1.5a.415.415,0,0,0-.4-.072,5.621,5.621,0,0,0-.944.465c-.866.6-1.715,1.23-2.566,1.852a1.421,1.421,0,0,0-.305.287.449.449,0,0,0-.09.289,2.686,2.686,0,0,0,.134.618,16.886,16.886,0,0,0,1.132,2.5,3.418,3.418,0,0,0,.308.427.513.513,0,0,0,.726.021.522.522,0,0,0,.085-.1,2.143,2.143,0,0,1,.624-.824,6.515,6.515,0,0,0,1.663-2.535,5.685,5.685,0,0,0,.275-1.467Z" transform="translate(0 0)" fill="#1c1c1c"/>
  </g>
</svg>
