<svg id="Сгруппировать_1857" data-name="Сгруппировать 1857" xmlns="http://www.w3.org/2000/svg" xmlns:xlink="http://www.w3.org/1999/xlink" width="63.993" height="29.771" viewBox="0 0 63.993 29.771">
  <defs>
    <clipPath id="clip-path">
      <rect id="Прямоугольник_1281" data-name="Прямоугольник 1281" width="63.993" height="29.771" fill="none"/>
    </clipPath>
  </defs>
  <g id="Сгруппировать_1828" data-name="Сгруппировать 1828" transform="translate(0 0)" clip-path="url(#clip-path)">
    <path id="Контур_3093" data-name="Контур 3093" d="M15.728,14.111c0-.322,0-.638.009-.956a.369.369,0,0,1,.233-.332c.293-.133.591-.255.892-.368a2.257,2.257,0,0,0,1.175-.893.726.726,0,0,1,.712-.383,2.307,2.307,0,0,0,1.236-.3c.384-.191.78-.359,1.171-.538a3.4,3.4,0,0,0,.484-.235,24.543,24.543,0,0,1,3.34-1.706,1.515,1.515,0,0,0,.9-.852.564.564,0,0,1,.709-.34A1.809,1.809,0,0,0,28.2,6.825c.317-.231.656-.44.955-.694a7.583,7.583,0,0,1,2.338-1.29c.945-.347,1.809-.861,2.74-1.228C35.27,2.968,36.428,2.573,37.5,1.99a8.877,8.877,0,0,1,2.109-.781,1.836,1.836,0,0,1,1.525.3,1.637,1.637,0,0,1,.4.358,5.462,5.462,0,0,1,.942,1.8.936.936,0,0,1-.113.824c-.139.208-.242.437-.364.657a.344.344,0,0,0,.059.392,6.387,6.387,0,0,0,1.421.95,1.127,1.127,0,0,1,.593.6.941.941,0,0,0,.574.456,3.42,3.42,0,0,0,.617.177A20.206,20.206,0,0,0,47.707,8c.465,0,.93.029,1.4.039a5.718,5.718,0,0,0,2.1-.4,1.7,1.7,0,0,0,.958-.823c.592-1.148,1.406-2.156,2.026-3.287a9.065,9.065,0,0,0,.6-1.257c.1-.269.232-.527.3-.8A2.573,2.573,0,0,1,55.971.28a.936.936,0,0,1,.378-.2A1.754,1.754,0,0,1,57.8.257a.63.63,0,0,1,.34.518,11.767,11.767,0,0,1-.081,3,8.424,8.424,0,0,0-.09,1.39c-.04.608-.073,1.216-.143,1.82a2.363,2.363,0,0,0,.118,1.056q.223.661.431,1.328c.127.411.41.747.524,1.172a1.431,1.431,0,0,0,.433.6,7.852,7.852,0,0,1,1.048,1.218c.161.232.315.475.466.718a1.955,1.955,0,0,1,.283,1.011,7.207,7.207,0,0,0,.2,1.7,5.567,5.567,0,0,1,.058,1.711c0,.177-.048.355-.067.533a1.391,1.391,0,0,0,.322,1.1c.231.272.476.533.732.78.232.224.491.418.731.632a2.542,2.542,0,0,1,.887,1.888c0,.072.006.143,0,.215-.021.571-.057,1.144-.061,1.716,0,.535.026,1.072.052,1.607a1.2,1.2,0,0,1-.564,1.091,1.635,1.635,0,0,1-.365.223,11.47,11.47,0,0,1-2.654.821c-.673.068-1.345.186-2.015.275a13.647,13.647,0,0,0-1.894.366,11.135,11.135,0,0,1-2.649.381,11.144,11.144,0,0,0-2.456.21,17.29,17.29,0,0,1-4.071-.051,28.7,28.7,0,0,0-3.738-.346,8.751,8.751,0,0,1-1.389-.113,5.359,5.359,0,0,0-.967-.051c-.609-.009-1.217-.009-1.826-.011a2.834,2.834,0,0,0-.428.009c-.925.138-1.854.112-2.787.161a29.659,29.659,0,0,0-3.3.356,2.635,2.635,0,0,1-.322.052c-1.179.051-2.347.277-3.532.247a4.023,4.023,0,0,0-1.276.136,1.927,1.927,0,0,1-.53.038c-.571,0-1.144.014-1.715-.006-.463-.016-.924-.094-1.388-.106-.428-.012-.861.07-1.285.036a21.25,21.25,0,0,0-3.965.013,2.016,2.016,0,0,1-.849-.091c-.51-.161-1.021-.326-1.532-.49-.375-.119-.75-.241-1.128-.358a5.807,5.807,0,0,1-.917-.3A26.977,26.977,0,0,0,11.1,27.293c-.168-.061-.34-.114-.5-.188-.911-.417-1.811-.858-2.729-1.257C6.457,25.233,5.1,24.5,3.637,24a7.062,7.062,0,0,1-2.073-1.113,1.353,1.353,0,0,1-.484-.564.355.355,0,0,1,.148-.37.723.723,0,0,1,.31-.063,2.312,2.312,0,0,1,.619.157,28.628,28.628,0,0,0,2.712,1.016,18.591,18.591,0,0,1,1.974.841c1.129.536,2.249,1.106,3.377,1.652a6.9,6.9,0,0,0,.7.263c.977.347,1.951.7,2.931,1.037.645.22,1.29.43,1.944.616a5.064,5.064,0,0,1,1.005.367,3.074,3.074,0,0,0,1.97.361,3.933,3.933,0,0,1,.645-.031c1,.012,2,.03,3.006.043q1.662.022,3.321.086a6.853,6.853,0,0,0,1.5-.062,6.433,6.433,0,0,1,.967-.061,9.334,9.334,0,0,0,1.817-.144,1.172,1.172,0,0,1,.213-.025c1.435-.031,2.847-.3,4.272-.422a44.6,44.6,0,0,1,7.721-.135c.784.066,1.573.067,2.36.1a20.137,20.137,0,0,1,2.66.329,5.77,5.77,0,0,0,.851.095,23.793,23.793,0,0,0,3-.127c.926-.1,1.854-.155,2.784-.226a7.306,7.306,0,0,0,1.587-.246A18.548,18.548,0,0,1,57.9,26.93c.705-.115,1.422-.161,2.132-.254a5.169,5.169,0,0,0,.837-.172c.484-.144.95-.314,1.424-.48a.557.557,0,0,0,.38-.478,4.1,4.1,0,0,0,.058-.853,9.015,9.015,0,0,1,.064-2.036,1.169,1.169,0,0,0-.474-1.229,12.367,12.367,0,0,1-1.531-1.344.565.565,0,0,0-.389-.144,16.056,16.056,0,0,0-1.6.184c-1.091.195-2.176.4-3.284.525-.355.04-.711.081-1.068.086a1.042,1.042,0,0,0-1.059.579,2.632,2.632,0,0,1-.18.268,3.108,3.108,0,0,1-1.568,1.251,9.824,9.824,0,0,1-3.117.749,15.02,15.02,0,0,0-2.653.382q-1.414.317-2.844.558c-.635.106-1.279.151-1.92.214-.855.085-1.706.188-2.557.3a30.77,30.77,0,0,1-3.531.241,15.894,15.894,0,0,0-2.675.161,3.9,3.9,0,0,1-1.284.012c-.424-.063-.854-.092-1.278-.161a6.163,6.163,0,0,0-2.136.055,10.872,10.872,0,0,1-2.022.231c-.5,0-1,.11-1.5.138-1.251.068-2.5.052-3.754.076s-2.5-.051-3.753-.113a18.976,18.976,0,0,1-3.094-.328c-.419-.091-.847-.135-1.272-.2a13.033,13.033,0,0,1-2.37-.673c-.911-.322-1.828-.63-2.756-.9a7.012,7.012,0,0,1-1.96-.852c-.27-.177-.543-.348-.825-.5A5.051,5.051,0,0,0,2.759,21.6a3.95,3.95,0,0,1-1.474-.623,4.877,4.877,0,0,1-.58-.473,1.982,1.982,0,0,1-.7-1.513c0-.357-.011-.715,0-1.072A3.709,3.709,0,0,1,.525,16.3a1.3,1.3,0,0,1,.608-.589,12.1,12.1,0,0,1,1.281-.549,2.487,2.487,0,0,1,.847-.081,5.674,5.674,0,0,1,.848.13,3.576,3.576,0,0,0,1.278,0c1.024-.169,2.056-.264,3.092-.335a12.34,12.34,0,0,0,3.158-.564c.779-.266,1.572-.488,2.358-.734a2,2,0,0,1,1.37.044.471.471,0,0,1,.358.475c.6.119,1.194.233,1.786.368A6.268,6.268,0,0,0,21.6,14.1a5.376,5.376,0,0,1,.9-.331,5.734,5.734,0,0,0,1.007-.361,21.313,21.313,0,0,1,2.611-.978,5.636,5.636,0,0,0,1.076-.475,19.6,19.6,0,0,1,3.224-1.446,23.584,23.584,0,0,0,2.968-1.238,6.984,6.984,0,0,1,1.411-.51,2.489,2.489,0,0,1,1.371.006c.549.161,1.1.308,1.656.459a1.215,1.215,0,0,0,1.313-.194c.394-.247.78-.506,1.173-.754s.794-.484,1.185-.738a2.449,2.449,0,0,0,.322-.279.3.3,0,0,0-.036-.388,5.68,5.68,0,0,0-2.076-.832.736.736,0,0,0-.605.155c-.086.065-.161.137-.248.205s-.161.141-.251.2a.861.861,0,0,1-.5.143,2.206,2.206,0,0,1-1.424-.31,17,17,0,0,0-1.669-.967.393.393,0,0,0-.552.073.389.389,0,0,0-.063.123c-.047.1-.087.2-.135.293a2.208,2.208,0,0,0-.228,1.854.518.518,0,0,1-.008.21c-.007.1-.224.266-.322.242a1,1,0,0,1-.3-.1.558.558,0,0,0-.606-.023.635.635,0,0,1-.707-.052,2.8,2.8,0,0,0-.845-.456.539.539,0,0,0-.593.119c-.217.237-.42.487-.619.741a.531.531,0,0,0-.085.5A1.436,1.436,0,0,1,30,9.412a.392.392,0,0,1-.431.348.4.4,0,0,1-.125-.035,1.789,1.789,0,0,1-.352-.242c-.161-.144-.3-.308-.449-.464a.737.737,0,0,0-.881-.19c-.458.2-.917.4-1.356.645a1.312,1.312,0,0,0-.708.9,5.208,5.208,0,0,1-.147.515.322.322,0,0,1-.355.173,1.159,1.159,0,0,1-.386-.161,2.125,2.125,0,0,1-.279-.322.442.442,0,0,0-.575-.12,1.11,1.11,0,0,0-.524.359,2.52,2.52,0,0,0-.731,1.736.473.473,0,0,1-.029.1.42.42,0,0,1-.516.261.827.827,0,0,1-.557-.47c-.219-.582-.5-.513-.925-.365a7.37,7.37,0,0,0-1.564.7.685.685,0,0,0-.293.429c-.106.388-.117.379-.489.379a3.974,3.974,0,0,0-.853.04c-.579.144-1.161.325-1.747.485m-1.043.739c-.645.161-1.309.3-1.958.5a22.432,22.432,0,0,1-3.673.752c-.992.13-2,.17-2.989.285a5.314,5.314,0,0,1-1.918-.031,2.362,2.362,0,0,0-.323-.033,2.378,2.378,0,0,0-1.621.44.878.878,0,0,0-.294.3,4.107,4.107,0,0,0-.455,2.283.651.651,0,0,0,.346.514,5.205,5.205,0,0,0,1.209.442,5.232,5.232,0,0,1,1.2.45c.469.26.95.5,1.417.761a8.083,8.083,0,0,0,1.481.618c.577.189,1.157.375,1.722.6a19.621,19.621,0,0,0,4.429,1.226,40.693,40.693,0,0,0,4.8.417,22.988,22.988,0,0,1,2.678.04,1.892,1.892,0,0,0,.322-.012c.5-.018,1-.028,1.5-.054q1.5-.081,3-.176a7.493,7.493,0,0,0,.743-.111.746.746,0,0,0,.459-.254,3.081,3.081,0,0,1,.213-.242.645.645,0,0,1,.592-.175,1.167,1.167,0,0,1,.309.081,1.016,1.016,0,0,0,1.02-.081c.186-.107.377-.2.556-.322a.5.5,0,0,0,.192-.679.483.483,0,0,0-.041-.063,4.253,4.253,0,0,0-.263-.339A11.083,11.083,0,0,0,27.9,20.708c-.393-.309-.794-.614-1.156-.957-.571-.54-1.116-1.108-1.666-1.67q-1.164-1.189-2.317-2.388a.708.708,0,0,0-.784-.188,11.5,11.5,0,0,1-1.665.394,7.049,7.049,0,0,1-2.235-.005c-.606-.09-1.174-.317-1.769-.431a4.127,4.127,0,0,1-1.2-.436c-.125-.063-.264-.109-.42-.175ZM35.8,10.019a3.248,3.248,0,0,0-1.635.471,14.452,14.452,0,0,1-3.173,1.285,4.843,4.843,0,0,0-.695.284c-.452.216-.9.447-1.347.665a8.938,8.938,0,0,1-1.462.668c-.975.265-1.848.772-2.8,1.091a3.117,3.117,0,0,0-.636.384.242.242,0,0,0-.036.3c.155.2.3.4.472.581.363.4.758.764,1.1,1.175a13.019,13.019,0,0,0,2.172,2.069,23.784,23.784,0,0,1,2.548,2.134,2.974,2.974,0,0,0,.323.283.644.644,0,0,0,.7.09,11.4,11.4,0,0,1,2.015-.741c1.214-.308,2.426-.618,3.659-.845.564-.1,1.128-.207,1.679-.36A32.978,32.978,0,0,1,44.162,18.5a24.741,24.741,0,0,0,2.851-.5c.383-.085.753-.226,1.128-.346a.506.506,0,0,0,.361-.366,6.74,6.74,0,0,1,.72-1.785,4.194,4.194,0,0,0,.426-1.653.384.384,0,0,0-.223-.337,6.638,6.638,0,0,0-.83-.206c-.355-.05-.7-.12-1.048-.2-.8-.19-1.606-.367-2.418-.5a9.885,9.885,0,0,1-1.46-.332c-1.329-.424-2.686-.75-4.03-1.111a.953.953,0,0,0-.726.055,3.9,3.9,0,0,1-.389.182.715.715,0,0,1-.86-.242c-.119-.175-.194-.38-.3-.564-.054-.089-.126-.2-.215-.23A3.562,3.562,0,0,0,35.8,10.02Zm18.62,9.339c.138-.01.389-.014.638-.048q1.7-.242,3.4-.5c.247-.037.491-.091.736-.141a.253.253,0,0,0,.161-.248c-.036-.211-.081-.422-.116-.633a.411.411,0,0,1,.352-.551c.1-.027.213-.028.316-.055a.323.323,0,0,0,.27-.3,5.932,5.932,0,0,0,0-1.067c-.114-.812-.279-1.616-.411-2.426a1.1,1.1,0,0,0-.253-.581,9.942,9.942,0,0,0-.819-.848,1.874,1.874,0,0,0-1.7-.446,7.208,7.208,0,0,0-.824.237c-.674.232-1.381.365-2.039.653-.555.241-1.121.464-1.68.7-.264.111-.521.237-.784.349a.724.724,0,0,0-.41.469,8.205,8.205,0,0,0-.211.83,5.063,5.063,0,0,1-.676,1.8,2.4,2.4,0,0,0-.261.586.878.878,0,0,0,.2.9,1.81,1.81,0,0,0,.328.272c.384.263.791.494,1.153.783.3.242.571.413.944.144a.39.39,0,0,1,.306.007,3.517,3.517,0,0,0,1.379.115Zm-21.6,4.711v.026c.357-.026.714-.033,1.067-.084a8.407,8.407,0,0,1,1.177-.081,28.032,28.032,0,0,0,3.747-.253,17.051,17.051,0,0,1,2.669-.253,1.942,1.942,0,0,0,.323-.033,32.952,32.952,0,0,0,3.58-.71,16.483,16.483,0,0,1,3.175-.5,5.734,5.734,0,0,0,1.977-.431c.227-.1.472-.167.7-.263a2.348,2.348,0,0,0,.374-.207.413.413,0,0,0,.169-.558.406.406,0,0,0-.062-.086,2.986,2.986,0,0,0-.384-.37q-.56-.417-1.136-.806c-.237-.161-.484-.31-.732-.446a.509.509,0,0,0-.31-.052,5.235,5.235,0,0,0-.726.173,19.252,19.252,0,0,1-3.982.82c-.639.064-1.275.183-1.908.3-1.3.227-2.592.527-3.882.82-1.43.322-2.88.564-4.284,1-.1.031-.212.036-.315.064-.449.122-.9.25-1.346.37a1.478,1.478,0,0,0-.625.4,1.055,1.055,0,0,0-.183,1c.13.2.382.156.594.157.108,0,.216,0,.324,0ZM56.911,2.17a1.422,1.422,0,0,0-.071-.267.178.178,0,0,0-.328-.013,4.676,4.676,0,0,0-.273.7A5.726,5.726,0,0,1,55.4,4.432a4.949,4.949,0,0,0-.261.468,9.263,9.263,0,0,1-.92,1.446,4.057,4.057,0,0,0-.5.823,3.632,3.632,0,0,1-2.44,1.939,7.211,7.211,0,0,1-2.123.264,22.322,22.322,0,0,1-3.2-.328,17.1,17.1,0,0,1-2.6-.635.645.645,0,0,0-.609.085q-.887.6-1.773,1.209c-.028.018-.04.058-.066.081a.207.207,0,0,0,.043.279,26.161,26.161,0,0,0,3.589,1.086c.726.179,1.47.3,2.207.448.422.081.843.171,1.268.227a14.042,14.042,0,0,1,2,.369,1.264,1.264,0,0,0,.842-.031c.564-.225,1.136-.429,1.693-.668a19.681,19.681,0,0,1,4.485-1.418.315.315,0,0,0,.233-.38.32.32,0,0,0-.011-.036c-.2-.612-.388-1.228-.61-1.832a1.943,1.943,0,0,1-.123-1.451,1.1,1.1,0,0,0,.05-.317c.117-1.25.223-2.5.343-3.889ZM37.287,5.515a1.726,1.726,0,0,0,.284-.161,3.007,3.007,0,0,1,2.244-.824,1.4,1.4,0,0,0,.8-.268.775.775,0,0,0,.322-.841,3.394,3.394,0,0,0-.285-.571.661.661,0,0,0-.743-.293,2.51,2.51,0,0,0-.307.093,29.519,29.519,0,0,0-3.527,1.788.3.3,0,0,0-.062.38,1.3,1.3,0,0,0,.3.3,2.792,2.792,0,0,0,.981.4ZM32.7,6.656a.915.915,0,0,0-.07-.3A.349.349,0,0,0,32.39,6.2a.528.528,0,0,0-.457.218.353.353,0,0,0-.037.287.563.563,0,0,0,.467.373.337.337,0,0,0,.26-.12.809.809,0,0,0,.083-.3Z" transform="translate(0 0)" fill="#1c1c1c"/>
    <path id="Контур_3094" data-name="Контур 3094" d="M96.175,35.739a.65.65,0,0,1,.322.048,4.379,4.379,0,0,1,.645.322c.843.536,1.693,1.07,2.517,1.63.725.492,1.433,1.017,2.146,1.532a2.965,2.965,0,0,1,.278.234.436.436,0,0,1,.027.58,2.852,2.852,0,0,1-.383.383.335.335,0,0,1-.25.07,1.8,1.8,0,0,1-.9-.4,17.064,17.064,0,0,0-1.826-1.348c-.873-.6-1.731-1.227-2.593-1.843a2.914,2.914,0,0,1-.358-.279.466.466,0,0,1-.1-.507.565.565,0,0,1,.471-.42" transform="translate(-61.199 -22.86)" fill="#1c1c1c"/>
    <path id="Контур_3095" data-name="Контур 3095" d="M86.2,43.216a.627.627,0,0,1-.173-.048,10.055,10.055,0,0,1-.978-.655c-.323-.267-.658-.529-.967-.815a14.008,14.008,0,0,0-1.371-1.048,11.915,11.915,0,0,1-1.331-1.094.526.526,0,0,1-.1-.661.881.881,0,0,1,.05-.076.542.542,0,0,1,.7-.242,3.011,3.011,0,0,1,.539.33,12.5,12.5,0,0,0,1.4,1,5.321,5.321,0,0,1,.716.557,10.107,10.107,0,0,0,1.51,1.159,1.8,1.8,0,0,1,.691.7.364.364,0,0,1-.046.421,6.243,6.243,0,0,1-.477.411.512.512,0,0,1-.173.053" transform="translate(-51.95 -24.648)" fill="#1c1c1c"/>
  </g>
</svg>
